<svg width="69" height="69" viewBox="0 0 69 69" fill="none" xmlns="http://www.w3.org/2000/svg">
<rect width="69" height="69" rx="20" fill="#8B6F45"/>
<path d="M33.6372 22.1799C34.8833 22.5106 35.9833 23.2133 37.0063 24.095L37.0591 24.1409L37.0347 24.2063C36.5834 25.3904 36.1323 26.5751 35.6812 27.759L35.6304 27.8918L35.522 27.7991C34.5119 26.9284 33.4391 26.2453 32.2329 25.925L32.1255 25.8967L32.1646 25.7932C32.6156 24.6094 33.0669 23.4254 33.5181 22.2415L33.5503 22.1565L33.6372 22.1799Z" fill="white" stroke="white" stroke-width="0.2"/>
<path d="M39.9248 27.1001C40.8723 28.1607 41.8147 29.2153 42.8252 30.0864L42.8789 30.1323L42.8535 30.1978C42.4023 31.3816 41.9512 32.5654 41.5 33.7495L41.4492 33.8833L41.3408 33.7896C40.3189 32.9086 39.3683 31.8441 38.4229 30.7856L38.3818 30.7397L38.4033 30.6831C38.8544 29.4991 39.3059 28.3152 39.7568 27.1313L39.8154 26.9771L39.9248 27.1001Z" fill="white" stroke="white" stroke-width="0.2"/>
<path d="M41.4717 33.6379C42.4817 34.5084 43.5546 35.1917 44.7607 35.512L44.8682 35.5403L44.8291 35.6438C44.378 36.8279 43.9267 38.0126 43.4756 39.1965L43.4434 39.2805L43.3564 39.2571C42.1101 38.9264 41.0102 38.2237 39.9873 37.342L39.9346 37.2961L39.959 37.2307C40.1846 36.6387 40.4101 36.0464 40.6357 35.4543C40.8613 34.8625 41.087 34.2708 41.3125 33.679L41.3633 33.5452L41.4717 33.6379Z" fill="white" stroke="white" stroke-width="0.2"/>
<path d="M35.6533 27.6465C36.6757 28.5276 37.6266 29.5928 38.5723 30.6514L38.6123 30.6963L38.5908 30.7539C38.1398 31.9378 37.6885 33.1217 37.2373 34.3057L37.1787 34.46L37.0693 34.3369C36.1219 33.2762 35.1796 32.2216 34.1689 31.3506L34.1162 31.3047L34.1406 31.2393C34.5917 30.0553 35.0429 28.8716 35.4941 27.6875L35.5449 27.5537L35.6533 27.6465Z" fill="white" stroke="white" stroke-width="0.2"/>
<path d="M30.6328 18.5469C32.9483 17.5831 34.8314 17.7768 36.4766 18.5957C38.1144 19.411 39.5112 20.8442 40.8652 22.3428C42.2241 23.8467 43.5399 25.4161 45.0264 26.5361C46.5083 27.6527 48.1506 28.3151 50.1602 28.0107C50.639 27.9383 51.1167 28.133 51.4326 28.4551C51.7493 28.7781 51.9141 29.2421 51.7373 29.7061C50.1397 33.8986 48.5419 38.0916 46.9443 42.2842C46.8419 42.5527 46.6294 42.7784 46.3623 42.8896C44.0505 43.8522 42.1697 43.661 40.5264 42.8457C38.8902 42.0338 37.4948 40.6051 36.1426 39.1094C34.7854 37.6081 33.472 36.0397 31.9893 34.917C30.511 33.7977 28.8738 33.1293 26.8721 33.4209C26.5792 33.4637 26.3326 33.6758 26.2246 33.959L18.8232 53.3818C18.6643 53.7988 18.2102 54.0222 17.7832 53.8926C17.3125 53.7496 17.061 53.2384 17.2363 52.7783C18.9672 48.2361 28.0448 24.4129 30.0547 19.1387C30.1578 18.8684 30.3673 18.6574 30.6328 18.5469ZM35.7783 19.1084C35.3668 18.9353 34.9038 19.1675 34.7383 19.6016C34.5009 20.2245 34.2637 20.8478 34.0264 21.4707C33.8249 21.9995 33.2618 22.2714 32.7168 22.2109C31.8576 22.1156 30.9264 22.2033 29.9004 22.5322C29.6589 22.6097 29.4693 22.8 29.377 23.042C29.2424 23.395 29.1072 23.7486 28.9727 24.1016C28.8358 24.4612 28.9465 24.8321 29.1992 25.1123C29.4527 25.3934 29.8409 25.5726 30.2363 25.5439C30.557 25.5206 30.8694 25.521 31.1729 25.5439C31.8449 25.595 32.1861 26.2986 31.9561 26.9023C31.6494 27.7071 31.3427 28.5118 31.0361 29.3164C32.0211 29.5963 32.9152 30.1055 33.752 30.752C34.1226 31.0383 34.2416 31.5353 34.0771 31.9668C33.7925 32.7138 33.5082 33.4611 33.2236 34.208C33.0891 34.5613 33.1907 34.9625 33.4697 35.2246C33.9099 35.6381 34.3384 36.0806 34.7607 36.5361C35.2212 37.0328 36.0414 36.8809 36.2812 36.252C36.3423 36.0918 36.4038 35.9316 36.4648 35.7715C36.7588 34.9999 37.7607 34.8194 38.3193 35.4219C38.7399 35.8755 39.165 36.3144 39.6006 36.7236C39.9352 37.038 40.0615 37.5236 39.8965 37.957C39.6119 38.704 39.3276 39.4513 39.043 40.1982C38.9076 40.5536 39.008 40.9551 39.3037 41.1836C39.9105 41.6523 40.543 42.0461 41.2158 42.3291C41.6273 42.5022 42.0904 42.2691 42.2559 41.835C42.4932 41.212 42.7304 40.5888 42.9678 39.9658C43.1693 39.4371 43.7325 39.1661 44.2773 39.2266C45.1365 39.3219 46.0678 39.2343 47.0938 38.9053C47.3353 38.8278 47.5249 38.6366 47.6172 38.3945C47.7516 38.0417 47.8861 37.6888 48.0205 37.3359C48.1575 36.9762 48.0478 36.6046 47.7949 36.3242C47.5413 36.0431 47.1524 35.8648 46.7568 35.8936C46.4363 35.9169 46.1246 35.9155 45.8213 35.8926C45.1491 35.8416 44.807 35.138 45.0371 34.5342C45.3437 33.7295 45.6503 32.9248 45.957 32.1201C44.9724 31.84 44.0787 31.3309 43.2422 30.6846C42.8716 30.3983 42.7517 29.9021 42.916 29.4707C43.2007 28.7236 43.4858 27.9766 43.7705 27.2295C43.9051 26.8762 43.8033 26.4751 43.5244 26.2129C43.0843 25.7995 42.6556 25.3568 42.2334 24.9014C41.7729 24.4046 40.9517 24.5564 40.7119 25.1855C40.6509 25.3456 40.5903 25.5059 40.5293 25.666C40.2353 26.4374 39.2335 26.6177 38.6748 26.0156C38.2544 25.5621 37.8291 25.123 37.3936 24.7139C37.059 24.3996 36.9327 23.9138 37.0977 23.4805C37.3823 22.7334 37.6664 21.9854 37.9512 21.2383C38.0865 20.883 37.9861 20.4823 37.6904 20.2539C37.0836 19.7852 36.4511 19.3915 35.7783 19.1084ZM30.7705 29.4502C29.7044 29.1883 28.5286 29.2086 27.1934 29.6367C26.9518 29.7142 26.7612 29.9044 26.6689 30.1465C26.5345 30.4993 26.4001 30.8523 26.2656 31.2051C26.1285 31.5649 26.2393 31.9364 26.4922 32.2168C26.7458 32.498 27.1347 32.6772 27.5303 32.6484C27.926 32.6197 28.3081 32.627 28.6777 32.668C29.1502 32.7204 29.6153 32.4843 29.7783 32.0566C30.1093 31.188 30.4396 30.3188 30.7705 29.4502ZM48.3154 28.7686C47.8431 28.7164 47.3788 28.9532 47.2158 29.3809C46.885 30.2491 46.5535 31.117 46.2227 31.9854C47.2891 32.2475 48.465 32.2291 49.8008 31.8008C50.0422 31.7234 50.2319 31.5328 50.3242 31.291C50.4587 30.9381 50.5931 30.5843 50.7275 30.2314C50.8645 29.8717 50.7548 29.5001 50.502 29.2197C50.2483 28.9386 49.8594 28.7603 49.4639 28.7891C49.0679 28.8178 48.6853 28.8096 48.3154 28.7686Z" fill="white" stroke="white" stroke-width="0.2"/>
</svg>
