<svg width="69" height="69" viewBox="0 0 69 69" fill="none" xmlns="http://www.w3.org/2000/svg">
<rect width="69" height="69" rx="20" fill="#8B6F45"/>
<path d="M20.53 39.6438C20.2028 39.8016 20.0585 40.199 20.2043 40.5385L21.6985 43.8369C21.7719 44.0011 21.9059 44.129 22.0706 44.1921C22.1427 44.219 22.2193 44.2329 22.2962 44.2329C22.3925 44.2338 22.4876 44.2126 22.5751 44.1718L33.8649 38.7495L32.8423 49.7435C32.8225 49.9599 32.9036 50.1726 33.0611 50.3172C33.556 50.7385 34.1729 50.9784 34.8147 51C34.9916 50.9998 35.1676 50.9769 35.3391 50.932C36.2557 50.6861 36.9663 49.8463 37.4511 48.4121L41.8939 34.8847L50.693 30.6643C53.283 29.4217 54.6178 26.9019 53.7214 24.9352C53.2127 23.9073 52.2384 23.208 51.1247 23.0709C49.8873 22.8789 48.6227 23.079 47.4988 23.6449L37.3446 28.5408L26.4271 24.15C25.0522 23.6175 23.9633 23.6312 23.1996 24.1981C22.5589 24.7387 22.1943 25.5513 22.2099 26.4035C22.2166 26.6197 22.3224 26.8196 22.4955 26.9432L29.8469 32.1396L25.6368 34.1882L18.5771 32.3443C18.2879 32.2711 17.9867 32.4052 17.8401 32.6721L16.0805 35.9291C15.9892 36.1017 15.9748 36.3066 16.0412 36.4909C16.1071 36.6755 16.2473 36.8215 16.4259 36.8921L21.6524 39.1116L20.53 39.6438ZM23.5711 26.0622C23.6102 25.7735 23.7522 25.5107 23.9697 25.3246C24.3485 25.0445 25.0391 25.0855 25.9621 25.4405L35.6846 29.3397L31.2482 31.4703L23.5711 26.0622ZM17.5945 35.9225L18.75 33.8125L25.5436 35.5468C25.6901 35.5848 25.8446 35.5705 25.9823 35.5062L48.0635 24.9012C48.9413 24.456 49.93 24.2939 50.8991 24.4367C51.5787 24.5011 52.1841 24.9044 52.5196 25.5156C53.0769 26.745 51.9814 28.5408 50.1284 29.4285L42.4781 33.1162L42.9431 31.7023C43.0606 31.3385 42.8686 30.9455 42.5149 30.8249C42.1607 30.7043 41.7787 30.9017 41.6614 31.2654L36.1958 47.9884C35.8703 48.9379 35.4652 49.5048 35.0137 49.6273C34.734 49.6827 34.4445 49.6263 34.2034 49.4706L35.5317 35.1302C35.5665 34.7532 35.2976 34.4185 34.9305 34.3828C34.5638 34.3467 34.2384 34.6236 34.2034 35.0006L33.9978 37.1925L22.6015 42.6554L21.6657 40.6068L23.538 39.7056C23.779 39.5963 23.9344 39.3513 23.9344 39.0808C23.9344 38.81 23.779 38.565 23.538 38.4559L17.5945 35.9225Z" fill="white"/>
</svg>
