<svg width="69" height="69" viewBox="0 0 69 69" fill="none" xmlns="http://www.w3.org/2000/svg">
<rect width="69" height="69" rx="20" fill="#8B6F45"/>
<path d="M46.585 31.5383C46.9705 31.5383 47.283 31.8511 47.2832 32.2366V38.7483C47.283 39.1339 46.9705 39.4465 46.585 39.4465H44.0654C43.6801 39.4463 43.3674 39.1337 43.3672 38.7483C43.3672 38.3627 43.68 38.0503 44.0654 38.05H45.8867V32.2366C45.8869 31.8511 46.1996 31.5385 46.585 31.5383Z" fill="white" stroke="white" stroke-width="0.3"/>
<path d="M44.3779 31.3967C44.7633 31.397 45.076 31.7097 45.0762 32.095C45.0763 32.4806 44.7634 32.793 44.3779 32.7932H42.084C41.6986 32.793 41.3857 32.4805 41.3857 32.095C41.386 31.7096 41.6986 31.397 42.084 31.3967H44.3779Z" fill="white" stroke="white" stroke-width="0.3"/>
<path d="M42.084 37.7659C42.4695 37.7659 42.782 38.0786 42.7822 38.4641V42.5872C42.7822 42.9728 42.4696 43.2854 42.084 43.2854C41.6986 43.2852 41.3858 42.9727 41.3857 42.5872V38.4641C41.386 38.0787 41.6986 37.7661 42.084 37.7659Z" fill="white" stroke="white" stroke-width="0.3"/>
<path d="M39.1123 39.9058C39.4978 39.9059 39.8103 40.2186 39.8105 40.604C39.8105 40.9897 39.4979 41.3022 39.1123 41.3022H32.7139C32.3284 41.302 32.0156 40.9896 32.0156 40.604C32.0158 40.2187 32.3285 39.906 32.7139 39.9058H39.1123Z" fill="white" stroke="white" stroke-width="0.3"/>
<path d="M33.1387 44.0334C33.5242 44.0334 33.8367 44.3462 33.8369 44.7317V45.636H42.085C42.4705 45.6361 42.7832 45.9486 42.7832 46.3342V47.5959C42.7832 47.9816 42.4704 48.294 42.085 48.2942C41.6994 48.2942 41.3868 47.9817 41.3867 47.5959V47.0325H33.1387C32.7533 47.0322 32.4404 46.7198 32.4404 46.3342V44.7317C32.4406 44.3464 32.7533 44.0337 33.1387 44.0334Z" fill="white" stroke="white" stroke-width="0.3"/>
<path d="M51.2539 43.1226C51.6394 43.1226 51.9519 43.4353 51.9521 43.8208C51.9521 44.2064 51.6396 44.519 51.2539 44.519H29.6484C29.263 44.5188 28.9502 44.2063 28.9502 43.8208C28.9504 43.4355 29.2631 43.1228 29.6484 43.1226H51.2539Z" fill="white" stroke="white" stroke-width="0.3"/>
<path d="M29.8975 21.8496C30.0943 21.8497 30.2819 21.9335 30.4141 22.0791L35.7109 27.9092H48.8623C50.5665 27.9093 51.9521 29.2958 51.9521 31V32.0957C51.9519 32.4812 51.6394 32.7939 51.2539 32.7939C50.8686 32.7937 50.5559 32.481 50.5557 32.0957V31C50.5557 30.0661 49.7963 29.3058 48.8623 29.3057H35.4014C35.2046 29.3057 35.017 29.2226 34.8848 29.0771L29.5879 23.2461H21.9404C21.0065 23.2461 20.2461 24.0064 20.2461 24.9404V45.2041C20.2462 46.138 21.0066 46.8975 21.9404 46.8975H30.3008C30.6864 46.8975 30.9988 47.2102 30.999 47.5957C30.999 47.9814 30.6865 48.2939 30.3008 48.2939H21.9404C20.2362 48.2939 18.8497 46.9082 18.8496 45.2041V24.9404C18.8496 23.2362 20.2361 21.8496 21.9404 21.8496H29.8975Z" fill="white" stroke="white" stroke-width="0.3"/>
<path d="M35.4009 27.9087C35.7865 27.9087 36.0999 28.2215 36.1001 28.6069C36.1001 28.9926 35.7865 29.3052 35.4009 29.3052H28.7427C28.3572 29.305 28.0444 28.9925 28.0444 28.6069C28.0446 28.2216 28.3573 27.9089 28.7427 27.9087H35.4009Z" fill="white" stroke="white" stroke-width="0.3"/>
<path d="M51.2539 36.6169C51.6394 36.6169 51.9519 36.9297 51.9521 37.3152C51.9521 37.7008 51.6396 38.0134 51.2539 38.0134H46.585C46.1995 38.0132 45.8867 37.7007 45.8867 37.3152C45.887 36.9299 46.1996 36.6172 46.585 36.6169H51.2539Z" fill="white" stroke="white" stroke-width="0.3"/>
<path d="M51.2539 33.7322C51.6394 33.7322 51.9519 34.0449 51.9521 34.4304C51.9521 34.8161 51.6396 35.1287 51.2539 35.1287H46.585C46.1995 35.1285 45.8867 34.8159 45.8867 34.4304C45.887 34.0451 46.1996 33.7324 46.585 33.7322H51.2539Z" fill="white" stroke="white" stroke-width="0.3"/>
<path d="M36.8804 31.8496C38.6871 31.8497 40.1567 33.3202 40.1567 35.127C40.1566 36.9337 38.687 38.4032 36.8804 38.4033C35.0736 38.4033 33.6031 36.9337 33.603 35.127C33.603 33.3202 35.0735 31.8496 36.8804 31.8496ZM36.8804 33.2461C35.8438 33.2461 34.9995 34.0904 34.9995 35.127C34.9996 36.1635 35.8438 37.0068 36.8804 37.0068C37.9167 37.0067 38.7601 36.1634 38.7603 35.127C38.7603 34.0905 37.9168 33.2462 36.8804 33.2461Z" fill="white" stroke="white" stroke-width="0.3"/>
<path d="M36.8799 37.0063C37.2654 37.0063 37.5779 37.3191 37.5781 37.7046V40.604C37.5781 40.9897 37.2655 41.3022 36.8799 41.3022C36.4943 41.302 36.1816 40.9896 36.1816 40.604V37.7046C36.1818 37.3193 36.4945 37.0066 36.8799 37.0063Z" fill="white" stroke="white" stroke-width="0.3"/>
</svg>
