<svg width="69" height="69" viewBox="0 0 69 69" fill="none" xmlns="http://www.w3.org/2000/svg">
<rect width="69" height="69" rx="20" fill="#8B6F45"/>
<path d="M46.4733 46.9482C46.2722 46.7723 45.9666 46.7928 45.7906 46.9939L43.7958 49.2753C43.5846 49.5171 43.2913 49.6563 42.9702 49.6671C42.6481 49.6786 42.347 49.559 42.1198 49.3321L40.5825 47.7954V46.7792C40.5825 46.5119 40.3659 46.2953 40.0986 46.2953C39.8314 46.2953 39.6148 46.5119 39.6148 46.7792V47.9933V47.9983V50.5162C39.6148 50.7834 39.8314 51 40.0986 51C40.3659 51 40.5825 50.7834 40.5825 50.5162V49.1636L41.4358 50.0166C41.8318 50.4122 42.3736 50.6354 42.932 50.6354C43.5388 50.6354 44.1253 50.3692 44.5244 49.9121L46.5191 47.6309C46.695 47.4297 46.6745 47.124 46.4733 46.9482ZM26.3795 46.2953C26.1122 46.2953 25.8956 46.5119 25.8956 46.7792V50.5162C25.8956 50.7834 26.1122 51 26.3795 51C26.6467 51 26.8633 50.7834 26.8633 50.5162V46.7792C26.8633 46.5119 26.6467 46.2953 26.3795 46.2953ZM53.1751 25.6407L49.932 23.0057C49.7077 22.8235 49.4064 22.7874 49.1454 22.9117C48.8844 23.0358 48.7223 23.2925 48.7223 23.5815V29.8005C48.7223 29.8014 48.7225 29.8022 48.7225 29.8031V37.6507L43.8509 43.2068L42.3076 40.3254C41.571 38.9492 40.2114 37.9765 38.6705 37.7235C38.035 37.6192 36.5519 37.3767 36.0174 37.2888C35.6179 37.223 35.3279 36.8818 35.3279 36.4772V35.9055C35.7049 35.6677 36.0589 35.3876 36.3817 35.0645C37.516 33.9295 38.1407 32.4211 38.1407 30.817V30.6067H38.3271C39.2844 30.6111 40.0986 29.797 40.0986 28.8352C40.0986 28.3249 39.8745 27.8506 39.511 27.5211C39.7923 27.1199 39.872 26.5927 39.712 26.1299C39.5738 25.7303 39.273 25.4028 38.8867 25.2313C38.8359 25.2088 38.7846 25.1871 38.7335 25.165V21.6822C38.7335 19.6354 37.0683 17.9702 35.0215 17.9702H29.2484C27.2017 17.9702 25.5364 19.6354 25.5364 21.6822V25.165C25.4855 25.1871 25.4344 25.2088 25.3836 25.2313C24.9972 25.4028 24.6964 25.7303 24.5582 26.1299C24.3961 26.5988 24.4757 27.1179 24.7583 27.5217C24.3952 27.851 24.1714 28.3249 24.1714 28.8352C24.1714 29.7944 24.9762 30.6122 25.9435 30.6067H26.1299V30.817C26.1299 32.9566 27.2542 34.8382 28.9427 35.9027V36.5759C28.9427 36.9476 28.6904 37.2696 28.3295 37.359L24.3117 38.3498C22.3618 38.8308 21 40.5692 21 42.5774V50.5162C21 50.7834 21.2166 51 21.4838 51C21.7511 51 21.9677 50.7834 21.9677 50.5162V42.5774C21.9677 41.0155 23.0268 39.6634 24.5433 39.2894L27.6555 38.5219C28.6177 40.0649 30.301 41.0087 32.1351 41.0087C34.0382 41.0087 35.7561 40.0108 36.7008 38.3813L38.5138 38.6784C39.7596 38.883 40.8589 39.6694 41.4545 40.7821L43.0161 43.6976C43.1614 43.9696 43.4313 44.153 43.7378 44.1883C44.0449 44.2235 44.3495 44.1058 44.553 43.8737L47.8666 40.0945L49.9714 42.2C49.9734 42.2019 49.9755 42.2036 49.9775 42.2056L47.2794 45.2913C47.1035 45.4925 47.124 45.7981 47.3252 45.9741C47.5256 46.1493 47.8314 46.1301 48.0079 45.9283L52.4549 40.8425C53.3651 39.8101 53.2055 38.159 52.1397 37.307C51.4238 36.7347 50.4862 36.6256 49.6901 36.9465V30.0306L53.1751 27.1991C53.4107 27.0075 53.5459 26.7236 53.5459 26.4198C53.5459 26.1162 53.4107 25.8322 53.1751 25.6407ZM39.1309 28.8352C39.1309 29.2713 38.7635 29.6412 38.3271 29.639H38.1407V28.1707C38.3243 28.1839 38.507 28.1638 38.6811 28.1132C38.9514 28.2465 39.1309 28.5267 39.1309 28.8352ZM26.1299 29.639H25.9435C25.5046 29.6413 25.139 29.2719 25.139 28.8352C25.139 28.5269 25.3181 28.2473 25.5877 28.1142C25.7618 28.1647 25.9474 28.1853 26.1299 28.1719L26.1299 29.639ZM26.2497 27.1598C25.9725 27.2827 25.6515 27.1625 25.5072 26.8937C25.3552 26.6105 25.4827 26.2461 25.7762 26.1158C28.4352 24.9355 31.3652 24.519 34.25 24.9116C34.5143 24.9472 34.7586 24.7622 34.7946 24.4974C34.8307 24.2326 34.6452 23.9888 34.3804 23.9527C31.7179 23.5904 29.0188 23.8776 26.504 24.7822V21.6822C26.504 20.169 27.7351 18.9379 29.2483 18.9379H35.0215C36.5348 18.9379 37.7658 20.169 37.7658 21.6822V24.782C37.3955 24.6489 37.0206 24.5287 36.6436 24.4226C36.3867 24.3504 36.1192 24.5001 36.0468 24.7573C35.9744 25.0145 36.1243 25.2817 36.3815 25.3541C37.1002 25.5564 37.8109 25.8126 38.494 26.1157C38.7851 26.245 38.9133 26.6096 38.764 26.8917C38.6224 27.1593 38.3044 27.2856 38.0204 27.1598C34.4098 25.5609 29.9084 25.5378 26.2497 27.1598ZM27.0976 30.817V27.8537C30.3259 26.5625 33.945 26.5626 37.173 27.8539V30.817C37.173 32.1627 36.649 33.4283 35.6973 34.3805C34.7535 35.325 33.4819 35.8566 32.1354 35.8566C29.3575 35.8566 27.0976 33.5958 27.0976 30.817ZM32.1351 40.0411C30.7441 40.0411 29.4594 39.3759 28.6536 38.2715C29.4424 38.0265 29.9895 37.2374 29.9103 36.3966C30.5988 36.6724 31.3496 36.8243 32.1353 36.8243C32.91 36.8243 33.6617 36.6773 34.3602 36.3987C34.3107 37.2323 34.885 37.9851 35.669 38.201C34.869 39.3496 33.5662 40.0411 32.1351 40.0411ZM51.5353 38.0626C52.1837 38.5809 52.2794 39.5794 51.7263 40.2055L50.6157 41.4757L48.5061 39.3653L49.4889 38.2444C50.0141 37.6449 50.9132 37.5653 51.5353 38.0626ZM52.5649 26.448L49.6901 28.7838L49.6899 24.0559L52.5648 26.3918C52.5794 26.4009 52.5798 26.4386 52.5649 26.448ZM34.7991 30.4505C35.0664 30.4505 35.2829 30.2339 35.2829 29.9667V28.9007C35.2829 28.6335 35.0664 28.4169 34.7991 28.4169C34.5318 28.4169 34.3153 28.6335 34.3153 28.9007V29.9667C34.3153 30.2339 34.5319 30.4505 34.7991 30.4505ZM29.4711 28.4169C29.2038 28.4169 28.9873 28.6335 28.9873 28.9008V29.9667C28.9873 30.2339 29.2038 30.4506 29.4711 30.4506C29.7384 30.4506 29.9549 30.2339 29.9549 29.9667V28.9008C29.9549 28.6335 29.7383 28.4169 29.4711 28.4169ZM33.6249 32.8566C33.4964 32.6225 33.2024 32.5367 32.9679 32.6652C32.7863 32.7648 32.4903 32.8821 32.117 32.8789C31.7586 32.8752 31.4761 32.7607 31.3023 32.6652C31.0678 32.5366 30.7738 32.6223 30.6453 32.8566C30.5167 33.0909 30.6024 33.3849 30.8367 33.5136C31.1076 33.6623 31.5479 33.8407 32.1068 33.8466C32.6715 33.8524 33.1542 33.6667 33.4334 33.5136C33.6677 33.3851 33.7534 33.091 33.6249 32.8566Z" fill="white" stroke="#FFF3F3" stroke-width="0.3"/>
</svg>
