<svg width="80" height="80" viewBox="0 0 80 80" fill="none" xmlns="http://www.w3.org/2000/svg">
<rect width="80" height="80" rx="20" fill="#C39E4B"/>
<path d="M43.8067 31.6534L49.4667 25.9917C50.1039 25.3649 50.9629 25.0152 51.8568 25.0188C52.7506 25.0225 53.6068 25.3792 54.2388 26.0112C54.8709 26.6433 55.2276 27.4994 55.2312 28.3933C55.2349 29.2871 54.8852 30.1462 54.2583 30.7834L48.5967 36.4434L51.66 51.685C52.0517 53.635 48.27 56.3517 47.2633 53.7684L42.78 42.2617L36.9583 48.0834C37.2417 51.485 37.3033 52.6167 34.9183 55L31.2933 48.9567L25.25 45.3317C27.6333 42.9467 28.765 43.0067 32.1667 43.2917L37.9883 37.4717L26.4817 32.9867C23.8983 31.98 26.615 28.1967 28.565 28.59L43.8067 31.6534Z" stroke="black" stroke-width="2.5" stroke-linecap="round" stroke-linejoin="round"/>
<path d="M43.8067 31.6534L49.4667 25.9917C50.1039 25.3649 50.9629 25.0152 51.8568 25.0188C52.7506 25.0225 53.6068 25.3792 54.2388 26.0112C54.8709 26.6433 55.2276 27.4994 55.2312 28.3933C55.2349 29.2871 54.8852 30.1462 54.2583 30.7834L48.5967 36.4434L51.66 51.685C52.0517 53.635 48.27 56.3517 47.2633 53.7684L42.78 42.2617L36.9583 48.0834C37.2417 51.485 37.3033 52.6167 34.9183 55L31.2933 48.9567L25.25 45.3317C27.6333 42.9467 28.765 43.0067 32.1667 43.2917L37.9883 37.4717L26.4817 32.9867C23.8983 31.98 26.615 28.1967 28.565 28.59L43.8067 31.6534Z" stroke="white" stroke-width="2.5" stroke-linecap="round" stroke-linejoin="round"/>
</svg>
