<svg width="55" height="55" viewBox="0 0 55 55" fill="none" xmlns="http://www.w3.org/2000/svg">
<rect width="55" height="55" rx="10" fill="#8B6F45"/>
<path d="M30.4778 37.1957H29.9343V28.5002H35.9127C36.3452 28.5002 36.7599 28.3284 37.0656 28.0227C37.3714 27.7169 37.5432 27.3022 37.5432 26.8698V25.7829C37.5432 25.3504 37.3714 24.9358 37.0656 24.63C36.7599 24.3242 36.3452 24.1525 35.9127 24.1525H34.8257V22.4449C35.291 22.3247 35.7034 22.0538 35.9984 21.6745C36.2934 21.2951 36.4544 20.8287 36.4562 20.3482V19.2613C36.4562 18.973 36.3417 18.6965 36.1378 18.4927C35.934 18.2888 35.6575 18.1743 35.3692 18.1743H33.1953C32.907 18.1743 32.6305 18.2888 32.4266 18.4927C32.2228 18.6965 32.1083 18.973 32.1083 19.2613V20.3482C32.1101 20.8287 32.2711 21.2951 32.5661 21.6745C32.8611 22.0538 33.2734 22.3247 33.7388 22.4449V24.1525H22.8689V22.4449C23.3342 22.3247 23.7466 22.0538 24.0416 21.6745C24.3366 21.2951 24.4976 20.8287 24.4994 20.3482V19.2613C24.4994 18.973 24.3849 18.6965 24.181 18.4927C23.9772 18.2888 23.7007 18.1743 23.4124 18.1743H21.2384C20.9501 18.1743 20.6737 18.2888 20.4698 18.4927C20.266 18.6965 20.1514 18.973 20.1514 19.2613V20.3482C20.1532 20.8287 20.3142 21.2951 20.6092 21.6745C20.9042 22.0538 21.3166 22.3247 21.7819 22.4449V24.1525H20.6949C20.2625 24.1525 19.8478 24.3242 19.542 24.63C19.2362 24.9358 19.0645 25.3504 19.0645 25.7829V26.8698C19.0645 27.3022 19.2362 27.7169 19.542 28.0227C19.8478 28.3284 20.2625 28.5002 20.6949 28.5002H26.6733V37.1957H26.1299C25.4094 37.1965 24.7187 37.4831 24.2093 37.9925C23.6998 38.5019 23.4133 39.1926 23.4124 39.913C23.4124 40.2013 23.5269 40.4778 23.7308 40.6816C23.9346 40.8854 24.2111 40.9999 24.4994 40.9999H32.1083C32.3966 40.9999 32.673 40.8854 32.8769 40.6816C33.0807 40.4778 33.1953 40.2013 33.1953 39.913C33.1944 39.1926 32.9078 38.5019 32.3984 37.9925C31.8889 37.4831 31.1982 37.1965 30.4778 37.1957ZM33.1953 20.3482V19.2613H35.3692V20.3482C35.3692 20.6365 35.2547 20.9129 35.0509 21.1168C34.847 21.3206 34.5705 21.4351 34.2822 21.4351C33.994 21.4351 33.7175 21.3206 33.5136 21.1168C33.3098 20.9129 33.1953 20.6365 33.1953 20.3482ZM21.2384 20.3482V19.2613H23.4124V20.3482C23.4124 20.6365 23.2979 20.9129 23.094 21.1168C22.8902 21.3206 22.6137 21.4351 22.3254 21.4351C22.0371 21.4351 21.7606 21.3206 21.5568 21.1168C21.3529 20.9129 21.2384 20.6365 21.2384 20.3482ZM20.1514 26.8698V25.7829C20.1514 25.6387 20.2087 25.5005 20.3106 25.3986C20.4125 25.2966 20.5508 25.2394 20.6949 25.2394H35.9127C36.0569 25.2394 36.1951 25.2966 36.297 25.3986C36.399 25.5005 36.4562 25.6387 36.4562 25.7829V26.8698C36.4562 27.0139 36.399 27.1522 36.297 27.2541C36.1951 27.356 36.0569 27.4133 35.9127 27.4133H20.6949C20.5508 27.4133 20.4125 27.356 20.3106 27.2541C20.2087 27.1522 20.1514 27.0139 20.1514 26.8698ZM27.7603 28.5002H28.8473V37.1957H27.7603V28.5002ZM24.4994 39.913C24.4994 39.4806 24.6712 39.0659 24.9769 38.7601C25.2827 38.4544 25.6974 38.2826 26.1299 38.2826H30.4778C30.9102 38.2826 31.3249 38.4544 31.6307 38.7601C31.9365 39.0659 32.1083 39.4806 32.1083 39.913H24.4994Z" fill="white" stroke="white" stroke-width="0.2"/>
<path d="M42.9786 16H41.8916C41.4592 16 41.0445 16.1718 40.7387 16.4775C40.433 16.7833 40.2612 17.198 40.2612 17.6304V29.0432C40.2612 29.1874 40.2039 29.3256 40.102 29.4275C40.0001 29.5294 39.8618 29.5867 39.7177 29.5867H35.3697C34.9373 29.5867 34.5226 29.7585 34.2168 30.0642C33.911 30.37 33.7393 30.7847 33.7393 31.2171V32.8475C33.7393 33.2799 33.911 33.6946 34.2168 34.0004C34.5226 34.3061 34.9373 34.4779 35.3697 34.4779H35.8589L34.3012 40.3158C34.2641 40.455 34.2837 40.6033 34.3559 40.7281C34.428 40.8528 34.5468 40.9438 34.686 40.981C34.7318 40.9932 34.7789 40.9994 34.8262 40.9995C34.9459 40.9995 35.0623 40.9599 35.1572 40.887C35.2522 40.8141 35.3204 40.7119 35.3513 40.5962L36.9817 34.4779H41.9069L43.5373 40.5962C43.5684 40.7124 43.6371 40.815 43.7327 40.888C43.8282 40.961 43.9454 41.0002 44.0656 40.9995C44.113 40.9994 44.1601 40.9932 44.2058 40.981C44.3451 40.9438 44.4638 40.8528 44.536 40.7281C44.6081 40.6033 44.6278 40.455 44.5906 40.3158L43.033 34.4725C43.455 34.4584 43.8551 34.2812 44.149 33.9781C44.443 33.675 44.6079 33.2697 44.6091 32.8475V17.6304C44.6091 17.198 44.4373 16.7833 44.1316 16.4775C43.8258 16.1718 43.4111 16 42.9786 16ZM43.5221 32.8475C43.5221 32.9916 43.4649 33.1299 43.3629 33.2318C43.261 33.3337 43.1228 33.391 42.9786 33.391H35.3697C35.2256 33.391 35.0874 33.3337 34.9854 33.2318C34.8835 33.1299 34.8262 32.9916 34.8262 32.8475V31.2171C34.8262 31.0729 34.8835 30.9347 34.9854 30.8328C35.0874 30.7309 35.2256 30.6736 35.3697 30.6736H39.7177C40.1501 30.6736 40.5648 30.5018 40.8706 30.1961C41.1764 29.8903 41.3482 29.4756 41.3482 29.0432V17.6304C41.3482 17.4863 41.4054 17.348 41.5073 17.2461C41.6093 17.1442 41.7475 17.0869 41.8916 17.0869H42.9786C43.1228 17.0869 43.261 17.1442 43.3629 17.2461C43.4649 17.348 43.5221 17.4863 43.5221 17.6304V32.8475Z" fill="white" stroke="white" stroke-width="0.2"/>
<path d="M21.2394 29.5867H16.8914C16.7473 29.5867 16.609 29.5294 16.5071 29.4275C16.4052 29.3256 16.3479 29.1874 16.3479 29.0432V17.6304C16.3479 17.198 16.1762 16.7833 15.8704 16.4775C15.5646 16.1718 15.1499 16 14.7175 16H13.6305C13.198 16 12.7833 16.1718 12.4776 16.4775C12.1718 16.7833 12 17.198 12 17.6304V32.8475C12.0012 33.2697 12.1661 33.675 12.4601 33.9781C12.754 34.2812 13.1541 34.4584 13.5761 34.4725L12.0185 40.3158C11.9813 40.455 12.001 40.6033 12.0731 40.7281C12.1453 40.8528 12.264 40.9438 12.4033 40.981C12.449 40.9932 12.4962 40.9994 12.5435 40.9995C12.6632 40.9995 12.7796 40.9599 12.8745 40.887C12.9694 40.8141 13.0376 40.7119 13.0685 40.5962L14.7006 34.4779H19.6257L21.2562 40.5962C21.2872 40.7122 21.3556 40.8146 21.4509 40.8875C21.5462 40.9605 21.6629 40.9998 21.7829 40.9995C21.8302 40.9994 21.8773 40.9932 21.9231 40.981C22.0623 40.9438 22.1811 40.8528 22.2532 40.7281C22.3254 40.6033 22.345 40.455 22.3079 40.3158L20.7502 34.4779H21.2394C21.6718 34.4779 22.0865 34.3061 22.3923 34.0004C22.6981 33.6946 22.8699 33.2799 22.8699 32.8475V31.2171C22.8699 30.7847 22.6981 30.37 22.3923 30.0642C22.0865 29.7585 21.6718 29.5867 21.2394 29.5867ZM21.7829 32.8475C21.7829 32.9916 21.7256 33.1299 21.6237 33.2318C21.5218 33.3337 21.3835 33.391 21.2394 33.391H13.6305C13.4863 33.391 13.3481 33.3337 13.2462 33.2318C13.1442 33.1299 13.087 32.9916 13.087 32.8475V17.6304C13.087 17.4863 13.1442 17.348 13.2462 17.2461C13.3481 17.1442 13.4863 17.0869 13.6305 17.0869H14.7175C14.8616 17.0869 14.9998 17.1442 15.1018 17.2461C15.2037 17.348 15.261 17.4863 15.261 17.6304V29.0432C15.261 29.4756 15.4327 29.8903 15.7385 30.1961C16.0443 30.5018 16.459 30.6736 16.8914 30.6736H21.2394C21.3835 30.6736 21.5218 30.7309 21.6237 30.8328C21.7256 30.9347 21.7829 31.0729 21.7829 31.2171V32.8475Z" fill="white" stroke="white" stroke-width="0.2"/>
</svg>
