<svg width="73" height="75" viewBox="0 0 73 75" fill="none" xmlns="http://www.w3.org/2000/svg">
<path d="M61.3963 11.4454C62.6025 10.3807 64.1972 12.3192 62.9572 13.2806C61.6969 14.2579 60.291 12.4211 61.3963 11.4454Z" fill="#C39E4B"/>
<path d="M68.1935 18.5889C67.9275 18.1111 67.0024 16.3806 66.6083 16.2196C65.7243 15.8583 64.9858 16.678 65.2582 17.5696C65.4317 18.1373 66.5513 19.7209 66.9134 20.4184C81.5028 48.5168 54.4438 82.5966 24.227 70.4662C22.3884 69.7281 20.6701 68.747 18.9525 67.7738C18.9006 67.4899 18.9909 67.6046 19.1071 67.546C20.0718 67.0602 21.0948 66.6091 22.0305 66.0752C22.8333 65.617 23.5772 65.2281 23.8205 64.2394C23.928 63.8026 23.7937 63.0508 24.0537 62.8246C24.3107 62.601 25.6802 62.1627 26.0668 62.0908C26.7659 61.9609 27.7526 61.8997 28.4599 61.9483C33.9932 62.3289 40.6009 66.085 45.6387 62.6548C49.7047 59.8863 53.4648 56.1703 57.5183 53.329C59.2714 51.8714 59.113 49.055 57.0424 47.9789C55.3247 47.0862 54.2067 47.8165 52.7186 48.6391C50.1473 50.0605 47.7043 51.8327 45.1024 53.163C45.0598 52.719 44.7176 52.162 44.4353 51.8207C43.1589 50.2778 38.9247 50.3164 37.0217 49.541C36.3998 49.2876 35.5775 48.5235 34.8854 48.1613C29.3688 45.2745 23.7807 47.7924 19.2252 51.1841C18.7041 49.8289 17.7763 48.8386 16.2285 49.2869L6.64725 54.105C6.53387 54.1595 6.42803 54.1754 6.31518 54.1032C6.1732 54.0122 4.99389 51.4531 4.83469 51.0735C-3.04902 32.2788 6.25614 10.6244 25.4395 3.89022C36.1654 0.12493 48.1586 2.04846 57.0821 9.04338C57.4396 9.18353 57.9882 9.13713 58.2509 8.84948C58.5295 8.54451 58.6161 7.90923 58.3389 7.5675C39.9906 -7.0958 12.9394 0.611425 3.44059 21.5553C-11.6584 54.847 25.9954 90.1357 57.0039 68.1967C72.6851 57.102 77.5791 35.4462 68.1935 18.5889ZM20.1019 52.7206C20.3857 52.413 21.9477 51.4666 22.4104 51.1828C25.7307 49.146 29.5049 47.8117 33.309 49.4082C34.6106 49.9544 35.7073 51.0357 36.9949 51.4357C38.6392 51.9464 41.1969 52.0177 42.673 52.6795C43.6063 53.0979 43.8316 54.4477 43.1992 55.2168C42.7183 55.8016 42.1263 55.8341 41.4214 55.7982C39.1399 55.6822 36.5644 54.8152 34.2657 54.6049C32.9211 54.4819 32.3728 55.4615 33.4259 56.3231L41.324 57.654C43.1977 57.8226 44.5969 56.8601 45.2612 55.1355L54.696 49.6277C56.5052 48.7506 57.8738 50.7926 56.2508 52.0614C52.389 54.8028 48.8169 58.1529 44.9801 60.8974C43.1452 62.2099 41.969 62.5688 39.6742 62.2707C35.5776 61.7386 29.5067 59.471 25.6294 60.3349C24.7817 60.5238 24.0047 60.9048 23.193 61.1922L19.9458 52.9922C19.9346 52.8598 20.0255 52.8034 20.1019 52.7206ZM13.9434 63.9942C12.049 62.2996 8.4616 58.4359 7.40748 56.1922C7.32832 56.0236 7.25977 55.8919 7.31019 55.6952L16.8924 51.0915C17.1639 51.1845 17.4203 51.3966 17.5471 51.6557C19.2418 55.1181 20.2192 59.4334 21.974 62.9397C22.0808 63.3396 22.109 63.8715 21.737 64.1336L17.231 66.5488C16.9943 66.5704 14.3241 64.3348 13.9434 63.9942Z" fill="#C39E4B"/>
<path d="M57.4914 17.4738L44.2771 21.5285C39.7521 20.2949 35.3337 18.5575 30.7921 17.4757C26.6143 18.8454 22.2566 19.8657 18.0982 21.2704C17.7233 21.3971 16.7416 21.6246 16.5912 21.9609L16.4192 45.5318C16.4071 46.0437 16.7782 46.5738 17.3434 46.4531L30.8649 43.8304C35.3871 45.1376 39.8345 46.6869 44.3862 47.8961C48.6085 46.2885 53.2201 45.1987 57.402 43.544C57.6554 43.4438 57.9268 43.3689 58.1313 43.1746L58.1841 17.7209C57.9972 17.5464 57.7574 17.4088 57.4914 17.4738ZM30.2684 42.5051L17.8528 44.9223V22.8379L30.2684 19.2121V42.5051ZM43.563 40.7472V46.2408L31.711 42.6004L31.6959 34.6484C31.7588 34.3201 32.4585 34.1759 32.4583 33.6605C32.458 32.963 31.6967 33.11 31.6967 33.0561V19.2121L43.5477 22.8533L43.5696 39.4762C43.5467 39.6057 42.9002 39.411 42.8959 40.0305C42.8909 40.7377 43.563 40.694 43.563 40.7472ZM56.9674 42.1206L44.9919 46.1306C45.1115 44.4531 44.8303 42.5597 44.9879 40.9085C45.0425 40.3369 45.3404 40.1097 44.9855 39.3797L44.9838 22.9984L56.9674 19.1023L56.9674 42.1206Z" fill="#C39E4B"/>
<path d="M19.1337 61.6551C20.5797 61.5825 20.7024 63.9327 19.2264 63.9317C17.7866 63.9308 17.7498 61.7246 19.1337 61.6551Z" fill="#C39E4B"/>
<path d="M35.1868 33.2498C35.084 33.353 33.8231 33.4851 33.6326 33.4646C32.9439 33.3905 32.8773 32.3917 33.5326 32.1999C33.7405 32.139 34.8193 32.1382 35.026 32.1993C35.4142 32.314 35.4053 33.0303 35.1868 33.2498Z" fill="#C39E4B"/>
<path d="M40.2919 38.3534C40.315 38.3133 40.6867 38.1181 40.7612 38.1153C40.991 38.1069 42.2093 38.9984 42.2482 39.2707C42.4629 40.7723 39.7246 39.3402 40.2919 38.3534Z" fill="#C39E4B"/>
<path d="M47.2709 39.0138C47.7592 38.9204 48.1128 39.0339 48.0789 39.5933C48.0443 40.1663 46.5366 40.7456 46.1344 40.4277C45.943 40.2765 45.9052 39.7222 46.0316 39.534C46.069 39.4782 47.142 39.0385 47.2709 39.0138Z" fill="#C39E4B"/>
<path d="M49.6771 38.7308C49.1466 39.1797 48.4909 39.058 48.6187 38.2832C48.643 38.1357 49.4514 37.0749 49.5184 37.0359C49.8693 36.8314 50.4965 37.1636 50.46 37.5974C50.443 37.8003 49.8471 38.5869 49.6771 38.7308Z" fill="#C39E4B"/>
<path d="M29.3516 35.0566C29.8204 35.0133 30.0751 35.5974 29.8813 36.0208C29.824 36.1458 28.8391 36.9811 28.6991 37.041C28.0826 37.3048 27.7523 36.6664 28.0155 36.1312C28.0534 36.0543 29.244 35.0665 29.3516 35.0566Z" fill="#C39E4B"/>
<path d="M27.2731 37.2605C27.3455 37.3296 27.5078 37.7141 27.4987 37.819C27.4579 38.293 25.49 39.6777 25.4271 38.3882C25.3992 37.8152 26.9265 36.9296 27.2731 37.2605Z" fill="#C39E4B"/>
<path d="M40.1041 34.9219C39.3166 34.0772 38.0689 34.478 37.9649 34.3688C37.9445 34.3473 37.9702 34.0848 37.8982 33.9444C37.8294 33.81 37.2779 33.1931 37.1451 33.1043C36.7891 32.8664 36.4991 32.6195 36.1494 33.0587C35.6151 33.7299 36.8548 34.4736 37.2985 34.8689C36.4023 35.6815 36.5276 37.4755 37.6032 38.0821C39.6508 39.2368 41.7506 36.6879 40.1041 34.9219ZM39.3707 36.4905C39.2595 37.1015 38.3024 37.139 38.0939 36.7686C38.022 36.6411 38.0264 36.0351 38.1411 35.9027C38.5437 35.4378 39.5049 35.7531 39.3707 36.4905Z" fill="#C39E4B"/>
<path d="M55.5063 26.4417C54.9163 26.044 52.3512 24.7708 51.6882 24.5474C51.129 24.359 50.7168 24.4914 50.6013 25.0967L50.5969 31.001C49.4288 31.6046 48.8855 32.8894 49.624 34.082C49.7866 34.3446 50.4504 34.8079 50.4591 34.8645C50.4844 35.0302 49.6455 36.6306 50.8642 36.3499C51.5237 36.198 51.4253 35.1276 51.6072 34.9474C51.6629 34.8922 52.0521 34.8525 52.2325 34.7482C53.298 34.1329 53.6733 32.885 52.9939 31.8107C52.7512 31.427 51.9877 31.0607 51.9315 30.8954C51.8716 30.7191 51.881 29.4603 51.9669 29.3191C52.1043 29.0933 54.8682 27.9906 55.3773 27.6752C56.02 27.2771 56.2065 26.9136 55.5063 26.4417ZM50.8428 33.4668C50.3399 32.989 50.8199 32.0041 51.5809 32.3427C52.4494 32.729 51.5557 34.1442 50.8428 33.4668ZM53.4314 27.1528C52.9347 27.3748 52.4322 27.6193 51.9134 27.7822V26.244C51.9798 26.1754 53.6415 26.8688 53.6721 26.9593C53.7477 27.1828 53.5398 27.1044 53.4314 27.1528Z" fill="#C39E4B"/>
<path d="M22.9882 24.5124C20.9543 24.8302 19.7548 26.9913 19.9414 28.9348C20.055 30.1184 22.1928 33.9958 22.9685 35.027C23.871 36.2268 24.2729 35.2017 24.8203 34.3652C25.5516 33.2478 27.3601 30.247 27.5126 29.0366C27.8556 26.3137 25.7507 24.0808 22.9882 24.5124ZM26.2076 28.4996C26.1582 29.5822 24.7026 32.0949 24.0506 33.0461C23.9659 33.1698 23.7492 33.6207 23.5681 33.4949C22.6887 31.4599 19.8784 28.5675 22.0783 26.4592C23.739 24.8676 26.3055 26.3563 26.2076 28.4996Z" fill="#C39E4B"/>
<path d="M24.0426 38.0187C21.9472 36.6268 19.7611 39.4392 21.4069 41.1491C23.3969 43.2167 26.4473 39.616 24.0426 38.0187ZM22.2389 39.5919C22.2965 38.9619 23.1076 38.8456 23.4266 39.2384C24.17 40.1538 22.1107 40.9934 22.2389 39.5919Z" fill="#C39E4B"/>
<path d="M23.5407 27.2545C24.875 27.0723 25.4443 28.9514 24.2554 29.5147C22.5234 30.3352 21.7097 27.5047 23.5407 27.2545Z" fill="#C39E4B"/>
</svg>
