<svg width="55" height="55" viewBox="0 0 55 55" fill="none" xmlns="http://www.w3.org/2000/svg">
<rect width="55" height="55" rx="10" fill="#8B6F45"/>
<path d="M36.9976 33.1232C36.9976 32.0679 36.1465 31.1724 35.0468 31.1724H30.597C30.3862 31.1724 30.2393 30.9528 30.3324 30.7601C31.1563 29.0502 32.4366 28.0399 32.5833 27.8162C32.9387 27.2758 33.1264 26.6502 33.1264 26.0072C33.1264 25.2964 32.8914 24.5937 32.4644 24.0278C32.0673 23.5034 31.2435 23.4069 30.7641 23.9816L28.8503 26.2564C28.3442 26.8578 27.7582 27.3516 27.1081 27.7243C25.2989 28.7665 24.3977 30.1015 23.9595 31.0401C23.8398 31.3001 23.5684 31.4682 23.268 31.4682H22.5682C22.3735 30.6829 21.6681 30.097 20.8234 30.097H12.4981C12.223 30.097 12 30.32 12 30.5951V42.5021C12 42.7772 12.223 43.0002 12.4981 43.0002H20.8234C21.668 43.0002 22.3734 42.4143 22.5682 41.6292H22.8459C23.3549 41.6292 23.8587 41.7051 24.3434 41.8549L26.9833 42.6682C27.5636 42.8475 28.1663 42.9384 28.7745 42.9384H33.8028C34.6062 42.9384 35.2967 42.3885 35.4445 41.6297C35.5195 41.2403 35.4483 40.8486 35.2594 40.5138C35.8979 40.2234 36.3452 39.5817 36.3452 38.8345C36.3452 38.4237 36.2053 38.0478 35.9772 37.7411C36.582 37.4086 36.9977 36.7719 36.9977 36.0331C36.9977 35.4552 36.7402 34.9408 36.3397 34.5834C36.7696 34.2031 36.9976 33.6769 36.9976 33.1232ZM21.6301 41.1972C21.6301 41.6421 21.2681 42.0039 20.8234 42.0039H12.9962V31.0931H20.8234C21.2682 31.0931 21.6301 31.455 21.6301 31.8997V41.1972ZM31.9105 34.0822C31.6354 34.0822 31.4124 34.3052 31.4124 34.5803C31.4124 34.8554 31.6354 35.0784 31.9105 35.0784H34.9964C35.4719 35.0784 35.9124 35.4036 35.9884 35.873C36.0855 36.4724 35.6253 36.9923 35.0467 36.9923H31.9105C31.6354 36.9923 31.4124 37.2154 31.4124 37.4904C31.4124 37.7655 31.6354 37.9886 31.9105 37.9886H34.4587C34.8799 37.9886 35.2701 38.2767 35.3374 38.6926C35.4233 39.224 35.0157 39.6847 34.5029 39.6847H31.9105C31.6354 39.6847 31.4124 39.9078 31.4124 40.1828C31.4124 40.4579 31.6354 40.681 31.9105 40.681H33.8506C34.0386 40.681 34.2151 40.7641 34.3351 40.9096C34.4572 41.0572 34.5039 41.2462 34.4664 41.4403C34.4105 41.7265 34.1252 41.9423 33.8026 41.9423H28.7744C28.2678 41.9423 27.7642 41.8665 27.2801 41.7173L24.6353 40.9025C24.0555 40.7239 23.4524 40.6331 22.8458 40.6331H22.6262V32.4643H23.2678C23.9556 32.4643 24.5822 32.0689 24.8631 31.4594C25.2396 30.6529 26.0211 29.5 27.6044 28.5883C28.3554 28.1575 29.0308 27.5889 29.6124 26.8977L31.5275 24.6214C31.5671 24.5736 31.6348 24.5824 31.6695 24.6285C31.9708 25.0276 32.1301 25.5045 32.1301 26.0073C32.1301 26.5986 31.848 27.1437 31.4407 27.5619C30.5489 28.4774 29.8922 29.3824 29.4406 30.3158C29.0262 31.1725 29.6451 32.1687 30.5969 32.1687H35.0467C35.5833 32.1687 36.0012 32.6071 36.0012 33.1233C36.0012 33.6439 35.5755 34.0823 35.0467 34.0823H31.9105V34.0822H31.9105Z" fill="white" stroke="white" stroke-width="0.2"/>
<path d="M28.5545 18.7004C28.6654 18.8081 28.7159 18.9638 28.6899 19.1161L28.4819 20.3263C28.2771 21.5229 29.535 22.437 30.6095 21.87L31.6933 21.2987C31.83 21.2267 31.9941 21.2264 32.1308 21.2989L33.2112 21.8695C34.283 22.4361 35.5432 21.5253 35.3398 20.329L35.134 19.1153C35.134 19.1151 35.134 19.1151 35.134 19.1151C35.1082 18.9633 35.1585 18.8084 35.269 18.7009L36.1433 17.8484C37.0123 17.001 36.5322 15.5249 35.332 15.3494L34.1196 15.1723C33.9666 15.1501 33.8348 15.0541 33.7665 14.9157L33.2248 13.8171C32.6866 12.7265 31.1343 12.7295 30.5976 13.815L30.0521 14.9165C29.984 15.0544 29.8522 15.1502 29.6997 15.1723L28.4892 15.3489C27.2878 15.5244 26.8089 17.0029 27.6793 17.8491L28.5545 18.7004ZM28.6333 16.3349L29.8438 16.1581C30.3202 16.0885 30.732 15.7893 30.9451 15.3584L31.4906 14.2569C31.6624 13.9092 32.1593 13.9085 32.3314 14.2579L32.8732 15.3565C33.0865 15.7889 33.4988 16.0886 33.9757 16.1583L35.1881 16.3354C35.5726 16.3912 35.7273 16.8626 35.4479 17.1353L34.5735 17.9878C34.2292 18.324 34.0716 18.8077 34.1521 19.2817L34.3579 20.4956C34.4233 20.8794 34.0203 21.1711 33.6766 20.9885L32.5963 20.4179C32.168 20.1919 31.6574 20.1915 31.2287 20.4174L30.1452 20.9885C29.8 21.1708 29.3986 20.8781 29.4639 20.4945L29.6719 19.2842C29.7533 18.8082 29.5953 18.323 29.2492 17.9862L28.374 17.1347C28.0953 16.8644 28.2467 16.3911 28.6333 16.3349Z" fill="white" stroke="white" stroke-width="0.2"/>
<path d="M43.5155 23.8567C44.227 23.1631 43.834 21.9542 42.8511 21.8108L41.9718 21.6826C41.9056 21.6731 41.8485 21.6312 41.8188 21.5712L41.426 20.7745C40.9853 19.8815 39.7147 19.884 39.275 20.7728L38.8793 21.5718C38.8498 21.6314 38.7927 21.6729 38.7265 21.6824L37.849 21.8106C36.8655 21.9539 36.4727 23.1642 37.1855 23.8575L37.8201 24.4748C37.8683 24.5218 37.8904 24.5893 37.8789 24.6552L37.7284 25.533C37.5613 26.5095 38.5888 27.2612 39.4701 26.797L40.2562 26.3826C40.3156 26.351 40.3863 26.351 40.4461 26.3826L41.2293 26.7963C42.107 27.2609 43.1387 26.5151 42.9722 25.535L42.8228 24.6548C42.8118 24.5889 42.8337 24.5218 42.8814 24.4751L43.5155 23.8567ZM42.8199 23.1436L42.1856 23.7621C41.904 24.0372 41.7751 24.4332 41.8408 24.8214V24.8216L41.9901 25.7018C42.0187 25.8693 41.8442 25.9938 41.6946 25.9153L40.9114 25.5016C40.5612 25.3163 40.1424 25.3167 39.7917 25.5011L39.0056 25.9155C38.855 25.9946 38.6819 25.8677 38.7105 25.7012L38.8611 24.8232C38.9275 24.4336 38.7983 24.0367 38.515 23.7608L37.8801 23.1433C37.758 23.0246 37.8262 22.8207 37.9927 22.7962L38.8704 22.6682C39.2603 22.6111 39.5973 22.3664 39.772 22.0135L40.1677 21.2145C40.2423 21.0639 40.457 21.062 40.5323 21.215L40.9251 22.0117C41.1 22.3659 41.4373 22.6113 41.8279 22.6684L42.7072 22.7966C42.8751 22.8211 42.9413 23.0252 42.8199 23.1436Z" fill="white" stroke="white" stroke-width="0.2"/>
<path d="M20.9413 24.4747C20.9895 24.5216 21.0116 24.5892 21.0002 24.6551L20.8496 25.5329C20.6816 26.5154 21.7138 27.259 22.5913 26.7969L23.3774 26.3824C23.4368 26.3509 23.5075 26.3509 23.5673 26.3824L24.3505 26.7962C25.2281 27.261 26.2599 26.515 26.0934 25.5349L25.944 24.6547C25.933 24.5887 25.955 24.5216 26.0026 24.4749L26.6366 23.8567C27.3481 23.1631 26.9551 21.9542 25.9721 21.8108L25.0929 21.6826C25.0267 21.6731 24.9696 21.6312 24.9399 21.5712L24.5471 20.7745C24.1064 19.8815 22.8358 19.884 22.3961 20.7728L22.0004 21.5718C21.9709 21.6314 21.9138 21.6729 21.8476 21.6824L20.9701 21.8106C19.9866 21.9539 19.5938 23.1642 20.3066 23.8575L20.9413 24.4747ZM21.114 22.7964L21.9917 22.6684C22.3816 22.6113 22.7189 22.3666 22.8933 22.0137L23.289 21.2147C23.3636 21.0641 23.5782 21.0621 23.6536 21.2152L24.0464 22.0119C24.2213 22.3661 24.5586 22.6114 24.9492 22.6686L25.8284 22.7968C25.9962 22.8211 26.0625 23.0252 25.941 23.1436L25.3067 23.7621C25.0251 24.0372 24.8962 24.4332 24.9619 24.8214V24.8216L25.1112 25.7018C25.1399 25.8697 24.9647 25.9936 24.8157 25.9153L24.0326 25.5016C23.6823 25.3163 23.2636 25.3167 22.9128 25.5011L22.1268 25.9155C21.9757 25.9947 21.803 25.8673 21.8317 25.7012L21.9822 24.8232C22.0487 24.4336 21.9195 24.0367 21.6361 23.7608L21.0013 23.1434C20.8792 23.0246 20.9475 22.8208 21.114 22.7964Z" fill="white" stroke="white" stroke-width="0.2"/>
</svg>
