<svg width="69" height="69" viewBox="0 0 69 69" fill="none" xmlns="http://www.w3.org/2000/svg">
<rect width="69" height="69" rx="20" fill="#8B6F45"/>
<path d="M31.8116 24.585C31.9672 24.764 32.1861 24.8561 32.4051 24.8561C32.5872 24.8561 32.7713 24.7927 32.9187 24.6648C33.2481 24.3804 33.2829 23.8841 32.9985 23.5557C32.4685 22.9429 32.6199 22.4068 33.1253 21.2394C33.5919 20.1641 34.2303 18.6908 32.9985 17.2698C32.714 16.9424 32.2168 16.9096 31.8915 17.1899C31.562 17.4744 31.5272 17.9706 31.8116 18.299C32.3416 18.9118 32.1902 19.4479 31.6848 20.6153C31.2182 21.6906 30.5798 23.1639 31.8116 24.585Z" fill="white"/>
<path d="M36.1659 24.6186C36.3194 24.7772 36.524 24.856 36.7286 24.856C36.9271 24.856 37.1256 24.7813 37.277 24.6329C37.5881 24.3291 37.5942 23.8318 37.2914 23.5218C37.0519 23.2763 37.0356 23.1361 37.4346 22.3187C37.7804 21.6107 38.3574 20.4249 37.2914 19.3312C36.9885 19.0212 36.4913 19.013 36.1803 19.3169C35.8692 19.6197 35.8631 20.1169 36.1659 20.428C36.4053 20.6725 36.4197 20.8137 36.0227 21.6301C35.6769 22.3391 35.0978 23.5249 36.1659 24.6186Z" fill="white"/>
<path d="M50.2156 48.4282H18.7857C18.3519 48.4282 18 48.7802 18 49.214C18 49.6478 18.3519 49.9997 18.7857 49.9997H50.2156C50.6494 49.9997 51.0014 49.6478 51.0014 49.214C51.0014 48.7802 50.6494 48.4282 50.2156 48.4282Z" fill="white"/>
<path d="M20.881 46.8569H48.1202C48.554 46.8569 48.9059 46.5049 48.9059 46.0711C48.9059 39.1142 43.949 33.2945 37.3816 31.9561V30.3562C37.3816 28.7673 36.0884 27.4751 34.5006 27.4751C32.9127 27.4751 31.6195 28.7673 31.6195 30.3562V31.9561C25.0522 33.2945 20.0952 39.1142 20.0952 46.0711C20.0952 46.5049 20.4472 46.8569 20.881 46.8569ZM33.191 30.3562C33.191 29.6339 33.7783 29.0466 34.5006 29.0466C35.2229 29.0466 35.8102 29.6339 35.8102 30.3562V31.7321C35.3781 31.693 34.9426 31.6657 34.5006 31.6657C34.0586 31.6657 33.623 31.693 33.191 31.7321V30.3562ZM34.5006 33.2372C41.3124 33.2372 46.9027 38.5738 47.3099 45.2854H21.6913C22.0985 38.5738 27.6887 33.2372 34.5006 33.2372Z" fill="white"/>
<path d="M31.4927 35.2161C28.6751 35.9947 26.2155 37.8987 24.7464 40.438C24.5274 40.8135 24.6563 41.2944 25.0328 41.5123C25.1556 41.5839 25.2907 41.6177 25.4257 41.6177C25.6958 41.6177 25.9598 41.4775 26.1051 41.2258C27.3717 39.0384 29.4874 37.4004 31.9102 36.7303C32.3296 36.6147 32.5752 36.1819 32.4586 35.7634C32.3419 35.346 31.9061 35.0984 31.4927 35.2161Z" fill="white"/>
</svg>
