<svg width="55" height="55" viewBox="0 0 55 55" fill="none" xmlns="http://www.w3.org/2000/svg">
<rect width="55" height="55" rx="10" fill="#8B6F45"/>
<path d="M42.414 39.4843V29.2305H42.4147C42.6818 29.2305 42.9233 29.0465 42.9853 28.7748C43.0574 28.4592 42.8599 28.1452 42.5445 28.0733L42.3772 28.0351C37.047 26.8186 32.1582 23.8747 28.586 19.7371V18.568L32.3148 16.4151C32.4961 16.3105 32.6078 16.1171 32.6078 15.9077C32.6078 15.6985 32.4961 15.5051 32.3148 15.4002L28.2931 13.0784C28.1118 12.9739 27.8884 12.9739 27.7071 13.0784C27.5375 13.1764 27.43 13.3522 27.4167 13.5458C27.4151 13.557 27.4142 13.5701 27.4142 13.5859V19.7371C23.842 23.8747 18.9532 26.8186 13.623 28.0351L13.4557 28.0733C13.1401 28.1452 12.9428 28.4592 13.0149 28.7748C13.0769 29.0465 13.3181 29.2305 13.5855 29.2305H13.5861V39.4843C13.2625 39.4843 13.0002 39.7468 13.0002 40.0702V42.414C13.0002 42.7377 13.2625 43 13.5861 43H42.4143C42.7377 43 43.0002 42.7377 43.0002 42.414V40.0702C43 39.7466 42.7377 39.4843 42.414 39.4843ZM34.1184 25.9364C36.3409 27.2857 38.7336 28.3006 41.2422 28.9616V39.4843H37.2397C32.789 35.3925 29.7511 29.876 28.6781 23.9241L28.586 23.4132V21.4826C30.2246 23.2038 32.0797 24.6986 34.1184 25.9364ZM28.586 17.2148V14.6008L30.8499 15.9079L28.586 17.2148ZM14.7578 28.9614C17.2666 28.3006 19.6593 27.2857 21.8818 25.9362C23.9202 24.6984 25.7756 23.2038 27.4142 21.4826V23.3894L27.3178 23.9241C26.245 29.876 23.2068 35.3923 18.7562 39.4843H14.7578V28.9614ZM41.8281 41.8281H14.1719V40.6562H25.3707C25.6943 40.6562 25.9566 40.3939 25.9566 40.0702C25.9566 39.7466 25.6943 39.4843 25.3707 39.4843H20.4485C22.349 37.5818 23.972 35.431 25.2821 33.0721C26.4746 30.9245 27.3837 28.648 27.998 26.2811C28.6121 28.648 29.5213 30.9245 30.714 33.0721C32.0239 35.431 33.6469 37.5816 35.5473 39.4843H30.6442C30.3205 39.4843 30.0582 39.7466 30.0582 40.0702C30.0582 40.3939 30.3205 40.6562 30.6442 40.6562H41.8281V41.8281Z" fill="white"/>
<path d="M37.4872 20.2533C38.7823 20.2533 39.8358 19.1998 39.8358 17.9047V14.4802C40.2425 14.7098 40.5985 15.0215 40.8811 15.3978C41.0755 15.6567 41.4426 15.7091 41.7015 15.5145C41.9603 15.3202 42.0125 14.9531 41.8182 14.6942C41.3075 14.0142 40.6191 13.4912 39.8267 13.182L39.463 13.0401C39.2826 12.9698 39.0791 12.9929 38.9194 13.1021C38.7596 13.2113 38.6642 13.3925 38.6642 13.5859V15.8736C38.3179 15.6722 37.9159 15.5562 37.4872 15.5562C36.1922 15.5562 35.1387 16.6097 35.1387 17.9047C35.1387 19.1998 36.1922 20.2533 37.4872 20.2533ZM37.4872 16.7281C38.1361 16.7281 38.6639 17.2559 38.6639 17.9047C38.6639 18.5536 38.1361 19.0814 37.4872 19.0814C36.8384 19.0814 36.3106 18.5536 36.3106 17.9047C36.3106 17.2559 36.8384 16.7281 37.4872 16.7281Z" fill="white"/>
<path d="M16.788 23.4174C18.0831 23.4174 19.1368 22.3638 19.1368 21.0688V17.6443C19.5433 17.8738 19.8992 18.1853 20.1819 18.5618C20.3762 18.8207 20.7434 18.8731 21.0022 18.6786C21.2611 18.4843 21.3133 18.1171 21.119 17.8583C20.6083 17.1782 19.9198 16.6552 19.1274 16.346L18.7638 16.2041C18.5834 16.1338 18.3801 16.157 18.2204 16.2661C18.0604 16.3753 17.9649 16.5564 17.9649 16.75V19.0377C17.6186 18.8363 17.2167 18.7202 16.7883 18.7202C15.4932 18.7202 14.4395 19.7738 14.4395 21.0688C14.4395 22.3638 15.4932 23.4174 16.788 23.4174ZM16.788 19.8921C17.4369 19.8921 17.9649 20.4199 17.9649 21.0688C17.9649 21.7177 17.4369 22.2455 16.788 22.2455C16.1391 22.2455 15.6113 21.7177 15.6113 21.0688C15.6113 20.4199 16.1391 19.8921 16.788 19.8921Z" fill="white"/>
<path d="M28 39.4844C27.846 39.4844 27.6947 39.5471 27.5857 39.656C27.4768 39.765 27.4141 39.9163 27.4141 40.0703C27.4141 40.2244 27.4765 40.3756 27.5857 40.4846C27.6947 40.5935 27.846 40.6563 28 40.6563C28.154 40.6563 28.3053 40.5935 28.4141 40.4846C28.5232 40.3756 28.5859 40.2244 28.5859 40.0703C28.5859 39.9163 28.5232 39.765 28.4141 39.656C28.3053 39.5471 28.154 39.4844 28 39.4844Z" fill="white"/>
</svg>
