<svg width="80" height="80" viewBox="0 0 80 80" fill="none" xmlns="http://www.w3.org/2000/svg">
<rect width="80" height="80" rx="20" fill="#9D7F52"/>
<path d="M40.2505 29.5931C43.0103 29.5932 45.6573 30.6895 47.6089 32.641C49.5605 34.5926 50.6567 37.2403 50.6567 40.0004C50.6567 41.3669 50.3877 42.7203 49.8647 43.9828C49.3418 45.2453 48.5752 46.3925 47.6089 47.3588C46.6426 48.3251 45.4954 49.0916 44.2329 49.6146C42.9704 50.1376 41.617 50.4066 40.2505 50.4066C38.884 50.4066 37.5306 50.1375 36.2681 49.6146C35.0055 49.0916 33.8575 48.3251 32.8911 47.3588C31.9249 46.3925 31.1582 45.2453 30.6353 43.9828C30.1123 42.7203 29.8433 41.3669 29.8433 40.0004C29.8433 37.2403 30.9395 34.5926 32.8911 32.641C34.8427 30.6894 37.4905 29.5931 40.2505 29.5931Z" stroke="white" stroke-width="2.52"/>
<path d="M40.2505 29.5931C43.0103 29.5932 45.6573 30.6895 47.6089 32.641C49.5605 34.5926 50.6567 37.2403 50.6567 40.0004C50.6567 41.3669 50.3877 42.7203 49.8647 43.9828C49.3418 45.2453 48.5752 46.3925 47.6089 47.3588C46.6426 48.3251 45.4954 49.0916 44.2329 49.6146C42.9704 50.1376 41.617 50.4066 40.2505 50.4066C38.884 50.4066 37.5306 50.1375 36.2681 49.6146C35.0055 49.0916 33.8575 48.3251 32.8911 47.3588C31.9249 46.3925 31.1582 45.2453 30.6353 43.9828C30.1123 42.7203 29.8433 41.3669 29.8433 40.0004C29.8433 37.2403 30.9395 34.5926 32.8911 32.641C34.8427 30.6894 37.4905 29.5931 40.2505 29.5931Z" stroke="white" stroke-width="2.52"/>
<path d="M51.9168 40C51.9168 43.0942 50.6877 46.0617 48.4997 48.2496C46.3118 50.4375 43.3444 51.6667 40.2502 51.6667M51.9168 40C51.9168 36.9058 50.6877 33.9384 48.4997 31.7505C46.3118 29.5625 43.3444 28.3334 40.2502 28.3334M51.9168 40H56.9168M40.2502 51.6667C37.156 51.6667 34.1885 50.4375 32.0006 48.2496C29.8127 46.0617 28.5835 43.0942 28.5835 40M40.2502 51.6667V56.6667M40.2502 28.3334C37.156 28.3334 34.1885 29.5625 32.0006 31.7505C29.8127 33.9384 28.5835 36.9058 28.5835 40M40.2502 28.3334V23.3334M28.5835 40H23.5835M41.9168 40C41.9168 40.4421 41.7412 40.866 41.4287 41.1786C41.1161 41.4911 40.6922 41.6667 40.2502 41.6667C39.8081 41.6667 39.3842 41.4911 39.0717 41.1786C38.7591 40.866 38.5835 40.4421 38.5835 40C38.5835 39.558 38.7591 39.1341 39.0717 38.8215C39.3842 38.509 39.8081 38.3334 40.2502 38.3334C40.6922 38.3334 41.1161 38.509 41.4287 38.8215C41.7412 39.1341 41.9168 39.558 41.9168 40Z" stroke="white" stroke-width="2.52" stroke-linecap="square"/>
<path d="M51.9168 40C51.9168 43.0942 50.6877 46.0617 48.4997 48.2496C46.3118 50.4375 43.3444 51.6667 40.2502 51.6667M51.9168 40C51.9168 36.9058 50.6877 33.9384 48.4997 31.7505C46.3118 29.5625 43.3444 28.3334 40.2502 28.3334M51.9168 40H56.9168M40.2502 51.6667C37.156 51.6667 34.1885 50.4375 32.0006 48.2496C29.8127 46.0617 28.5835 43.0942 28.5835 40M40.2502 51.6667V56.6667M40.2502 28.3334C37.156 28.3334 34.1885 29.5625 32.0006 31.7505C29.8127 33.9384 28.5835 36.9058 28.5835 40M40.2502 28.3334V23.3334M28.5835 40H23.5835M41.9168 40C41.9168 40.4421 41.7412 40.866 41.4287 41.1786C41.1161 41.4911 40.6922 41.6667 40.2502 41.6667C39.8081 41.6667 39.3842 41.4911 39.0717 41.1786C38.7591 40.866 38.5835 40.4421 38.5835 40C38.5835 39.558 38.7591 39.1341 39.0717 38.8215C39.3842 38.509 39.8081 38.3334 40.2502 38.3334C40.6922 38.3334 41.1161 38.509 41.4287 38.8215C41.7412 39.1341 41.9168 39.558 41.9168 40Z" stroke="white" stroke-width="2.52" stroke-linecap="square"/>
</svg>
