<svg width="80" height="80" viewBox="0 0 80 80" fill="none" xmlns="http://www.w3.org/2000/svg">
<rect width="80" height="80" rx="20" fill="#C39E4B"/>
<path fill-rule="evenodd" clip-rule="evenodd" d="M28.5835 32.5C28.5835 31.5151 28.7775 30.5398 29.1544 29.6299C29.5313 28.7199 30.0838 27.8931 30.7802 27.1967C31.4766 26.5003 32.3034 25.9478 33.2134 25.5709C34.1233 25.194 35.0986 25 36.0835 25C37.0684 25 38.0437 25.194 38.9536 25.5709C39.8636 25.9478 40.6904 26.5003 41.3868 27.1967C42.0832 27.8931 42.6357 28.7199 43.0126 29.6299C43.3895 30.5398 43.5835 31.5151 43.5835 32.5C43.5835 34.4891 42.7933 36.3968 41.3868 37.8033C39.9803 39.2098 38.0726 40 36.0835 40C34.0944 40 32.1867 39.2098 30.7802 37.8033C29.3737 36.3968 28.5835 34.4891 28.5835 32.5ZM36.0835 28.3333C34.9784 28.3333 33.9186 28.7723 33.1372 29.5537C32.3558 30.3351 31.9168 31.3949 31.9168 32.5C31.9168 33.6051 32.3558 34.6649 33.1372 35.4463C33.9186 36.2277 34.9784 36.6667 36.0835 36.6667C37.1886 36.6667 38.2484 36.2277 39.0298 35.4463C39.8112 34.6649 40.2502 33.6051 40.2502 32.5C40.2502 31.3949 39.8112 30.3351 39.0298 29.5537C38.2484 28.7723 37.1886 28.3333 36.0835 28.3333ZM36.0835 41.6667C39.4052 41.6667 42.4252 42.68 44.6452 44.11C45.7568 44.8267 46.7085 45.6717 47.4002 46.5933C48.0785 47.5017 48.5835 48.5933 48.5835 49.7617C48.5835 51.02 48.0002 52.0283 47.1435 52.7567C46.3352 53.44 45.2818 53.8833 44.1935 54.1883C42.0052 54.8 39.1102 55 36.0835 55C33.0568 55 30.1618 54.8 27.9752 54.1883C26.8852 53.8833 25.8318 53.44 25.0252 52.7567C24.1652 52.03 23.5835 51.02 23.5835 49.7617C23.5835 48.5917 24.0885 47.5017 24.7668 46.595C25.4585 45.6717 26.4102 44.825 27.5218 44.1117C29.7418 42.6783 32.7618 41.6667 36.0835 41.6667ZM36.0835 45C33.4218 45 31.0252 45.82 29.3252 46.9133C28.4752 47.46 27.8418 48.05 27.4352 48.5917C27.0185 49.1483 26.9168 49.5517 26.9168 49.7617C26.9168 49.885 26.9418 50.0117 27.1785 50.2117C27.4668 50.4583 28.0018 50.735 28.8718 50.9783C30.6052 51.4617 33.1268 51.6667 36.0835 51.6667C39.0402 51.6667 41.5618 51.4617 43.2952 50.9783C44.1652 50.735 44.7002 50.4583 44.9885 50.2117C45.2252 50.0117 45.2502 49.885 45.2502 49.7617C45.2502 49.5517 45.1485 49.1483 44.7318 48.5917C44.3252 48.05 43.6918 47.46 42.8418 46.9133C41.1418 45.82 38.7452 45 36.0835 45ZM50.2502 41.6667C52.4502 41.6667 54.4468 42.3933 55.9168 43.4183C57.2868 44.3733 58.5835 45.88 58.5835 47.6183C58.5835 48.5967 58.1618 49.4067 57.5202 49.995C56.9252 50.5417 56.1718 50.875 55.4468 51.095C53.9968 51.5333 52.1302 51.6667 50.2502 51.6667H49.9118C50.1285 51.0867 50.2502 50.45 50.2502 49.7617C50.2479 49.3883 50.2146 49.0272 50.1502 48.6783L50.0718 48.3333H50.2502C52.0518 48.3333 53.5168 48.1967 54.4818 47.905C54.9185 47.7717 55.1435 47.6383 55.2402 47.5617C55.1918 47.365 54.9318 46.795 54.0102 46.1533C53.207 45.6062 52.294 45.2412 51.335 45.084C50.376 44.9269 49.3943 44.9812 48.4585 45.2433C47.6518 44.2851 46.7057 43.4536 45.6518 42.7767C47.0751 42.0479 48.6511 41.6674 50.2502 41.6667ZM45.2502 35C45.2502 33.6739 45.7769 32.4021 46.7146 31.4645C47.6523 30.5268 48.9241 30 50.2502 30C51.5762 30 52.848 30.5268 53.7857 31.4645C54.7234 32.4021 55.2502 33.6739 55.2502 35C55.2502 36.3261 54.7234 37.5979 53.7857 38.5355C52.848 39.4732 51.5762 40 50.2502 40C48.9241 40 47.6523 39.4732 46.7146 38.5355C45.7769 37.5979 45.2502 36.3261 45.2502 35ZM50.2502 33.3333C49.8081 33.3333 49.3842 33.5089 49.0716 33.8215C48.7591 34.134 48.5835 34.558 48.5835 35C48.5835 35.442 48.7591 35.8659 49.0716 36.1785C49.3842 36.4911 49.8081 36.6667 50.2502 36.6667C50.6922 36.6667 51.1161 36.4911 51.4287 36.1785C51.7412 35.8659 51.9168 35.442 51.9168 35C51.9168 34.558 51.7412 34.134 51.4287 33.8215C51.1161 33.5089 50.6922 33.3333 50.2502 33.3333Z" fill="white"/>
</svg>
