<svg width="55" height="55" viewBox="0 0 55 55" fill="none" xmlns="http://www.w3.org/2000/svg">
<rect width="55" height="55" rx="10" fill="#8B6F45"/>
<path d="M14.7421 24.355H19.6776V21.613C19.6776 20.1011 20.9076 18.8711 22.4195 18.8711H23.5163V19.9679H22.4195C21.5125 19.9679 20.7744 20.706 20.7744 21.613V24.355H21.8712V21.613C21.8712 21.3098 22.1163 21.0646 22.4195 21.0646H33.3873C33.6905 21.0646 33.9357 21.3098 33.9357 21.613V24.355H35.0324V21.613C35.0324 20.706 34.2943 19.9679 33.3873 19.9679H32.2905V18.8711H33.3873C34.8992 18.8711 36.1292 20.1011 36.1292 21.613V24.355H41.0647C42.5766 24.355 43.8066 25.585 43.8066 27.0969V40.2582C43.8066 41.7701 42.5766 43.0001 41.0647 43.0001H14.7421C13.2302 43.0001 12.0002 41.7701 12.0002 40.2582V27.0969C12.0002 25.585 13.2302 24.355 14.7421 24.355ZM13.097 27.0969V28.7421H14.7421C15.6492 28.7421 16.3873 28.0039 16.3873 27.0969V25.4517H14.7421C13.8351 25.4517 13.097 26.1899 13.097 27.0969ZM17.4841 40.2582V41.9034H38.3228V40.2582C38.3228 38.7463 39.5528 37.5163 41.0647 37.5163H42.7099V29.8388H41.0647C39.5528 29.8388 38.3228 28.6088 38.3228 27.0969V25.4517H17.4841V27.0969C17.4841 28.6088 16.254 29.8388 14.7421 29.8388H13.097V37.5163H14.7421C16.254 37.5163 17.4841 38.7463 17.4841 40.2582ZM32.8389 22.1614H22.9679V24.355H32.8389V22.1614ZM41.0647 25.4517H39.4195V27.0969C39.4195 28.0039 40.1577 28.7421 41.0647 28.7421H42.7099V27.0969C42.7099 26.1899 41.9717 25.4517 41.0647 25.4517ZM42.7099 40.2582V38.613H41.0647C40.1577 38.613 39.4195 39.3512 39.4195 40.2582V41.9034H41.0647C41.9717 41.9034 42.7099 41.1652 42.7099 40.2582ZM14.7421 41.9034H16.3873V40.2582C16.3873 39.3512 15.6492 38.613 14.7421 38.613H13.097V40.2582C13.097 41.1652 13.8351 41.9034 14.7421 41.9034Z" fill="white"/>
<path d="M25.5228 34.2981C24.9602 33.7074 24.6125 32.9106 24.6125 32.0321V30.9353C24.6125 29.1207 26.0882 27.645 27.9028 27.645C29.7175 27.645 31.1932 29.1207 31.1932 30.9353V32.0321C31.1932 32.9106 30.8455 33.7074 30.2828 34.2981C32.0487 34.6419 33.3867 36.1993 33.3867 38.0644V40.2579C33.3867 40.5612 33.1416 40.8063 32.8383 40.8063H22.9674C22.6641 40.8063 22.419 40.5612 22.419 40.2579V38.0644C22.419 36.1993 23.757 34.6419 25.5228 34.2981ZM26.8061 35.3224C26.8061 35.9273 27.298 36.4192 27.9028 36.4192C28.5077 36.4192 28.9996 35.9273 28.9996 35.3224H26.8061ZM30.0964 30.9353C30.0964 29.7256 29.1126 28.7418 27.9028 28.7418C26.6931 28.7418 25.7093 29.7256 25.7093 30.9353V32.0321C25.7093 33.2419 26.6931 34.2257 27.9028 34.2257C29.1126 34.2257 30.0964 33.2419 30.0964 32.0321V30.9353ZM23.5158 39.7095H24.6125V37.516H25.7093V39.7095H30.0964V37.516H31.1932V39.7095H32.2899V38.0644C32.2899 36.7384 31.3434 35.6301 30.0909 35.3773C30.0608 36.5612 29.0939 37.516 27.9028 37.516C26.7118 37.516 25.7449 36.5612 25.7148 35.3773C24.4623 35.6301 23.5158 36.7384 23.5158 38.0644V39.7095Z" fill="white"/>
<path d="M33.3872 16.129H29.5484V16.4504L31.0329 17.9349C31.136 18.0374 31.1936 18.1767 31.1936 18.3226V19.4194C31.1936 19.6014 31.1031 19.7714 30.9529 19.8734C30.8026 19.9754 30.6101 19.9952 30.4418 19.9288L27.9033 18.9132L25.3648 19.9288C25.2995 19.9551 25.2304 19.9677 25.1614 19.9677C25.0533 19.9677 24.9458 19.9354 24.8537 19.8734C24.7034 19.7714 24.613 19.6014 24.613 19.4194V18.3226C24.613 18.1767 24.6705 18.0374 24.7736 17.9349L26.2581 16.4504V16.129H22.4194C22.1162 16.129 21.871 15.8839 21.871 15.5806V14.4839C21.871 14.2322 22.0421 14.0134 22.2867 13.9519L26.2581 12.9588V10.6452C26.2581 9.73813 26.9963 9 27.9033 9C28.8103 9 29.5484 9.73813 29.5484 10.6452V12.9588L33.5199 13.9525C33.7645 14.0134 33.9355 14.2322 33.9355 14.4839V15.5806C33.9355 15.8839 33.6904 16.129 33.3872 16.129ZM32.8388 14.9122L28.8674 13.9185C28.6228 13.8576 28.4517 13.6388 28.4517 13.3871V10.6452C28.4517 10.3425 28.206 10.0968 27.9033 10.0968C27.6006 10.0968 27.3549 10.3425 27.3549 10.6452V13.3871C27.3549 13.6388 27.1838 13.8576 26.9392 13.919L22.9678 14.9122V15.0323H26.8065C27.1098 15.0323 27.3549 15.2774 27.3549 15.5806V16.6774C27.3549 16.8233 27.2973 16.9626 27.1942 17.0651L25.7097 18.5496V18.6094L27.6998 17.8131C27.7651 17.7868 27.8342 17.7742 27.9033 17.7742C27.9724 17.7742 28.0415 17.7868 28.1067 17.8131L30.0968 18.6094V18.5496L28.6124 17.0651C28.5093 16.9626 28.4517 16.8233 28.4517 16.6774V15.5806C28.4517 15.2774 28.6968 15.0323 29.0001 15.0323H32.8388V14.9122Z" fill="white"/>
</svg>
