<svg width="69" height="69" viewBox="0 0 69 69" fill="none" xmlns="http://www.w3.org/2000/svg">
<rect width="69" height="69" rx="20" fill="#8B6F45"/>
<path d="M53.3475 47.2842C53.3475 47.2842 53.3065 47.175 53.3065 47.1265C53.2792 46.9568 53.2247 46.7869 53.0745 46.6657C53.0472 46.6414 53.0337 46.605 53.0064 46.5687C52.9654 46.5323 52.9654 46.4595 52.8835 46.4474C52.8699 46.4474 52.8426 46.411 52.8426 46.3989C52.8426 46.3383 52.7744 46.3262 52.7334 46.3019C52.7062 46.2898 52.6789 46.2898 52.6652 46.2654C52.6243 46.1927 52.4879 46.1805 52.5016 46.0714C52.5016 46.0714 52.4743 46.0714 52.4606 46.0593C52.3924 46.0229 52.3378 45.9865 52.3241 45.9017C52.3241 45.8653 52.2968 45.8047 52.215 45.8168C52.1605 45.8168 52.1331 45.7925 52.1195 45.744C52.1195 45.7075 52.0922 45.6833 52.0785 45.6469C51.9012 45.6954 51.9967 45.5499 51.9285 45.5135C51.8739 45.5257 51.8467 45.5135 51.8193 45.465C51.7647 45.3923 51.7102 45.3195 51.6284 45.271C51.5601 45.2225 51.5056 45.186 51.5056 45.1133C51.3418 45.089 51.3009 44.9435 51.2054 44.8708C51.2054 44.7253 51.0416 44.7132 50.9735 44.616C50.8643 44.4827 50.7142 44.3857 50.5777 44.2765C50.4959 44.2038 50.4277 44.131 50.3459 44.0703C50.1957 43.949 50.0319 43.8399 49.8683 43.7308C49.65 43.5853 49.4317 43.4518 49.1997 43.3305C49.036 43.2335 48.8722 43.1608 48.6949 43.0759C48.6539 43.0517 48.5994 43.0152 48.5721 43.0152C48.4903 43.0152 48.4766 42.9667 48.4356 42.9424C48.4083 42.9303 48.3811 42.9182 48.3538 42.906C48.2583 42.8697 48.1628 42.8454 48.0673 42.809C47.9309 42.7484 47.7671 42.712 47.6171 42.6757C47.5079 42.6514 47.3988 42.6393 47.3033 42.6029C47.085 42.5302 46.8667 42.5302 46.6484 42.5423C46.1981 42.5665 45.8025 42.712 45.4204 42.9182C45.2976 42.8212 45.1884 42.7242 45.0656 42.6272C45.0521 42.615 45.0247 42.5908 45.0111 42.5908C44.8883 42.5908 44.8473 42.518 44.861 42.433C44.7655 42.3603 44.67 42.2997 44.5881 42.239C44.52 42.1905 44.52 42.0814 44.3835 42.0935C44.3835 42.0935 44.3562 42.0935 44.3698 42.0814C44.3698 42.0329 44.3289 42.0087 44.3152 41.9844C44.288 41.8994 44.2197 41.8752 44.1515 41.8388C44.1242 41.8267 44.0969 41.8145 44.0969 41.8024C44.0969 41.7418 44.0424 41.7297 44.0014 41.6933C43.9742 41.669 43.9332 41.6569 43.9196 41.6327C43.8922 41.572 43.8377 41.5357 43.7696 41.5478C43.7696 41.5478 43.7422 41.5478 43.7286 41.5357V41.4265C43.7286 41.4265 43.6331 41.39 43.5785 41.3779C43.5785 41.3052 43.5376 41.2567 43.4556 41.2445C43.4556 41.2445 43.4285 41.2324 43.4285 41.2203C43.4285 41.1354 43.3601 41.1112 43.292 41.0869C43.2783 41.0869 43.2647 41.0627 43.2647 41.0505C43.2647 41.002 43.2373 40.9899 43.1828 40.9778C43.1555 40.9778 43.1282 40.9535 43.1282 40.9293C43.1147 40.8565 43.06 40.82 42.9918 40.8079C42.9645 40.8079 42.9509 40.7715 42.9372 40.7594C42.869 40.6867 42.7872 40.626 42.6916 40.5412C42.7189 40.5048 42.7326 40.4563 42.7735 40.4078C42.9099 40.2379 43.0464 40.0803 43.1828 39.9105C43.3601 39.68 43.5376 39.4375 43.7013 39.207C43.9059 38.916 44.1242 38.6249 44.3289 38.3339C44.52 38.0428 44.6973 37.7397 44.8746 37.4364C45.0111 37.206 45.1339 36.9634 45.2431 36.7209C45.3659 36.454 45.4887 36.1873 45.5978 35.9083C45.7342 35.5809 45.8706 35.2534 45.9935 34.9139C46.1435 34.4894 46.2799 34.0649 46.4164 33.6283C46.4982 33.3737 46.5801 33.1189 46.662 32.8643C46.7439 32.5974 46.812 32.3185 46.8667 32.0517C46.9895 31.5423 47.0986 31.033 47.2078 30.5357C47.235 30.4023 47.2486 30.2689 47.2623 30.1476C47.3033 29.8202 47.3578 29.4927 47.3851 29.1532C47.4124 28.8378 47.4124 28.5346 47.4124 28.2193C47.4124 28.0495 47.4124 27.8797 47.3851 27.7099C47.3578 27.5038 47.3033 27.2976 47.2623 27.0914C47.2623 27.0429 47.235 26.9823 47.1941 26.958C47.0986 26.8731 47.0713 26.7882 47.0713 26.6791C46.9212 26.5821 46.7439 26.5335 46.5801 26.485C46.4027 26.4244 46.2254 26.4244 46.0616 26.4244C45.707 26.4244 45.3522 26.4487 44.9974 26.4729C44.5472 26.4972 44.0969 26.5457 43.6604 26.6306C43.2238 26.7155 42.7735 26.7882 42.3369 26.8974C41.9277 26.9944 41.5182 27.0914 41.0953 27.2006C40.5223 27.3461 39.9629 27.5159 39.4172 27.6978C38.8577 27.8919 38.2983 28.0738 37.7389 28.2678C37.4251 28.377 37.125 28.5104 36.8112 28.6317C36.7839 28.6438 36.7293 28.668 36.702 28.6559C36.661 28.6438 36.6339 28.6559 36.6065 28.6802C36.3882 28.8014 36.1699 28.9227 35.938 29.044C35.5968 29.2138 35.2831 29.4078 34.9147 29.517C34.9147 29.517 34.9011 29.517 34.8874 29.517C34.7101 29.6261 34.5326 29.7232 34.369 29.8323C34.0824 30.0142 33.8096 30.2083 33.5366 30.4023C33.2092 30.6327 32.8817 30.8632 32.5679 31.1057C32.4724 31.1664 32.3906 31.2391 32.3088 31.2998C32.2678 31.2755 32.2405 31.2513 32.2269 31.2391C32.2269 31.2391 32.186 31.227 32.186 31.2149C32.1723 31.13 32.0905 31.1057 32.0358 31.0815C32.0222 31.0815 31.995 31.0815 31.995 31.0572C31.9403 30.9117 31.7493 30.851 31.6812 30.7176C31.5584 30.6691 31.5037 30.5357 31.3809 30.4872C31.3264 30.463 31.2854 30.4144 31.2446 30.3781C31.2036 30.3295 31.0944 30.2083 31.0263 30.1719C31.0126 30.1719 30.9853 30.1476 30.9853 30.1476C30.9716 30.0506 30.8898 30.0385 30.8079 30.0142C30.8352 29.9536 30.7943 29.9172 30.7397 29.8929C30.6578 29.8687 30.5896 29.8444 30.5896 29.7474C30.5896 29.7353 30.5487 29.7232 30.535 29.711C30.5078 29.6868 30.4805 29.6625 30.4532 29.6383C30.4259 29.614 30.3986 29.5534 30.3577 29.5534C30.2758 29.5534 30.2895 29.4685 30.2349 29.4442C30.1803 29.42 30.1394 29.3957 30.0848 29.3593C30.0712 29.3593 30.0439 29.3351 30.0302 29.3108C30.0302 29.2017 29.9211 29.1895 29.8256 29.1653C29.7437 28.9712 29.5391 28.8621 29.4163 28.7044L29.389 28.6802C29.2798 28.6802 29.2935 28.5468 29.1843 28.5589C29.1434 28.4619 29.0479 28.4012 28.9524 28.3285C28.8978 28.2921 28.8978 28.2436 28.9251 28.1951C28.966 28.1102 29.0069 28.0131 29.0342 27.9161C29.1434 27.6372 29.2116 27.334 29.2116 27.0429C29.2116 26.7518 29.2116 26.4608 29.1297 26.1697C29.0615 25.9272 28.9387 25.6967 28.8159 25.4784C28.7068 25.2965 28.584 25.1146 28.4339 24.9569C28.2292 24.7144 27.9973 24.4718 27.779 24.2293C27.6153 24.0595 27.4515 23.9018 27.2878 23.7442C27.1241 23.5865 26.9467 23.4531 26.783 23.2954C26.5647 23.1014 26.3601 22.8831 26.1418 22.689C25.8552 22.4344 25.5687 22.1797 25.2822 21.9371C25.1321 21.8037 24.982 21.6824 24.8319 21.549C24.7774 21.5005 24.7228 21.4399 24.6546 21.4035C24.5591 21.3307 24.4636 21.2701 24.3271 21.2337C24.177 21.1973 24.0406 21.1246 23.9178 21.0518C23.7405 20.9548 23.5631 20.9184 23.3584 20.9062C23.3175 20.9062 23.2766 20.9184 23.2493 20.9305C23.0719 21.0275 22.8945 21.1246 22.7308 21.2337C22.5125 21.3914 22.2942 21.5733 22.0896 21.7552C21.8713 21.9614 21.653 22.1675 21.4483 22.3858C21.2573 22.5799 21.0526 22.7739 20.8753 22.9801C20.6706 23.1984 20.4659 23.4167 20.2749 23.635C19.9611 23.9988 19.6064 24.3384 19.3335 24.7144C19.2517 24.8357 19.2107 24.9691 19.2517 25.1146C19.2789 25.1995 19.3062 25.2844 19.3335 25.3693C19.3744 25.5148 19.4154 25.6603 19.5655 25.7695C19.6064 25.7938 19.62 25.8423 19.6473 25.8786C19.7155 25.9514 19.7838 26.0242 19.852 26.0969C19.8656 26.1091 19.8929 26.1212 19.9065 26.1333C19.9202 26.1333 19.9475 26.1455 19.9611 26.1576C20.0703 26.2304 20.1249 26.3395 20.234 26.4123C20.2613 26.4365 20.2749 26.485 20.3022 26.5214C20.3295 26.5699 20.3295 26.6184 20.4114 26.6063C20.4523 26.6063 20.5069 26.6306 20.5205 26.6791C20.5205 26.7155 20.5478 26.7397 20.5614 26.7882C20.657 26.7518 20.6842 26.7882 20.6842 26.8731C20.6842 26.8853 20.7115 26.9216 20.7115 26.9216C20.7934 26.9095 20.7934 26.958 20.8343 27.0065C20.8889 27.0793 20.9708 27.1278 21.039 27.1884C21.0799 27.2248 21.1208 27.2733 21.1618 27.3097C21.2436 27.3582 21.421 27.5038 21.4619 27.6008C21.4892 27.6614 21.5165 27.6978 21.5847 27.7099C21.612 27.7099 21.6393 27.7585 21.653 27.7827C21.653 27.7827 21.6666 27.807 21.6802 27.8191C21.844 27.904 21.9531 28.0495 22.1032 28.1587C22.1987 28.2193 22.2806 28.3042 22.3624 28.377C22.4852 28.474 22.6217 28.5589 22.7581 28.6438C22.9764 28.7772 23.1947 28.9227 23.413 29.0561C23.6313 29.1774 23.8496 29.2866 24.0815 29.3836C24.2043 29.4321 24.2998 29.5291 24.4499 29.5412C24.4909 29.5412 24.5318 29.5534 24.5591 29.5776C24.6546 29.614 24.7364 29.6504 24.8319 29.6746C25.0093 29.7232 25.2003 29.7353 25.3641 29.7959C25.596 29.8808 25.8279 29.8687 26.0735 29.8444C26.4965 29.8081 26.8922 29.6746 27.2469 29.4685C27.356 29.4078 27.397 29.42 27.4925 29.5049C27.6016 29.6019 27.7108 29.6989 27.8199 29.7959C27.9973 29.9536 28.161 30.0991 28.3384 30.2568C28.4612 30.3659 28.5976 30.4872 28.7204 30.6085C28.9114 30.7783 29.1161 30.9481 29.3071 31.1179C29.4572 31.2513 29.6073 31.3847 29.7574 31.5302C29.9347 31.6879 30.1121 31.8577 30.2895 32.0153C30.4395 32.1487 30.5896 32.2822 30.7397 32.4155C30.7943 32.464 30.8352 32.5004 30.8761 32.5489C30.8079 32.6217 30.7397 32.6823 30.6851 32.743C30.4668 32.9613 30.2349 33.1795 30.0166 33.3979C29.8256 33.604 29.6482 33.8224 29.4572 34.0285C29.3207 34.1862 29.198 34.356 29.0752 34.5258C29.0069 34.6228 28.9251 34.7198 28.8705 34.8168C28.7204 35.0473 28.5703 35.2777 28.4066 35.5082C28.3384 35.6052 28.2702 35.7022 28.2156 35.8113C28.0109 36.1752 27.8199 36.5269 27.6153 36.8907C27.4925 37.1212 27.356 37.3637 27.2469 37.6063C27.0422 38.0549 26.8512 38.4915 26.6602 38.9403C26.5374 39.2193 26.4283 39.5103 26.3191 39.8014C26.1963 40.1045 26.0735 40.4078 25.9644 40.723C25.8825 40.9535 25.8143 41.196 25.7461 41.4387C25.6642 41.6812 25.5824 41.9115 25.5141 42.1542C25.3913 42.5544 25.2822 42.9545 25.173 43.3548C25.1048 43.5732 25.0503 43.7914 24.9957 44.0097C24.9411 44.2402 24.9002 44.4827 24.8456 44.7132C24.8047 44.9072 24.7501 45.1012 24.7092 45.2953C24.6682 45.465 24.6546 45.6348 24.6137 45.8168C24.5727 45.9987 24.5181 46.1927 24.4909 46.3747C24.4499 46.605 24.4226 46.8355 24.3817 47.0538C24.3271 47.3448 24.2589 47.6238 24.3135 47.9149C24.3135 47.9392 24.3135 47.9755 24.2998 47.9998C24.218 48.3635 24.3271 48.691 24.6137 48.9578C24.7228 49.067 24.8729 49.1398 25.0503 49.1762C25.2413 49.2247 25.4323 49.2247 25.6369 49.2489C25.8279 49.2732 26.019 49.2489 26.1963 49.2004C26.7148 49.067 27.2196 48.9214 27.7381 48.788C27.9018 48.7395 28.0792 48.691 28.2429 48.6425C28.5567 48.5455 28.8569 48.4485 29.157 48.3514C29.5254 48.2302 29.8938 48.121 30.2485 47.9998C30.5896 47.8784 30.9308 47.7572 31.2718 47.6238C31.572 47.5147 31.8585 47.4177 32.1586 47.3084C32.4043 47.2114 32.6499 47.1144 32.8954 47.0174C33.2501 46.8719 33.6049 46.7263 33.946 46.5687C34.2598 46.4353 34.5736 46.3019 34.8738 46.1563C35.0647 46.0714 35.2694 45.9744 35.4605 45.8774C35.6515 45.7804 35.8425 45.6833 36.0335 45.5863C36.2109 45.5014 36.4019 45.4165 36.5792 45.3195C36.8522 45.1739 37.1113 45.0042 37.3979 44.8829C37.6162 44.7859 37.8072 44.6647 38.0118 44.5433C38.3801 44.3129 38.7349 44.0824 39.1034 43.852C39.267 43.7429 39.4445 43.6338 39.6081 43.5124C39.9083 43.282 40.2085 43.0517 40.495 42.809C40.727 42.615 40.9589 42.3967 41.1908 42.1905C41.2864 42.1057 41.3682 42.0208 41.4774 41.9237C42.296 42.6514 43.101 43.3669 43.9059 44.0824C43.8651 44.1432 43.8377 44.1917 43.7968 44.2402C43.6876 44.3978 43.6604 44.5918 43.5921 44.7617C43.5648 44.8465 43.5376 44.9314 43.5239 45.0042C43.5103 45.186 43.4966 45.368 43.483 45.5499C43.4556 45.9502 43.5376 46.3262 43.7286 46.6899C43.7559 46.7263 43.7696 46.7627 43.7831 46.8112C43.8787 47.0659 44.056 47.272 44.2197 47.4783C44.4243 47.7329 44.6426 47.9755 44.8746 48.2059C45.0247 48.3757 45.2021 48.5334 45.3659 48.691C45.5295 48.8487 45.707 48.9943 45.8706 49.1519C46.0753 49.3459 46.2799 49.5522 46.4846 49.7583C46.7712 50.025 47.0576 50.2798 47.3441 50.5344C47.4943 50.6679 47.6444 50.8013 47.7944 50.9225C47.849 50.971 47.9035 51.0438 47.9718 51.068C48.0537 51.1044 48.0945 51.2015 48.2037 51.2137C48.3811 51.2379 48.5448 51.3228 48.6813 51.4077C48.8314 51.5047 48.9951 51.5532 49.1724 51.5774C49.2815 51.5895 49.3635 51.5774 49.4453 51.5047C49.5135 51.4562 49.5818 51.4077 49.65 51.3713C49.8956 51.2622 50.0866 51.1044 50.2776 50.9468C50.6597 50.6194 51.0143 50.2798 51.3691 49.928C51.6556 49.6492 51.9422 49.3459 52.215 49.0549C52.3651 48.8972 52.5151 48.7274 52.6652 48.5698C52.8154 48.3999 52.9927 48.2423 53.1428 48.0725C53.2247 47.9755 53.3065 47.8784 53.3611 47.7693C53.443 47.6359 53.4703 47.5025 53.3883 47.3692L53.3475 47.2842ZM27.7927 26.6184C27.8199 27.1399 27.4106 27.528 27.1923 27.7463C26.9877 27.9525 26.5238 28.4134 25.8552 28.4861C25.1867 28.5468 24.6682 28.1829 23.6449 27.4553C23.222 27.1521 23.3175 27.1763 22.3761 26.4244C21.1891 25.4663 20.9844 25.3935 20.9708 25.1267C20.9298 24.7386 21.3391 24.6416 22.4716 23.5016C23.2356 22.7375 23.2766 22.5677 23.5767 22.5192C24.0133 22.4586 24.1907 22.7982 25.6506 24.0352C25.8962 24.2414 26.7694 24.9812 27.5061 25.9514C27.6153 26.0969 27.779 26.3274 27.7927 26.6306V26.6184ZM33.2775 37.5698C33.373 37.2182 33.4958 36.8785 33.6458 36.5512C33.7277 36.3813 33.8369 36.2358 33.9324 36.066C33.9869 35.969 34.0415 35.8719 34.1097 35.787C34.1779 35.69 34.2462 35.6052 34.328 35.5082C35.5832 36.6239 36.8248 37.7275 38.08 38.8433C37.9572 38.9403 37.848 39.0252 37.7254 39.11C37.6571 39.1585 37.5889 39.207 37.5206 39.2556C37.4251 39.3163 37.3296 39.3769 37.2341 39.4254C37.1386 39.4739 37.0431 39.5345 36.934 39.583C36.7702 39.6679 36.6065 39.765 36.4019 39.7893C36.3882 39.7893 36.3609 39.7893 36.3472 39.8135C36.2109 39.8984 36.0608 39.9469 35.8971 39.9833C35.7606 40.0197 35.6242 40.0803 35.474 40.1167C35.4059 40.1409 35.324 40.1409 35.2557 40.1409C35.1602 40.1409 35.0784 40.1167 34.9829 40.1167C34.4645 40.0682 33.9732 39.9227 33.5913 39.583C33.4139 39.4254 33.2501 39.2435 33.1956 39.013C33.1683 38.9039 33.1683 38.7826 33.1547 38.6734C33.1547 38.5764 33.141 38.4915 33.1547 38.3945C33.1683 38.1155 33.2092 37.8367 33.2775 37.5698ZM39.8264 41.0505C39.5263 41.3294 39.1989 41.5963 38.8714 41.8509C38.6804 41.9965 38.4893 42.142 38.2847 42.2754C38.162 42.3603 38.0392 42.4452 37.93 42.5302C37.7389 42.6757 37.5206 42.7848 37.3023 42.8939C37.2068 42.9545 37.1113 43.0152 37.0158 43.0759C36.8658 43.1608 36.7157 43.2457 36.5655 43.3305C36.3201 43.4639 36.0608 43.5974 35.8015 43.7429C35.7197 43.7914 35.6378 43.8642 35.556 43.9127C35.3785 44.0097 35.2012 44.1067 35.0239 44.1795C34.8056 44.2644 34.6145 44.3735 34.3962 44.4584C34.137 44.5675 33.8914 44.6889 33.6458 44.8102C33.5231 44.8587 33.4139 44.9314 33.2911 44.9557C33.1683 44.9799 33.1 45.0527 33.0045 45.089C32.8954 45.1254 32.7999 45.186 32.6907 45.2225C32.4997 45.2953 32.3088 45.368 32.1041 45.4529C31.8039 45.5742 31.4901 45.7075 31.1899 45.8168C30.9443 45.9017 30.6988 46.0108 30.4532 46.0957C30.3167 46.1442 30.1667 46.1927 30.0302 46.2412C29.9074 46.2898 29.7574 46.314 29.6618 46.3989C29.6618 46.3989 29.6346 46.411 29.6209 46.411C29.4026 46.411 29.2389 46.5444 29.0479 46.5929C28.966 46.6172 28.8978 46.6414 28.8159 46.6657C28.5976 46.7384 28.3793 46.8234 28.161 46.8962C28.1065 46.9204 28.0519 46.9204 27.9837 46.9204C27.9018 46.9204 27.8336 46.9689 27.7517 46.9932C27.6562 47.0295 27.5607 47.0902 27.4652 47.1023C27.2333 47.1265 27.0422 47.272 26.8103 47.2599C26.7967 47.2599 26.7694 47.2599 26.7557 47.272C26.6739 47.3448 26.5783 47.3448 26.4692 47.3569C26.4556 47.3569 26.4283 47.3569 26.4146 47.3692C26.3464 47.4419 26.2782 47.4177 26.1963 47.3934C26.21 47.2842 26.21 47.1872 26.2509 47.078C26.2918 46.981 26.2918 46.884 26.3055 46.7748C26.3055 46.7384 26.3464 46.6899 26.3873 46.6414C26.3328 46.5444 26.3873 46.4353 26.401 46.3262C26.4283 46.229 26.4419 46.1442 26.4556 46.035C26.4556 45.938 26.4965 45.841 26.5374 45.7562C26.5783 45.6833 26.5374 45.5863 26.6056 45.5135C26.5238 45.4044 26.6329 45.3074 26.6466 45.1983C26.6466 45.089 26.7011 44.9799 26.7284 44.8829C26.7421 44.798 26.7557 44.7132 26.7694 44.6282C26.783 44.5554 26.8103 44.4827 26.8376 44.4099C26.8649 44.3129 26.9195 44.228 26.9195 44.131C26.9195 43.9005 27.0695 43.7187 27.0832 43.4882C27.0832 43.379 27.1514 43.282 27.1787 43.1729C27.2196 43.0274 27.2742 42.8818 27.3151 42.7363C27.3151 42.6999 27.3424 42.6635 27.356 42.6272C27.356 42.6272 27.3833 42.6029 27.3833 42.5908C27.3833 42.3845 27.4788 42.2027 27.5471 42.0087C27.6153 41.7782 27.6835 41.5478 27.7517 41.3052C27.7517 41.2809 27.779 41.2567 27.7927 41.2445C27.8063 41.2203 27.8336 41.196 27.8336 41.1597C27.8336 40.9899 27.9564 40.8443 27.9837 40.6867C27.9837 40.6624 28.0109 40.6503 28.0246 40.6382C28.0655 40.6018 28.0792 40.5775 28.0655 40.5169C28.0655 40.4805 28.0928 40.432 28.1065 40.3835C28.161 40.25 28.2156 40.1045 28.2702 39.9712C28.3248 39.8378 28.3657 39.6922 28.4203 39.5588C28.5158 39.3405 28.6386 39.1464 28.7068 38.9282C28.7614 38.7342 28.8569 38.5643 28.9387 38.3824C29.1024 37.9943 29.2935 37.6305 29.4981 37.2667C29.58 37.1333 29.6482 36.9755 29.7164 36.8422C29.7846 36.733 29.8529 36.6239 29.9211 36.5148C30.0439 36.3207 30.153 36.1267 30.2758 35.9325C30.3713 35.787 30.4805 35.6415 30.5896 35.496C30.6306 35.4475 30.6442 35.3747 30.6851 35.3261C30.7806 35.1928 30.8898 35.0715 30.9853 34.9382C31.0535 34.8532 31.1218 34.7683 31.1899 34.6955C31.3946 34.4652 31.5992 34.2347 31.8175 34.0043C31.9403 33.883 32.0631 33.7617 32.1996 33.6283C32.4316 33.8345 32.6499 34.0285 32.8682 34.2225C32.759 34.3439 32.6499 34.453 32.5544 34.5743C32.4452 34.7077 32.3496 34.841 32.2541 34.9745C32.2133 35.0352 32.1586 35.0958 32.1178 35.1564C31.954 35.4233 31.7903 35.69 31.6402 35.969C31.5584 36.1267 31.5037 36.3085 31.4492 36.4783C31.3946 36.6239 31.3401 36.7573 31.2991 36.9028C31.2582 37.0361 31.2446 37.1697 31.2172 37.303C31.1763 37.5942 31.1491 37.8973 31.1626 38.2005C31.1626 38.346 31.1763 38.5037 31.2036 38.6492C31.2854 39.0979 31.4219 39.5224 31.722 39.8984C31.9403 40.1651 32.1313 40.4442 32.3906 40.6624C32.7317 40.9535 33.1273 41.1839 33.5776 41.293C34.1779 41.4387 34.7919 41.5357 35.4059 41.5357C35.5832 41.5357 35.7606 41.4993 35.9516 41.4993C36.2518 41.4993 36.5247 41.4144 36.8112 41.3658C37.0295 41.3173 37.2751 41.2809 37.4661 41.1475C37.5343 41.099 37.6162 41.0748 37.698 41.0384C38.121 40.8929 38.4893 40.6624 38.8577 40.432C39.0487 40.3108 39.2262 40.1773 39.4035 40.056C39.6491 40.2743 39.9083 40.4805 40.1539 40.6988C40.0311 40.82 39.9219 40.9293 39.8128 41.0263L39.8264 41.0505ZM40.2767 35.2049C40.2494 35.4475 40.2357 35.6779 40.1266 35.9083C40.1266 35.9083 40.1266 35.9204 40.1266 35.9325C40.0584 36.3207 39.8674 36.6724 39.6763 37.024C39.6081 37.1575 39.5126 37.2788 39.4308 37.4122C39.3762 37.4849 39.3625 37.4849 39.267 37.4364C39.117 37.3515 39.0215 37.2182 38.8851 37.109C38.8304 37.0727 38.7759 37.0361 38.7349 36.9634C38.7349 36.9391 38.6941 36.9149 38.6804 36.9149C38.5849 36.8907 38.5576 36.8179 38.503 36.7573C38.4893 36.733 38.4621 36.7088 38.4348 36.6967C38.3666 36.6724 38.312 36.636 38.2847 36.5512C38.2847 36.5269 38.2165 36.5148 38.162 36.4904C38.162 36.4419 38.1347 36.4055 38.0664 36.3692C37.9709 36.3085 37.8345 36.2843 37.8209 36.1509C37.8209 36.1388 37.7662 36.1145 37.7389 36.1024C37.6844 36.0903 37.6297 36.0782 37.6297 36.0054C37.6297 35.9812 37.5889 35.9568 37.5616 35.9325C37.5206 35.9083 37.4661 35.8962 37.4388 35.8355C37.4251 35.7992 37.3433 35.7749 37.316 35.7385C37.2478 35.6779 37.2205 35.5809 37.1113 35.5688C37.1113 35.496 36.9885 35.496 36.9885 35.4232C36.9885 35.4232 36.9885 35.3989 36.975 35.3868C36.934 35.3625 36.8793 35.3504 36.8522 35.314C36.8248 35.2777 36.8112 35.2413 36.7567 35.2413C36.7293 35.2413 36.702 35.217 36.702 35.1928C36.6747 35.12 36.6202 35.0837 36.5384 35.0352C36.4701 34.9988 36.4292 34.9503 36.3472 34.8897C36.3201 34.7925 36.2654 34.7319 36.1426 34.6834C36.1153 34.6834 36.0881 34.6592 36.0744 34.6349C36.0198 34.55 35.9653 34.4773 35.8561 34.4409C35.8288 34.4409 35.8015 34.3803 35.788 34.3439C35.7606 34.3074 35.747 34.271 35.7197 34.2225C35.788 34.174 35.8698 34.1255 35.9516 34.077C36.2109 33.9073 36.4974 33.7617 36.7839 33.6404C36.8658 33.604 36.9203 33.5677 37.0022 33.5313C37.4251 33.3373 37.8754 33.2524 38.3393 33.1795C38.6668 33.131 39.0079 33.1432 39.308 33.313C39.4445 33.3858 39.5808 33.4585 39.7036 33.5434C40.0038 33.7374 40.1402 34.0164 40.2221 34.3317C40.304 34.6228 40.3177 34.9139 40.304 35.2049H40.2767ZM41.4364 39.3405C41.4364 39.3405 41.3409 39.2799 41.2999 39.2556C41.2318 39.207 41.1772 39.1585 41.1089 39.1222C41.1089 39.1222 41.0816 39.11 41.0816 39.0979C41.1226 38.9767 40.9725 38.9767 40.918 38.916C40.8906 38.8918 40.8633 38.8554 40.8361 38.8312C40.7542 38.7463 40.8225 38.6857 40.877 38.637C41.0681 38.443 41.1908 38.2248 41.3409 38.0185C41.3956 37.9458 41.4364 37.873 41.491 37.8003C41.5319 37.7518 41.5455 37.7033 41.5729 37.6427C41.6547 37.5092 41.7093 37.3637 41.7775 37.2182C41.8593 37.0362 41.9548 36.8543 42.0095 36.6603C42.0368 36.5512 42.1186 36.4419 42.105 36.3207C42.105 36.3085 42.105 36.2843 42.1186 36.2722C42.1595 36.2115 42.1595 36.163 42.1595 36.0903C42.1595 35.9933 42.1868 35.8962 42.2005 35.8113C42.2141 35.6779 42.2278 35.5567 42.2414 35.4232C42.2414 35.4232 42.2414 35.411 42.2414 35.3989C42.2005 35.2898 42.1868 35.1807 42.2414 35.0715C42.2414 35.0473 42.2141 35.0109 42.2141 34.9745C42.2141 34.9139 42.2141 34.841 42.2141 34.7804C42.2141 34.7198 42.1323 34.6713 42.1323 34.6107C42.1323 34.4894 42.0777 34.3803 42.0503 34.271C42.0231 34.1498 41.9822 34.0407 41.9412 33.9194C41.873 33.7374 41.7912 33.5555 41.7093 33.3737C41.6002 33.0947 41.4091 32.8522 41.1908 32.6338C40.877 32.3185 40.5087 32.088 40.0721 31.9304C39.7991 31.8213 39.5263 31.7607 39.2398 31.7243C38.8577 31.6758 38.4893 31.6637 38.1073 31.6879C37.8072 31.7122 37.5206 31.7607 37.2341 31.8213C37.1796 31.8213 37.1386 31.8455 37.0841 31.8577C37.0022 31.8819 36.9203 31.9183 36.8385 31.8819C36.8248 31.8819 36.7975 31.8819 36.7702 31.894C36.4564 31.9789 36.1563 32.088 35.8698 32.2215C35.7197 32.2822 35.5697 32.3428 35.4332 32.4034C35.3922 32.4155 35.3514 32.4519 35.3104 32.4762C34.9693 32.6338 34.6555 32.8158 34.3417 33.0098C34.3417 33.0098 34.3417 33.0098 34.3143 33.0098C34.2598 32.937 34.137 32.9249 34.1097 32.8279C33.9732 32.8279 33.9869 32.658 33.8504 32.6459C33.8232 32.6459 33.8096 32.5974 33.7959 32.5732C33.7549 32.5247 33.7141 32.4883 33.6594 32.4277C33.6594 32.4155 33.6868 32.3792 33.7277 32.3549C33.8777 32.2458 34.0279 32.1244 34.1779 32.0153C34.3553 31.8698 34.5326 31.7243 34.6964 31.5787C34.7236 31.5544 34.751 31.5302 34.7783 31.518C35.0102 31.3725 35.2285 31.2149 35.474 31.0815C35.6788 30.9602 35.9106 30.8389 36.1153 30.7298C36.3609 30.5964 36.6065 30.463 36.8522 30.3295C37.0158 30.2447 37.1796 30.1598 37.3433 30.0991C37.7526 29.9293 38.162 29.7595 38.5849 29.5898C38.7349 29.5291 38.8851 29.4806 39.0351 29.4321C39.4308 29.2866 39.8401 29.141 40.2357 29.0076C40.5223 28.9106 40.8088 28.8257 41.1089 28.7408C41.4091 28.6438 41.7229 28.5589 42.0231 28.4619C42.2141 28.4134 42.3914 28.3648 42.5826 28.3163C42.7872 28.2678 43.0055 28.2072 43.2101 28.1587C43.4966 28.098 43.7831 28.0495 44.0697 27.9889C44.3017 27.9525 44.5335 27.904 44.7655 27.8797C44.9701 27.8555 45.1884 27.8312 45.393 27.807C45.5159 27.7948 45.6387 27.7827 45.7615 27.7706C45.8843 27.7585 45.898 27.7706 45.898 27.8797C45.898 28.1951 45.8706 28.5104 45.857 28.8257C45.8433 29.1895 45.7751 29.5534 45.707 29.9172C45.666 30.1112 45.6387 30.2932 45.6114 30.4872C45.5978 30.5721 45.5705 30.6449 45.5568 30.7298C45.5022 30.9723 45.4477 31.2027 45.393 31.4453C45.2704 31.8819 45.1476 32.3064 45.0111 32.7309C44.9019 33.0583 44.7928 33.3979 44.6836 33.7253C44.5881 34.0164 44.479 34.2953 44.3698 34.5743C44.247 34.8775 44.1379 35.1807 44.0014 35.4839C43.8377 35.8355 43.6604 36.1873 43.4556 36.5269C43.2238 36.9149 42.9918 37.303 42.7326 37.679C42.3643 38.2127 41.9685 38.7342 41.5456 39.2435C41.5047 39.2799 41.4774 39.3284 41.4364 39.3648V39.3405ZM50.5914 48.7274C49.8683 49.4065 49.6227 49.9644 49.1724 49.9159C49.036 49.9038 48.9541 49.8432 48.8859 49.8068C47.9035 49.1883 46.894 48.1453 46.894 48.1453C46.0071 47.2235 45.857 47.2114 45.4067 46.605C45.0111 46.0714 44.8201 45.8047 44.8201 45.4165C44.8201 44.6768 45.5159 43.9248 46.2526 43.8035C46.621 43.7429 46.9212 43.7914 47.2078 43.8642C47.7399 43.9854 48.1218 44.1917 49.9093 45.5863C49.9093 45.5863 50.4414 45.9987 51.2326 46.7869C51.6829 47.2357 51.792 47.3813 51.792 47.5632C51.792 47.9513 51.3418 48.024 50.5777 48.7395L50.5914 48.7274Z" fill="white"/>
</svg>
