<svg width="69" height="69" viewBox="0 0 69 69" fill="none" xmlns="http://www.w3.org/2000/svg">
<rect width="69" height="69" rx="20" fill="#8B6F45"/>
<path d="M37.6005 27.4924C37.7331 27.4924 37.8508 27.4924 37.9686 27.4924C38.9115 27.4924 39.8691 27.4924 40.8119 27.5205C41.195 27.5205 41.5927 27.5626 41.9758 27.6187C42.1526 27.6468 42.3146 27.7309 42.4325 27.8572C42.6828 28.1238 42.948 28.3763 43.1395 28.685C43.2721 28.8954 43.4194 29.1199 43.5962 29.3023C43.6993 29.4145 43.7435 29.5549 43.8466 29.6671C43.9497 29.7653 44.0087 29.9057 44.0971 30.032C44.1413 30.0881 44.2002 30.1301 44.2149 30.1862C44.2739 30.3266 44.4064 30.4107 44.4801 30.537C44.539 30.6211 44.6127 30.6913 44.6274 30.8035C44.6274 30.8176 44.6274 30.8457 44.6422 30.8457C44.7747 30.8457 44.7306 30.9859 44.7895 31.042C44.8337 31.0842 44.8926 31.1263 44.8926 31.1824C44.8926 31.2526 44.9368 31.2806 44.981 31.3087C45.0547 31.3507 44.981 31.463 45.0989 31.477C45.1873 31.6874 45.3346 31.8558 45.4672 32.0382C45.5556 32.1504 45.5998 32.3049 45.7471 32.389C45.8207 32.431 45.8797 32.5153 45.9533 32.5714C46.027 32.6275 46.1154 32.6556 46.189 32.6977C46.2627 32.7257 46.3216 32.7818 46.3953 32.7958C46.6457 32.852 46.9109 32.9221 47.1614 32.9501C47.7063 33.0062 48.2514 33.0625 48.7818 33.2027C49.0911 33.287 49.4005 33.3711 49.6804 33.5394C49.7393 33.5675 49.7246 33.6236 49.7688 33.6516C49.9603 33.7779 50.0782 33.9744 50.2255 34.1428C50.2402 34.1707 50.2402 34.1989 50.255 34.2409V34.269C50.4465 34.3672 50.4907 34.5496 50.5643 34.718C50.5938 34.7741 50.6233 34.8302 50.6527 34.8863C50.6822 34.9565 50.6969 35.0407 50.7411 35.1108C50.8295 35.2511 50.8737 35.4195 50.9179 35.5738C50.9474 35.686 50.9621 35.8123 50.9768 35.9386C51.0063 36.2053 51.0505 36.4858 51.08 36.7524C51.0947 36.9768 51.0947 37.2013 51.0947 37.4118C51.0947 37.8046 51.0947 38.1974 51.0947 38.5763C51.0947 39.1234 51.0947 39.6847 51.0505 40.2318C51.021 40.5125 51.021 40.7931 50.9916 41.0737C50.9916 41.1859 50.9621 41.2841 50.9474 41.3963C50.9474 41.4806 50.8737 41.5226 50.8148 41.5787C50.5938 41.7612 50.3286 41.8032 50.0487 41.8032C49.3858 41.8032 48.7376 41.8032 48.0746 41.8032C47.7505 41.8032 47.4411 41.7893 47.1172 41.7332C47.073 41.7332 47.0435 41.7332 46.9993 41.7332C46.9256 41.7332 46.8962 41.7611 46.8814 41.8313C46.6899 42.6451 46.2627 43.3325 45.6292 43.8937C45.3935 44.1042 45.0989 44.2726 44.8042 44.3989C44.2591 44.6374 43.6846 44.7074 43.11 44.7074C42.4914 44.7074 41.8874 44.6093 41.2981 44.3848C41.0918 44.3146 40.9151 44.2024 40.7088 44.1183C40.3552 43.9639 40.0606 43.7253 39.8102 43.4588C39.4124 43.0379 39.1619 42.5469 39.0293 41.9997C39.0293 41.9576 38.9999 41.9015 38.9851 41.8593C38.661 41.8734 38.3369 41.9015 38.0128 41.9015C37.6889 41.9015 37.35 41.8874 37.0259 41.8734C36.4661 41.8734 35.8915 41.8734 35.3317 41.8593C34.8308 41.8593 34.3299 41.8454 33.829 41.8313C33.225 41.8313 32.6064 41.8313 32.0024 41.8173C31.4131 41.8173 30.8238 41.7893 30.2345 41.7893C29.881 41.7893 29.5274 41.7611 29.1738 41.705C29.1591 41.705 29.1296 41.705 29.1149 41.705C29.0412 41.9154 28.9676 42.126 28.8939 42.3223C28.7318 42.7432 28.4962 43.1361 28.1721 43.4729C28.0248 43.6272 27.848 43.7815 27.6859 43.9218C27.465 44.1183 27.1851 44.2445 26.9052 44.3568C26.3012 44.6093 25.653 44.6513 25.0048 44.6093C24.5039 44.5813 24.0177 44.483 23.5463 44.3287C23.1633 44.1883 22.795 44.034 22.4709 43.7815C22.0732 43.4729 21.7491 43.1361 21.5281 42.6871C21.4102 42.4347 21.2776 42.168 21.2187 41.9015C21.2187 41.8593 21.1893 41.8313 21.1745 41.7893C21.1156 41.7893 21.0714 41.7893 21.0272 41.7893C20.6442 41.7893 20.2759 41.8173 19.8929 41.7893C19.4656 41.7893 19.0532 41.7471 18.6259 41.7191C18.346 41.705 18.0661 41.663 17.7715 41.6349C17.6684 41.6349 17.5653 41.6349 17.4769 41.5367C17.4474 41.5086 17.3737 41.5086 17.3295 41.4946C17.2264 41.4665 17.138 41.4524 17.0349 41.4104C16.9171 41.3683 16.8434 41.2841 16.8139 41.1719C16.7403 40.9333 16.6519 40.7089 16.6814 40.4564C16.7108 40.0916 16.6961 39.7268 16.7108 39.362C16.7108 39.1516 16.7403 38.9271 16.755 38.7166C16.755 38.4641 16.755 38.2115 16.7845 37.973C16.7992 37.6783 16.8287 37.3837 16.8581 37.0891C16.8581 37.0329 16.8581 36.9768 16.8729 36.9207C16.8729 36.6121 16.8729 36.3175 16.8876 36.0088C16.8876 35.658 16.8876 35.3073 16.9171 34.9706C16.9613 34.4515 17.1233 33.9744 17.4769 33.5816C17.6831 33.3431 17.9188 33.1325 18.1545 32.9221C18.2871 32.7958 18.4786 32.7818 18.6554 32.7257C18.9353 32.6416 19.2299 32.6275 19.5098 32.5854C19.6277 32.5854 19.7308 32.5573 19.8487 32.5153C20.2317 32.403 20.6147 32.389 21.0125 32.3469C21.204 32.3328 21.3955 32.2767 21.5723 32.2065C21.6901 32.1645 21.7638 32.0663 21.8227 31.9541C21.9553 31.6734 22.1174 31.4069 22.2647 31.1263C22.412 30.8596 22.5593 30.6072 22.7214 30.3405C22.8981 30.0459 23.0749 29.7653 23.237 29.4707C23.3401 29.2882 23.399 29.0919 23.5021 28.9236C23.6937 28.6148 23.8999 28.3202 24.0914 28.0256C24.1209 27.9835 24.1651 27.9554 24.1945 27.9133C24.2682 27.8291 24.3271 27.759 24.4008 27.6748C24.5186 27.5486 24.6512 27.4503 24.8427 27.4223C25.2405 27.3662 25.6382 27.31 26.036 27.3241C26.5958 27.3241 27.1409 27.3241 27.7007 27.3241C28.4667 27.3241 29.218 27.3381 29.9841 27.3521C30.1609 27.3521 30.1756 27.3521 30.2198 27.1978C30.3082 26.8751 30.3966 26.5524 30.4997 26.2437C30.5881 25.9631 30.6912 25.6825 30.7796 25.4019C30.8533 25.1494 30.9269 24.8828 31.0006 24.6303C31.0153 24.5741 31.0301 24.518 31.0595 24.4759C31.2216 24.2094 31.2658 23.9007 31.31 23.6061C31.31 23.4938 31.3836 23.4377 31.472 23.4096C31.5457 23.3816 31.6193 23.3675 31.693 23.3535C32.0613 23.2974 32.4443 23.2693 32.8126 23.2834C33.5049 23.2834 34.1973 23.3114 34.8897 23.2974C35.3759 23.2974 35.8768 23.3395 36.363 23.3675C36.4956 23.3675 36.6281 23.3956 36.6871 23.5359C36.7165 23.592 36.7165 23.6622 36.7313 23.7183C36.7313 23.7744 36.7313 23.8305 36.7313 23.8726C36.7755 23.9989 36.8197 24.1252 36.8786 24.2514C36.9522 24.4058 37.0259 24.5601 37.0259 24.7425C37.0259 24.7706 37.0554 24.7846 37.0701 24.8127C37.0701 24.8407 37.1143 24.8688 37.1143 24.8828C37.0406 25.0091 37.2027 25.1073 37.1732 25.2336C37.2911 25.4721 37.2764 25.7386 37.3795 25.9912C37.4089 26.0894 37.4531 26.1736 37.4089 26.2718C37.5121 26.3139 37.4089 26.4261 37.4973 26.4682C37.5121 26.4682 37.5121 26.5103 37.5268 26.5384C37.5268 26.5664 37.5268 26.6085 37.5268 26.6226C37.6299 26.7769 37.6005 26.9593 37.6594 27.1136C37.6594 27.1417 37.6594 27.1697 37.6447 27.2118C37.6447 27.282 37.6152 27.3521 37.6005 27.4503V27.4924ZM29.1591 39.9794C29.3653 39.9794 29.5716 39.9794 29.7631 39.9794C30.3818 39.9794 31.0006 39.9794 31.6046 39.9933C32.2234 39.9933 32.8421 39.9933 33.4755 39.9933C34.1237 39.9933 34.7719 39.9933 35.4201 39.9794C35.9357 39.9794 36.4661 39.9794 36.9817 39.9794C37.4384 39.9794 37.9097 39.9794 38.3664 39.9794C38.5727 39.9794 38.7789 39.9372 38.9851 39.9092C38.9999 39.8249 39.0146 39.7549 39.0293 39.6988C39.2651 38.899 39.7365 38.2536 40.4731 37.8046C40.974 37.482 41.5485 37.3416 42.1526 37.2855C42.7417 37.2294 43.3163 37.2574 43.8908 37.3276C44.5538 37.3978 45.1578 37.6222 45.6734 38.015C46.2774 38.4641 46.6605 39.0673 46.852 39.7688C46.8962 39.9232 46.9256 40.0775 46.9551 40.2459C47.6474 40.2179 48.3251 40.274 49.0175 40.2459C49.0175 40.0916 49.0175 39.9653 49.0175 39.8249C49.0175 39.4462 49.0322 39.0534 49.0469 38.6745C49.0469 38.2676 49.0617 37.8607 49.0764 37.4539C49.0764 37.3698 49.0764 37.2855 49.0764 37.2153C49.0764 37.1592 49.0469 37.1172 49.0027 37.1312C48.8996 37.1592 48.7965 37.1312 48.7081 37.1172C48.2956 37.0891 47.8831 37.1172 47.4706 37.0751C47.2792 37.047 47.1319 37.0049 46.9846 36.9066C46.9256 36.8646 46.852 36.8225 46.7931 36.7805C46.7194 36.7383 46.6899 36.6962 46.6899 36.6121C46.6752 36.3314 46.6457 36.0368 46.6163 35.7562C46.6163 35.6721 46.6163 35.5878 46.6899 35.5317C46.7931 35.4195 46.8814 35.3213 46.9993 35.223C47.0582 35.181 47.1319 35.1389 47.2056 35.1249C47.3527 35.0969 47.5148 35.0969 47.6621 35.0969C47.8536 35.0969 48.0452 35.0969 48.2661 35.1249C48.1777 35.0547 48.1188 34.9986 48.0599 34.9706C47.78 34.8863 47.5001 34.7741 47.2203 34.718C46.8962 34.6478 46.5573 34.6339 46.2185 34.5917C46.0859 34.5776 45.9533 34.5917 45.8355 34.5356C45.7176 34.5076 45.5997 34.4935 45.4966 34.5356C45.2609 34.5917 45.0399 34.5917 44.8042 34.5917C44.5832 34.5917 44.3623 34.5917 44.1413 34.5917C43.8466 34.5917 43.5372 34.5917 43.2279 34.5917C42.9038 34.5917 42.5944 34.5917 42.2704 34.5776C41.8727 34.5776 41.4602 34.5776 41.0624 34.5776C40.6352 34.5776 40.2226 34.5637 39.7954 34.5637C39.324 34.5637 38.8526 34.5637 38.3959 34.5637C38.116 34.5637 37.8362 34.5637 37.5563 34.5496C37.2764 34.5496 37.0112 34.5496 36.7313 34.5496C36.0683 34.5496 35.4201 34.5496 34.7572 34.5496C34.4625 34.5496 34.1531 34.5496 33.8585 34.5496C33.6817 34.5496 33.4902 34.5356 33.3134 34.5356C33.0631 34.5356 32.8127 34.5356 32.5622 34.5356C32.1055 34.5356 31.6341 34.5215 31.1774 34.5215C30.5144 34.5215 29.8515 34.5215 29.1885 34.5215C28.5551 34.5215 27.9069 34.5215 27.2735 34.5215C26.8462 34.5215 26.4043 34.5215 25.9771 34.5215C25.4762 34.5215 24.99 34.5215 24.4892 34.5215C24.1651 34.5215 23.8557 34.5215 23.5316 34.5076C23.2075 34.5076 22.8981 34.5076 22.574 34.5076C22.3383 34.5076 22.0879 34.5076 21.8522 34.4795C21.6607 34.4654 21.4692 34.4515 21.2776 34.4795C21.1598 34.5076 21.0419 34.5076 20.9241 34.5215C20.7031 34.5496 20.4821 34.5637 20.2612 34.6198C19.9665 34.7039 19.6719 34.7461 19.3773 34.7882C19.2594 34.7882 19.1857 34.8583 19.1415 34.9565C19.0973 35.0687 19.0679 35.195 19.0826 35.3073C19.0826 35.3915 19.0826 35.4616 19.0826 35.5458C19.0826 35.6299 19.0826 35.7001 19.0826 35.7843C19.1121 36.0088 18.9795 36.2332 19.1121 36.4577C19.1121 36.4718 19.1121 36.5138 19.1121 36.542C19.0679 36.6261 19.1563 36.7524 19.0237 36.8225C19.0237 36.8225 19.0237 36.8225 19.0237 36.8366C19.0384 36.8786 19.0679 36.9066 19.0973 36.9488C19.0532 36.9488 19.0237 36.9488 18.9795 36.9488C19.1121 37.0329 19.0532 37.1452 19.0384 37.2294C19.0384 37.2855 19.009 37.3276 19.0384 37.3698C19.0532 37.3978 19.0384 37.4398 19.0384 37.482C19.0384 37.524 19.0384 37.5802 19.0237 37.6222C18.9942 37.6222 18.9795 37.6222 18.95 37.6363C19.009 37.7345 18.9942 37.8187 18.9795 37.9169C18.95 38.0711 18.9795 38.2536 18.9795 38.4219C18.9795 38.5343 19.009 38.6604 18.8911 38.7306C18.9648 38.8569 19.009 38.9551 18.8911 39.0814C18.8911 39.0814 18.8911 39.1234 18.8911 39.1515C18.8911 39.1795 18.8911 39.2077 18.8911 39.2357C18.8911 39.2638 18.8911 39.2778 18.8911 39.3058C18.95 39.4462 18.9353 39.5864 18.8616 39.6988C18.8911 39.811 18.9058 39.8811 18.9353 39.9933H21.1598C21.1598 39.9933 21.1893 39.8671 21.2187 39.797C21.2482 39.6847 21.2776 39.5725 21.3071 39.4742C21.4397 39.1234 21.6312 38.8008 21.8669 38.5061C22.2057 38.0993 22.6182 37.7906 23.1191 37.5942C23.6937 37.3557 24.2977 37.2574 24.9164 37.2715C25.3141 37.2715 25.7119 37.3135 26.1097 37.3416C26.64 37.3837 27.1261 37.552 27.5681 37.8187C28.069 38.1133 28.4667 38.5343 28.7613 39.0393C28.9528 39.376 29.056 39.7549 29.1296 40.1336L29.1591 39.9794ZM33.0484 32.5432V29.3444C33.0484 29.3444 32.9894 29.3444 32.96 29.3444C32.6506 29.3444 32.3412 29.3444 32.0318 29.3444C31.8109 29.3444 31.5751 29.3444 31.3542 29.3444C30.8827 29.3444 30.426 29.3304 29.9546 29.3304C29.5421 29.3304 29.1443 29.3304 28.7318 29.3304C28.3194 29.3304 27.9069 29.3304 27.4797 29.3304C27.2882 29.3304 27.0967 29.3304 26.9199 29.3304C26.4485 29.3164 25.9918 29.2882 25.5204 29.2743C25.4909 29.2743 25.432 29.2882 25.4173 29.3164C25.3436 29.4145 25.2847 29.5128 25.2847 29.6251C25.2847 29.7232 25.1816 29.7653 25.1963 29.8635C25.0342 29.9477 25.0637 30.1161 24.9753 30.2424C24.9164 30.3405 24.9016 30.4668 24.8133 30.565C24.7543 30.6352 24.7543 30.7335 24.6659 30.7896C24.6659 30.9579 24.5628 31.0702 24.4892 31.1965C24.3124 31.505 24.1798 31.8278 23.9736 32.1084C23.8999 32.2065 23.8852 32.3469 23.841 32.5012C26.9052 32.5153 29.9546 32.5432 33.0484 32.5573V32.5432ZM43.2868 32.6134C43.0069 32.0803 42.6828 31.6033 42.3883 31.1122C42.1673 30.7615 41.9758 30.3966 41.7695 30.0459C41.6517 29.8214 41.5338 29.597 41.4307 29.3865C39.2356 29.3865 37.0701 29.3584 34.875 29.3584V32.5714C37.6889 32.5854 40.4731 32.6134 43.2868 32.6275V32.6134ZM45.202 40.9053C45.1725 40.779 45.1578 40.6528 45.1283 40.5265C45.0252 40.1757 44.8484 39.8671 44.6127 39.5864C44.3181 39.2357 43.9645 38.9832 43.5225 38.8288C43.331 38.7587 43.1395 38.7447 42.948 38.7727C42.4619 38.8288 42.0347 39.0112 41.6517 39.2919C41.2834 39.5584 41.0035 39.8811 40.8561 40.2879C40.7677 40.5405 40.6941 40.779 40.7383 41.0596C40.8267 41.5226 41.0182 41.9436 41.3423 42.3084C41.6517 42.6591 42.02 42.9397 42.4619 43.1081C42.6535 43.1782 42.8448 43.2624 43.0511 43.2062C43.4783 43.094 43.8761 42.9116 44.2149 42.631C44.5096 42.3925 44.7306 42.1119 44.9073 41.7893C45.0547 41.5226 45.1725 41.242 45.1873 40.9194L45.202 40.9053ZM25.4467 38.6745C25.0342 38.6745 24.7101 38.7587 24.386 38.885C23.9294 39.0814 23.5463 39.376 23.2812 39.7829C22.9718 40.2318 22.8392 40.7089 23.0455 41.242C23.2075 41.663 23.4285 42.0417 23.7673 42.3645C24.0177 42.603 24.3124 42.7994 24.6365 42.9397C24.8869 43.0379 25.1374 43.1221 25.4173 43.0238C25.7561 42.9116 26.0802 42.7573 26.3601 42.5469C26.802 42.1961 27.1409 41.7612 27.3177 41.242C27.3913 41.0456 27.4355 40.8352 27.3913 40.6248C27.3471 40.4424 27.3029 40.2599 27.2293 40.0916C27.023 39.6425 26.6989 39.2778 26.2717 38.9973C26.0065 38.8288 25.7414 38.6886 25.4615 38.6886L25.4467 38.6745ZM32.6801 25.3037C32.6653 25.4019 32.6359 25.5001 32.6064 25.6124C32.5769 25.7948 32.5475 25.9772 32.5033 26.1596C32.4591 26.342 32.4149 26.5103 32.3707 26.6927C32.3265 26.8611 32.2823 27.0294 32.2381 27.1978C32.2234 27.2679 32.2086 27.3381 32.1792 27.4223C33.3723 27.4223 34.5362 27.4503 35.7147 27.4644C35.5822 26.7488 35.4643 26.0333 35.3317 25.3037H32.6653H32.6801Z" fill="white"/>
</svg>
