<svg width="60" height="60" viewBox="0 0 60 60" fill="none" xmlns="http://www.w3.org/2000/svg">
<rect width="60" height="60" rx="12" fill="#C39E4B"/>
<path d="M30.1814 34.749C31.0302 34.749 31.7417 35.4605 31.7417 36.3094C31.7417 37.1582 31.0302 37.8697 30.1814 37.8697C29.3638 37.8697 28.621 37.1582 28.6585 36.3468C28.621 35.4543 29.3263 34.749 30.1814 34.749Z" fill="white"/>
<path d="M15.7389 40.2788C14.7591 38.5874 14.7528 36.5714 15.7265 34.8863L25.5004 17.9598C26.4678 16.256 28.2153 15.2449 30.1751 15.2449C32.1349 15.2449 33.8824 16.2622 34.8499 17.9536L44.6362 34.8988C45.6099 36.6027 45.6036 38.6311 44.6175 40.3225C43.6439 41.9951 41.9025 43 39.9552 43H20.4324C18.4789 43 16.7251 41.9827 15.7389 40.2788ZM17.861 39.0555C18.404 39.9917 19.3651 40.5472 20.4387 40.5472H39.9615C41.0225 40.5472 41.9774 40.0042 42.5079 39.0867C43.0447 38.1567 43.0509 37.0458 42.5142 36.1096L32.7278 19.1707C32.1973 18.2407 31.2486 17.6915 30.1751 17.6915C29.1078 17.6915 28.1529 18.2469 27.6224 19.1769L17.8423 36.1158C17.318 37.0271 17.3242 38.1255 17.861 39.0555Z" fill="white"/>
<path d="M30.5684 23.7955C31.3111 24.0077 31.7729 24.6818 31.7729 25.4994C31.7355 25.9925 31.7043 26.4918 31.6668 26.9848C31.5607 28.8635 31.4546 30.7047 31.3485 32.5833C31.3111 33.2199 30.818 33.6818 30.1814 33.6818C29.5448 33.6818 29.0455 33.1887 29.0143 32.5458C29.0143 32.1589 29.0143 31.8031 28.9768 31.4099C28.9082 30.2053 28.8333 29.0008 28.7646 27.7962C28.7272 27.016 28.6585 26.2359 28.6211 25.4557C28.6211 25.1748 28.6585 24.9252 28.7646 24.6755C29.0829 23.9765 29.8257 23.6208 30.5684 23.7955Z" fill="white"/>
</svg>
