<svg width="69" height="69" viewBox="0 0 69 69" fill="none" xmlns="http://www.w3.org/2000/svg">
<rect width="69" height="69" rx="20" fill="#8B6F45"/>
<g clip-path="url(#clip0_795_1726)">
<path d="M21.9028 40.1186C21.7639 39.9936 21.6111 39.8686 21.4723 39.7436C21.1111 39.3964 20.7917 39.0214 20.6806 38.5075C20.6806 38.4658 20.6528 38.4242 20.6389 38.3825C20.6111 38.2576 20.6389 38.2297 20.4306 38.2158C20 38.2158 19.5695 38.1325 19.1667 38.0075C19.0139 37.9659 18.8611 37.9242 18.7084 37.8686C18.6389 37.8408 18.5695 37.8131 18.5278 37.7575C18.3889 37.6047 18.2361 37.4658 18.1945 37.2436C18.1389 36.9103 18.125 36.5769 18.1389 36.2436C18.1389 36.1047 18.1389 35.952 18.1389 35.8131C18.1389 35.4242 18.1667 35.0492 18.1667 34.6602C18.1667 34.3548 18.1667 34.0353 18.1389 33.7297C18.1389 33.4519 18.125 33.1881 18.1111 32.9103C18.0973 32.5491 18.0556 32.202 18.0417 31.8408C18.0278 31.4381 18 31.0214 18.0834 30.6186C18.1111 30.4936 18.1528 30.3826 18.2084 30.2714C18.2917 30.1047 18.3889 29.952 18.4723 29.7852C18.5139 29.7159 18.5695 29.6603 18.6111 29.5908C18.6667 29.5214 18.75 29.5075 18.8195 29.4519C18.9028 29.3825 19.0278 29.3965 19.0834 29.2853C19.1528 29.313 19.2084 29.2436 19.2639 29.2436C19.6111 29.2158 19.9445 29.202 20.2917 29.1881C20.3473 29.1881 20.3889 29.1881 20.4306 29.1741C20.4306 29.0492 20.4306 28.9242 20.4306 28.8131C20.4306 28.5075 20.4306 28.2019 20.4306 27.8964C20.4306 27.8547 20.4445 27.8131 20.4584 27.7714C20.4861 27.5631 20.4861 27.3686 20.4722 27.1603C20.4584 26.7714 20.5834 26.4381 20.9306 26.2158C20.9445 26.2158 20.9723 26.1881 20.9723 26.1742C21.1111 25.9658 21.3334 25.8825 21.5417 25.7714C21.7223 25.6742 21.9167 25.6742 22.1111 25.6603C22.6806 25.6325 23.2639 25.6186 23.8334 25.6047C24.4306 25.6047 25.0139 25.6047 25.6111 25.6047C26 25.6047 26.3889 25.6047 26.7778 25.6047C27 25.6047 27.2222 25.6047 27.4445 25.6047C27.8889 25.6047 28.3195 25.6047 28.7639 25.6047C29.4167 25.6047 30.0695 25.6047 30.7223 25.6047C31.2084 25.6047 31.6945 25.6047 32.1668 25.6047C32.6528 25.6047 33.1389 25.6047 33.625 25.6047C34.3056 25.6047 35 25.6047 35.6806 25.6047C36.2778 25.6047 36.8889 25.6047 37.4861 25.6047C37.7918 25.6047 38.0972 25.6047 38.4029 25.6047C38.8056 25.6047 39.2222 25.6047 39.625 25.6047C39.8889 25.6047 40.1667 25.6325 40.4168 25.7436C40.5417 25.7992 40.6389 25.8547 40.7362 25.9519C40.9444 26.1603 41.1389 26.3964 41.2778 26.6603C41.4862 27.0214 41.7084 27.3825 41.9168 27.7436C41.9861 27.8547 42.0417 27.9797 42.1111 28.1047C42.1667 28.2019 42.1945 28.2992 42.2778 28.3825C42.3472 28.452 42.3751 28.5492 42.4167 28.6325C42.4444 28.6742 42.4584 28.7158 42.5 28.7575C42.5556 28.827 42.5972 28.8964 42.625 28.9797C42.6668 29.1048 42.7501 29.2297 42.8194 29.3409C42.9306 29.5075 43.0418 29.6742 43.1251 29.8686C43.1944 30.0076 43.25 30.1742 43.375 30.2853C43.4028 30.3131 43.4028 30.3547 43.4168 30.3964C43.4861 30.5492 43.5694 30.6741 43.6667 30.813C43.7362 30.8965 43.7639 31.0214 43.8195 31.1186C43.8889 31.2297 43.9444 31.3686 44.0279 31.4658C44.1112 31.5492 44.1389 31.6602 44.1945 31.7436C44.2639 31.8408 44.2917 31.9659 44.4167 32.0352C44.3889 32.1464 44.5278 32.1186 44.5556 32.1881C44.5695 32.2576 44.6111 32.313 44.6389 32.3825C44.6528 32.4102 44.6667 32.4519 44.6944 32.4658C44.7639 32.4936 44.7779 32.5631 44.7917 32.6326C44.8472 32.6326 44.8889 32.6326 44.9306 32.6326C45.1945 32.6326 45.4584 32.6603 45.7222 32.6326C45.9167 32.6186 46.1111 32.6047 46.3056 32.6047C46.5694 32.6047 46.8195 32.577 47.0833 32.6047C47.1668 32.6047 47.2639 32.577 47.3473 32.577C47.4583 32.577 47.5695 32.577 47.6667 32.577C47.9722 32.577 48.2778 32.5631 48.5833 32.577C48.7917 32.577 49 32.5631 49.2084 32.577C49.4168 32.5908 49.625 32.5908 49.8334 32.6047C50.0972 32.6186 50.375 32.6464 50.639 32.6603C50.8612 32.6742 51.0834 32.688 51.3195 32.688C51.5417 32.688 51.7778 32.7019 52 32.7297C52.1528 32.7436 52.2917 32.8269 52.4028 32.952C52.5139 33.0769 52.6529 33.1881 52.7778 33.2991C52.8334 33.3408 52.8611 33.4103 52.9028 33.4659C52.9723 33.5352 53.0695 33.5631 53.0833 33.6881C53.2501 33.7436 53.2778 33.9242 53.375 34.0353C53.4167 34.077 53.4722 34.1186 53.5 34.1742C53.6667 34.4658 53.8889 34.7158 54.0556 35.0075C54.2083 35.2714 54.25 35.5491 54.25 35.8269C54.25 36.1602 54.2639 36.5075 54.2639 36.8409C54.2639 37.188 54.25 37.5353 54.2362 37.8826C54.2362 38.1048 54.2362 38.313 54.2222 38.5353C54.2222 38.8131 54.2083 39.0909 54.2083 39.3686C54.2083 39.6186 54.2083 39.8825 54.2362 40.1326C54.2639 40.3825 54.1806 40.5769 54.0001 40.7436C53.875 40.8686 53.7223 40.9659 53.5834 41.0631C53.5555 41.0769 53.5278 41.1048 53.5139 41.1186C53.5278 41.3965 53.5556 41.6603 53.5556 41.9241C53.5556 42.6464 53.4167 43.3269 53.0972 43.9797C52.8611 44.4658 52.5556 44.8964 52.1806 45.2853C51.9029 45.5769 51.5972 45.8547 51.2639 46.077C50.8612 46.3548 50.4583 46.6325 50 46.7991C49.625 46.938 49.2361 47.0492 48.8194 47.0908C48.3611 47.1325 47.9028 47.1325 47.4583 47.0492C47.1389 46.9936 46.8334 46.9103 46.5278 46.8131C46.2361 46.7298 45.9583 46.6186 45.6806 46.4797C45.3195 46.2992 45.0001 46.077 44.7084 45.813C44.4306 45.5769 44.1806 45.3131 43.9723 45.0076C43.8195 44.7853 43.6529 44.5491 43.5139 44.313C43.4168 44.1464 43.3472 43.9519 43.2779 43.7714C43.25 43.7158 43.2223 43.6742 43.2084 43.6186C43.1111 43.2715 43.0278 42.9242 43 42.5769C42.9862 42.3964 42.9722 42.2019 42.9583 42.0076C42.9167 42.0076 42.875 42.0076 42.8334 42.0076C42.6945 42.0076 42.5556 41.9797 42.4306 41.9797C42.3472 41.9797 42.25 41.9936 42.1667 42.0076C41.9584 42.0076 41.75 42.0353 41.5278 42.0353C41.0972 42.0353 40.6529 42.0353 40.2223 42.0353C39.5139 42.0353 38.7917 42.0214 38.0833 42.0076C37.6111 42.0076 37.1389 41.9936 36.6528 41.9936C36.3056 41.9936 35.9584 41.9936 35.6251 41.9936C34.7639 42.0214 33.9167 42.0492 33.0556 42.063C32.7779 42.063 32.5139 42.063 32.2361 42.063C32.1806 42.063 32.1112 42.063 32.0556 42.063C32.0279 42.2575 32 42.438 31.9584 42.6048C31.9028 42.8269 31.8611 43.0631 31.7778 43.2715C31.6667 43.563 31.5417 43.8547 31.3612 44.1187C31.2084 44.3547 31.0418 44.577 30.8611 44.7852C30.5417 45.1325 30.1945 45.4519 29.8056 45.6881C29.4861 45.8825 29.1528 46.077 28.8195 46.2575C28.3334 46.5076 27.8195 46.6325 27.2778 46.7019C26.8334 46.7436 26.3889 46.7436 25.9445 46.6742C25.7361 46.6465 25.5139 46.6186 25.3056 46.563C25.0973 46.5076 24.875 46.4381 24.6806 46.3548C24.4723 46.2715 24.2778 46.188 24.0834 46.0908C23.7778 45.9381 23.5139 45.7436 23.2639 45.5215C23.0139 45.2991 22.7639 45.063 22.5556 44.7992C22.3195 44.5075 22.0973 44.1881 21.9445 43.827C21.8195 43.5492 21.7223 43.2715 21.6528 42.9936C21.5695 42.6741 21.5417 42.3547 21.5278 42.0353C21.5 41.5491 21.5695 41.0908 21.6945 40.6186C21.7361 40.452 21.8056 40.2853 21.8611 40.0908L21.9028 40.1186ZM52.4861 38.577C52.4861 38.4798 52.5139 38.4102 52.5139 38.3269C52.5139 37.8964 52.5417 37.4658 52.5417 37.0214C52.5417 36.7297 52.5556 36.438 52.5417 36.1602C52.5417 36.0353 52.514 35.8964 52.4584 35.7852C52.3612 35.5908 52.2361 35.4102 52.1111 35.2436C51.9445 35.0075 51.7639 34.7853 51.5972 34.5492C51.5556 34.5076 51.5279 34.4797 51.4584 34.4658C51.0834 34.452 50.7223 34.4241 50.3473 34.3964C49.7362 34.3686 49.1111 34.3269 48.5 34.3131C47.8889 34.2852 47.2917 34.2852 46.6806 34.2575C46.1667 34.2436 45.6528 34.2159 45.1389 34.188C44.75 34.1742 44.3611 34.1186 43.9723 34.0353C43.7918 33.9936 43.6389 33.9519 43.5556 33.7714C43.5556 33.7714 43.5556 33.7576 43.5417 33.7436C43.3195 33.4659 43.0834 33.2158 42.8889 32.9241C42.5 32.3825 42.2083 31.7853 41.8889 31.2019C41.4306 30.3547 41.0279 29.4798 40.5417 28.6465C40.3056 28.2436 40.0972 27.8269 39.875 27.4103C39.8334 27.3131 39.7639 27.2853 39.6668 27.2853C38.8056 27.2853 37.9584 27.2853 37.0972 27.2853C36.1806 27.2853 35.2778 27.2853 34.3612 27.2853C33.8334 27.2853 33.3195 27.2853 32.7917 27.2853C31.9861 27.2853 31.1667 27.2853 30.3611 27.2853C29.5695 27.2853 28.7778 27.2853 27.9861 27.2853C26.8611 27.2853 25.75 27.2853 24.625 27.2714C23.9167 27.2714 23.1945 27.2436 22.4861 27.2297C22.375 27.2297 22.2639 27.2297 22.1528 27.2297C22.1528 27.2575 22.1528 27.2853 22.1528 27.2992C22.1528 27.5492 22.1389 27.7992 22.1389 28.0492C22.1389 28.9936 22.1667 29.9241 22.1667 30.8686C22.1667 31.5769 22.1667 32.2853 22.1667 32.9797C22.1667 33.6741 22.1806 34.3686 22.2084 35.0631C22.2084 35.5214 22.2361 35.9658 22.2778 36.4242C22.3056 36.8686 22.3611 37.3131 22.4028 37.7714C22.4028 37.938 22.4723 38.0908 22.5417 38.2436C22.5834 38.3269 22.6389 38.3825 22.6945 38.4519C22.7361 38.5075 22.8056 38.5491 22.8611 38.6186C22.8611 38.6186 22.8889 38.5908 22.9028 38.577C23.1389 38.2576 23.4306 37.9936 23.7361 37.7436C24.0417 37.4936 24.375 37.2852 24.7223 37.1047C25.0139 36.9519 25.3334 36.8409 25.6528 36.7576C25.9861 36.6741 26.3334 36.6186 26.6667 36.6048C27 36.5769 27.3473 36.6048 27.6806 36.6603C27.9861 36.702 28.2778 36.7714 28.5556 36.8825C28.8889 37.0214 29.2084 37.1742 29.5278 37.3131C29.6945 37.3825 29.8334 37.5076 30 37.563C30.0556 37.5909 30.1528 37.6325 30.1667 37.6881C30.2084 37.7853 30.2917 37.7436 30.3334 37.7991C30.4306 37.8964 30.5417 37.9936 30.6528 38.0908C30.75 38.1741 30.8473 38.2436 30.9167 38.3269C31.0278 38.4519 31.1111 38.6186 31.2361 38.7297C31.4168 38.8964 31.4861 39.1325 31.6111 39.327C31.7083 39.4797 31.7778 39.6603 31.8472 39.8409C31.9306 40.0908 31.9861 40.3408 32.0556 40.6047C32.0972 40.6047 32.1528 40.6047 32.2222 40.6047C32.5139 40.5769 32.8056 40.5353 33.0973 40.5076C33.3751 40.4797 33.6668 40.4658 33.9445 40.452C34.4722 40.4103 34.9861 40.3825 35.5139 40.3408C35.75 40.3269 35.9861 40.3131 36.2222 40.3131C36.3334 40.3131 36.4584 40.3131 36.5695 40.3131C36.7501 40.3131 36.9306 40.2992 37.1251 40.2852C37.2917 40.2852 37.4584 40.2852 37.6389 40.2852C37.8195 40.2852 38 40.2852 38.1806 40.2852C38.4029 40.2852 38.6251 40.2852 38.8472 40.2852C39.0694 40.2852 39.2778 40.2852 39.5 40.2852C39.7222 40.2852 39.9445 40.3131 40.1667 40.2852C40.7362 40.2575 41.2917 40.2159 41.8612 40.188C42.125 40.1742 42.3751 40.1603 42.6389 40.1603C42.8611 40.1603 43.0972 40.1742 43.3195 40.188C43.3612 40.188 43.4028 40.188 43.4584 40.188C43.4722 40.1603 43.4861 40.1326 43.5001 40.1047C43.6806 39.7436 43.8472 39.3686 44.0417 39.0214C44.2084 38.7159 44.4306 38.4242 44.6806 38.1881C44.7917 38.0908 44.8889 37.9797 45.0001 37.8826C45.1389 37.7575 45.2639 37.6465 45.4167 37.5353C45.5556 37.4381 45.6945 37.3548 45.8334 37.2715C45.9862 37.188 46.1251 37.0908 46.2917 37.0214C46.4861 36.9381 46.6806 36.8547 46.8889 36.7992C47.2084 36.7158 47.5278 36.6325 47.8612 36.5908C48.0973 36.5631 48.3472 36.5908 48.5972 36.5908C49.1111 36.5908 49.6111 36.7158 50.0972 36.9242C50.2222 36.9798 50.3611 37.0214 50.4722 37.0908C50.7084 37.2297 50.9445 37.3686 51.1806 37.5076C51.2639 37.5492 51.3195 37.6186 51.4028 37.6603C51.6805 37.8131 51.9167 38.0075 52.1528 38.2297C52.2084 38.2853 52.25 38.3547 52.3056 38.3965C52.3612 38.4519 52.4306 38.4936 52.5139 38.5631L52.4861 38.577ZM30.3195 41.7715C30.3056 41.6464 30.2778 41.4658 30.25 41.2714C30.2084 40.8964 30.0973 40.5492 29.9445 40.2159C29.7917 39.8965 29.625 39.5769 29.375 39.2991C29.1945 39.0769 28.9861 38.8825 28.7639 38.7159C28.4723 38.4936 28.1528 38.313 27.8056 38.1881C27.5 38.0631 27.1806 37.9936 26.8472 37.9936C26.4861 37.9936 26.1389 38.0352 25.7917 38.1186C25.3195 38.2297 24.8889 38.4381 24.5417 38.7992C24.3473 39.0076 24.1528 39.2158 24 39.4519C23.7639 39.813 23.5973 40.2019 23.4861 40.6047C23.4028 40.9103 23.3473 41.2297 23.3611 41.5491C23.3611 41.7159 23.3611 41.8825 23.4028 42.0353C23.4584 42.3408 23.5278 42.6325 23.6389 42.9242C23.7361 43.1742 23.8611 43.4103 24 43.6465C24.125 43.8547 24.2639 44.0353 24.4167 44.2158C24.625 44.4658 24.875 44.6603 25.125 44.8686C25.1945 44.9241 25.2778 44.9797 25.3611 45.0214C25.9167 45.2714 26.5139 45.3547 27.125 45.3131C27.8889 45.2575 28.5834 44.9658 29.1806 44.4936C29.4306 44.2992 29.6389 44.0631 29.8056 43.7853C29.9445 43.5353 30.0417 43.2715 30.125 42.9936C30.2361 42.6186 30.2639 42.2298 30.2778 41.7715H30.3195ZM48.2362 45.3408C48.4723 45.3131 48.7084 45.3131 48.9445 45.2714C49.2779 45.2158 49.5834 45.1186 49.8889 44.9797C50.0972 44.8825 50.2917 44.7852 50.4722 44.6603C50.7084 44.5075 50.9168 44.313 51.0973 44.0908C51.2639 43.9103 51.4167 43.7019 51.5279 43.4797C51.7501 43.0491 51.8056 42.5631 51.8194 42.0909C51.8194 41.9103 51.8056 41.7297 51.7778 41.5491C51.7501 41.3825 51.7222 41.2158 51.6806 41.0631C51.6389 40.9103 51.5695 40.7575 51.5 40.5909C51.3611 40.2297 51.1667 39.9103 50.9305 39.6186C50.7084 39.3547 50.4583 39.1465 50.1668 38.952C49.9306 38.7852 49.6667 38.6464 49.3889 38.5491C49.0695 38.4381 48.7501 38.4103 48.4167 38.3965C47.8472 38.3825 47.2917 38.4936 46.75 38.7159C46.5834 38.7852 46.4028 38.8686 46.25 38.9797C45.8611 39.2436 45.5695 39.6186 45.3472 40.0214C45.0834 40.4936 44.9168 40.9936 44.8612 41.5353C44.8195 41.9936 44.875 42.438 45.0278 42.8686C45.0694 42.9798 45.0973 43.1047 45.1389 43.2019C45.2083 43.3548 45.2918 43.4936 45.3611 43.6325C45.4306 43.7436 45.4861 43.8686 45.5695 43.9659C45.7084 44.1464 45.875 44.313 46.0139 44.4936C46.2223 44.7436 46.5001 44.9241 46.8055 45.0353C47.2501 45.2158 47.7223 45.3131 48.2083 45.327L48.2362 45.3408ZM20.4306 36.438C20.4306 36.438 20.4445 36.3686 20.4445 36.327C20.4306 35.7715 20.4028 35.2158 20.3889 34.6602C20.3889 34.2575 20.3889 33.8547 20.3889 33.4659C20.3889 33.1881 20.3889 32.9241 20.3889 32.6464C20.3889 32.1741 20.4167 31.7019 20.4306 31.2159C20.4306 31.0353 20.4306 30.8547 20.4306 30.6881C20.2084 30.6881 19.9861 30.6881 19.7778 30.6881C19.5834 30.6881 19.4584 30.7992 19.4445 31.0075C19.4445 31.2019 19.4445 31.3964 19.4445 31.5909C19.4445 31.7019 19.4723 31.827 19.4723 31.938C19.4723 32.9241 19.4861 33.9102 19.5 34.9103C19.5 34.9797 19.5 35.0492 19.5 35.1048C19.5 35.4381 19.5278 35.7853 19.5278 36.1186C19.5278 36.2575 19.5834 36.3547 19.7084 36.4103C19.8473 36.4797 19.9861 36.5075 20.1389 36.4797C20.2361 36.4659 20.3195 36.4519 20.4306 36.438Z" fill="white" stroke="white" stroke-width="0.14" stroke-miterlimit="10"/>
<path d="M24.0629 34.1046C24.0629 34.1046 24.0629 33.9936 24.0629 33.938C24.049 33.2157 24.0351 32.4936 24.0212 31.7713C24.0212 31.3963 24.0212 31.0353 24.0212 30.6603C24.0212 30.0213 24.0351 29.3964 24.049 28.7574C24.049 28.6602 24.049 28.5769 24.0629 28.4797C24.0629 28.4241 24.1046 28.3824 24.1462 28.3685C24.3129 28.313 24.4796 28.2713 24.6601 28.2713C24.924 28.2713 25.174 28.2574 25.4379 28.2435C25.6879 28.2435 25.924 28.2435 26.174 28.2435C26.4101 28.2435 26.6601 28.2435 26.8962 28.2435C27.2296 28.2435 27.5629 28.2435 27.8823 28.2435C28.0907 28.2435 28.299 28.2296 28.5074 28.2296C28.7435 28.2296 28.9796 28.2296 29.2157 28.2296C29.4101 28.2296 29.6046 28.2296 29.799 28.2158C30.0629 28.2158 30.3268 28.2019 30.5768 28.188C30.8823 28.188 31.2018 28.1602 31.5074 28.1463C31.674 28.1463 31.8268 28.0908 31.9934 28.1463C32.0351 28.1602 32.0906 28.1324 32.1462 28.1185C32.3963 28.1185 32.6462 28.0908 32.8962 28.0908C33.063 28.0908 33.2435 28.0491 33.4101 28.1185C33.5351 28.063 33.6462 28.1463 33.7712 28.1463C33.8963 28.1463 34.0073 28.1741 34.1324 28.2019C34.3407 28.2435 34.4795 28.3546 34.5212 28.5769C34.549 28.7157 34.5768 28.8546 34.5907 28.9935C34.5907 29.1324 34.5907 29.2852 34.5907 29.438C34.5907 29.813 34.5907 30.188 34.5907 30.5768C34.5907 30.9797 34.5907 31.3963 34.6046 31.799C34.6046 32.1186 34.6463 32.438 34.674 32.7574C34.7019 33.0908 34.7019 33.4102 34.674 33.7436C34.6463 33.9657 34.5212 34.0907 34.3546 34.1879C34.3129 34.2158 34.2573 34.2158 34.2018 34.2158C33.7157 34.2435 33.2296 34.2852 32.7296 34.2991C32.3546 34.313 31.9657 34.2991 31.5907 34.313C30.9796 34.313 30.3685 34.3268 29.7573 34.3268C29.2296 34.3268 28.7018 34.3268 28.174 34.2991C27.4101 34.2852 26.6601 34.2574 25.8962 34.2297C25.3546 34.2019 24.799 34.1602 24.2574 34.1325C24.2018 34.1325 24.1462 34.1046 24.0768 34.0907L24.0629 34.1046ZM32.8685 32.7435C32.8129 31.6602 32.7851 30.6047 32.8406 29.5074C30.299 29.6325 27.7712 29.5769 25.2296 29.5213C25.2296 29.7019 25.2296 29.8686 25.2296 30.0352C25.2435 30.4935 25.2712 30.9657 25.2851 31.424C25.2851 31.8407 25.2851 32.2575 25.2851 32.6879C25.2851 32.7852 25.299 32.7991 25.3962 32.813C25.4657 32.813 25.5212 32.813 25.5907 32.813C26.0212 32.813 26.4518 32.813 26.8962 32.813C27.1601 32.813 27.424 32.813 27.7018 32.813C28.0074 32.813 28.3129 32.813 28.6185 32.813C28.9657 32.813 29.299 32.813 29.6462 32.813C30.1601 32.813 30.6601 32.7991 31.174 32.7852C31.4102 32.7852 31.6323 32.7852 31.8685 32.7852C32.0351 32.7852 32.2018 32.7852 32.3684 32.7852C32.5352 32.7852 32.7018 32.7714 32.8823 32.7574L32.8685 32.7435Z" fill="white" stroke="white" stroke-width="0.14" stroke-miterlimit="10"/>
<path d="M40.8644 33.952C40.42 33.952 39.9617 33.952 39.5172 33.952C38.8644 33.952 38.2256 33.952 37.5728 33.952C37.3367 33.952 37.0866 33.952 36.8505 33.9659C36.7812 33.9659 36.7117 33.9797 36.6421 33.9797C36.3644 34.0076 36.1005 33.952 35.8367 33.8825C35.7533 33.8548 35.6562 33.7019 35.6422 33.6186C35.6422 33.3825 35.6144 33.1464 35.6144 32.8965C35.6144 32.8131 35.6144 32.7158 35.6144 32.6186C35.6144 32.5215 35.6006 32.4243 35.5866 32.3131C35.5727 32.0493 35.545 31.7853 35.5311 31.5354C35.5171 31.2575 35.4894 30.9797 35.4755 30.7019C35.4755 30.4381 35.4755 30.1743 35.4755 29.9103C35.4755 29.6604 35.4338 29.4103 35.4338 29.1742C35.4338 29.0353 35.4338 28.8825 35.4478 28.7436C35.4755 28.5214 35.6283 28.2992 35.9477 28.2992C36.0033 28.2992 36.0728 28.2992 36.1283 28.2992C36.3227 28.2853 36.5033 28.2576 36.6977 28.2437C36.9755 28.2298 37.2672 28.2159 37.545 28.202C37.6561 28.202 37.7671 28.1742 37.8644 28.1742C38.1144 28.1742 38.3505 28.1742 38.6006 28.1464C38.9339 28.1325 39.2394 28.1742 39.5588 28.2576C39.7256 28.2992 39.8366 28.3825 39.92 28.5353C40.0866 28.8409 40.2533 29.1465 40.3921 29.4659C40.4617 29.6186 40.5589 29.7714 40.6422 29.9242C40.6838 30.0075 40.7255 30.0908 40.7533 30.1743C40.8922 30.5631 41.0588 30.9381 41.2256 31.3131C41.295 31.4798 41.3505 31.6603 41.4338 31.8269C41.545 32.0631 41.5727 32.3131 41.6978 32.5492C41.8228 32.7714 41.9061 33.0075 42.0033 33.2436C42.0312 33.3269 42.045 33.4104 42.045 33.4937C42.045 33.5631 42.0312 33.6465 41.9616 33.6742C41.8644 33.7436 41.7672 33.8131 41.6562 33.8408C41.3783 33.8964 41.1005 33.9243 40.8366 33.9659C40.8366 33.9659 40.8366 33.952 40.8366 33.9381L40.8644 33.952ZM38.5727 29.5215H37.2533C37.1562 30.5493 37.3367 31.5354 37.3505 32.5353C37.6283 32.5215 37.8922 32.5076 38.1561 32.4936C38.42 32.4797 38.67 32.4936 38.9339 32.4659C39.1978 32.4381 39.4616 32.4659 39.7672 32.4659C39.7116 32.3548 39.67 32.2575 39.6283 32.1742C39.4062 31.6048 39.17 31.0353 38.9477 30.452C38.8921 30.2992 38.8644 30.1325 38.7811 29.9936C38.6978 29.8409 38.6283 29.6881 38.5727 29.5215Z" fill="white" stroke="white" stroke-width="0.14" stroke-miterlimit="10"/>
</g>
<defs>
<clipPath id="clip0_795_1726">
<rect width="37.5" height="37.5" fill="white" transform="translate(17.5 15.25)"/>
</clipPath>
</defs>
</svg>
