<svg width="69" height="69" viewBox="0 0 69 69" fill="none" xmlns="http://www.w3.org/2000/svg">
<rect width="69" height="69" rx="20" fill="#8B6F45"/>
<path d="M38.1484 28.2512C38.3428 28.1475 38.5114 28.0438 38.6927 27.9531C38.8873 27.8623 39.0688 27.7457 39.2891 27.6809C39.3927 27.642 39.4835 27.5772 39.5873 27.5383C39.7558 27.4605 39.9373 27.4216 40.0928 27.3179C40.1965 27.3438 40.2614 27.2401 40.3521 27.2272C40.4427 27.2142 40.5335 27.1753 40.6243 27.1364C40.7021 27.1105 40.7927 27.0975 40.8706 27.0716C41.0261 27.0198 41.1946 26.9679 41.3503 26.929C41.3761 26.929 41.415 26.8901 41.428 26.942C41.428 26.942 41.4539 26.942 41.4669 26.929C41.4927 26.9161 41.5058 26.8901 41.5317 26.8901C41.7521 26.8383 41.9725 26.7994 42.1927 26.7605C42.3095 26.7346 42.4131 26.7216 42.5299 26.7086C42.8021 26.6698 43.0872 26.6179 43.3595 26.6049C43.7095 26.579 44.0725 26.5401 44.4225 26.579C44.4614 26.579 44.5002 26.592 44.565 26.6049C44.5521 26.6309 44.5391 26.6438 44.5261 26.6698C44.6169 26.7216 44.7076 26.7475 44.8114 26.7475C44.9539 26.7475 45.0446 26.8123 45.0965 26.929C45.2131 27.1494 45.291 27.3827 45.3299 27.629C45.3818 27.992 45.4465 28.3549 45.4854 28.7179C45.5114 29.055 45.5243 29.392 45.5243 29.729C45.5243 30.1568 45.5373 30.5716 45.5243 30.9993C45.5243 31.2457 45.4984 31.492 45.4854 31.7253C45.4854 31.855 45.4854 31.9846 45.4595 32.1012C45.4335 32.3476 45.4206 32.5808 45.3946 32.8272C45.3946 32.879 45.3946 32.9438 45.3946 32.9957C45.5761 33.0086 45.7446 33.0346 45.9261 33.0476C46.2372 33.0735 46.5354 33.1382 46.8335 33.2161C47.1576 33.2938 47.4817 33.3846 47.8057 33.4882C47.9225 33.5272 48.0261 33.605 48.1558 33.6308C48.2335 33.6568 48.2984 33.6957 48.3631 33.7216C48.441 33.7476 48.5058 33.7865 48.5706 33.8123C48.5965 33.8253 48.6354 33.8512 48.6614 33.8642C48.6872 33.8772 48.7261 33.9161 48.765 33.9161C48.8946 33.929 48.9984 33.9938 49.1021 34.0586C49.3614 34.2142 49.6335 34.3568 49.8927 34.5253C50.1261 34.6808 50.3465 34.8493 50.5539 35.0308C50.6187 35.0827 50.6576 35.1865 50.6965 35.2642C50.6965 35.2901 50.6965 35.329 50.6835 35.3678C50.7225 35.3938 50.7743 35.4197 50.8003 35.4586C50.8131 35.4846 50.8003 35.5365 50.8003 35.5753C50.8003 35.6272 50.7614 35.679 50.8003 35.7308C50.8261 35.7568 50.8003 35.8216 50.8003 35.8605C50.7614 35.9772 50.7225 36.0808 50.6835 36.1976C50.5021 36.5735 50.3335 36.9365 50.1391 37.3123C50.0354 37.5068 49.9058 37.6882 49.7891 37.8697C49.6984 38.0123 49.6076 38.1678 49.5039 38.2976C49.2576 38.6216 49.0114 38.9586 48.7521 39.2827C48.4669 39.6327 48.1558 39.9697 47.8576 40.3068C47.6243 40.5661 47.365 40.7993 47.1188 41.0457C47.028 41.1365 46.9373 41.2272 46.8465 41.3178C46.5614 41.5642 46.2631 41.8235 45.965 42.0697C45.7835 42.2123 45.6021 42.355 45.4206 42.4976C45.1873 42.6661 44.941 42.8216 44.7076 42.9772C44.4872 43.1068 44.2669 43.2365 44.0335 43.3661C43.8391 43.4697 43.6318 43.5346 43.4373 43.6512C43.1261 43.8197 42.8021 43.9365 42.478 44.0531C42.1021 44.1827 41.7261 44.3123 41.3242 44.3642C41.078 44.4031 40.8446 44.455 40.5984 44.4938C40.2225 44.5457 39.8465 44.5846 39.4576 44.6105C38.7706 44.6493 38.0835 44.6623 37.3965 44.6105C36.9557 44.5846 36.5021 44.5327 36.0614 44.4678C35.491 44.3772 34.9206 44.2605 34.3631 44.092C34.1687 44.0401 33.9743 43.9493 33.7927 43.8716C33.6891 43.8327 33.5984 43.7808 33.4946 43.729C33.4818 43.729 33.4427 43.755 33.4169 43.7678C33.1965 43.9493 32.9503 44.0661 32.7039 44.1827C32.3928 44.3382 32.0817 44.4938 31.7706 44.6365C31.5631 44.7272 31.3558 44.792 31.1484 44.8697C31.0058 44.9216 30.8761 44.9735 30.7335 45.0123C30.3706 45.0901 30.0206 45.1808 29.6576 45.2457C29.3984 45.2975 29.1261 45.3493 28.8669 45.3623C28.5169 45.3882 28.1669 45.4142 27.8299 45.4142C27.5447 45.4142 27.2595 45.3882 26.9743 45.3753C26.715 45.3753 26.4558 45.3365 26.1965 45.2716C25.8335 45.1938 25.4706 45.142 25.1076 45.0123C24.7835 44.8957 24.4335 44.792 24.1224 44.6623C23.8891 44.5586 23.6428 44.4808 23.4354 44.3382C23.3576 44.2865 23.2539 44.2605 23.1761 44.2086C23.0465 44.1308 22.9298 44.0531 22.8002 43.9623C22.6965 43.8976 22.5928 43.8457 22.5021 43.7808C22.178 43.5346 21.8539 43.2882 21.5428 43.029C21.3095 42.8346 21.1021 42.6012 20.8817 42.3808C20.7521 42.2642 20.6224 42.1476 20.5058 42.0178C20.3243 41.8235 20.1428 41.629 19.9743 41.4346C19.7539 41.1623 19.5465 40.8772 19.3261 40.605C19.3002 40.5661 19.2743 40.5272 19.2484 40.4882C19.1317 40.3068 19.015 40.1253 18.8984 39.9438C18.7558 39.6976 18.6132 39.4512 18.4965 39.192C18.3669 38.9327 18.2502 38.6605 18.1335 38.3882C18.0687 38.2197 18.0039 38.0512 17.9521 37.8827C17.8095 37.4678 17.6798 37.0661 17.5502 36.6512C17.4854 36.4438 17.4336 36.2365 17.3817 36.029C17.3169 35.7308 17.2521 35.4327 17.2002 35.1346C17.2002 35.0827 17.2002 35.0308 17.1873 34.9531C17.2261 34.9531 17.2391 34.9661 17.2521 34.979C17.2521 34.979 17.265 34.979 17.265 34.9661C17.265 34.8882 17.265 34.8235 17.3298 34.7716C17.3817 34.7068 17.3687 34.5772 17.4984 34.5772C17.4984 34.5772 17.5113 34.5512 17.5243 34.5382C17.641 34.3438 17.8095 34.2272 18.0298 34.2012C18.1465 34.1882 18.2372 34.1105 18.328 34.0586C18.5872 33.9031 18.8465 33.7735 19.1187 33.6438C19.365 33.5272 19.5984 33.3976 19.8317 33.2938C20.1169 33.1772 20.415 33.0605 20.7132 32.9568C20.9335 32.879 21.1539 32.8012 21.3743 32.7623C21.6854 32.6976 21.9835 32.6068 22.3076 32.5808C22.5021 32.5678 22.7095 32.529 22.9298 32.5031C22.9298 32.4642 22.9298 32.4253 22.9298 32.3865C22.9039 32.0623 22.878 31.7382 22.8521 31.4012C22.8261 31.0772 22.8132 30.7661 22.8132 30.442C22.8132 30.2735 22.8132 30.1178 22.8261 29.9493C22.8261 29.7938 22.8261 29.6512 22.8391 29.4957C22.8521 29.2623 22.865 29.029 22.891 28.7957C22.891 28.6272 22.9169 28.4586 22.9298 28.2901C22.9558 28.0698 22.9947 27.8494 23.0335 27.629C23.0465 27.5253 23.0724 27.4216 23.0984 27.3179C23.0984 27.2531 23.1243 27.1883 23.1372 27.1235C23.1632 27.0716 23.2021 26.9938 23.241 26.929C23.2539 26.9031 23.2669 26.8772 23.2798 26.8642C23.3965 26.7994 23.4484 26.6568 23.565 26.579C23.7335 26.4623 23.8761 26.3457 24.1095 26.3457C24.3039 26.3457 24.4854 26.3586 24.6669 26.3846C24.7706 26.3846 24.8743 26.4105 24.965 26.4364C25.2761 26.5012 25.5872 26.5531 25.8984 26.6179C26.041 26.6438 26.1706 26.6957 26.3002 26.7086C26.5335 26.7346 26.728 26.8512 26.9484 26.9031C27.1428 26.9549 27.3373 27.0457 27.5317 27.1235C27.6095 27.1494 27.7002 27.1753 27.778 27.2142C27.9465 27.292 28.115 27.3957 28.2965 27.4605C28.465 27.5253 28.6076 27.642 28.7632 27.7068C28.9317 27.7846 29.0872 27.8883 29.2427 27.9661C29.3984 28.0438 29.5669 28.1346 29.7225 28.2383C29.8261 28.3031 29.9169 28.3679 30.0335 28.4327C30.0984 28.2901 30.1503 28.1475 30.215 28.0049C30.3057 27.7846 30.4095 27.5512 30.5131 27.3309C30.6687 27.0068 30.8243 26.6827 31.0057 26.3716C31.1742 26.0864 31.3557 25.8012 31.5243 25.529C31.5891 25.4253 31.6539 25.3346 31.7188 25.2438C31.7965 25.1401 31.8743 25.0364 31.9521 24.9327C32.0169 24.842 32.0946 24.7512 32.1595 24.6605C32.2891 24.492 32.4317 24.3235 32.5742 24.1549C32.8076 23.8827 33.0539 23.6364 33.3261 23.4161C33.378 23.3772 33.4428 23.3512 33.4946 23.3253C33.5725 23.2994 33.6502 23.2735 33.715 23.2475C33.741 23.2475 33.7539 23.2216 33.7799 23.2216C33.9743 23.2475 34.1427 23.1179 34.3114 23.079C34.4021 23.0531 34.4799 23.0531 34.5706 23.079C34.6742 23.1179 34.791 23.1568 34.8946 23.2216C35.141 23.3642 35.3873 23.4938 35.5688 23.7272C35.6984 23.7661 35.6984 23.9346 35.828 23.9735C35.841 23.9735 35.8539 24.0123 35.8539 24.0383C35.8539 24.0642 35.8539 24.0901 35.8799 24.1031C36.0095 24.1549 36.0354 24.3105 36.1261 24.4012C36.2169 24.5179 36.3206 24.6216 36.3854 24.7642C36.4373 24.8679 36.515 24.9327 36.5539 25.0494C36.5928 25.1531 36.6706 25.2438 36.7354 25.3475C36.8131 25.4772 36.891 25.5938 36.9557 25.7235C37.0595 25.9309 37.1891 26.1123 37.2799 26.3198C37.3446 26.4623 37.3706 26.6309 37.4614 26.7605C37.5521 26.8901 37.578 27.0327 37.6558 27.1753C37.7076 27.2661 37.7335 27.3568 37.7725 27.4475C37.8242 27.5901 37.8891 27.7327 37.941 27.8753C37.9799 27.992 38.0576 28.0957 38.0576 28.2383C38.0576 28.2772 38.0965 28.3031 38.1225 28.3549L38.1484 28.2512ZM34.1558 24.6735C34.0521 24.7901 33.9484 24.8809 33.8835 24.9716C33.6631 25.2698 33.4299 25.5549 33.2354 25.879C33.2354 25.879 33.2354 25.892 33.2225 25.9049C33.015 26.1253 32.8854 26.4105 32.7169 26.6698C32.5873 26.8772 32.4835 27.0975 32.3799 27.3179C32.2114 27.6679 32.0557 28.0309 31.9131 28.3938C31.7965 28.679 31.7058 28.9642 31.615 29.2623C31.5243 29.5346 31.4335 29.7938 31.3688 30.0661C31.278 30.4161 31.2002 30.7661 31.1225 31.129C31.0706 31.4012 31.0057 31.6865 30.9669 31.9586C30.928 32.2827 30.9021 32.6068 30.8761 32.9438C30.8761 33.0346 30.8761 33.1253 30.8761 33.2161C30.8761 33.5142 30.8761 33.8123 30.8761 34.0976C30.8761 34.279 30.9021 34.4476 30.915 34.629C30.941 34.8365 30.9539 35.0438 30.9799 35.2382C31.0188 35.5235 31.0576 35.8086 31.0965 36.0808C31.1225 36.2235 31.1614 36.3661 31.2002 36.5086C31.2261 36.5993 31.265 36.6772 31.265 36.7678C31.265 36.9105 31.3039 37.0401 31.3557 37.1568C31.4076 37.2605 31.3688 37.4031 31.4854 37.4808C31.4854 37.4808 31.4854 37.5197 31.4854 37.5327C31.4854 37.5586 31.4854 37.5976 31.5114 37.6235C31.5631 37.6753 31.5631 37.7401 31.5761 37.805C31.5761 37.8308 31.5761 37.8568 31.5891 37.8827C31.628 37.9605 31.6799 38.0253 31.6927 38.0901C31.6927 38.1808 31.7317 38.2586 31.8095 38.3105C31.8095 38.3105 31.8095 38.3105 31.8095 38.3235C31.8484 38.4272 31.8742 38.5308 31.9131 38.6346C31.991 38.8161 32.0946 38.9846 32.1854 39.1531C32.2372 39.2568 32.2891 39.3605 32.341 39.4642C32.4058 39.5808 32.4706 39.6846 32.5484 39.7882C32.5873 39.8401 32.6131 39.9178 32.691 39.9568C32.678 40.0993 32.8335 40.1512 32.8335 40.2678C32.9114 40.3327 32.9891 40.4105 33.0021 40.5272C33.1446 40.592 33.1188 40.7865 33.2743 40.8253C33.2873 40.8253 33.3002 40.8642 33.3131 40.9031C33.3261 40.9808 33.365 41.0327 33.4299 41.0716C33.4817 41.1235 33.5076 41.2012 33.5465 41.2661C33.5984 41.3308 33.6372 41.3957 33.7021 41.4476C33.741 41.4735 33.7669 41.4993 33.7669 41.5512C33.7669 41.5772 33.8057 41.6161 33.8187 41.6161C33.9095 41.6161 34.0002 41.6678 34.0521 41.5512C34.065 41.5253 34.1039 41.4993 34.1427 41.4735C34.3372 41.292 34.5317 41.1235 34.7131 40.929C34.8818 40.7476 35.0114 40.5401 35.1539 40.3457C35.2965 40.1512 35.4261 39.9697 35.5557 39.7753C35.6854 39.5808 35.815 39.3865 35.9188 39.179C36.0742 38.8678 36.191 38.5438 36.3206 38.2197C36.4373 37.9216 36.541 37.6365 36.6318 37.3382C36.7354 37.0012 36.8131 36.6512 36.865 36.3012C36.9039 36.0678 36.9428 35.8346 36.9688 35.5882C37.0076 35.1993 37.0335 34.7976 37.0725 34.4086C37.0725 34.279 37.0725 34.1493 37.0725 34.0197C37.0725 33.6827 37.0854 33.3457 37.0725 33.0086C37.0725 32.7235 37.0595 32.4382 37.0206 32.1531C36.9818 31.8031 36.9428 31.4531 36.878 31.1031C36.8261 30.8438 36.8002 30.5976 36.7354 30.3382C36.6706 30.0401 36.5927 29.742 36.5021 29.4568C36.3595 28.9772 36.2169 28.4975 35.9965 28.0438C35.9446 27.9401 35.9187 27.8235 35.8669 27.7198C35.7891 27.5383 35.7114 27.3568 35.6206 27.1883C35.4521 26.8512 35.2835 26.5142 35.1021 26.1772C34.9984 25.9957 34.8818 25.8142 34.765 25.6457C34.5576 25.3346 34.3372 25.0364 34.1039 24.6994L34.1558 24.6735ZM43.5539 28.2123C43.3206 28.2383 43.1003 28.2512 42.8927 28.2901C42.6854 28.3161 42.478 28.3809 42.2706 28.4068C41.8299 28.4586 41.415 28.5883 40.9872 28.692C40.7021 28.7568 40.4299 28.8475 40.1576 28.9512C39.8465 29.0678 39.5354 29.1846 39.2242 29.3272C38.991 29.4308 38.7706 29.5605 38.5502 29.6772C38.5502 29.7161 38.5502 29.742 38.5502 29.7808C38.5761 29.9235 38.615 30.079 38.641 30.2216C38.6799 30.4678 38.7318 30.7142 38.7706 30.9735C38.7965 31.1678 38.8484 31.3753 38.8484 31.5697C38.8743 32.0365 38.9521 32.5161 38.9391 32.9827C38.9391 33.2161 38.9391 33.4365 38.9391 33.6697C38.9391 33.8382 38.9261 34.0197 38.9131 34.1882C38.9131 34.3827 38.9131 34.5772 38.8872 34.7716C38.8484 35.1605 38.8095 35.5623 38.7576 35.9512C38.7318 36.1586 38.7057 36.3661 38.6669 36.5735C38.615 36.7938 38.5502 37.0142 38.4984 37.2476C38.4206 37.6365 38.291 38.0123 38.1484 38.3753C38.0058 38.7382 37.8631 39.1142 37.6818 39.4642C37.5391 39.7365 37.4225 40.0216 37.241 40.2678C37.228 40.2808 37.215 40.3068 37.2021 40.3327C37.0854 40.5142 36.9688 40.7086 36.8521 40.8901C36.7873 40.9938 36.7095 41.1105 36.6318 41.2142C36.7873 41.1623 36.9299 41.1105 37.0725 41.0586C37.1891 41.0197 37.3057 40.9938 37.4095 40.942C37.6299 40.8382 37.8373 40.7346 38.0446 40.6178C38.291 40.4882 38.5372 40.3586 38.7835 40.2031C39.0817 40.0216 39.3539 39.8012 39.6391 39.6197C40.0021 39.3735 40.3261 39.0753 40.6372 38.7772C40.8835 38.5438 41.1169 38.2716 41.3503 38.0253C41.5446 37.8178 41.7391 37.6235 41.9076 37.3901C42.0502 37.2086 42.1928 37.0272 42.3354 36.8327C42.491 36.6123 42.6206 36.379 42.7502 36.1457C42.841 35.9772 42.9446 35.8086 43.0095 35.6272C43.1261 35.329 43.2299 35.0308 43.2946 34.7068C43.3595 34.4216 43.4373 34.1623 43.4631 33.8642C43.4631 33.6827 43.5021 33.4882 43.528 33.3068C43.5539 33.1382 43.5799 32.9697 43.5928 32.7882C43.6318 32.3735 43.6576 31.9586 43.6835 31.5438C43.6835 31.479 43.6965 31.4272 43.6965 31.3623C43.6965 31.142 43.6835 30.9216 43.6965 30.7012C43.7225 30.3642 43.6965 30.0142 43.6835 29.6772C43.6835 29.5476 43.6835 29.405 43.6835 29.2753C43.6706 29.0678 43.6318 28.8475 43.6058 28.6401C43.5928 28.4975 43.5669 28.3679 43.541 28.1994L43.5539 28.2123ZM19.0798 35.1476C19.1187 35.2512 19.1576 35.342 19.1835 35.4457C19.2224 35.705 19.3132 35.9642 19.391 36.2235C19.4298 36.379 19.4817 36.5346 19.5335 36.6772C19.5984 36.8197 19.5595 37.0012 19.6891 37.105C19.6891 37.105 19.6891 37.1178 19.6891 37.1308C19.7021 37.1827 19.715 37.2346 19.741 37.2865C19.8058 37.429 19.8706 37.5846 19.9224 37.7272C19.9872 37.8957 20.0521 38.0642 20.1298 38.2327C20.1558 38.2976 20.2206 38.3493 20.2335 38.4142C20.2595 38.5438 20.3372 38.6346 20.4021 38.7512C20.441 38.8161 20.4928 38.8678 20.5058 38.9197C20.5317 39.0365 20.5965 39.1272 20.6613 39.2178C20.6613 39.2308 20.6872 39.2438 20.6872 39.2568C20.6872 39.3346 20.7261 39.3735 20.778 39.4123C20.8039 39.4253 20.8169 39.4642 20.8298 39.4901C20.8298 39.5161 20.8428 39.542 20.8558 39.555C20.9465 39.555 20.9465 39.6457 20.9854 39.7105C21.0372 39.8012 21.141 39.879 21.1669 39.9957C21.1669 40.0346 21.2447 40.0476 21.2576 40.0735C21.2706 40.1642 21.3484 40.1901 21.3872 40.242C21.4132 40.2678 21.4391 40.2938 21.4521 40.3197C21.5428 40.4882 21.7243 40.579 21.8021 40.7476C21.8021 40.7476 21.828 40.7476 21.841 40.7476C21.8539 40.7476 21.8798 40.7476 21.8798 40.7735C21.8928 40.8512 21.9317 40.9161 22.0224 40.9161C22.0224 40.9161 22.0484 40.929 22.0484 40.942C22.1132 41.0716 22.2428 41.1623 22.3465 41.2661C22.4502 41.3697 22.5539 41.4476 22.6576 41.5382C22.7354 41.6031 22.8002 41.6808 22.878 41.7586C22.9558 41.8235 23.0335 41.8623 23.1113 41.9401C23.2928 42.1216 23.4873 42.2512 23.6947 42.3938C23.8761 42.5235 24.0835 42.6142 24.265 42.7178C24.3428 42.7568 24.4206 42.8086 24.4984 42.8476C24.5761 42.8865 24.6669 42.9123 24.7447 42.9382C24.8224 42.9642 24.9132 42.9901 24.991 43.029C25.1076 43.0678 25.2113 43.1068 25.328 43.1457C25.4835 43.1976 25.6521 43.2493 25.8076 43.2882C25.9113 43.3142 26.028 43.3401 26.1317 43.3661C26.3002 43.392 26.4817 43.4178 26.6502 43.4308C26.7798 43.4438 26.8965 43.4827 27.0261 43.4827C27.4021 43.4827 27.778 43.4957 28.1669 43.4957C28.2706 43.4957 28.3743 43.4957 28.478 43.4827C28.6854 43.4568 28.8928 43.4308 29.1003 43.405C29.2428 43.379 29.3984 43.3661 29.541 43.3272C29.6965 43.2882 29.865 43.2235 30.0206 43.2235C30.228 43.2235 30.3965 43.1197 30.591 43.0808C30.7465 43.042 30.8891 42.9901 31.0446 42.9253C31.0835 42.9123 31.1225 42.8865 31.1742 42.8605C31.0965 42.8086 31.0317 42.7697 30.9669 42.7438C30.9021 42.7178 30.8373 42.692 30.7725 42.6661C30.5391 42.5493 30.3057 42.4068 30.0595 42.3161C29.8131 42.2123 29.5927 42.0827 29.3595 41.9661C29.0614 41.8105 28.7761 41.6678 28.491 41.4993C28.2576 41.3697 28.0373 41.2142 27.8039 41.0716C27.5317 40.9161 27.2854 40.7216 27.0261 40.5401C26.8447 40.4105 26.7021 40.242 26.5335 40.1123C26.2743 39.905 26.0539 39.6586 25.8335 39.3993C25.678 39.2308 25.5484 39.0365 25.4058 38.855C25.1984 38.5827 24.991 38.3105 24.8095 38.0253C24.5632 37.6493 24.3169 37.2605 24.1354 36.8457C24.0187 36.5865 23.9021 36.3272 23.7984 36.0678C23.6687 35.7568 23.5521 35.4327 23.4613 35.0957C23.3965 34.8753 23.3317 34.642 23.2798 34.4216C23.2539 34.3308 23.241 34.2401 23.215 34.1623C21.7891 34.2401 20.428 34.5772 19.1058 35.1476H19.0798ZM26.9743 37.792C27.0002 37.8827 27.0002 37.9735 27.091 37.9993C27.091 37.9993 27.091 38.0253 27.1039 38.0382C27.1428 38.1161 27.1817 38.1938 27.2335 38.2586C27.3243 38.3493 27.4021 38.4401 27.4799 38.5438C27.5447 38.6346 27.6484 38.6993 27.7261 38.7772C28.0243 39.0365 28.3354 39.2957 28.6724 39.5161C28.815 39.6068 28.9576 39.7105 29.1131 39.8012C29.2817 39.892 29.4502 39.9957 29.6187 40.0993C29.9039 40.2678 30.215 40.3846 30.4873 40.5661C30.5391 40.605 30.6039 40.6308 30.6687 40.6438C30.7335 40.6697 30.7854 40.7216 30.8761 40.6827C30.8631 40.6438 30.8503 40.6178 30.8372 40.592C30.6427 40.3068 30.4743 40.0086 30.3188 39.6846C30.1891 39.3993 30.0465 39.1142 29.9299 38.8161C29.8131 38.5438 29.7225 38.2586 29.6187 37.9735C29.5539 37.779 29.5021 37.5846 29.4502 37.3772C29.3725 37.079 29.2818 36.7808 29.2558 36.4697C29.2558 36.4178 29.2557 36.3661 29.2169 36.3142C29.165 36.2365 29.178 36.1457 29.165 36.055C29.165 35.9512 29.1391 35.8476 29.1261 35.7438C29.0872 35.4846 29.0484 35.2123 29.0225 34.9531C28.9965 34.5772 28.9706 34.1882 28.9706 33.8123C28.9706 33.2938 28.9965 32.7753 29.0614 32.2697C29.0872 32.0882 29.1003 31.9068 29.1391 31.7253C29.178 31.4531 29.2169 31.1808 29.2817 30.9216C29.3335 30.6753 29.4114 30.429 29.4761 30.1827C29.4761 30.1438 29.4761 30.105 29.4761 30.079C29.3984 30.0531 29.3335 30.0531 29.2688 30.0142C29.1521 29.9493 29.0354 29.8586 28.9187 29.7808C28.7632 29.6901 28.6076 29.5993 28.4521 29.5086C28.4002 29.4827 28.3613 29.4438 28.3095 29.4178C28.2576 29.392 28.2187 29.3531 28.1669 29.3272C28.128 29.3012 28.0891 29.3012 28.0502 29.2753C27.8169 29.1327 27.5836 28.9901 27.3113 28.9123C27.1947 28.8735 27.091 28.7957 26.9613 28.7568C26.6243 28.6272 26.2872 28.5105 25.9372 28.3938C25.8724 28.3679 25.7947 28.342 25.7298 28.329C25.5613 28.2772 25.3798 28.2383 25.2113 28.1994C25.0558 28.1605 24.9002 28.1216 24.7447 28.0698C24.7187 28.2253 24.6928 28.3679 24.6798 28.5105C24.6539 29.0161 24.628 29.5216 24.615 30.0272C24.615 30.4808 24.5891 30.9216 24.6539 31.3753C24.6798 31.5957 24.6798 31.829 24.7058 32.0493C24.7058 32.1531 24.7317 32.2438 24.7447 32.3346C24.7706 32.5678 24.7835 32.8012 24.8354 33.0346C24.8872 33.3068 24.9521 33.579 25.0039 33.8512C25.0558 34.0846 25.1335 34.3178 25.1984 34.5512C25.2502 34.7197 25.315 34.8753 25.3669 35.0438C25.4058 35.1476 25.4447 35.2512 25.4835 35.355C25.5095 35.4197 25.5354 35.4716 25.5613 35.5365C25.6002 35.6012 25.665 35.6661 25.665 35.7438C25.678 35.8476 25.7428 35.9382 25.7687 36.029C25.8076 36.1457 25.8724 36.2623 25.9243 36.379C25.9502 36.4308 25.9632 36.4957 26.0021 36.5216C26.0928 36.5735 26.1187 36.6772 26.1576 36.755C26.2095 36.8716 26.3261 36.9493 26.3391 37.079C26.4817 37.2086 26.5595 37.3901 26.6761 37.5457C26.7021 37.5846 26.7539 37.6105 26.8058 37.6623C26.8058 37.6882 26.8058 37.7531 26.8058 37.805C26.8447 37.805 26.8706 37.792 26.9095 37.779L26.9743 37.792ZM45.1873 34.642C45.1873 34.642 45.1614 34.7197 45.1484 34.7457C45.0835 34.9661 45.0317 35.1735 44.9539 35.3938C44.7595 35.9901 44.4873 36.5476 44.1631 37.092C44.0854 37.2216 44.0076 37.3382 43.9299 37.4678C43.8131 37.6365 43.6965 37.805 43.5799 37.9605C43.3595 38.2457 43.1521 38.5178 42.9188 38.7901C42.7114 39.0365 42.478 39.2697 42.2446 39.5161C42.0114 39.7493 41.778 39.9827 41.5446 40.2031C41.1817 40.5401 40.7928 40.8382 40.391 41.1105C40.1835 41.2531 39.9761 41.3957 39.7558 41.5382C39.5484 41.6808 39.328 41.8235 39.1076 41.9401C38.8225 42.0957 38.5373 42.2642 38.2391 42.4068C37.9539 42.5365 37.6688 42.679 37.3706 42.7827C37.3576 42.7827 37.3446 42.8086 37.3188 42.8086C37.4095 42.8346 37.5003 42.8346 37.591 42.8476C37.7984 42.8476 37.9928 42.8865 38.2003 42.8865C38.4595 42.8865 38.7188 42.8865 38.978 42.8605C39.3928 42.8346 39.7946 42.8216 40.2095 42.7697C40.6114 42.7178 41.0131 42.6401 41.415 42.5493C41.6225 42.5105 41.8299 42.4457 42.0243 42.3938C42.2188 42.329 42.4002 42.2642 42.5946 42.1865C42.7243 42.1346 42.841 42.0957 42.9706 42.0438C43.0614 42.005 43.1391 41.9272 43.2299 41.9012C43.4114 41.8493 43.5669 41.7846 43.7225 41.6808C43.9557 41.5382 44.1891 41.3957 44.4225 41.2531C44.5131 41.1882 44.591 41.1235 44.6818 41.0457C44.928 40.8512 45.1742 40.6568 45.4206 40.4623C45.5761 40.3327 45.7188 40.2161 45.8614 40.0735C46.0557 39.892 46.2243 39.6976 46.4058 39.5161C46.5873 39.3346 46.7687 39.1401 46.9373 38.9457C47.1058 38.7512 47.2614 38.5568 47.4299 38.3623C47.5854 38.1808 47.7539 37.9993 47.8835 37.805C48.1688 37.4031 48.4539 37.0012 48.6743 36.5605C48.765 36.379 48.8428 36.1976 48.9206 36.0161C48.8558 35.9642 48.8039 35.9253 48.7391 35.8865C48.5187 35.7568 48.2984 35.6401 48.078 35.5365C47.9225 35.4586 47.7669 35.3938 47.6114 35.329C47.391 35.2382 47.1576 35.1346 46.9242 35.0827C46.7557 35.0438 46.5872 34.992 46.4187 34.9401C46.2502 34.8882 46.0688 34.8493 45.9003 34.8105C45.6539 34.7457 45.4206 34.6938 45.1614 34.629L45.1873 34.642Z" fill="white"/>
</svg>
