<svg width="69" height="69" viewBox="0 0 69 69" fill="none" xmlns="http://www.w3.org/2000/svg">
<rect width="69" height="69" rx="20" fill="#8B6F45"/>
<g clip-path="url(#clip0_795_1725)">
<path d="M51.1963 47.3074C50.963 47.3937 50.7426 47.4925 50.5224 47.5417C50.1985 47.6159 49.8875 47.5665 49.5765 47.4677C49.4729 47.4307 49.4599 47.4184 49.4599 47.3196C49.4599 46.8877 49.4599 46.4559 49.4599 46.024C49.4599 45.6167 49.4599 45.2219 49.4599 44.8146C49.4599 44.4691 49.4599 44.1235 49.4729 43.778C49.4729 43.6546 49.4729 43.5189 49.447 43.3831C49.3433 43.3831 49.2396 43.3831 49.136 43.3831C48.5789 43.3831 48.0216 43.3707 47.4645 43.3585C47.0888 43.3585 46.7 43.3461 46.3242 43.3215C45.7541 43.2967 45.184 43.2597 44.6139 43.2227C44.277 43.2104 43.9271 43.198 43.5902 43.1857C43.1886 43.1857 42.774 43.161 42.3722 43.161C41.9447 43.161 41.5301 43.1364 41.1025 43.1364C40.4935 43.1364 39.8975 43.1116 39.2885 43.0994C38.6924 43.0994 38.0964 43.087 37.5133 43.0746C36.9303 43.0622 36.3471 43.0376 35.7641 43.0252C35.2717 43.0129 34.7922 42.9882 34.3129 42.9636C33.5225 42.9389 32.7321 42.9142 31.9416 42.9512C31.527 42.9636 31.1124 42.9882 30.6978 43.0129C30.1276 43.0376 29.5575 43.0746 28.9745 43.0994C28.4821 43.124 27.9768 43.1364 27.4844 43.1364C26.7588 43.1364 26.0202 43.1364 25.2946 43.124C24.867 43.124 24.4524 43.0994 24.0248 43.087C23.649 43.087 23.2733 43.0746 22.8845 43.0622C22.4699 43.0622 22.0553 43.0376 21.6407 43.0252C21.3426 43.0252 21.0446 43.0252 20.7466 43.0252C20.4356 43.0252 20.1376 43.0252 19.8266 43.0376C19.5157 43.0376 19.1917 43.0622 18.8808 43.0746C18.8808 43.1116 18.8678 43.1364 18.8678 43.161C18.8678 43.5929 18.8548 44.0249 18.8548 44.4567C18.8548 45.0737 18.8548 45.6907 18.8289 46.3077C18.8289 46.4805 18.816 46.6532 18.803 46.8261C18.803 46.8877 18.7771 46.9125 18.7253 46.9371C18.505 47.0235 18.2977 47.1099 18.0515 47.1222C17.909 47.1222 17.7535 47.1099 17.6109 47.0852C17.4295 47.0605 17.2611 47.0111 17.0797 46.9619C17.0797 46.8384 17.0538 46.715 17.0408 46.5916C17.0149 46.3819 17.0149 46.172 17.0149 45.9499C17.0149 45.5056 17.0149 45.0614 17.0149 44.6171C17.0149 44.4321 17.0149 44.2346 17.0149 44.0495C17.0019 43.8274 16.9631 43.6052 16.9372 43.3831C16.9372 43.3461 16.9372 43.3215 16.9372 43.2844C16.9372 42.9636 16.9372 42.6551 16.9372 42.3342C16.9372 42.001 16.9112 41.6679 16.8983 41.3346C16.8983 41.1002 16.8983 40.8534 16.8724 40.6189C16.8724 40.4215 16.8465 40.224 16.8335 40.0266C16.8335 39.8045 16.8335 39.57 16.8205 39.3479C16.8205 38.9654 16.7946 38.5705 16.8076 38.1879C16.8076 37.9657 16.8465 37.756 16.8724 37.5339C16.8983 37.3611 16.9112 37.1884 16.9631 37.0156C17.0149 36.8427 17.0926 36.6824 17.1574 36.522C17.3388 36.1147 17.598 35.7569 17.8701 35.4114C18.1551 35.0411 18.4661 34.6709 18.7771 34.313C18.9974 34.0539 19.2047 33.7947 19.425 33.5356C19.6971 33.2147 19.9562 32.8816 20.2413 32.5731C20.5134 32.2769 20.8373 32.0054 21.1871 31.7956C21.2131 31.7832 21.239 31.7586 21.2778 31.7462C21.3815 31.6969 21.4333 31.6105 21.4333 31.4871C21.4333 31.1662 21.4722 30.8331 21.4852 30.5122C21.4852 30.1667 21.4852 29.8088 21.4852 29.4633C21.4852 29.2042 21.4852 28.9574 21.4852 28.6982C21.4852 28.5255 21.4852 28.3527 21.4852 28.1923C21.4852 27.9208 21.4852 27.6493 21.4852 27.3778C21.4852 26.9336 21.4981 26.4893 21.5111 26.0574C21.5111 25.8106 21.5111 25.5638 21.5111 25.3047C21.5111 25.0332 21.4981 24.7617 21.5629 24.4902C21.5888 24.4038 21.6147 24.3051 21.6536 24.231C21.7443 24.0583 21.8609 23.8979 21.9646 23.7251C22.0423 23.5894 22.1719 23.503 22.3144 23.4413C22.3792 23.4043 22.444 23.3549 22.5088 23.3302C22.742 23.2315 22.9882 23.1945 23.2344 23.1574C23.5583 23.1204 23.8822 23.0834 24.2062 23.0587C24.4135 23.0464 24.6338 23.0464 24.8411 23.034C25.165 23.034 25.476 23.0094 25.7999 22.997C25.9813 22.997 26.1757 22.997 26.3701 22.997C26.4737 22.997 26.5774 22.9723 26.694 22.9723C27.0957 22.96 27.4973 22.9353 27.899 22.923C28.2489 22.923 28.5987 22.923 28.9486 22.9106C29.4409 22.9106 29.9333 22.9106 30.4128 22.9106C30.8015 22.9106 31.1772 22.923 31.5659 22.9353C31.864 22.9353 32.162 22.9353 32.46 22.9353C32.745 22.9353 33.043 22.9353 33.3281 22.96C33.7169 22.9723 34.1055 22.997 34.4942 23.0094C34.9219 23.0094 35.3495 23.0217 35.79 23.034C36.1399 23.034 36.4896 23.034 36.8266 23.034C37.3837 23.034 37.9539 23.034 38.511 23.034C38.8609 23.034 39.1978 23.034 39.5476 23.034C39.8326 23.034 40.1047 23.034 40.3899 23.034C40.623 23.034 40.8692 23.0587 41.1025 23.0587C41.6466 23.0711 42.1779 23.0957 42.7221 23.1081C42.9942 23.1081 43.2664 23.1328 43.5385 23.1328C43.7199 23.1328 43.9012 23.1328 44.0697 23.1328C44.1474 23.1328 44.2251 23.1328 44.3029 23.1328C44.7564 23.1328 45.2099 23.1328 45.6634 23.1328C45.78 23.1328 45.9096 23.1204 46.0132 23.1698C46.0781 23.1945 46.1688 23.2068 46.2076 23.2562C46.2854 23.3426 46.389 23.3672 46.4798 23.4043C46.6223 23.466 46.7389 23.5647 46.8555 23.6634C46.9203 23.7251 46.998 23.7745 47.0499 23.8362C47.1795 24.0089 47.2313 24.194 47.2442 24.4038C47.2701 24.663 47.296 24.9221 47.322 25.1812C47.322 25.2676 47.322 25.3664 47.322 25.4651C47.322 25.9587 47.322 26.4523 47.322 26.9336C47.322 27.3531 47.2831 27.7727 47.2571 28.1923C47.2312 28.6859 47.1924 29.1795 47.1535 29.6731C47.1146 30.2284 47.0629 30.7837 47.024 31.339C46.998 31.6846 46.998 32.0425 46.9721 32.388C46.9721 32.4744 46.998 32.5237 47.0629 32.5731C47.1665 32.6595 47.2831 32.7335 47.3998 32.8199C47.5941 32.968 47.8014 33.1284 47.9958 33.2765C48.1383 33.3875 48.2938 33.4986 48.4493 33.6096C48.514 33.659 48.5659 33.7207 48.6306 33.7824C48.6955 33.8441 48.7472 33.9059 48.812 33.9429C48.9286 34.0045 48.9805 34.1526 49.123 34.1772C49.136 34.1772 49.149 34.2144 49.1619 34.2266C49.1879 34.2514 49.2007 34.3007 49.2266 34.313C49.3433 34.3871 49.434 34.5105 49.5376 34.6092C49.6025 34.6709 49.6803 34.7202 49.745 34.7944C49.7709 34.819 49.7839 34.8436 49.8097 34.8684C49.8097 34.8807 49.8097 34.9177 49.8228 34.9177C49.9522 34.9794 49.9911 35.1151 50.0689 35.2139C50.1077 35.2632 50.1338 35.3126 50.1726 35.3496C50.2891 35.4607 50.328 35.6211 50.4576 35.7321C50.4965 35.7569 50.4318 35.8309 50.5095 35.8309C50.5095 35.905 50.5612 35.942 50.5872 36.0036C50.6261 36.0654 50.639 36.1271 50.665 36.1887C50.665 36.2011 50.665 36.2257 50.6909 36.2381C50.7556 36.3121 50.7815 36.3985 50.8075 36.4972C50.8334 36.596 50.8722 36.707 50.9111 36.8057C51.0278 37.1266 51.0925 37.4721 51.1185 37.8054C51.1574 38.2126 51.1702 38.6321 51.1702 39.0394C51.1702 39.7675 51.1702 40.4831 51.1702 41.2112C51.1702 41.4087 51.1444 41.6061 51.1444 41.7912C51.1444 42.0504 51.1444 42.3219 51.1185 42.581C51.1055 42.8279 51.1444 43.0746 51.1444 43.3215C51.1444 43.704 51.1444 44.0865 51.1444 44.4691C51.1444 44.6789 51.1444 44.8886 51.1444 45.1107C51.1444 45.2835 51.1444 45.4562 51.1444 45.6414C51.1444 46.1104 51.1444 46.5792 51.1444 47.0482C51.1444 47.1222 51.1444 47.184 51.1444 47.2826L51.1963 47.3074ZM49.3693 41.7172C49.3693 41.7172 49.3821 41.6309 49.3821 41.6061C49.3821 41.4704 49.3951 41.3224 49.4081 41.1866C49.4081 41.0261 49.434 40.8657 49.447 40.7052C49.447 40.4831 49.4729 40.2734 49.4729 40.0512C49.4729 39.8661 49.4987 39.6687 49.4987 39.4836C49.4987 39.2861 49.3821 39.1011 49.3174 38.916C49.1749 38.5581 48.9805 38.2372 48.7603 37.9164C48.4104 37.4227 47.931 37.0402 47.4386 36.6824C47.2831 36.5714 47.1146 36.4972 46.9721 36.3862C46.6611 36.1641 46.3242 36.016 45.9874 35.8556C45.6116 35.6829 45.2099 35.5594 44.8083 35.4607C44.1604 35.2879 43.4866 35.1769 42.8258 35.0781C42.2297 34.9917 41.6466 34.9177 41.0506 34.8314C40.6879 34.782 40.338 34.745 39.9752 34.7079C39.5994 34.6709 39.2236 34.6462 38.835 34.6215C38.4721 34.5969 38.1094 34.5599 37.7465 34.5475C37.3449 34.5229 36.9432 34.4981 36.5415 34.4859C36.0361 34.4611 35.5179 34.4365 35.0125 34.4365C34.0538 34.4365 33.0949 34.4487 32.136 34.4735C31.6177 34.4735 31.0995 34.5105 30.5811 34.5229C30.037 34.5475 29.4797 34.5722 28.9356 34.5969C28.5728 34.6092 28.2229 34.6215 27.8601 34.6462C27.2641 34.6832 26.681 34.745 26.085 34.7944C25.7481 34.819 25.4242 34.8684 25.0873 34.9054C24.3358 35.0041 23.5842 35.1029 22.8457 35.2632C22.4958 35.3372 22.133 35.4114 21.7832 35.4977C21.1612 35.6457 20.5652 35.8432 19.9821 36.1024C19.6064 36.2751 19.2436 36.4726 18.9455 36.7564C18.8419 36.8675 18.7512 36.9785 18.7253 37.1266C18.6864 37.4105 18.6216 37.7066 18.6087 37.9905C18.5827 38.7926 18.6216 39.5824 18.6605 40.3845C18.6605 40.7176 18.6864 41.0509 18.6994 41.384C18.6994 41.4704 18.7123 41.5567 18.7253 41.6431C18.8289 41.6431 18.9067 41.6309 18.9844 41.6185C19.114 41.6185 19.2565 41.5937 19.3861 41.5815C19.6193 41.5567 19.8525 41.5321 20.0728 41.5074C20.1894 41.5074 20.3061 41.4951 20.4227 41.4827C20.63 41.4827 20.8373 41.4581 21.0446 41.4457C21.3297 41.4457 21.6018 41.4457 21.8868 41.4334C22.0682 41.4334 22.2496 41.4334 22.431 41.4334C22.6124 41.4334 22.7938 41.4334 22.9753 41.4457C23.2344 41.4457 23.4935 41.4457 23.7527 41.4457C24.3098 41.4457 24.8541 41.458 25.4112 41.4704C25.5278 41.4704 25.6445 41.4827 25.7611 41.4827C25.9813 41.4827 26.1887 41.4827 26.4089 41.4827C26.7199 41.4827 27.0309 41.4827 27.3419 41.4827C27.7046 41.4827 28.0545 41.4827 28.4173 41.4581C28.6635 41.4581 28.8967 41.4334 29.1429 41.421C29.4928 41.4087 29.8555 41.384 30.2054 41.3716C30.5164 41.3594 30.8274 41.3346 31.1384 41.31C31.4622 41.2976 31.7863 41.273 32.1101 41.273C32.3951 41.273 32.6803 41.2482 32.9653 41.2606C33.4965 41.2606 34.0149 41.2852 34.5461 41.2976C34.9478 41.2976 35.3495 41.3224 35.7511 41.3346C35.9196 41.3346 36.101 41.3594 36.2694 41.3594C36.4379 41.3594 36.6063 41.3716 36.7748 41.3716C37.2541 41.3716 37.7206 41.3964 38.2 41.4087C38.6535 41.4087 39.107 41.421 39.5605 41.421C39.8326 41.421 40.1047 41.421 40.3769 41.421C40.7915 41.421 41.2191 41.4457 41.6338 41.4581C41.867 41.4581 42.1001 41.458 42.3464 41.4704C42.6185 41.4704 42.8906 41.4704 43.1497 41.4704C43.3181 41.4704 43.4866 41.4951 43.668 41.4951C43.8105 41.4951 43.9531 41.4951 44.0956 41.4951C44.4066 41.5074 44.7175 41.5321 45.0156 41.5445C45.3006 41.5445 45.5857 41.5937 45.8707 41.5937C46.091 41.5937 46.3243 41.6185 46.5445 41.6185C46.8036 41.6185 47.0629 41.6185 47.309 41.6431C47.5034 41.6431 47.6847 41.6555 47.8791 41.6555C48.216 41.6555 48.5529 41.6555 48.8898 41.6555C49.0583 41.6555 49.2396 41.6555 49.421 41.6555L49.3693 41.7172ZM45.6246 24.8481C45.5597 24.8481 45.508 24.8234 45.4561 24.8234C45.3654 24.8234 45.2748 24.8234 45.184 24.8234C44.8213 24.8234 44.4584 24.8234 44.0956 24.8234C43.6421 24.8234 43.1886 24.7987 42.7351 24.7864C42.2297 24.774 41.7374 24.7493 41.232 24.737C40.7785 24.7247 40.325 24.7 39.8715 24.7C38.9645 24.7 38.0705 24.7123 37.1635 24.7C36.3212 24.7 35.466 24.6753 34.6239 24.663C34.1574 24.663 33.6909 24.6383 33.2245 24.6259C32.745 24.6136 32.2526 24.6013 31.7603 24.5889C31.4623 24.5889 31.1512 24.5889 30.8533 24.5889C30.3609 24.5889 29.8815 24.5889 29.3891 24.5889C29.0134 24.5889 28.6376 24.5889 28.2489 24.6013C27.8861 24.6013 27.5233 24.6013 27.1475 24.6136C26.4089 24.6259 25.6704 24.6383 24.9318 24.663C24.4265 24.663 23.9341 24.7 23.4288 24.7493C23.3769 24.7493 23.3251 24.7617 23.2733 24.774C23.2733 24.8357 23.2603 24.8974 23.2603 24.9468C23.2603 25.5144 23.2603 26.0697 23.2474 26.6374C23.2474 27.2174 23.2214 27.785 23.2085 28.365C23.2085 28.6489 23.2085 28.9327 23.2085 29.2289C23.2085 29.6731 23.2085 30.1297 23.2085 30.574C23.2085 30.6604 23.2085 30.7467 23.2214 30.8207C23.3899 30.8577 23.5324 30.8084 23.6879 30.759C23.9341 30.6726 24.1803 30.5986 24.4394 30.5122C24.6079 30.4629 24.7893 30.4011 24.9707 30.3519C24.9577 30.0803 24.9447 29.8335 24.9318 29.5744C24.9188 29.3769 24.88 29.1918 24.854 28.9944C24.8152 28.7106 24.7634 28.4267 24.7245 28.1306C24.6726 27.7727 24.6079 27.4148 24.5949 27.0446C24.5949 26.9459 24.6079 26.8472 24.6338 26.7485C24.6597 26.6374 24.7374 26.5634 24.854 26.5263C25.1909 26.4029 25.5538 26.3906 25.9036 26.3289C26.1757 26.2795 26.4737 26.3042 26.7588 26.3166C27.1734 26.3166 27.5751 26.3289 27.9897 26.3412C28.2359 26.3412 28.4821 26.3412 28.7283 26.3412C29.2466 26.3412 29.7649 26.3412 30.2831 26.3412C30.6978 26.3412 31.1254 26.3289 31.54 26.3166C31.7862 26.3166 32.0194 26.3166 32.2656 26.3042C32.4859 26.3042 32.6933 26.2795 32.9135 26.2549C33.2374 26.2302 33.5614 26.2302 33.8853 26.1685C34.0019 26.1438 34.1055 26.1685 34.2093 26.2178C34.3259 26.2795 34.4424 26.3412 34.572 26.4153C34.6367 26.3783 34.7145 26.3412 34.7922 26.3042C34.9219 26.2425 35.0644 26.1932 35.2069 26.2178C35.3495 26.2425 35.492 26.2549 35.6345 26.2672C36.088 26.2919 36.5285 26.3289 36.9821 26.3536C37.2283 26.3659 37.4874 26.3783 37.7336 26.3906C38.2389 26.3906 38.7313 26.4153 39.2366 26.4153C39.7031 26.4153 40.1695 26.4153 40.636 26.4029C40.9989 26.4029 41.3746 26.3783 41.7374 26.3783C42.0872 26.3783 42.45 26.3783 42.7999 26.3783C42.9424 26.3783 43.085 26.3783 43.2145 26.3906C43.37 26.4029 43.5255 26.44 43.668 26.477C43.8494 26.514 44.0309 26.551 44.2251 26.6004C44.3547 26.6251 44.4325 26.7238 44.4584 26.8472C44.4844 26.9953 44.4973 27.1434 44.4844 27.2914C44.4455 27.6493 44.3936 28.0195 44.3417 28.3774C44.29 28.6859 44.2122 29.0067 44.1863 29.3152C44.1474 29.7101 44.1345 30.105 44.1215 30.5122C44.1215 30.611 44.1215 30.7097 44.1345 30.8084C44.5491 30.9195 44.9379 31.0182 45.3395 31.1169C45.3395 31.0922 45.3395 31.0675 45.3395 31.0552C45.3784 30.5986 45.4172 30.1297 45.4561 29.6731C45.495 29.2165 45.5209 28.7476 45.5469 28.291C45.5469 28.1923 45.5469 28.0936 45.5469 27.9948C45.5727 27.674 45.5986 27.3531 45.6116 27.0323C45.6246 26.6868 45.6246 26.3289 45.6246 25.9834C45.6246 25.6132 45.5986 25.243 45.5858 24.8604L45.6246 24.8481ZM21.1094 33.9429C21.1094 33.9429 21.1612 33.9429 21.1742 33.9305C21.5888 33.8317 22.0034 33.7207 22.4181 33.6344C22.8845 33.5356 23.364 33.4492 23.8304 33.3752C24.1673 33.3135 24.5042 33.2765 24.8411 33.2395C25.1391 33.2024 25.4371 33.1654 25.7481 33.1284C26.0461 33.1037 26.3441 33.079 26.6421 33.0544C27.0179 33.0174 27.3937 32.9802 27.7824 32.9556C28.2618 32.931 28.7542 32.9062 29.2336 32.8939C29.739 32.8692 30.2443 32.8569 30.7496 32.8322C31.0476 32.8322 31.3328 32.8322 31.6307 32.8075C31.851 32.8075 32.0712 32.7829 32.2786 32.7829C32.6155 32.7829 32.9653 32.7581 33.3022 32.7581C33.5742 32.7581 33.8464 32.7581 34.1055 32.7581C34.2221 32.7581 34.3387 32.7829 34.4554 32.7705C34.8441 32.7459 35.2458 32.7705 35.6345 32.7705C35.9714 32.7705 36.3083 32.8075 36.6451 32.8199C36.9691 32.8322 37.2801 32.8569 37.604 32.8692C37.9928 32.8939 38.3815 32.9186 38.7572 32.9432C39.0164 32.968 39.2625 32.9926 39.5216 33.0174C39.8715 33.0544 40.2344 33.079 40.5841 33.116C40.7656 33.1284 40.96 33.1654 41.1414 33.1901C41.5689 33.2517 41.9965 33.3011 42.4241 33.3629C42.6444 33.3875 42.8646 33.4245 43.072 33.4616C43.2275 33.4862 43.3959 33.5109 43.5514 33.548C43.7327 33.5726 43.9271 33.5974 44.1086 33.6344C44.3159 33.6714 44.5103 33.7454 44.7046 33.7947C45.0026 33.8687 45.3136 33.9181 45.5986 34.0416C45.806 34.1402 46.0521 34.1772 46.2595 34.2637C46.4279 34.3377 46.6094 34.3747 46.7519 34.4981C46.7519 34.4981 46.8036 34.4981 46.8555 34.4981C46.7908 34.4365 46.7519 34.3994 46.7 34.3624C46.6353 34.313 46.5575 34.2637 46.4928 34.2144C46.2854 34.0662 46.0781 33.9059 45.8707 33.7577C45.7152 33.6466 45.5469 33.5356 45.3784 33.4369C45.2747 33.3752 45.171 33.3011 45.0545 33.2517C44.9249 33.1777 44.7824 33.116 44.6399 33.0544C44.4325 32.968 44.2251 32.8692 44.0049 32.7829C43.7588 32.6965 43.5125 32.6224 43.2664 32.5484C43.0331 32.4744 42.7869 32.388 42.5407 32.3262C42.165 32.2275 41.8021 32.1411 41.4264 32.0547C41.1284 31.9931 40.8434 31.919 40.5452 31.8696C40.2472 31.8204 39.9492 31.7832 39.6512 31.7586C39.2755 31.7216 38.9128 31.6846 38.5369 31.6475C38.1482 31.6229 37.7595 31.5982 37.3708 31.5859C36.9044 31.5735 36.4379 31.5489 35.9714 31.5489C35.492 31.5489 34.9996 31.5489 34.5201 31.5489C33.6909 31.5489 32.8487 31.5611 32.0194 31.5735C31.6307 31.5735 31.242 31.5859 30.8533 31.5982C30.5294 31.5982 30.2184 31.6229 29.8944 31.6475C29.2855 31.6846 28.6764 31.7092 28.0804 31.7832C27.1993 31.882 26.3053 32.0054 25.4242 32.1411C24.867 32.2275 24.3228 32.351 23.7656 32.462C23.1567 32.5854 22.5865 32.7952 22.0423 33.079C21.6406 33.2887 21.3686 33.6096 21.0964 33.9551L21.1094 33.9429ZM42.9295 27.7233C42.5926 27.7233 42.2816 27.7233 41.9836 27.7233C41.4394 27.7233 40.8951 27.748 40.351 27.7357C39.8197 27.7357 39.2885 27.7233 38.7572 27.711C38.4204 27.711 38.0964 27.6863 37.7595 27.6616C37.3968 27.637 37.0469 27.6246 36.684 27.5999C36.3471 27.5753 36.0103 27.5382 35.6864 27.5012C35.5697 27.5012 35.466 27.4765 35.3365 27.4642V29.6854C35.3365 29.6854 35.4143 29.6854 35.4531 29.6978C35.9066 29.7225 36.3471 29.7225 36.8006 29.7595C37.5004 29.8212 38.2 29.8952 38.8868 29.9816C39.1719 30.0186 39.4699 30.068 39.7549 30.0927C40.2344 30.1297 40.7137 30.2037 41.1931 30.3147C41.543 30.4011 41.9059 30.4629 42.2556 30.5492C42.3983 30.574 42.5408 30.611 42.6963 30.648C42.6963 30.5862 42.6963 30.5369 42.6963 30.4876C42.6963 30.2161 42.7091 29.9446 42.7351 29.6854C42.7869 29.1548 42.8518 28.6365 42.9035 28.1059C42.9035 27.9825 42.9165 27.8714 42.9295 27.7357V27.7233ZM26.4478 30.2901C26.5255 30.2901 26.5903 30.2655 26.6421 30.2655C26.9402 30.2284 27.2252 30.1914 27.5232 30.1544C27.8472 30.1174 28.1711 30.0803 28.495 30.0557C28.806 30.031 29.117 30.0063 29.428 29.9816C29.5964 29.9816 29.7519 29.9569 29.9204 29.9446C30.3868 29.9323 30.8663 29.9199 31.3328 29.8952C31.5011 29.8952 31.6696 29.8829 31.8251 29.8459C32.3823 29.7348 32.9394 29.6978 33.5095 29.6978C33.6003 29.6978 33.7039 29.6978 33.7816 29.6978V27.4148C33.7816 27.4148 33.678 27.4272 33.6391 27.4395C32.8099 27.5506 31.9805 27.6123 31.1384 27.637C30.3868 27.6616 29.6353 27.6863 28.8967 27.6987C28.1452 27.6987 27.3937 27.6987 26.6292 27.6863C26.4867 27.6863 26.3441 27.6863 26.2146 27.6863C26.2146 27.711 26.1887 27.7357 26.1887 27.748C26.2534 28.5872 26.4089 29.4263 26.4219 30.3025L26.4478 30.2901Z" fill="white"/>
</g>
<defs>
<clipPath id="clip0_795_1725">
<rect width="35" height="35" fill="white" transform="translate(16.5 17.75)"/>
</clipPath>
</defs>
</svg>
