<svg width="47" height="42" viewBox="0 0 47 42" fill="none" xmlns="http://www.w3.org/2000/svg">
<rect y="12" width="32" height="30" rx="15" fill="#EDE6D2"/>
<path d="M33.6196 23.0781C34.762 21.9357 35.3332 20.5625 35.3332 18.9583C35.3332 17.3541 34.762 15.9809 33.6196 14.8385C32.4773 13.6962 31.104 13.125 29.4998 13.125C27.8957 13.125 26.5224 13.6962 25.38 14.8385C24.2377 15.9809 23.6665 17.3541 23.6665 18.9583C23.6665 20.5625 24.2377 21.9357 25.38 23.0781C26.5224 24.2205 27.8957 24.7916 29.4998 24.7916C31.104 24.7916 32.4773 24.2205 33.6196 23.0781ZM27.8228 15.75C28.0901 15.6285 28.3575 15.5249 28.6248 15.4394C28.8922 15.3538 29.1839 15.3115 29.4998 15.3125C30.5207 15.3125 31.3835 15.6649 32.0884 16.3698C32.7932 17.0746 33.1457 17.9375 33.1457 18.9583C33.1457 19.2743 33.1034 19.566 33.0188 19.8333C32.9342 20.1007 32.8307 20.368 32.7082 20.6354L27.8228 15.75ZM29.4998 22.6041C28.479 22.6041 27.6162 22.2517 26.9113 21.5469C26.2064 20.842 25.854 19.9791 25.854 18.9583C25.854 18.6423 25.8968 18.3507 25.9823 18.0833C26.0679 17.816 26.1709 17.5486 26.2915 17.2812L31.1769 22.1666C30.9096 22.2882 30.6422 22.3917 30.3748 22.4773C30.1075 22.5628 29.8158 22.6051 29.4998 22.6041ZM17.8332 29.1666C17.0311 29.1666 16.3447 28.8813 15.774 28.3106C15.2033 27.7399 14.9175 27.053 14.9165 26.25V8.74998C14.9165 7.9479 15.2023 7.26151 15.774 6.69081C16.3457 6.12012 17.0321 5.83429 17.8332 5.83331H26.5832L29.4998 8.74998H41.1665C41.9686 8.74998 42.6555 9.03581 43.2271 9.60748C43.7988 10.1791 44.0841 10.8655 44.0832 11.6666V26.25C44.0832 27.0521 43.7978 27.7389 43.2271 28.3106C42.6564 28.8823 41.9696 29.1676 41.1665 29.1666H17.8332ZM17.8332 26.25H41.1665V11.6666H28.2967L25.38 8.74998H17.8332V26.25Z" fill="#9D7F52"/>
</svg>
