<svg width="45" height="46" viewBox="0 0 45 46" fill="none" xmlns="http://www.w3.org/2000/svg">
<rect y="16" width="30" height="30" rx="15" fill="#EDE6D2"/>
<g clip-path="url(#clip0_1122_4)">
<path d="M18.8438 10.75C19.4478 10.75 19.9375 10.2603 19.9375 9.65625C19.9375 9.05219 19.4478 8.5625 18.8438 8.5625C18.2397 8.5625 17.75 9.05219 17.75 9.65625C17.75 10.2603 18.2397 10.75 18.8438 10.75Z" fill="#9D7F52"/>
<path d="M38.5313 26.2156V21.6875C38.5313 21.1073 38.3008 20.5509 37.8906 20.1407C37.4803 19.7305 36.9239 19.5 36.3438 19.5H27.5938V15.125H37.4375C38.0177 15.125 38.5741 14.8945 38.9843 14.4843C39.3945 14.0741 39.625 13.5177 39.625 12.9375V6.375C39.625 5.79484 39.3945 5.23844 38.9843 4.8282C38.5741 4.41797 38.0177 4.1875 37.4375 4.1875H15.5625C14.9823 4.1875 14.426 4.41797 14.0157 4.8282C13.6055 5.23844 13.375 5.79484 13.375 6.375V12.9375C13.375 13.5177 13.6055 14.0741 14.0157 14.4843C14.426 14.8945 14.9823 15.125 15.5625 15.125H25.4063V19.5H16.6563C16.0761 19.5 15.5197 19.7305 15.1095 20.1407C14.6992 20.5509 14.4688 21.1073 14.4688 21.6875V26.2156C13.4377 26.4818 12.5392 27.1149 11.9415 27.9963C11.3439 28.8776 11.0882 29.9466 11.2224 31.003C11.3566 32.0593 11.8714 33.0305 12.6704 33.7344C13.4694 34.4383 14.4977 34.8267 15.5625 34.8267C16.6274 34.8267 17.6556 34.4383 18.4546 33.7344C19.2536 33.0305 19.7685 32.0593 19.9026 31.003C20.0368 29.9466 19.7811 28.8776 19.1835 27.9963C18.5858 27.1149 17.6873 26.4818 16.6563 26.2156V21.6875H25.4063V26.0625H22.125V34.8125H30.875V26.0625H27.5938V21.6875H36.3438V26.2156C35.3127 26.4818 34.4142 27.1149 33.8165 27.9963C33.2189 28.8776 32.9632 29.9466 33.0974 31.003C33.2316 32.0593 33.7464 33.0305 34.5454 33.7344C35.3444 34.4383 36.3727 34.8267 37.4375 34.8267C38.5024 34.8267 39.5306 34.4383 40.3296 33.7344C41.1286 33.0305 41.6435 32.0593 41.7776 31.003C41.9118 29.9466 41.6561 28.8776 41.0585 27.9963C40.4608 27.1149 39.5623 26.4818 38.5313 26.2156ZM17.75 30.4375C17.75 30.8701 17.6217 31.2931 17.3814 31.6528C17.141 32.0125 16.7993 32.2929 16.3996 32.4585C15.9999 32.6241 15.5601 32.6674 15.1358 32.583C14.7114 32.4986 14.3216 32.2902 14.0157 31.9843C13.7098 31.6784 13.5014 31.2886 13.417 30.8643C13.3326 30.4399 13.376 30.0001 13.5415 29.6004C13.7071 29.2007 13.9875 28.859 14.3472 28.6187C14.7069 28.3783 15.1299 28.25 15.5625 28.25C16.1427 28.25 16.6991 28.4805 17.1093 28.8907C17.5195 29.3009 17.75 29.8573 17.75 30.4375ZM28.6875 28.25V32.625H24.3125V28.25H28.6875ZM15.5625 12.9375V6.375H37.4375V12.9375H15.5625ZM37.4375 32.625C37.0049 32.625 36.5819 32.4967 36.2222 32.2563C35.8625 32.016 35.5821 31.6743 35.4165 31.2746C35.251 30.8749 35.2076 30.4351 35.292 30.0107C35.3764 29.5864 35.5848 29.1966 35.8907 28.8907C36.1966 28.5848 36.5864 28.3764 37.0107 28.292C37.4351 28.2076 37.8749 28.2509 38.2746 28.4165C38.6743 28.5821 39.016 28.8625 39.2563 29.2222C39.4967 29.5819 39.625 30.0049 39.625 30.4375C39.625 31.0177 39.3945 31.5741 38.9843 31.9843C38.5741 32.3945 38.0177 32.625 37.4375 32.625Z" fill="#9D7F52"/>
</g>
<defs>
<clipPath id="clip0_1122_4">
<rect width="35" height="35" fill="white" transform="matrix(1 0 0 -1 10 35)"/>
</clipPath>
</defs>
</svg>
