<svg width="69" height="69" viewBox="0 0 69 69" fill="none" xmlns="http://www.w3.org/2000/svg">
<rect width="69" height="69" rx="20" fill="#8B6F45"/>
<path d="M23.2071 38.0908C23.2071 37.9658 23.1933 37.8686 23.1933 37.7574C23.1933 37.3824 23.1933 37.0074 23.1655 36.6324C23.1655 36.3825 23.1238 36.1325 23.1099 35.8824C23.096 35.5353 23.0821 35.202 23.0821 34.8547C23.0821 34.6186 23.0821 34.3687 23.0821 34.1325C23.0821 33.8546 23.0821 33.5769 23.096 33.2991C23.096 32.9936 23.1099 32.6742 23.1238 32.3686C23.1377 32.0352 23.1516 31.7019 23.1933 31.3824C23.2488 30.9658 23.3182 30.5491 23.4016 30.1325C23.4433 29.9103 23.4988 29.7019 23.5405 29.4937C23.5821 29.3408 23.5405 29.1741 23.5266 29.0214C23.4849 28.7991 23.4294 28.5769 23.3738 28.3547C23.346 28.2575 23.3321 28.1602 23.3321 28.063C23.3321 27.7297 23.2905 27.3964 23.2627 27.0491C23.2627 26.9103 23.2488 26.7714 23.2349 26.6325C23.2071 26.2297 23.1794 25.8408 23.1516 25.438C23.1377 25.1186 23.1516 24.7853 23.1516 24.4658C23.1516 24.1186 23.221 23.7853 23.2488 23.4519C23.2766 23.0214 23.3877 22.6047 23.5266 22.188C23.5821 22.0352 23.6516 21.8825 23.721 21.7297C23.7905 21.563 23.8599 21.3964 23.9294 21.2436C24.0266 21.0214 24.1655 20.8408 24.346 20.6741C24.5266 20.5214 24.721 20.3686 24.9016 20.2019C25.1238 20.0214 25.3182 19.8269 25.5405 19.6464C25.7488 19.4797 25.9433 19.2991 26.1794 19.1603C26.346 19.063 26.4988 18.9519 26.6655 18.8408C26.7349 18.7991 26.8044 18.7575 26.8877 18.7158C27.0405 18.6464 27.2071 18.6602 27.3599 18.7158C27.471 18.7575 27.5821 18.7853 27.6794 18.8408C27.8183 18.9103 27.9571 18.9936 28.0683 19.0908C28.2766 19.2853 28.471 19.4936 28.6516 19.7019C28.8044 19.8686 28.971 20.0491 29.1099 20.2297C29.1932 20.3408 29.2766 20.4519 29.3599 20.563C29.4988 20.7436 29.6238 20.9241 29.7627 21.1047C29.8738 21.2575 29.9849 21.4103 30.096 21.563C30.1099 21.5908 30.1239 21.6047 30.1516 21.6325C30.3182 21.5769 30.4849 21.5214 30.6515 21.4797C30.9016 21.4102 31.1516 21.3408 31.3878 21.2714C31.4988 21.2436 31.596 21.2158 31.7072 21.188C31.8182 21.1741 31.9294 21.1603 32.0405 21.1464C32.3183 21.1186 32.5821 21.0908 32.8599 21.0769C33.2488 21.0491 33.6378 21.0214 34.0266 21.0075C34.3182 21.0075 34.6239 20.9797 34.9294 20.9936C35.1655 20.9936 35.3877 21.0214 35.6238 21.0353C35.8322 21.0491 36.0404 21.063 36.2488 21.0769C36.3044 21.0769 36.3599 21.0769 36.4016 21.1047C36.5682 21.1325 36.7349 21.1741 36.9155 21.2158C36.9988 21.0491 37.0821 20.9102 37.1654 20.7575C37.4294 20.2575 37.7628 19.7853 38.1238 19.3547C38.3321 19.1047 38.5682 18.8547 38.8182 18.6464C39.0821 18.4241 39.3599 18.3547 39.6794 18.4797C39.9849 18.5908 40.2905 18.7019 40.596 18.813C40.7766 18.8825 40.9433 18.9519 41.096 19.063C41.3877 19.2714 41.7071 19.4658 41.9849 19.688C42.2628 19.8964 42.5266 20.1325 42.8044 20.3547C42.8183 20.3686 42.846 20.3964 42.8599 20.4103C42.9432 20.5075 43.0128 20.6047 43.1516 20.6741C43.3322 20.7575 43.4294 20.9519 43.5127 21.1325C43.596 21.3269 43.6655 21.5491 43.721 21.7575C43.7628 21.9103 43.7765 22.0769 43.8044 22.2297C43.8461 22.4936 43.8877 22.7436 43.9294 23.0075C43.9294 23.063 43.9294 23.1325 43.9294 23.188C43.9571 23.3686 43.9849 23.5491 43.9989 23.7297C43.9989 23.813 43.9989 23.9103 43.9989 23.9936C43.9989 24.188 44.0543 24.3825 44.0405 24.563C44.0127 24.7297 44.0405 24.8825 44.0405 25.0491C44.0405 25.2436 43.9849 25.438 43.9849 25.6325C43.9849 25.9936 43.8877 26.3408 43.8877 26.7019C43.8877 26.7991 43.9016 26.8825 43.9154 26.9658C43.9433 27.0908 43.9433 27.2297 43.9571 27.3686C43.9849 27.5491 44.0405 27.7436 44.0682 27.9241C44.096 28.1186 44.1238 28.3269 44.1516 28.5352C44.1794 28.7158 44.1932 28.8963 44.2071 29.0769C44.2071 29.2436 44.2071 29.4241 44.2211 29.5907C44.2211 29.6603 44.2211 29.7436 44.2211 29.8131C44.2211 30.0492 44.2211 30.2853 44.2211 30.5214C44.2211 30.7158 44.1932 30.9241 44.1932 31.1186C44.1932 31.3408 44.1932 31.5769 44.1932 31.7991C44.1932 32.0769 44.1932 32.3546 44.1932 32.6325C44.1932 32.952 44.1932 33.2853 44.1932 33.6047C44.1932 33.7713 44.1932 33.9519 44.1932 34.1186C44.1932 34.5213 44.1794 34.9242 44.1655 35.3269C44.1655 35.5214 44.1655 35.7019 44.1516 35.8964C44.1516 35.9797 44.1516 36.063 44.1516 36.1464C44.1516 36.2991 44.1516 36.438 44.1516 36.5908C44.1516 37.1186 44.1516 37.6325 44.1516 38.1741C44.3321 38.2157 44.5265 38.2436 44.7349 38.188C45.0404 38.1187 45.3599 38.1464 45.6794 38.1464C46.1099 38.1464 46.5404 38.1741 46.971 38.202C47.096 38.202 47.235 38.2297 47.3599 38.2436C47.4572 38.2436 47.5405 38.313 47.5961 38.3825C47.721 38.577 47.8878 38.7436 47.9571 38.9658C48.0127 39.1602 48.0821 39.3547 48.0821 39.5769C48.0821 39.8269 48.1239 40.0907 48.1239 40.3408C48.1239 40.6464 48.1099 40.9519 48.1099 41.2436C48.1099 41.4797 48.1239 41.7158 48.1239 41.9658C48.1239 42.2158 48.1239 42.4658 48.1099 42.7157C48.1099 42.7992 48.0821 42.8825 48.0821 42.9658C48.0683 43.1186 48.0544 43.2714 48.0404 43.438C48.0266 43.5769 47.9849 43.7158 47.9711 43.8547C47.9711 43.9242 47.9711 43.9936 47.9711 44.0491C47.9432 44.3408 47.9016 44.6463 47.8738 44.938C47.8599 45.1464 47.8599 45.3547 47.846 45.5769C47.846 45.6464 47.846 45.7158 47.8322 45.7853C47.7905 46.0074 47.8322 46.2296 47.8182 46.438C47.7905 46.6881 47.846 46.938 47.8043 47.188C47.8738 47.3408 47.7627 47.4937 47.8043 47.6463C47.8043 47.7019 47.7349 47.7296 47.7627 47.7991C47.6516 47.8687 47.7071 47.9797 47.7071 48.063C47.7071 48.1325 47.7071 48.2019 47.7071 48.2574C47.7071 48.2991 47.6794 48.3407 47.6654 48.3825C47.6377 48.4242 47.5961 48.4519 47.5544 48.4658C47.471 48.5075 47.3877 48.5491 47.2904 48.5908C47.2904 48.6187 47.3044 48.6464 47.3183 48.6741C47.2071 48.7297 47.1099 48.7853 46.9989 48.8269C46.9016 48.8686 46.8182 48.8964 46.7072 48.8825C46.5821 48.8825 46.4711 48.8964 46.346 48.9102C46.1099 48.9241 45.8599 48.9381 45.6238 48.9658C45.4433 48.9658 45.2488 48.9937 45.0683 49.0074C44.846 49.0074 44.6099 49.0074 44.3877 49.0074C44.2627 49.0074 44.1516 49.0074 44.0266 49.0214C43.6932 49.0353 43.3738 49.0491 43.0405 49.063C42.5543 49.0907 42.0821 49.1047 41.5961 49.1186C41.1238 49.1463 40.6516 49.1742 40.1794 49.2019C39.9016 49.2158 39.6238 49.2575 39.3321 49.2714C39.0404 49.2852 38.7627 49.2714 38.471 49.2991C38.2488 49.3269 38.0266 49.3269 37.8182 49.3408C37.5821 49.3408 37.3322 49.3408 37.0961 49.3408C36.8183 49.3408 36.5266 49.3687 36.2488 49.3964C35.9016 49.4103 35.5544 49.4241 35.2071 49.452C35.1099 49.452 35.0127 49.4797 34.9294 49.4797C34.6793 49.4797 34.4294 49.4797 34.1933 49.4797C34.0405 49.4797 33.8877 49.4797 33.7211 49.4797C33.4154 49.4797 33.1099 49.4797 32.8043 49.4658C32.6654 49.4658 32.5266 49.4658 32.3739 49.4658C32.1378 49.4658 31.9016 49.4658 31.6655 49.4658C31.4988 49.4658 31.3322 49.4936 31.1794 49.4658C30.9155 49.438 30.6515 49.4658 30.3738 49.4658C30.0404 49.4658 29.721 49.4936 29.3877 49.5075C29.0682 49.5075 28.7488 49.5075 28.4294 49.5075C27.846 49.5075 27.2488 49.5353 26.6655 49.5353C26.3183 49.5353 25.971 49.5213 25.6238 49.5075C25.3738 49.5075 25.1238 49.5075 24.8738 49.4936C24.5683 49.4658 24.2627 49.452 23.971 49.3824C23.8044 49.3408 23.6238 49.3269 23.4433 49.2991C23.3044 49.2714 23.1794 49.2575 23.0405 49.2296C22.8877 49.2019 22.721 49.188 22.5682 49.1603C22.3738 49.1325 22.1794 49.0907 21.9849 49.063C21.9433 49.063 21.8877 49.0491 21.846 49.0353C21.8044 49.0353 21.7488 49.0353 21.721 49.0214C21.6377 48.9519 21.5266 48.9519 21.4294 48.9241C21.2766 48.8964 21.1099 48.8408 20.9988 48.7297C20.9571 48.688 20.9016 48.6741 20.8599 48.6324C20.7905 48.5908 20.6932 48.5769 20.6655 48.4796C20.6655 48.438 20.5544 48.4103 20.4849 48.4103C20.3599 48.4103 20.346 48.4103 20.3182 48.2714C20.2488 48.0213 20.2071 47.7714 20.2071 47.5074C20.2071 47.2713 20.1655 47.0491 20.1516 46.813C20.1377 46.6186 20.1238 46.4241 20.1099 46.2296C20.1099 45.6464 20.1099 45.0769 20.096 44.4935C20.096 44.188 20.096 43.8825 20.096 43.5769C20.096 43.438 20.0821 43.2991 20.0683 43.1742C20.0683 43.0074 20.0544 42.8546 20.0405 42.688C20.0405 42.438 20.0127 42.1881 19.9988 41.938C19.9988 41.8408 19.9571 41.7296 19.9432 41.6325C19.9155 41.4381 19.9016 41.2575 19.8877 41.0631C19.8877 40.7991 19.8877 40.5353 19.8877 40.2714C19.8877 39.9937 19.8877 39.7297 19.9016 39.4519C19.9016 39.4103 19.9016 39.3686 19.9294 39.327C20.0127 39.1881 20.1099 39.0492 20.2071 38.9103C20.3182 38.7714 20.4433 38.6463 20.5544 38.5074C20.6932 38.3269 20.8738 38.2575 21.096 38.2157C21.3877 38.1741 21.6933 38.1187 21.9849 38.0908C22.1932 38.0769 22.4155 38.0908 22.6238 38.0908C22.8183 38.0908 22.9988 38.0631 23.2071 38.0491V38.0908ZM25.0266 47.8547C25.0266 47.8547 25.1377 47.8547 25.1932 47.8547C25.3183 47.8547 25.4571 47.8547 25.5821 47.8547C25.8044 47.8547 26.0405 47.8687 26.2627 47.8687C26.6516 47.8687 27.0544 47.8687 27.4433 47.8547C27.7766 47.8547 28.1238 47.8547 28.4571 47.8547C28.721 47.8547 28.9849 47.8408 29.2627 47.8269C29.4293 47.8269 29.6099 47.8269 29.7766 47.8269C29.9711 47.8269 30.1793 47.7991 30.3738 47.7852C30.7211 47.7852 31.0682 47.7714 31.4155 47.7575C31.6377 47.7575 31.8738 47.7436 32.096 47.7436C32.4572 47.7436 32.8322 47.7436 33.1932 47.7436C33.36 47.7436 33.5405 47.7436 33.7071 47.7436C33.9849 47.7436 34.2489 47.7436 34.5266 47.7436C34.721 47.7436 34.9294 47.7158 35.1238 47.7158C35.4849 47.7019 35.8322 47.688 36.1932 47.6603C36.5127 47.6463 36.8183 47.6047 37.1377 47.6186C37.1654 47.6186 37.1933 47.6186 37.221 47.6186C37.5266 47.6186 37.8182 47.6186 38.1238 47.6047C38.1932 47.6047 38.2766 47.6047 38.346 47.5907C38.4432 47.5907 38.5405 47.577 38.6238 47.563C38.9571 47.5491 39.2905 47.5353 39.6238 47.5074C39.9988 47.4797 40.3738 47.4658 40.7349 47.4381C41.0543 47.4102 41.3877 47.3964 41.7071 47.3686C41.7905 47.3686 41.8878 47.3686 41.9711 47.3686C42.096 47.3686 42.1099 47.3408 42.1099 47.2297C42.1099 46.9936 42.1099 46.7574 42.1099 46.5213C42.1099 46.2296 42.1099 45.9381 42.1099 45.6464C42.1099 45.3547 42.1099 45.063 42.1099 44.7714C42.1099 44.4381 42.1099 44.1047 42.1099 43.7574C42.1239 43.2852 42.1655 42.8269 42.1932 42.3547C42.2072 42.063 42.2349 41.7714 42.2488 41.4797C42.2488 41.2436 42.2488 40.9936 42.2488 40.7574C42.2628 40.3269 42.2905 39.9102 42.3044 39.4796C42.3044 39.2019 42.3182 38.9241 42.3321 38.6463C42.3461 38.202 42.3738 37.7435 42.3877 37.2991C42.3877 37.0214 42.4016 36.7575 42.4154 36.4796C42.4154 36.2019 42.4154 35.9241 42.4154 35.6463C42.4154 35.3408 42.4154 35.0491 42.4154 34.7437C42.4154 34.438 42.4154 34.1325 42.4154 33.8269C42.4154 33.4936 42.4294 33.1741 42.4433 32.8408C42.4433 32.4658 42.4433 32.0769 42.4433 31.7019C42.4433 31.3408 42.4433 30.9658 42.4433 30.6047C42.4433 29.8964 42.4433 29.188 42.4294 28.4797C42.4294 28.0214 42.3321 27.5769 42.1793 27.1325C42.0544 26.7853 41.9015 26.4658 41.6794 26.1741C41.3739 25.7852 41.0543 25.3964 40.6377 25.1186C40.4988 25.0353 40.3878 24.9241 40.2489 24.8408C40.0266 24.688 39.8183 24.5075 39.596 24.3547C39.4154 24.2297 39.2072 24.1325 39.0127 24.0214C38.8182 23.9103 38.6377 23.7853 38.4572 23.688C38.346 23.6186 38.2349 23.563 38.1099 23.5075C37.8321 23.3825 37.5544 23.2575 37.2766 23.1325C37.1377 23.0769 37.0128 23.0075 36.8739 22.9797C36.5543 22.8964 36.2349 22.8269 35.9016 22.7852C35.5961 22.7436 35.2904 22.7158 34.9989 22.688C34.7766 22.6741 34.5544 22.6603 34.3322 22.6603C34.0405 22.6603 33.7627 22.6603 33.471 22.688C33.1099 22.7019 32.7349 22.7297 32.3739 22.7575C32.1794 22.7714 31.971 22.7852 31.7765 22.813C31.6239 22.8269 31.4711 22.8408 31.3322 22.8825C31.0405 22.9658 30.7627 23.0491 30.4849 23.1464C30.1377 23.2853 29.8043 23.438 29.4572 23.5908C29.1099 23.7436 28.8044 23.9519 28.4988 24.1603C28.1377 24.4103 27.8044 24.688 27.4849 24.9936C27.2627 25.2019 27.0544 25.4241 26.8321 25.6325C26.6932 25.7714 26.5821 25.9519 26.4571 26.1047C26.2488 26.3825 26.1516 26.7158 25.9294 26.9797C25.9294 26.9797 25.9294 27.0075 25.9294 27.0214C25.8599 27.188 25.7766 27.3547 25.7071 27.5353C25.7071 27.563 25.6933 27.5769 25.6794 27.6047C25.6238 27.7436 25.5682 27.8825 25.5127 28.0214C25.4988 28.063 25.4571 28.0769 25.4849 28.1325C25.4849 28.1464 25.4849 28.188 25.4849 28.2019C25.4433 28.313 25.4016 28.4241 25.3599 28.5352C25.3183 28.6881 25.2627 28.8408 25.2349 28.9796C25.2349 29.0214 25.2349 29.0631 25.2349 29.0908C25.1516 29.2436 25.221 29.4381 25.1238 29.577C25.1516 29.6742 25.0405 29.7575 25.1099 29.8547V29.8824C25.0266 29.9658 25.0405 30.063 25.0266 30.1602C25.0127 30.2437 24.9571 30.327 24.9849 30.4242C24.9849 30.4519 24.9571 30.5075 24.9433 30.5491C24.9433 30.5631 24.9155 30.5908 24.9155 30.6047C24.9155 30.6603 24.9571 30.7297 24.9433 30.7575C24.9016 30.813 24.9155 30.8546 24.9016 30.9102C24.846 31.0907 24.8321 31.2575 24.8182 31.438C24.8182 31.6325 24.7766 31.827 24.7766 32.0214C24.7766 32.3269 24.7488 32.6186 24.7766 32.9241C24.7766 32.9936 24.7766 33.0769 24.7488 33.1464C24.7349 33.2574 24.721 33.3686 24.7071 33.4796C24.7766 33.5491 24.7349 33.6324 24.721 33.702C24.721 33.7575 24.7071 33.7992 24.721 33.8686C24.7349 33.9797 24.7488 34.1047 24.721 34.2158C24.6933 34.3824 24.6655 34.5353 24.7071 34.7158C24.7349 34.8686 24.7349 35.0352 24.7071 35.188C24.7071 35.2297 24.7071 35.2853 24.7071 35.3269C24.7071 35.4519 24.721 35.577 24.7349 35.7019C24.7349 35.7296 24.7349 35.7575 24.7349 35.7714C24.7488 35.9658 24.7766 36.1464 24.7766 36.3407C24.7766 36.5214 24.7766 36.702 24.7766 36.8825C24.7766 36.9381 24.7627 37.0074 24.7766 37.063C24.7766 37.0908 24.846 37.1186 24.7905 37.1603C24.7349 37.2158 24.846 37.2158 24.8182 37.2714C24.7627 37.4241 24.846 37.5908 24.8044 37.7437C24.8044 37.7853 24.8044 37.8547 24.8044 37.8963C24.8599 38.1047 24.8599 38.2992 24.8044 38.5074C24.8044 38.5353 24.8044 38.563 24.8044 38.5907C24.8044 38.688 24.8877 38.7714 24.8044 38.8685C24.8044 38.8824 24.8044 38.9241 24.8044 38.938C24.8599 39.1046 24.7766 39.2714 24.8321 39.4519C24.8599 39.5214 24.8182 39.6047 24.8321 39.6741C24.8599 39.7436 24.8321 39.813 24.8321 39.8825C24.8321 40.0353 24.846 40.188 24.846 40.3408C24.846 40.438 24.8044 40.5492 24.8321 40.6186C24.8738 40.7297 24.8182 40.813 24.8321 40.9242C24.8599 41.0214 24.8738 41.1464 24.8321 41.2575C24.8321 41.2853 24.8321 41.313 24.846 41.3408C24.846 41.3686 24.8738 41.4102 24.8738 41.4381C24.8599 41.577 24.8738 41.7019 24.8738 41.8408C24.8738 42.1325 24.846 42.4242 24.8738 42.7297C24.8877 42.9658 24.8738 43.188 24.9016 43.4241C24.9294 43.7297 24.9294 44.0491 24.9294 44.3686C24.9294 44.6742 24.9294 44.9797 24.9294 45.2853C24.9294 45.4936 24.9294 45.7157 24.9294 45.9241C24.9294 46.3547 24.9571 46.7853 24.971 47.2158C24.971 47.4381 24.971 47.6603 24.971 47.9103L25.0266 47.8547ZM43.9154 47.2436C43.9154 47.2436 43.9849 47.2575 44.0266 47.2575C44.1238 47.2575 44.2071 47.2297 44.3044 47.2158C44.4432 47.2158 44.5961 47.202 44.7349 47.202C44.9432 47.202 45.1377 47.2158 45.3461 47.202C45.5405 47.202 45.7211 47.1741 45.9155 47.1464C46.0405 47.1464 46.0682 47.1047 46.0682 46.9796C46.0682 46.6464 46.0544 46.3131 46.0682 45.9797C46.0682 45.6047 46.1099 45.2437 46.1377 44.8687C46.1516 44.688 46.1794 44.4937 46.1933 44.313C46.2349 43.9519 46.2766 43.5769 46.3182 43.2158C46.3738 42.7575 46.4432 42.2991 46.4432 41.8408C46.4432 41.6047 46.4432 41.3825 46.4432 41.1464C46.4432 40.7853 46.4711 40.438 46.4849 40.077C46.4849 39.8408 46.4432 39.7992 46.2071 39.7853C45.9293 39.7713 45.6516 39.7436 45.3738 39.7297C45.0683 39.702 44.7766 39.6464 44.471 39.6603C44.346 39.6603 44.235 39.6603 44.1099 39.6603C44.1099 39.702 44.0822 39.7436 44.0822 39.7713C44.0822 39.9797 44.0822 40.2019 44.0822 40.4103C44.0822 40.7853 44.0543 41.1741 44.0405 41.5491C44.0405 41.7852 44.0405 42.0213 44.0266 42.2574C44.0266 42.4936 43.9849 42.7158 43.971 42.9381C43.971 43.1463 43.9571 43.3547 43.9433 43.563C43.9433 43.813 43.9154 44.0491 43.9154 44.2992C43.9154 44.4241 43.9154 44.5491 43.9154 44.6742C43.9154 44.8269 43.9154 44.9797 43.9154 45.1186C43.9154 45.313 43.9154 45.5214 43.9154 45.7157C43.9154 45.9937 43.9016 46.2714 43.9016 46.5492C43.9016 46.7714 43.9154 46.9796 43.9294 47.2158L43.9154 47.2436ZM23.221 39.6741C23.221 39.6741 23.1099 39.6741 23.0544 39.6741C22.9016 39.688 22.7627 39.7157 22.6238 39.7297C22.3183 39.7713 21.9988 39.7992 21.6933 39.8408C21.5821 39.8408 21.5405 39.9102 21.5405 40.0214C21.5405 40.2019 21.5405 40.3964 21.5405 40.5769C21.5405 40.6881 21.5127 40.7991 21.5405 40.8963C21.596 41.1324 21.5683 41.3825 21.6377 41.6186C21.6794 41.7436 21.6655 41.8964 21.6794 42.0353C21.6794 42.1602 21.6933 42.2853 21.6933 42.3963C21.6933 42.5214 21.6516 42.6603 21.6933 42.7713C21.7488 42.9102 21.7349 43.063 21.7349 43.2019C21.7349 43.4103 21.7766 43.6046 21.7349 43.813C21.8044 43.9796 21.6794 44.1464 21.7627 44.313C21.7627 44.313 21.7627 44.3408 21.7627 44.3546C21.7627 44.4935 21.6794 44.6186 21.7627 44.7575C21.7627 44.7575 21.7627 44.7852 21.7627 44.7991C21.7627 44.938 21.7627 45.063 21.7488 45.2019C21.721 45.4242 21.7627 45.6324 21.7349 45.8546C21.7071 45.9937 21.7627 46.1463 21.7905 46.2991C21.7905 46.3269 21.8044 46.3547 21.7905 46.3824C21.7488 46.4658 21.7905 46.5492 21.7905 46.6325C21.7905 46.7158 21.7488 46.7991 21.8044 46.8686C21.8044 46.8686 21.7905 46.9103 21.7905 46.938C21.7905 46.9936 21.7905 47.0631 21.7905 47.1187C21.7905 47.1741 21.8182 47.2297 21.8321 47.2853C21.8877 47.4797 21.846 47.4519 22.0405 47.4935C22.0544 47.4935 22.0821 47.4935 22.096 47.4935C22.6238 47.563 23.1377 47.6186 23.6655 47.688C23.7071 47.688 23.7488 47.688 23.8183 47.688C23.8044 47.563 23.7905 47.4381 23.7766 47.313C23.6794 46.8686 23.6377 46.4103 23.596 45.9519C23.5683 45.6324 23.5683 45.2991 23.5405 44.9797C23.5127 44.5353 23.4571 44.1047 23.4294 43.6602C23.4016 43.2019 23.3738 42.7436 23.3599 42.2853C23.3321 41.7158 23.3182 41.1464 23.3044 40.5769C23.3044 40.3131 23.3044 40.063 23.3044 39.7992C23.3044 39.7436 23.3044 39.702 23.2905 39.6324L23.221 39.6741ZM28.721 22.313C28.5821 22.1464 28.4571 22.0075 28.346 21.8547C28.221 21.688 28.1099 21.4936 27.971 21.3408C27.721 21.0491 27.4988 20.7436 27.2349 20.4658C27.1099 20.3547 27.096 20.3408 26.9571 20.4241C26.5266 20.7019 26.1238 21.0214 25.7349 21.3547C25.5544 21.5214 25.3599 21.6741 25.1794 21.8408C25.0683 21.938 25.0405 22.0214 25.0821 22.1603C25.1655 22.3825 25.2488 22.6186 25.346 22.8408C25.3738 22.9241 25.4016 22.9936 25.4433 23.0769C25.6099 23.4103 25.7627 23.7436 25.8738 24.0908C25.9016 24.188 25.9571 24.2575 26.0127 24.3547C26.4433 23.9797 26.8738 23.6186 27.3044 23.2575C27.7349 22.8964 28.221 22.6047 28.7349 22.313H28.721ZM38.1516 21.5908C38.5961 21.813 39.0404 21.9936 39.4433 22.2436C39.846 22.4936 40.2627 22.7158 40.6655 22.9936C40.6932 22.9519 40.721 22.9241 40.7349 22.8825C40.9433 22.5352 41.1516 22.188 41.3599 21.8408C41.4155 21.7436 41.471 21.6325 41.5128 21.5353C41.5961 21.3408 41.5682 21.2019 41.3877 21.063C41.2627 20.9658 41.1516 20.8686 41.0266 20.7714C40.8738 20.6464 40.721 20.5352 40.5266 20.4658C40.2349 20.3547 39.9432 20.2575 39.6655 20.1464C39.5127 20.0769 39.3738 20.1047 39.2628 20.2158C39.1377 20.3408 39.0127 20.4658 38.8878 20.6047C38.6933 20.8269 38.5128 21.063 38.3321 21.2991C38.2627 21.3825 38.2211 21.4658 38.1378 21.5908H38.1516ZM42.4154 23.0075C42.4154 23.0075 42.3738 23.0491 42.3599 23.063C42.2072 23.3269 42.0683 23.6047 41.9155 23.8686C41.8878 23.9241 41.9155 23.9519 41.9432 23.9936C42.0404 24.1047 42.1377 24.2158 42.2349 24.3269C42.3321 24.4519 42.4433 24.5769 42.5543 24.7019C42.596 24.4936 42.4989 23.2714 42.4154 23.0075ZM24.4155 26.5908C24.5405 26.3686 24.6655 26.1603 24.7905 25.938C24.8321 25.8547 24.846 25.7853 24.8182 25.7019C24.6933 25.3964 24.5821 25.0908 24.471 24.7853C24.4571 24.7297 24.4294 24.6741 24.346 24.6603C24.3183 25.313 24.4155 25.9519 24.4294 26.5908H24.4155Z" fill="white"/>
<path d="M40.8315 40.8964C40.8315 40.8964 40.9426 41.0075 40.8592 41.0908C40.8592 41.0908 40.8592 41.1325 40.8592 41.1602C40.8592 41.2297 40.9009 41.313 40.8454 41.3825C40.8454 41.3825 40.8454 41.4242 40.8454 41.438C40.9287 41.4798 40.8454 41.5631 40.8871 41.6186C40.8176 41.7297 40.8592 41.8269 40.8871 41.9381C40.8871 42.0074 40.8871 42.0909 40.8871 42.1603C40.8454 42.438 40.8454 42.7158 40.8454 42.9936C40.8454 43.0631 40.8731 43.1186 40.8176 43.188C40.7898 43.2159 40.7898 43.2992 40.8315 43.3686C40.9009 43.4797 40.8315 43.6186 40.8315 43.7298C40.8315 43.8686 40.7898 43.9936 40.8038 44.1464C40.8315 44.313 40.8038 44.5075 40.7898 44.6741C40.7898 44.7159 40.7898 44.7713 40.7898 44.813C40.7898 44.8686 40.7898 44.9102 40.7065 44.9241C40.7898 44.9936 40.7759 45.063 40.762 45.1463C40.7482 45.2019 40.7482 45.2714 40.7343 45.3269C40.7203 45.4103 40.7203 45.4936 40.6787 45.5492C40.5954 45.6741 40.5398 45.7991 40.4842 45.938C40.4842 45.9658 40.4565 45.9798 40.4288 45.9936C40.3732 46.0491 40.3315 46.0908 40.276 46.1464C40.2064 46.2159 40.1371 46.2992 40.0538 46.3686C39.9982 46.4102 39.9287 46.4381 39.8593 46.4519C39.7204 46.4797 39.5953 46.4936 39.4564 46.5214C39.1926 46.563 38.9288 46.6047 38.6648 46.5909C38.3731 46.5909 38.0953 46.5909 37.8038 46.6047C37.4565 46.6186 37.1092 46.6742 36.7621 46.688C36.5399 46.688 36.3176 46.7714 36.0954 46.7298C35.9842 46.7019 35.8593 46.7436 35.7343 46.7436C35.4843 46.7436 35.2481 46.7436 34.9981 46.7436C34.5954 46.7436 34.1926 46.7436 33.7898 46.7436C33.5676 46.7436 33.3592 46.7298 33.137 46.7436C32.8176 46.7436 32.512 46.7852 32.1926 46.7991C32.1093 46.7991 32.012 46.7991 31.9287 46.7991C31.6926 46.7991 31.4704 46.7991 31.2343 46.7991C30.9843 46.7991 30.7204 46.8131 30.4704 46.8269C30.3038 46.8269 30.1231 46.8269 29.9565 46.8269C29.8037 46.8269 29.6371 46.8269 29.4843 46.8269C29.2898 46.8269 29.0815 46.8131 28.8871 46.7991C28.7203 46.7991 28.5537 46.7852 28.387 46.7714C28.3037 46.7714 28.2065 46.7714 28.1232 46.7575C27.9009 46.7158 27.6787 46.6742 27.4704 46.6325C27.4287 46.6325 27.387 46.6047 27.3454 46.5769C27.2204 46.5214 27.0954 46.4658 26.9565 46.4102C26.762 46.3408 26.5815 46.2436 26.4009 46.1324C26.3454 46.1047 26.3176 46.0075 26.3037 45.9242C26.262 45.7853 26.2343 45.6464 26.2204 45.4936C26.1926 45.3547 26.1787 45.2158 26.1787 45.0909C26.1926 44.6186 26.2204 44.1325 26.2482 43.6603C26.2759 43.2713 26.3037 42.8825 26.3315 42.4936C26.3454 42.2436 26.3731 41.9936 26.3731 41.7575C26.3731 41.5491 26.3454 41.3409 26.3454 41.1325C26.3315 40.8824 26.3037 40.6186 26.3176 40.3686C26.3176 40.2436 26.3176 40.1324 26.3176 40.0075C26.3454 39.7436 26.3731 39.4797 26.4009 39.2298C26.4287 38.9381 26.4426 38.6603 26.4565 38.3686C26.4565 38.2574 26.4843 38.1464 26.5537 38.063C26.637 37.9519 26.7065 37.8408 26.8037 37.7436C26.9287 37.6047 27.0537 37.4658 27.1787 37.3269C27.2759 37.2436 27.3732 37.1603 27.5259 37.1603C27.7343 37.1603 27.9426 37.1464 28.1509 37.1324C28.2481 37.1324 28.3454 37.1047 28.4426 37.0908C28.5815 37.0908 28.7203 37.0769 28.8592 37.0631C29.1093 37.0352 29.3731 37.0075 29.6231 36.9798C29.8176 36.9658 30.0259 36.938 30.2203 36.9242C30.4704 36.8963 30.7204 36.8825 30.9703 36.8686C31.262 36.8547 31.5537 36.8547 31.8315 36.8269C32.0815 36.813 32.3314 36.7714 32.5815 36.7436C32.7064 36.7436 32.8176 36.7436 32.9426 36.7297C33.2203 36.7297 33.4981 36.7019 33.7759 36.7019C34.0259 36.7019 34.262 36.7019 34.5121 36.6881C34.6093 36.6881 34.6926 36.6602 34.7898 36.6602C35.1093 36.6602 35.4426 36.6602 35.762 36.6325C36.137 36.6048 36.512 36.5908 36.887 36.5769C37.1926 36.5769 37.5121 36.5769 37.8176 36.5769C37.8731 36.5769 37.9287 36.5769 37.9843 36.563C38.3037 36.5075 38.6231 36.5353 38.9426 36.5353C39.1231 36.5353 39.3038 36.5353 39.4843 36.5353C39.6788 36.5492 39.8593 36.6048 40.012 36.7574C40.1509 36.8963 40.3176 37.0075 40.4426 37.1464C40.5954 37.2992 40.6649 37.5074 40.762 37.7019C40.7759 37.7436 40.762 37.7991 40.7759 37.8547C40.7898 38.0769 40.8038 38.313 40.8176 38.5352C40.8176 38.6603 40.8592 38.7853 40.8454 38.9102C40.8454 39.1186 40.9009 39.3269 40.8871 39.5492C40.8871 39.6741 40.9426 39.7991 40.8592 39.9242C40.8315 39.9658 40.8871 40.0491 40.9009 40.1047C40.9009 40.1324 40.9287 40.188 40.9009 40.2019C40.8731 40.2297 40.8731 40.2575 40.9009 40.2853C40.9009 40.2853 40.9148 40.2992 40.9148 40.313C40.8731 40.3964 40.9148 40.4658 40.9148 40.5491C40.9148 40.6325 40.9148 40.7298 40.9148 40.8131C40.9148 40.8408 40.8731 40.8686 40.8592 40.9103L40.8315 40.8964ZM27.9287 42.7436C27.9287 42.7436 28.0259 42.8409 27.9565 42.9103C27.9426 42.9242 27.9426 42.9798 27.9565 43.0075C28.012 43.1741 27.9565 43.3408 27.9565 43.4936C27.9565 43.5909 27.9287 43.6742 27.9009 43.7714C27.9009 43.8131 27.8731 43.8408 27.9009 43.8824C27.9148 43.9103 27.9148 43.938 27.9009 43.9659C27.9009 44.0213 27.8731 44.0769 27.9009 44.1325C27.9009 44.1464 27.9009 44.1881 27.9009 44.2019C27.8315 44.3269 27.887 44.4658 27.8593 44.6047C27.8593 44.688 27.8593 44.7713 27.8593 44.8408C27.8315 44.9658 27.8731 45.063 27.9982 45.063C28.0815 45.063 28.1509 45.063 28.2343 45.063C28.4148 45.0769 28.5954 45.1047 28.762 45.1186C29.1093 45.1186 29.4565 45.1186 29.8037 45.1186C30.3315 45.1186 30.8593 45.1186 31.387 45.1047C31.4981 45.1047 31.6231 45.1047 31.7343 45.1047C32.1093 45.0909 32.4843 45.0491 32.8732 45.0491C33.3871 45.0491 33.901 45.0769 34.4148 45.063C34.9009 45.0491 35.387 45.0769 35.8732 45.0074C36.1787 44.9658 36.4981 44.9381 36.8176 44.9241C37.1648 44.9102 37.5259 44.8964 37.8731 44.8964C38.1788 44.8964 38.4982 44.8686 38.8037 44.813C38.9288 44.7853 38.9426 44.7853 38.9426 44.6464C38.9704 44.3269 38.9842 43.9936 39.0121 43.6742C39.0259 43.3269 39.0398 42.9658 39.0537 42.6186C39.0537 42.4241 39.0537 42.2158 39.0537 42.0214C39.0537 41.7436 39.0814 41.4519 39.0954 41.1741C39.0954 41.1186 39.0954 41.0492 39.0954 40.9797C39.0954 40.7019 39.0954 40.4241 39.0954 40.1464C39.0954 39.8963 39.0676 39.6464 39.0537 39.3964C39.0398 39.1047 39.0259 38.813 39.0121 38.5214C39.0121 38.4658 39.0121 38.4103 38.9842 38.3547C38.9704 38.2574 38.9426 38.2436 38.8453 38.2574C38.7899 38.2574 38.7343 38.2574 38.6926 38.2574C38.4843 38.2574 38.2759 38.2714 38.0676 38.2853C37.9287 38.2853 37.7759 38.313 37.637 38.313C37.3732 38.313 37.0954 38.313 36.8314 38.313C36.637 38.313 36.4564 38.3407 36.262 38.3407C35.9842 38.3407 35.7064 38.3686 35.4287 38.3686C35.1926 38.3686 34.9564 38.3963 34.7203 38.3963C34.5259 38.3963 34.3315 38.3963 34.1371 38.4103C33.887 38.4103 33.6509 38.438 33.4009 38.4519C33.2203 38.4519 33.0398 38.4519 32.8593 38.4798C32.5676 38.5075 32.2898 38.5352 31.9981 38.5631C31.8592 38.5631 31.7203 38.5631 31.5954 38.5631C31.4288 38.5631 31.262 38.5769 31.0954 38.5908C30.8731 38.5908 30.6509 38.6186 30.4287 38.6324C30.2482 38.6324 30.0537 38.6741 29.8732 38.688C29.7899 38.688 29.7204 38.688 29.6371 38.7019C29.4426 38.7297 29.2481 38.7713 29.0537 38.7853C28.7898 38.7992 28.5259 38.7853 28.2759 38.813C28.0537 38.8408 28.0398 38.8964 28.0259 39.063C28.012 39.188 28.012 39.3269 27.9982 39.4519C27.9982 39.6464 27.9704 39.8409 27.9704 40.0352C27.9704 40.313 28.012 40.6047 28.012 40.8824C28.012 41.063 28.012 41.2574 28.012 41.438C28.012 41.6186 27.9565 41.7992 28.012 41.9797C28.012 42.0214 27.9843 42.0769 27.9843 42.1186C27.9843 42.1463 28.0259 42.188 28.012 42.188C27.9426 42.2575 27.9843 42.3269 27.9843 42.3964C27.9843 42.438 28.0398 42.4659 27.9843 42.4936C27.9843 42.4936 27.9843 42.5213 27.9843 42.5353C28.0676 42.6048 27.9843 42.6602 27.9565 42.7158L27.9287 42.7436Z" fill="white"/>
<path d="M28.7354 30.3131C28.6104 30.1742 28.4576 30.1324 28.277 30.0908C28.3048 30.0214 28.2354 30.0075 28.1798 29.9797C28.1243 29.9658 28.0687 29.9381 27.9993 29.9242C28.027 29.8686 28.027 29.813 28.0548 29.7714C28.1382 29.6464 28.2215 29.5213 28.3187 29.3964C28.4159 29.2714 28.4993 29.1325 28.6104 29.0074C28.6936 28.8964 28.7909 28.8131 28.9576 28.7992C29.1937 28.7992 29.4299 28.7297 29.652 28.7019C29.9437 28.6742 30.2492 28.6603 30.5549 28.6464C30.8326 28.6464 31.0965 28.6464 31.3742 28.6325C31.7215 28.6325 32.0686 28.6464 32.402 28.688C32.5827 28.7019 32.7632 28.688 32.9577 28.688C33.1799 28.688 33.402 28.688 33.6242 28.688C33.8882 28.688 34.152 28.688 34.4021 28.6464C34.8327 28.5908 35.2631 28.563 35.6937 28.5492C35.8882 28.5492 36.0826 28.5075 36.2771 28.4936C36.416 28.4936 36.5549 28.4936 36.6798 28.4936C37.1243 28.4936 37.5687 28.4936 37.9993 28.4936C38.1937 28.4936 38.3743 28.4797 38.5687 28.4658C38.7076 28.4658 38.8326 28.4797 38.9437 28.5769C39.0131 28.6464 39.1103 28.6742 39.1936 28.7436C39.2771 28.7992 39.3465 28.8685 39.416 28.9381C39.4437 28.9658 39.4853 29.0074 39.4437 29.063C39.4437 29.0769 39.4437 29.1047 39.4576 29.1325C39.5132 29.2435 39.527 29.2575 39.4853 29.3547C39.416 29.4936 39.3604 29.6464 39.1936 29.7158C39.1936 29.8269 39.1382 29.9242 39.041 29.9797C38.9993 30.0075 38.9715 30.0491 38.9298 30.077C38.8882 30.1047 38.8326 30.1464 38.777 30.1464C38.4299 30.1464 38.0826 30.188 37.7215 30.1742C37.2215 30.1464 36.7077 30.1742 36.1936 30.1742C35.8882 30.1742 35.5827 30.2159 35.2631 30.2436C35.2077 30.2436 35.1521 30.2436 35.0965 30.2436C34.916 30.2575 34.7354 30.2852 34.5548 30.2992C34.4021 30.2992 34.2493 30.3269 34.0827 30.3269C33.8603 30.3269 33.6382 30.3269 33.402 30.3269C33.2909 30.3269 33.1936 30.3131 33.0826 30.2992C33.0687 30.2992 33.0548 30.2992 33.041 30.2992C32.7632 30.3825 32.4992 30.2992 32.2215 30.2992C32.0132 30.2992 31.8048 30.2713 31.5965 30.2713C31.3604 30.2713 31.1104 30.2436 30.8743 30.2575C30.7215 30.2575 30.5686 30.2852 30.416 30.2852C30.2909 30.2852 30.1659 30.2852 30.041 30.2852C29.8326 30.2852 29.6243 30.3131 29.4159 30.3269C29.3187 30.3269 29.2215 30.3269 29.1242 30.3269C29.0549 30.3269 28.9715 30.3685 28.9298 30.3269C28.8604 30.2713 28.8048 30.3269 28.7354 30.3269V30.3131Z" fill="white"/>
<path d="M37.8605 40.3823C37.7911 40.4656 37.7494 40.5351 37.6939 40.6045C37.6661 40.6463 37.6245 40.674 37.5966 40.7017C37.555 40.7434 37.5272 40.7712 37.5133 40.8268C37.4994 40.8824 37.43 40.9378 37.3744 40.9934C37.3466 41.0213 37.3049 41.035 37.2772 41.0767C37.18 41.2018 37.0411 41.2295 36.8883 41.2434C36.6522 41.2434 36.4022 41.2434 36.1661 41.2712C35.7633 41.299 35.3466 41.3267 34.9439 41.3545C34.7634 41.3545 34.5827 41.3545 34.4022 41.3545C34.2911 41.3545 34.18 41.3545 34.0688 41.3684C33.7494 41.3684 33.4439 41.3963 33.1245 41.3963C32.9855 41.3963 32.8328 41.41 32.6939 41.3963C32.4855 41.3684 32.2772 41.424 32.0689 41.3545C32.0411 41.3545 32.0133 41.3545 31.9716 41.3545C31.805 41.3545 31.6383 41.3684 31.4855 41.3267C31.3189 41.2851 31.1522 41.3267 30.9855 41.2712C30.7633 41.2018 30.5411 41.2574 30.3327 41.2018C30.2634 41.1879 30.1799 41.2018 30.1105 41.2018C29.9717 41.1739 29.8744 41.1184 29.7495 41.0629C29.7077 41.049 29.6522 41.049 29.6105 41.035C29.555 41.035 29.5134 41.035 29.4855 40.9517C29.4855 40.924 29.4299 40.8962 29.3883 40.8822C29.3327 40.8684 29.2772 40.8545 29.2217 40.8545C29.1938 40.7712 29.2217 40.7017 29.2633 40.6463C29.3745 40.4656 29.4855 40.285 29.6105 40.1045C29.666 40.0073 29.7355 39.924 29.8049 39.8407C29.8744 39.7434 29.9717 39.7018 30.0966 39.7018C30.305 39.7018 30.4995 39.6601 30.7077 39.6601C30.8883 39.6601 31.0688 39.6879 31.2355 39.7156C31.3605 39.7156 31.4717 39.7434 31.5966 39.7434C31.9855 39.7434 32.3605 39.7712 32.7495 39.7712C33.2216 39.7712 33.68 39.7295 34.1522 39.7018C34.4577 39.6879 34.7494 39.6739 35.0549 39.6462C35.4439 39.6184 35.8328 39.6046 36.2216 39.5767C36.4577 39.5629 36.6938 39.535 36.9299 39.5073C37.055 39.5073 37.18 39.5073 37.2772 39.6184C37.3189 39.6601 37.3884 39.6879 37.43 39.7156C37.555 39.7851 37.6522 39.8963 37.7494 40.0073C37.7772 40.0489 37.7772 40.1045 37.805 40.1462C37.8327 40.1878 37.8605 40.2295 37.805 40.285C37.805 40.285 37.8327 40.3406 37.8605 40.3823Z" fill="white"/>
</svg>
