<svg width="60" height="60" viewBox="0 0 60 60" fill="none" xmlns="http://www.w3.org/2000/svg">
<rect width="60" height="60" rx="12" fill="#8B6F45"/>
<path d="M23.4753 22.4995C24.0147 22.4995 24.452 22.0622 24.452 21.5228C24.452 20.9834 24.0147 20.5461 23.4753 20.5461C22.9358 20.5461 22.4985 20.9834 22.4985 21.5228C22.4985 22.0622 22.9358 22.4995 23.4753 22.4995Z" fill="white"/>
<path d="M41.0566 36.3103V32.2667C41.0566 31.7486 40.8508 31.2518 40.4845 30.8854C40.1182 30.5191 39.6213 30.3133 39.1032 30.3133H31.2895V26.4064H40.0799C40.598 26.4064 41.0949 26.2006 41.4612 25.8343C41.8276 25.4679 42.0334 24.9711 42.0334 24.453V18.5927C42.0334 18.0746 41.8276 17.5777 41.4612 17.2114C41.0949 16.845 40.598 16.6392 40.0799 16.6392H20.5456C20.0275 16.6392 19.5306 16.845 19.1643 17.2114C18.7979 17.5777 18.5921 18.0746 18.5921 18.5927V24.453C18.5921 24.9711 18.7979 25.4679 19.1643 25.8343C19.5306 26.2006 20.0275 26.4064 20.5456 26.4064H29.336V30.3133H21.5223C21.0042 30.3133 20.5073 30.5191 20.141 30.8854C19.7746 31.2518 19.5688 31.7486 19.5688 32.2667V36.3103C18.6481 36.5481 17.8457 37.1134 17.312 37.9004C16.7783 38.6875 16.55 39.6421 16.6698 40.5854C16.7896 41.5288 17.2494 42.396 17.9629 43.0246C18.6764 43.6532 19.5946 44 20.5456 44C21.4965 44 22.4147 43.6532 23.1282 43.0246C23.8417 42.396 24.3015 41.5288 24.4213 40.5854C24.5411 39.6421 24.3128 38.6875 23.7791 37.9004C23.2454 37.1134 22.443 36.5481 21.5223 36.3103V32.2667H29.336V36.1736H26.4059V43.9873H34.2196V36.1736H31.2895V32.2667H39.1032V36.3103C38.1825 36.5481 37.3801 37.1134 36.8464 37.9004C36.3127 38.6875 36.0844 39.6421 36.2042 40.5854C36.324 41.5288 36.7838 42.396 37.4973 43.0246C38.2108 43.6532 39.129 44 40.0799 44C41.0308 44 41.9491 43.6532 42.6626 43.0246C43.3761 42.396 43.8358 41.5288 43.9557 40.5854C44.0755 39.6421 43.8471 38.6875 43.3135 37.9004C42.7798 37.1134 41.9774 36.5481 41.0566 36.3103ZM22.499 40.0805C22.499 40.4668 22.3844 40.8445 22.1698 41.1657C21.9551 41.487 21.65 41.7374 21.2931 41.8852C20.9362 42.0331 20.5434 42.0717 20.1645 41.9964C19.7855 41.921 19.4375 41.7349 19.1643 41.4618C18.8911 41.1886 18.705 40.8405 18.6297 40.4616C18.5543 40.0826 18.593 39.6899 18.7408 39.3329C18.8887 38.976 19.139 38.6709 19.4603 38.4562C19.7815 38.2416 20.1592 38.127 20.5456 38.127C21.0636 38.127 21.5605 38.3328 21.9268 38.6992C22.2932 39.0655 22.499 39.5624 22.499 40.0805ZM32.2662 38.127V42.0339H28.3593V38.127H32.2662ZM20.5456 24.453V18.5927H40.0799V24.453H20.5456ZM40.0799 42.0339C39.6936 42.0339 39.3159 41.9193 38.9947 41.7047C38.6734 41.49 38.423 41.185 38.2752 40.828C38.1273 40.4711 38.0886 40.0783 38.164 39.6994C38.2394 39.3204 38.4254 38.9724 38.6986 38.6992C38.9718 38.426 39.3199 38.2399 39.6988 38.1646C40.0778 38.0892 40.4705 38.1279 40.8275 38.2757C41.1844 38.4236 41.4895 38.674 41.7041 38.9952C41.9188 39.3164 42.0334 39.6941 42.0334 40.0805C42.0334 40.5986 41.8276 41.0954 41.4612 41.4618C41.0949 41.8281 40.598 42.0339 40.0799 42.0339Z" fill="white"/>
</svg>
