<svg width="24" height="24" viewBox="0 0 24 24" fill="none" xmlns="http://www.w3.org/2000/svg">
<path d="M13 2.03003V4.05003C17.39 4.59003 20.5 8.58003 19.96 12.97C19.5 16.61 16.64 19.5 13 19.93V21.93C18.5 21.38 22.5 16.5 21.9501 11C21.5 6.25003 17.73 2.50003 13 2.03003ZM11 2.06003C9.05005 2.25003 7.19005 3.00003 5.67005 4.26003L7.10005 5.74003C8.22005 4.84003 9.57005 4.26003 11 4.06003V2.06003ZM4.26005 5.67003C3.01049 7.18785 2.24114 9.04334 2.05005 11H4.05005C4.24005 9.58003 4.80005 8.23003 5.69005 7.10003L4.26005 5.67003ZM15.5 8.50003L10.62 13.38L8.50005 11.26L7.44005 12.32L10.62 15.5L16.56 9.56003L15.5 8.50003ZM2.06005 13C2.26005 14.96 3.03005 16.81 4.27005 18.33L5.69005 16.9C4.80689 15.7697 4.24391 14.4227 4.06005 13H2.06005ZM7.10005 18.37L5.67005 19.74C7.18502 21.0024 9.03941 21.7887 11 22V20C9.57742 19.8162 8.2304 19.2532 7.10005 18.37Z" fill="#9D7F52"/>
</svg>
