<svg width="55" height="55" viewBox="0 0 55 55" fill="none" xmlns="http://www.w3.org/2000/svg">
<rect width="55" height="55" rx="10" fill="#8B6F45"/>
<path d="M17.4966 34.0462C18.0412 32.6383 17.4281 31.0124 16.1298 30.4218C15.5006 30.1356 14.8063 30.1321 14.1749 30.4121C13.5436 30.6921 13.0505 31.2218 12.7866 31.9039C12.291 33.1852 12.7545 34.6468 13.8206 35.3446L13.9322 36.2596C13.9664 36.5389 14.0986 36.7872 14.3047 36.9584C14.4763 37.101 14.682 37.1762 14.8944 37.1762C14.9376 37.1762 14.9809 37.1732 15.0242 37.1669L16.1014 37.0129C16.6323 36.9364 17.0079 36.4058 16.9386 35.8291L16.8427 35.0419C17.1233 34.7708 17.3469 34.433 17.4966 34.0462ZM14.9249 36.0821L14.8821 35.7309C14.9683 35.7406 15.0549 35.7456 15.1414 35.7456C15.3962 35.7456 15.6509 35.7032 15.8986 35.6193L15.9373 35.9373L14.9249 36.0821ZM16.569 33.625V33.6251C16.4089 34.0386 16.11 34.3599 15.7272 34.5297C15.3447 34.6993 14.924 34.6974 14.5428 34.5238C13.7555 34.1655 13.3838 33.1792 13.7141 32.3252C13.8742 31.9116 14.1731 31.5903 14.5558 31.4205C14.7449 31.3367 14.9433 31.2948 15.1416 31.2948C15.3445 31.2948 15.5476 31.3386 15.7403 31.4264C16.5277 31.7847 16.8995 32.7709 16.569 33.625Z" fill="white"/>
<path d="M44.7004 28.596L42.7221 27.0594C42.1912 26.6469 41.4729 26.6396 40.9347 27.041L35.5097 31.0884L33.0764 30.4457L35.9086 29.2524C36.2981 29.0882 36.6149 28.7547 36.7777 28.3372L39.359 21.7153L40.0366 21.9327C40.4349 22.0605 40.8556 22.0126 41.2208 21.7973C41.5856 21.5823 41.8514 21.226 41.9692 20.7942C42.2125 19.9029 41.7415 18.9632 40.9193 18.6992L38.9091 18.0542C38.1494 17.8103 37.3435 18.2232 37.0352 19.0146L35.974 21.7368C35.8659 22.014 35.9858 22.3336 36.2416 22.4507C36.4973 22.5676 36.7924 22.438 36.9004 22.1608L37.9617 19.4384C38.0707 19.1588 38.355 19.0128 38.6234 19.099L40.6337 19.744C40.9244 19.8373 41.0908 20.1698 41.0047 20.4853C40.963 20.6382 40.8691 20.7642 40.7401 20.8402C40.6112 20.9162 40.4628 20.9331 40.3222 20.888L39.2135 20.5322C38.9679 20.4532 38.7071 20.5872 38.6075 20.8426L35.8512 27.9133C35.7937 28.0609 35.6817 28.1788 35.544 28.2368L31.2313 30.0541C31.2312 30.0541 31.2311 30.0541 31.231 30.0542L28.1046 31.3715C28.0641 31.3886 28.0215 31.4004 27.9781 31.4067L23.5663 32.0411C23.3401 32.0737 23.1624 32.2672 23.1337 32.5126C23.1049 32.7579 23.2323 32.9934 23.4439 33.0861L25.7896 34.1146C25.8652 34.1478 25.9342 34.1998 25.9893 34.2652L29.7121 38.6859C29.9166 38.9289 29.9008 39.307 29.677 39.5287C29.5934 39.6115 29.4905 39.6635 29.3794 39.6794C29.2005 39.7052 29.0221 39.6344 28.901 39.4906L25.3394 35.2612C25.2887 35.201 25.2263 35.1539 25.1565 35.1234L19.3357 32.5712C19.1045 32.4698 18.965 32.2116 18.9964 31.9431C19.0277 31.675 19.2219 31.4629 19.4687 31.4271L21.8826 31.0812L23.9576 30.7838C23.9578 30.7838 23.9578 30.7837 23.958 30.7837L26.8977 30.3624C26.9421 30.356 26.986 30.3483 27.0296 30.3396L27.7088 30.2419C27.7485 30.2362 27.7875 30.2253 27.8248 30.2096L34.7316 27.2995C34.8583 27.2462 34.9597 27.1394 35.0126 27.0038L35.9883 24.5007C36.0963 24.2236 35.9765 23.9039 35.7207 23.7869C35.4649 23.6699 35.1699 23.7996 35.0618 24.0768L34.1689 26.3676L28.9393 28.571C29.0697 28.1757 29.1183 27.7423 29.0642 27.2979C28.9762 26.5752 28.6335 25.9329 28.0995 25.4894C27.5654 25.0459 26.9036 24.8545 26.2368 24.9499C25.9615 24.9894 25.7678 25.2632 25.8042 25.5614C25.8407 25.8598 26.0945 26.0695 26.3687 26.0301C26.7696 25.9723 27.1668 26.0877 27.4876 26.3541C27.8084 26.6206 28.0142 27.0064 28.0674 27.4426C28.1722 28.303 27.6377 29.0978 26.8628 29.2645L24.3241 29.6297L23.9281 26.3795C24.1995 26.3363 24.3897 26.065 24.3535 25.7694C24.3171 25.4711 24.0635 25.2618 23.7891 25.3007L23.2985 25.371C23.2983 25.371 23.298 25.371 23.2978 25.3711L20.396 25.787H20.396L18.4033 26.0726C17.0268 26.2699 16.0548 27.6436 16.2367 29.137C16.3248 29.8598 16.6675 30.5022 17.2015 30.9456C17.4701 31.1687 17.7711 31.3276 18.0887 31.4187C18.0454 31.5416 18.0145 31.6712 17.9986 31.8061C17.9815 31.9521 17.9828 32.0968 17.9998 32.2377C18.0001 32.2404 18.0001 32.243 18.0005 32.2456L18.7416 38.1507L16.7427 42.5717C16.3653 43.4062 16.6844 44.4181 17.4543 44.8276C17.669 44.9417 17.9021 45.0002 18.1378 45.0002C18.2057 45.0002 18.2738 44.9953 18.3418 44.9856C18.8597 44.9114 19.3059 44.5638 19.5355 44.0559L20.0676 42.879C20.1897 42.6088 20.0865 42.2825 19.8371 42.1502C19.5876 42.0177 19.2864 42.1295 19.1643 42.3998L18.6322 43.5767C18.5511 43.7563 18.3933 43.8791 18.2098 43.9054C18.103 43.9206 17.995 43.9013 17.8973 43.8494C17.625 43.7046 17.5122 43.3465 17.6458 43.051L19.712 38.4812C19.7558 38.3842 19.7721 38.2752 19.7587 38.1681L19.1961 33.6855L20.3697 34.2001L20.8907 38.3516C20.9055 38.4693 20.8878 38.5879 20.8395 38.6947L20.1373 40.2476C20.0151 40.5179 20.1182 40.8442 20.3677 40.9766C20.4389 41.0144 20.5143 41.0323 20.5885 41.0323C20.7744 41.0323 20.9532 40.9201 21.0405 40.7271L21.7426 39.1742C21.8791 38.8726 21.9291 38.5373 21.8872 38.2046L21.4438 34.6711L24.6732 36.087L28.1579 40.2249C28.4544 40.5772 28.8729 40.7743 29.3071 40.7743C29.3749 40.7743 29.443 40.7695 29.5111 40.7597C29.8272 40.7144 30.119 40.567 30.3554 40.3331C30.9882 39.7062 31.0329 38.6379 30.4549 37.9516L26.7324 33.531C26.5767 33.346 26.3811 33.1986 26.1667 33.1046L25.5856 32.8498L27.8378 32.5259C27.8605 32.5359 27.8837 32.5447 27.9081 32.5512L35.4496 34.5431C35.5706 34.5751 35.6935 34.5912 35.817 34.5912C35.8851 34.5912 35.9534 34.5863 36.0216 34.5766C36.2638 34.5418 36.4981 34.4441 36.6994 34.2939L41.7982 30.49L42.8888 31.3372C43.2266 31.5995 43.6385 31.7034 44.0483 31.6299C44.4581 31.5564 44.817 31.3143 45.0589 30.948C45.5582 30.1926 45.3973 29.1375 44.7004 28.596ZM22.9311 26.5228L23.3271 29.7731L21.4225 30.0471L21.0263 26.7958L22.9311 26.5228ZM17.8134 30.0809C17.4926 29.8146 17.2867 29.4286 17.2336 28.9924C17.1244 28.0965 17.7083 27.2713 18.5352 27.1528L20.0293 26.9387L20.4256 30.1905L19.4239 30.3346L18.9323 30.4051C18.5313 30.4622 18.1342 30.3473 17.8134 30.0809ZM44.2413 30.314C44.1558 30.4435 44.0289 30.5291 43.8842 30.5551C43.7394 30.5807 43.5941 30.5442 43.4749 30.4517L42.0972 29.3815C41.9249 29.2476 41.6937 29.2452 41.5189 29.3755L36.1291 33.3966C36.058 33.4495 35.9753 33.4841 35.8899 33.4963C35.8221 33.5061 35.7543 33.5022 35.6879 33.4846L29.6494 31.8897L31.4404 31.135L35.4902 32.2047C35.6292 32.2415 35.7764 32.2123 35.8945 32.1241L41.505 27.9385C41.6951 27.7968 41.9486 27.7992 42.136 27.9449L44.1144 29.4816C44.361 29.6732 44.4179 30.0466 44.2413 30.314Z" fill="white"/>
<path d="M45.4968 15C44.6402 15 44.1822 15.3576 43.8141 15.6449C43.4874 15.8999 43.2514 16.0842 42.7194 16.0842C42.1873 16.0842 41.9514 15.8999 41.6247 15.6449C41.2568 15.3575 40.7988 15 39.9421 15C39.0856 15 38.6275 15.3576 38.2596 15.6449C37.933 15.8999 37.697 16.0842 37.1652 16.0842C36.6332 16.0842 36.3972 15.8999 36.0707 15.6449C35.7027 15.3576 35.2448 15 34.3881 15C33.5315 15 33.0736 15.3576 32.7056 15.6449C32.379 15.8999 32.143 16.0842 31.6112 16.0842C31.0794 16.0842 30.8434 15.8999 30.5168 15.6449C30.1489 15.3576 29.6909 15 28.8343 15C27.9779 15 27.5199 15.3576 27.152 15.6449C26.8254 15.8999 26.5895 16.0842 26.0578 16.0842C25.5259 16.0842 25.29 15.8999 24.9634 15.6449C24.5955 15.3576 24.1375 15 23.281 15C22.4244 15 21.9665 15.3576 21.5985 15.6449C21.2719 15.8999 21.0359 16.0842 20.504 16.0842C19.9722 16.0842 19.7362 15.8999 19.4096 15.6449C19.0417 15.3576 18.5838 15 17.7272 15C16.8707 15 16.4128 15.3576 16.0447 15.6449C15.7182 15.8999 15.4823 16.0842 14.9504 16.0842C14.4186 16.0842 14.1827 15.8999 13.8561 15.6449C13.4882 15.3576 13.0302 15 12.1738 15C11.896 15 11.6709 15.2439 11.6709 15.5448C11.6709 15.8457 11.896 16.0896 12.1738 16.0896C12.7056 16.0896 12.9415 16.2738 13.268 16.5289C13.636 16.8161 14.0939 17.1738 14.9504 17.1738C15.807 17.1738 16.2648 16.8161 16.6329 16.5289C16.9594 16.2738 17.1953 16.0896 17.7272 16.0896C18.259 16.0896 18.495 16.2738 18.8216 16.5289C19.1895 16.8161 19.6474 17.1738 20.504 17.1738C21.3607 17.1738 21.8185 16.8161 22.1865 16.5289C22.5131 16.2738 22.7491 16.0896 23.281 16.0896C23.8129 16.0896 24.0488 16.2738 24.3753 16.5289C24.7432 16.8161 25.2012 17.1738 26.0578 17.1738C26.9142 17.1738 27.3722 16.8161 27.7401 16.5289C28.0666 16.2738 28.3026 16.0896 28.8343 16.0896C29.3662 16.0896 29.6022 16.2738 29.9288 16.5289C30.2967 16.8161 30.7546 17.1738 31.6112 17.1738C32.4678 17.1738 32.9257 16.8161 33.2936 16.5289C33.6202 16.2738 33.8563 16.0896 34.3881 16.0896C34.9201 16.0896 35.1561 16.2738 35.4826 16.5289C35.8506 16.8161 36.3085 17.1738 37.1652 17.1738C38.0218 17.1738 38.4796 16.8161 38.8476 16.5289C39.1742 16.2738 39.4102 16.0896 39.9421 16.0896C40.4741 16.0896 40.7101 16.2738 41.0367 16.5289C41.4048 16.8161 41.8628 17.1738 42.7194 17.1738C43.5761 17.1738 44.0341 16.8162 44.4021 16.5289C44.7287 16.2738 44.9648 16.0896 45.4968 16.0896C45.7746 16.0896 45.9996 15.8457 45.9996 15.5448C45.9996 15.2439 45.7746 15 45.4968 15Z" fill="white"/>
</svg>
