<svg width="80" height="80" viewBox="0 0 80 80" fill="none" xmlns="http://www.w3.org/2000/svg">
<rect width="80" height="80" rx="20" fill="#9D7F52"/>
<path d="M46.6669 26.3334C52.1897 26.3334 56.6669 30.5749 56.6669 35.807C56.6669 37.3739 56.3489 39.021 55.7131 40.7485L53.0475 38.0902C53.2091 37.4153 53.302 36.7665 53.3268 36.1443L53.3336 35.807C53.3336 32.4574 50.3879 29.6667 46.6669 29.6667C45.3983 29.6667 44.1936 29.9924 43.1579 30.5866L38.4913 35.0843C37.8404 35.7352 37.8404 36.7904 38.4913 37.4413C39.1422 38.0922 40.1975 38.0922 40.8483 37.4413L45.3715 32.7373L47.6402 35.0367L54.0754 41.4713C56.028 43.424 56.028 46.5899 54.0754 48.5424C53.4505 49.1673 52.7015 49.5922 51.9077 49.8171L51.8253 49.8385C52.1752 51.446 51.7253 53.1926 50.4756 54.4423C49.1893 55.7286 47.3765 56.1675 45.7308 55.7591C45.505 56.532 45.084 57.2445 44.4701 57.8038C42.7163 59.402 40.1544 59.5501 38.2359 58.1487L37.9404 57.8921L36.6427 56.7281C27.7699 48.6337 23.3335 41.66 23.3335 35.807C23.3335 30.5749 27.8107 26.3334 33.3336 26.3334C35.8954 26.3334 38.2323 27.246 40.0016 28.7469C41.7696 27.2455 44.1058 26.3334 46.6669 26.3334ZM33.3336 29.6667C29.6126 29.6667 26.6669 32.4574 26.6669 35.807C26.6669 40.4918 30.644 46.7437 38.8684 54.2467L39.6169 54.9184C40.2762 55.5836 41.4967 56.0989 42.2062 55.4149C42.8505 54.7935 42.7846 53.9288 42.2792 53.2878L41.2504 52.2383L37.3991 48.387L37.3283 48.3248L39.7133 45.9381L43.1655 49.4399L44.4701 50.7441C44.5587 50.8326 44.6438 50.9246 44.7252 51.0197L45.558 51.8681C46.4258 52.736 47.5016 52.7682 48.1525 52.1174C48.8033 51.4665 48.7828 50.379 47.915 49.5111L43.9287 45.4664L42.0583 43.5948L44.4149 41.2364L45.6206 42.4426C45.7427 42.5438 45.86 42.6506 45.9722 42.7627L47.4921 44.3164L49.3614 46.1854C50.0122 46.8363 51.0675 46.8363 51.7183 46.1854C52.3693 45.5345 52.3693 44.4793 51.7183 43.8284L45.4452 37.5567L43.2054 39.7983C41.2527 41.751 38.0869 41.751 36.1343 39.7983C34.1817 37.8457 34.1817 34.6799 36.1343 32.7273L37.6936 31.1667L37.5327 31.0395C36.3592 30.1598 34.8943 29.6667 33.3336 29.6667Z" fill="white"/>
</svg>
