<svg width="55" height="55" viewBox="0 0 55 55" fill="none" xmlns="http://www.w3.org/2000/svg">
<rect width="55" height="55" rx="10" fill="#8B6F45"/>
<path d="M43.281 25.7298L38.192 19.1191C38.0036 18.8746 37.6601 18.8143 37.3996 18.98L34.114 21.0695H29.8288C29.7733 21.0695 29.7181 21.0814 29.6648 21.0969L26.3423 22.0533L22.8947 21.1104L19.5448 18.98C19.2887 18.8171 18.9515 18.8723 18.761 19.1085L13.1323 26.0806C12.93 26.3311 12.9634 26.6969 13.2074 26.9068L16.1576 29.4458L18.8044 33.0125C18.0303 33.8372 18.0454 35.1378 18.8508 35.9435C19.2078 36.3002 19.6618 36.5018 20.1287 36.5487C20.1125 36.6545 20.1041 36.7619 20.1041 36.8709C20.1041 37.4336 20.3233 37.9628 20.7212 38.3606C21.1192 38.7587 21.6483 38.9779 22.2111 38.9779C22.2188 38.9779 22.2262 38.9774 22.2336 38.9772C22.2334 38.9916 22.2327 39.0057 22.2327 39.0201C22.2327 39.5829 22.4519 40.112 22.8497 40.51C23.2478 40.9079 23.7769 41.1271 24.3397 41.1271C24.4508 41.1271 24.5607 41.118 24.6686 41.1013C24.7143 41.5699 24.9163 42.026 25.2745 42.3841C25.6851 42.7949 26.2247 43.0002 26.7642 43.0002C27.3038 43.0002 27.8433 42.7949 28.2542 42.3841L28.5764 42.0619L28.7116 42.1709C29.1189 42.5655 29.6478 42.7627 30.1767 42.7627C30.7163 42.7627 31.2559 42.5574 31.6664 42.1466C32.0856 41.7274 32.2909 41.1742 32.2823 40.6237C32.8326 40.6321 33.386 40.427 33.8052 40.0081C34.2239 39.5891 34.4292 39.0363 34.4211 38.4861C34.9943 38.4951 35.538 38.275 35.9437 37.8693C36.3629 37.4501 36.5682 36.8969 36.5596 36.3464C37.1103 36.3548 37.6633 36.1497 38.0825 35.7305C38.7979 35.0151 38.89 33.9093 38.3595 33.093L40.292 29.0456L43.1975 26.5454C43.4375 26.3387 43.4742 25.9806 43.281 25.7298ZM19.3542 20.2718L21.7629 21.8035L16.523 28.1873L14.4232 26.38L19.3542 20.2718ZM19.694 33.8068L20.421 33.0798C20.443 33.0578 20.4662 33.0369 20.4899 33.0174C20.6321 32.9014 20.8042 32.8323 20.9865 32.8158C20.9916 32.8154 20.997 32.8154 21.0021 32.8151C21.0281 32.813 21.054 32.8116 21.0803 32.8119C21.3294 32.8154 21.5609 32.9172 21.7326 33.0984C22.0694 33.4544 22.0513 34.0362 21.6922 34.3953L20.9872 35.1003C20.6307 35.4568 20.0505 35.4568 19.694 35.1003C19.3375 34.7435 19.3375 34.1633 19.694 33.8068ZM21.5644 37.5174C21.3916 37.3448 21.2964 37.1152 21.2964 36.8709C21.2964 36.6266 21.3916 36.397 21.5644 36.2242L22.9741 34.8145C23.2441 34.5445 23.6686 34.4705 24.0137 34.6349C24.3696 34.8045 24.5698 35.1907 24.5176 35.5793C24.4898 35.7867 24.3933 35.982 24.2453 36.1302L22.8578 37.5174C22.685 37.6902 22.4554 37.7853 22.2111 37.7853C21.9668 37.7853 21.7372 37.6902 21.5644 37.5174ZM23.6929 39.6666C23.5201 39.494 23.425 39.2644 23.425 39.0201C23.425 38.7758 23.5201 38.5462 23.6929 38.3734L25.1024 36.9637C25.3912 36.6751 25.8544 36.6129 26.208 36.8187C26.5309 37.0066 26.7 37.3754 26.6445 37.7429C26.6141 37.9449 26.5181 38.1349 26.3736 38.2794L24.9864 39.6666C24.8136 39.8394 24.5839 39.9345 24.3397 39.9345C24.0954 39.9345 23.8658 39.8394 23.6929 39.6666ZM26.1175 41.5409C25.7609 41.1844 25.7609 40.6042 26.1175 40.2477L26.8445 39.5207C26.8665 39.4986 26.8895 39.478 26.9131 39.4585C26.9138 39.4581 26.9143 39.4576 26.9148 39.4571C27.0331 39.3611 27.172 39.2968 27.3203 39.2688C27.3237 39.2683 27.3272 39.2678 27.3307 39.2674C27.3562 39.2627 27.3822 39.259 27.4082 39.2567C27.4186 39.2558 27.429 39.2558 27.4397 39.2551C27.4611 39.2539 27.4822 39.2525 27.5037 39.2528C27.7526 39.2562 27.9844 39.3578 28.156 39.5392C28.1771 39.5615 28.1969 39.5847 28.215 39.6086C28.4891 39.967 28.4523 40.4994 28.112 40.8399L27.4107 41.5411C27.0542 41.8977 26.474 41.8975 26.1175 41.5409ZM37.2393 34.8873C36.8828 35.2441 36.3026 35.2439 35.9461 34.8873C35.9331 34.8743 35.9194 34.8623 35.9055 34.8509L32.0719 30.977C31.8402 30.7429 31.4628 30.7411 31.2287 30.9728C30.9947 31.2043 30.9928 31.5817 31.2243 31.8158L35.0994 35.7312C35.0998 35.7317 35.1003 35.7321 35.1008 35.7326C35.4573 36.0892 35.4573 36.6695 35.1008 37.0261C34.9279 37.1989 34.6983 37.294 34.454 37.294C34.2095 37.294 33.9799 37.1989 33.8073 37.0261L31.215 34.4069C30.9835 34.1728 30.6061 34.171 30.3721 34.4025C30.138 34.6342 30.1361 35.0117 30.3676 35.2457L32.9202 37.8248C32.9332 37.841 32.9472 37.8565 32.962 37.8714C33.3185 38.2279 33.3185 38.8083 32.962 39.1648C32.6052 39.5214 32.0248 39.5211 31.6683 39.1646L30.2535 37.735C30.0218 37.5009 29.6444 37.4988 29.4103 37.7306C29.1762 37.9621 29.1744 38.3395 29.4059 38.5736L30.7812 39.9631C30.7942 39.9793 30.8082 39.9951 30.8232 40.0099C31.1798 40.3664 31.1798 40.9468 30.8232 41.3034C30.4667 41.6601 29.8865 41.6599 29.53 41.3034C29.4889 41.2623 29.4407 41.2308 29.3948 41.1955C29.3558 41.1658 29.3456 41.1452 29.3651 41.0979C29.3848 41.0498 29.4142 41.0065 29.434 40.9582C29.4558 40.9044 29.4734 40.8489 29.4906 40.7933C29.582 40.4987 29.6089 40.1818 29.5678 39.8761C29.4889 39.2894 29.1663 38.7601 28.6773 38.4251C28.4131 38.2444 28.1073 38.1258 27.7905 38.0813C27.944 37.404 27.7596 36.6695 27.2799 36.1627C26.8851 35.7456 26.3518 35.5115 25.7781 35.5037C25.7572 35.5034 25.7364 35.5034 25.7152 35.5037C25.728 34.9562 25.529 34.4122 25.1516 34.0135C24.7565 33.5964 24.2232 33.3623 23.6498 33.3545C23.4793 33.3521 23.3072 33.3702 23.1411 33.4085C23.0701 32.9146 22.8212 32.4577 22.4442 32.1308C22.0696 31.8065 21.5985 31.6265 21.0967 31.6195C20.5685 31.6119 20.0496 31.8067 19.6573 32.161L17.3527 29.0556L22.8662 22.3387L24.6234 22.8193L22.3285 26.8688C22.051 27.3585 21.981 27.9268 22.1311 28.4692C22.2812 29.0117 22.6333 29.4632 23.123 29.7406C23.1536 29.758 23.1845 29.7745 23.2158 29.7902C23.2181 29.7914 23.2204 29.7926 23.223 29.7937C23.3053 29.8348 23.39 29.87 23.4758 29.8997C23.8755 30.0382 24.3072 30.0533 24.7236 29.9382C25.2659 29.7881 25.7173 29.4358 25.9948 28.9463L27.4861 26.3146L30.1489 26.5034L37.2395 33.5938C37.5958 33.9506 37.5958 34.5308 37.2393 34.8873ZM37.4863 32.1545L30.8346 25.503C30.8221 25.4902 30.8089 25.4781 30.7952 25.4668C30.6994 25.387 30.5806 25.3387 30.4553 25.3299L27.195 25.0986C26.9695 25.0831 26.7454 25.203 26.6341 25.3995L24.9574 28.3585C24.837 28.571 24.641 28.7239 24.4055 28.789C24.1703 28.8542 23.9235 28.8236 23.7108 28.7032C23.4983 28.5828 23.3454 28.3868 23.2803 28.1514C23.2151 27.9159 23.2455 27.6691 23.3661 27.4566L25.6044 23.5064L26.5114 23.2454C26.5174 23.2436 26.5232 23.2413 26.5292 23.2394L29.9144 22.2619H34.0045L39.1106 28.7529L37.4863 32.1545ZM39.8916 27.8171L35.1697 21.8112L37.5796 20.2785L41.9919 26.0098L39.8916 27.8171Z" fill="white"/>
<path d="M31.4204 19.9501C31.573 19.9501 31.7257 19.8919 31.8421 19.7754L35.9146 15.7029C36.1475 15.47 36.1475 15.0926 35.9146 14.8597C35.6817 14.6268 35.3043 14.6268 35.0714 14.8597L30.9989 18.9322C30.766 19.1651 30.766 19.5425 30.9989 19.7754C31.1153 19.8919 31.268 19.9501 31.4204 19.9501Z" fill="white"/>
<path d="M24.5626 19.7754C24.679 19.8919 24.8317 19.9501 24.9843 19.9501C25.1367 19.9501 25.2893 19.8919 25.4058 19.7754C25.6387 19.5425 25.6387 19.1651 25.4058 18.9322L21.3333 14.8597C21.1004 14.6268 20.723 14.6268 20.4901 14.8597C20.2572 15.0926 20.2572 15.47 20.4901 15.7029L24.5626 19.7754Z" fill="white"/>
<path d="M28.2026 19.9498C28.5318 19.9498 28.7988 19.6828 28.7988 19.3537V15.9834C28.7988 15.6542 28.5318 15.3872 28.2026 15.3872C27.8734 15.3872 27.6064 15.6542 27.6064 15.9834V19.3537C27.6064 19.6828 27.8734 19.9498 28.2026 19.9498Z" fill="white"/>
<path d="M27.6518 13.8226C27.7465 14.052 27.9824 14.2025 28.2313 14.1895C28.4772 14.1768 28.6932 14.0107 28.7692 13.7766C28.8456 13.5407 28.7625 13.2719 28.5649 13.1215C28.3633 12.968 28.0821 12.9594 27.8713 13.0988C27.6361 13.2542 27.5449 13.5637 27.6518 13.8226Z" fill="white"/>
</svg>
