<svg width="55" height="55" viewBox="0 0 55 55" fill="none" xmlns="http://www.w3.org/2000/svg">
<rect width="55" height="55" rx="10" fill="#8B6F45"/>
<path d="M32.0681 28.7118C32.9986 29.3563 33.8567 30.1113 34.6251 30.962C35.4544 31.875 36.3802 32.6846 37.384 33.3744C38.2282 33.9269 39.1996 34.2242 40.1923 34.2333C40.3572 34.2333 40.5179 34.2258 40.683 34.2093C41.0866 34.1685 41.4356 33.8939 41.5889 33.4964L42.7279 30.5866L43.9928 27.3605L44.9159 25.0027C45.0566 24.6426 45.0191 24.2317 44.8161 23.9064C44.6215 23.5913 44.292 23.3992 43.9362 23.3931C43.157 23.3725 42.3974 23.1314 41.7362 22.6945C40.8059 22.0501 39.9481 21.2953 39.1797 20.4446C38.3498 19.5308 37.4233 18.7206 36.4187 18.0306C35.4698 17.4067 34.3607 17.1112 33.2456 17.1848C33.0931 16.7105 32.7547 16.329 32.3173 16.1372C31.9132 15.9576 31.4583 15.9563 31.0534 16.1332C30.6483 16.3101 30.3268 16.6506 30.1601 17.0795L28.4987 21.3153L26.8403 17.0785C26.585 16.4257 25.9832 16 25.3158 16C24.6481 16 24.0463 16.4257 23.791 17.0785C23.7779 17.1134 23.7719 17.1499 23.7608 17.1848C22.6437 17.1096 21.5321 17.4051 20.5812 18.0306C19.5763 18.7206 18.6501 19.5311 17.8202 20.4452C17.0518 21.295 16.194 22.0493 15.2637 22.6929C14.6025 23.1298 13.8429 23.3709 13.0637 23.3912C12.7082 23.3973 12.3784 23.5897 12.1837 23.9046C11.9808 24.2299 11.9436 24.6407 12.084 25.0012L13.0053 27.3605L14.2704 30.5866L15.4095 33.4964C15.5618 33.8941 15.91 34.1699 16.3136 34.2117C16.4788 34.228 16.6422 34.2359 16.8043 34.2357C17.797 34.2264 18.7684 33.9293 19.6126 33.3765C20.6169 32.6865 21.5429 31.8768 22.3725 30.963C23.1412 30.1124 23.999 29.3573 24.9295 28.7131C25.1974 28.545 25.4792 28.4028 25.7712 28.2882L21.7335 38.5841C21.3899 39.4761 21.7882 40.4946 22.6268 40.8692C22.825 40.9558 23.0372 41.0003 23.2515 41C23.9227 41.0008 24.5287 40.5751 24.7883 39.9199L28.4987 30.4392L32.2106 39.9199C32.3773 40.3486 32.6988 40.6888 33.1039 40.8652C33.5085 41.044 33.9642 41.044 34.3688 40.8652C35.2107 40.4962 35.6105 39.475 35.2621 38.5841L31.2282 28.2877C31.517 28.3998 31.7954 28.5394 32.0605 28.7043C32.0628 28.707 32.0656 28.7094 32.0681 28.7118ZM32.8503 23.9611L32.7403 23.9203C32.6006 23.8694 32.4598 23.8257 32.3183 23.7887C32.2876 23.7802 32.2562 23.7714 32.2249 23.7636C32.0658 23.7247 31.9059 23.6933 31.7453 23.6712L31.7091 23.6648C31.5293 23.6406 31.3485 23.6267 31.1672 23.623L31.9636 21.582L31.9905 21.5782C32.1585 21.5638 32.3272 21.5598 32.4956 21.5662C32.5253 21.5662 32.555 21.5708 32.5847 21.5726C32.7355 21.5825 32.8858 21.6019 33.0344 21.6307L33.1011 21.6419C33.266 21.6765 33.4292 21.7218 33.5888 21.7775C33.6225 21.789 33.656 21.8023 33.6895 21.8153C33.833 21.8689 33.976 21.9315 34.1198 22.0016C34.1372 22.0101 34.1548 22.0173 34.1747 22.0258L33.7378 23.1421L33.3343 24.1739C33.3083 24.1611 33.2826 24.1526 33.2572 24.1404C33.1215 24.0727 32.9861 24.0135 32.8503 23.9611ZM36.3905 19.4029C37.0099 19.8939 37.5955 20.4305 38.1436 21.0086L37.3317 23.0822L37.3015 23.0531C37.2695 23.0211 37.237 22.9902 37.2053 22.9588C37.0343 22.7902 36.8611 22.6247 36.6854 22.463C36.6408 22.4217 36.5962 22.3799 36.5519 22.3396C36.353 22.1596 36.1503 21.9872 35.9434 21.8228C35.8996 21.7879 35.855 21.7554 35.811 21.7216C35.7269 21.6568 35.646 21.59 35.5584 21.5289L36.1146 20.1081L36.3905 19.4029ZM38.3843 25.7226C38.4274 25.7618 38.4692 25.802 38.512 25.839C38.7114 26.0197 38.9151 26.1926 39.123 26.3583C39.1661 26.3926 39.2099 26.4246 39.2535 26.4579C39.3375 26.5224 39.4184 26.5893 39.5065 26.6511L38.9488 28.0721L38.6736 28.7707C38.6462 28.7496 38.6187 28.7323 38.59 28.7123C38.5422 28.6753 38.4951 28.6356 38.4478 28.5962C38.2914 28.4699 38.1371 28.3383 37.9845 28.2008C37.9417 28.1624 37.8987 28.1252 37.8564 28.0844C37.6706 27.9134 37.4852 27.7359 37.3004 27.5518C37.2541 27.5065 37.2075 27.4594 37.1612 27.4128C37.0809 27.3326 37.0001 27.25 36.9193 27.1684L37.7305 25.0955L37.7612 25.1256C37.7932 25.1575 37.8256 25.1884 37.8581 25.2199C38.0324 25.3917 38.2076 25.5593 38.3843 25.7226ZM40.7268 27.3488C40.8809 27.4162 41.0355 27.4762 41.1906 27.5276C41.2588 27.5502 41.3271 27.5723 41.3953 27.5915C41.5602 27.6387 41.7251 27.6754 41.8903 27.7045C41.9396 27.7133 41.9892 27.7261 42.0386 27.7335C42.2362 27.7626 42.4351 27.7791 42.6343 27.7836L41.8364 29.8252C41.8268 29.8252 41.8175 29.8281 41.8082 29.8286C41.6435 29.8433 41.4784 29.8475 41.3132 29.8414C41.277 29.8414 41.2407 29.8363 41.2032 29.8339C41.0612 29.8246 40.9199 29.807 40.7797 29.7815C40.7518 29.7764 40.7248 29.7729 40.6951 29.7671C40.5322 29.733 40.3716 29.6885 40.2137 29.6339C40.1785 29.6216 40.1435 29.6075 40.1082 29.5942C39.9652 29.5406 39.8222 29.4777 39.6787 29.4079C39.6621 29.3992 39.645 29.3922 39.6281 29.3834L40.4685 27.2359C40.4955 27.2494 40.5234 27.258 40.5488 27.2708C40.6075 27.2993 40.6674 27.3222 40.7268 27.3488ZM35.6586 30.3985L36.4703 28.325L36.5006 28.3545L36.597 28.4483C36.7682 28.617 36.9417 28.7824 37.1172 28.9446C37.1617 28.9859 37.2053 29.0272 37.2503 29.0675C37.449 29.247 37.6517 29.4194 37.8581 29.5843C37.9027 29.6192 37.9478 29.6523 37.9923 29.6866C38.0759 29.7508 38.1572 29.8172 38.2436 29.8782L37.4115 32.0047C36.7921 31.5137 36.2065 30.9769 35.6586 30.3985ZM35.4182 25.6842L35.2905 25.5678C35.0909 25.3875 34.8874 25.2135 34.679 25.0483C34.6367 25.0145 34.5939 24.983 34.5508 24.9505C34.4662 24.8853 34.3826 24.8171 34.2958 24.7555L35.1256 22.6346C35.1531 22.6556 35.1808 22.6724 35.2097 22.6929C35.2571 22.7294 35.3039 22.7691 35.3507 22.8093C35.5068 22.9351 35.6611 23.0667 35.8137 23.2044C35.857 23.2433 35.9006 23.2812 35.9441 23.3209C36.1274 23.4908 36.3107 23.6667 36.494 23.8486C36.5464 23.9001 36.598 23.9528 36.6504 24.0048C36.7262 24.0809 36.8027 24.159 36.879 24.2376L36.5066 25.1879L36.0668 26.3095L36.027 26.2709L35.953 26.1987C35.7782 26.0234 35.6002 25.8521 35.4182 25.6848V25.6842ZM33.8622 25.859C33.8864 25.8769 33.9113 25.8915 33.935 25.9102C33.9977 25.9589 34.0596 26.0109 34.1223 26.062C34.2532 26.1691 34.3834 26.2802 34.5128 26.395C34.5778 26.4531 34.6432 26.5115 34.7077 26.5695C34.8809 26.7302 35.0531 26.8948 35.2258 27.0653C35.2868 27.1237 35.3467 27.1866 35.4074 27.2476C35.4771 27.3174 35.5476 27.3885 35.6173 27.4594L34.8061 29.5318C34.2552 28.9646 33.6623 28.4451 33.0329 27.9781L33.8622 25.859ZM40.5702 33.0525C39.8101 33.1269 39.0457 32.9739 38.3642 32.6105L38.7683 31.5776L39.2084 30.4603C39.2343 30.4731 39.2605 30.4816 39.2864 30.4939C39.3481 30.5237 39.4103 30.5479 39.4722 30.5749C39.6236 30.6407 39.7754 30.7001 39.9282 30.7494C39.9977 30.7723 40.0674 30.7949 40.1374 30.8146C40.3023 30.8612 40.4645 30.8977 40.6324 30.9271C40.683 30.9356 40.7329 30.9492 40.7835 30.9561C40.9804 30.9851 41.1788 31.0019 41.3777 31.0062L40.5702 33.0525ZM43.1003 26.597L43.0693 26.601C42.9067 26.6151 42.743 26.6194 42.5799 26.6132C42.5391 26.6132 42.4991 26.6074 42.4583 26.605C42.3223 26.5954 42.1869 26.5786 42.0524 26.5544C42.0194 26.5485 41.9865 26.545 41.954 26.5381C41.7939 26.5043 41.6357 26.4603 41.4804 26.4065C41.4424 26.3932 41.4039 26.378 41.3661 26.3636C41.2279 26.3117 41.0909 26.2522 40.9519 26.1843C40.9315 26.1744 40.9116 26.1662 40.8915 26.1558L41.4789 24.6593L41.7329 24.0106C42.4092 24.3556 43.1481 24.5416 43.8989 24.5552L43.1003 26.597ZM40.7412 23.4983L39.9388 25.5446C39.9118 25.5244 39.8836 25.5068 39.8557 25.4866C39.8074 25.4493 39.76 25.409 39.7122 25.3701C39.5573 25.2452 39.4045 25.1146 39.2535 24.9782C39.2089 24.9383 39.1638 24.8991 39.1193 24.8584C38.936 24.6897 38.7527 24.5152 38.5691 24.3346C38.5142 24.2794 38.4594 24.2219 38.4004 24.1654C38.3284 24.0932 38.2552 24.0191 38.1804 23.9453L38.9916 21.8729C39.5427 22.4398 40.1357 22.9596 40.7649 23.4269L40.7412 23.4983ZM35.4381 18.7934L35.0118 19.883L34.5966 20.9468C34.5554 20.9266 34.5136 20.9119 34.4718 20.8927C34.3617 20.8427 34.2573 20.795 34.1495 20.7526C34.0845 20.7268 34.0191 20.7036 33.9541 20.6809C33.8506 20.6447 33.7474 20.6127 33.6439 20.5837C33.578 20.565 33.5125 20.5464 33.4465 20.5312C33.3365 20.5051 33.2265 20.4854 33.1165 20.4673C33.0576 20.4579 32.9986 20.4457 32.94 20.4382C32.7748 20.4172 32.6061 20.4039 32.4377 20.4004H32.4294L33.2288 18.353C33.9896 18.2781 34.755 18.4308 35.4381 18.7934ZM31.1743 17.5212C31.2745 17.2636 31.5331 17.1168 31.7914 17.1717C32.0495 17.2266 32.2348 17.4672 32.2332 17.7458C32.2335 17.8236 32.2179 17.9006 32.1869 17.9712L29.6871 24.3516L29.0941 22.8384L31.1743 17.5212ZM26.6869 26.8831H26.6836C26.0749 26.9476 25.4812 27.1218 24.9285 27.3989L24.7135 26.8495L24.0881 25.2513C24.1057 25.242 24.1234 25.2351 24.143 25.2257C24.2845 25.1559 24.4257 25.0955 24.5665 25.0424C24.6035 25.0283 24.6408 25.0134 24.6765 25.0012C24.8324 24.9465 24.991 24.9023 25.1519 24.8685C25.1831 24.8621 25.2156 24.8584 25.2475 24.8528C25.383 24.828 25.52 24.8109 25.6572 24.8021C25.6969 24.8021 25.7365 24.7949 25.776 24.7939C25.9399 24.7878 26.1043 24.792 26.2677 24.8061L26.2974 24.8096L27.0971 26.8525C26.9586 26.853 26.8221 26.8669 26.6869 26.8831ZM22.3181 25.0499C22.1097 25.2153 21.9062 25.3893 21.7066 25.5697L21.5789 25.6861C21.3956 25.8537 21.2166 26.0247 21.0422 26.1987L20.9679 26.2709L20.9284 26.3095L20.4883 25.1879L20.1159 24.2376C20.1924 24.1601 20.2687 24.082 20.3447 24.0048C20.3996 23.9528 20.4487 23.9001 20.5008 23.8486C20.6841 23.6664 20.8677 23.4903 21.051 23.3209C21.0943 23.2812 21.1378 23.2433 21.1814 23.2044C21.3342 23.0664 21.4885 22.9346 21.6444 22.8093C21.6912 22.7715 21.7378 22.7318 21.7851 22.6929C21.8126 22.6713 21.8403 22.6546 21.8692 22.6346L22.6993 24.7536C22.6125 24.8155 22.5289 24.8834 22.444 24.9487C22.4035 24.9825 22.3604 25.0139 22.3181 25.0475V25.0499ZM19.5884 32.0047L18.7563 29.8787C18.8417 29.8177 18.9212 29.7514 19.0076 29.6874C19.0521 29.6531 19.0972 29.6197 19.1418 29.5848C19.3487 29.4199 19.5504 29.2476 19.7468 29.068C19.7918 29.0278 19.8354 28.9865 19.88 28.9452C20.056 28.7829 20.2294 28.6175 20.4004 28.4488L20.4966 28.3551L20.5268 28.3255L21.3385 30.399C20.7916 30.9771 20.2068 31.5137 19.5884 32.0047ZM16.8934 29.5923C16.8559 29.6064 16.8186 29.6208 16.7834 29.6344C16.627 29.6882 16.4679 29.7324 16.3065 29.7665C16.2768 29.7729 16.2471 29.7764 16.2169 29.7815C16.0782 29.807 15.9382 29.8244 15.7977 29.8334C15.7609 29.8363 15.7242 29.8398 15.6877 29.8409C15.5228 29.8475 15.3574 29.8435 15.1927 29.8286L15.1647 29.8252L14.3633 27.7831C14.5628 27.7785 14.7617 27.762 14.959 27.733C15.0086 27.7253 15.058 27.7125 15.1076 27.7039C15.2725 27.6746 15.4374 27.6381 15.6026 27.591C15.6708 27.5718 15.739 27.5497 15.8073 27.527C15.9624 27.4756 16.1167 27.4157 16.2708 27.3483C16.3302 27.3222 16.3901 27.2993 16.449 27.2708C16.476 27.258 16.5039 27.2494 16.5294 27.2359L17.0583 28.5884L17.3693 29.3858C17.3504 29.3957 17.3313 29.4032 17.3141 29.4133C17.1734 29.4804 17.0332 29.5401 16.8934 29.5923ZM17.8736 26.3593C18.082 26.1942 18.2855 26.0202 18.4851 25.8398L18.6128 25.7234C18.791 25.558 18.967 25.3899 19.1413 25.2188C19.171 25.1895 19.2007 25.1605 19.2299 25.1325C19.241 25.121 19.2523 25.1104 19.2639 25.0989L20.0751 27.1743C19.9955 27.2545 19.9157 27.336 19.8364 27.4152L19.6934 27.559C19.5083 27.742 19.323 27.9192 19.138 28.0903C19.0957 28.1294 19.0526 28.1664 19.0098 28.2067C18.857 28.3441 18.7027 28.4755 18.5473 28.6012C18.4995 28.6396 18.4522 28.6798 18.4038 28.7177C18.3769 28.7392 18.3487 28.756 18.3207 28.776L18.0458 28.0775L17.4906 26.6505C17.577 26.5887 17.6601 26.5219 17.7442 26.4566C17.7872 26.4257 17.8313 26.3937 17.8736 26.3593ZM20.6066 19.4021L20.8815 20.1076L21.4387 21.5289C21.3528 21.59 21.2703 21.6568 21.1862 21.7216C21.1421 21.7554 21.0978 21.7879 21.0537 21.8228C20.8468 21.9869 20.6441 22.1593 20.4454 22.3396C20.4009 22.3799 20.3563 22.4217 20.3118 22.463C20.136 22.6247 19.9628 22.7902 19.7918 22.9588C19.7601 22.9902 19.7276 23.0211 19.6957 23.0531L19.6655 23.0822L18.8537 21.0086C19.4016 20.4305 19.9872 19.8939 20.6066 19.4029V19.4021ZM23.3076 21.8105C23.3401 21.7983 23.3726 21.7855 23.4043 21.7746C23.5654 21.7184 23.7293 21.6728 23.8955 21.6382C23.9169 21.6336 23.9391 21.6312 23.9605 21.6273C24.1088 21.5987 24.2583 21.5793 24.4086 21.5689C24.4396 21.5689 24.4708 21.5638 24.5023 21.5625C24.6695 21.5561 24.8371 21.5601 25.0038 21.5748C25.0126 21.5748 25.0219 21.5748 25.0313 21.5782L25.8304 23.624C25.6567 23.6275 25.4845 23.6416 25.3135 23.6629C25.2667 23.6688 25.2211 23.6787 25.1748 23.6864C25.0511 23.7056 24.9273 23.7282 24.8047 23.7573C24.747 23.7714 24.6899 23.7876 24.6327 23.8033C24.5204 23.834 24.4084 23.8691 24.2966 23.9086C24.2372 23.9291 24.1782 23.9507 24.1193 23.9738C24.006 24.0181 23.8935 24.0682 23.7807 24.1212C23.7422 24.139 23.7032 24.1518 23.6646 24.1713L23.2608 23.1392L22.8242 22.0229C22.8411 22.0144 22.8582 22.0072 22.8753 21.9986C23.0191 21.9272 23.1631 21.8646 23.3076 21.8111V21.8105ZM23.7674 18.3525L24.5682 20.3975C24.3968 20.4015 24.2253 20.4145 24.0551 20.4364C24.004 20.4428 23.9534 20.4534 23.9021 20.4614C23.784 20.4806 23.6656 20.5022 23.5481 20.5296C23.4864 20.5448 23.4252 20.5616 23.3638 20.5792C23.256 20.6085 23.1482 20.642 23.0407 20.6799C22.9788 20.702 22.9161 20.7241 22.8539 20.7489C22.7439 20.792 22.6339 20.8411 22.5238 20.8927C22.4843 20.9114 22.444 20.9247 22.4045 20.9444L21.9893 19.8841L21.559 18.7934C22.2421 18.4308 23.0075 18.2781 23.7686 18.353L23.7674 18.3525ZM18.0012 21.8724L18.8124 23.9448C18.7359 24.0221 18.6594 24.1001 18.5836 24.1777C18.5287 24.2304 18.4786 24.284 18.4262 24.3359C18.2432 24.5163 18.0612 24.6916 17.8763 24.8597C17.8313 24.901 17.7855 24.9404 17.7404 24.9812C17.5898 25.1168 17.4373 25.2468 17.2834 25.3712C17.2356 25.4101 17.1877 25.4503 17.1392 25.4876C17.1117 25.5087 17.0843 25.526 17.0563 25.5457L16.2569 23.5002L16.228 23.4261C16.8572 22.9591 17.4501 22.4393 18.0012 21.8724ZM15.266 24.0098L16.1064 26.1574C16.086 26.1681 16.0651 26.1766 16.0442 26.1872C15.9072 26.2546 15.7693 26.3135 15.6333 26.3617C15.5943 26.3764 15.5557 26.3921 15.5167 26.4054C15.3609 26.4592 15.2023 26.5035 15.0416 26.5376C15.0112 26.5434 14.981 26.5469 14.9507 26.5528C14.8113 26.5778 14.6708 26.5951 14.5295 26.6044C14.4938 26.6044 14.458 26.6103 14.4195 26.6114C14.2543 26.6178 14.0892 26.6138 13.9245 26.5991C13.9139 26.5991 13.9036 26.5991 13.893 26.5957L13.0758 24.5552C13.8346 24.5442 14.5821 24.3583 15.266 24.0098ZM16.4128 33.0525H16.4236L15.6245 31.0091C15.8234 31.0048 16.0218 30.9881 16.2187 30.959C16.2698 30.9521 16.3204 30.9385 16.3715 30.93C16.5364 30.9007 16.7016 30.8642 16.8627 30.8176C16.9324 30.7978 17.0022 30.7757 17.0717 30.7523C17.2245 30.7017 17.3763 30.6423 17.5281 30.5778C17.5898 30.5509 17.6518 30.5266 17.7135 30.4968C17.7394 30.4845 17.7686 30.476 17.7915 30.4632L18.2316 31.5806L18.636 32.6135C17.9486 32.9779 17.1779 33.1301 16.4128 33.0525ZM22.191 29.5342L21.3798 27.4652C21.4498 27.3941 21.52 27.3232 21.59 27.2534C21.6504 27.1922 21.7104 27.1317 21.7715 27.0712C21.9443 26.9007 22.1162 26.7361 22.2894 26.5754C22.3539 26.5171 22.4194 26.459 22.4843 26.4006C22.6132 26.2845 22.7434 26.1734 22.8748 26.0679C22.9375 26.0167 22.9997 25.9648 23.0624 25.916C23.0861 25.8974 23.1107 25.8827 23.1349 25.8649L23.4929 26.7803L23.9642 27.9837C23.3351 28.4499 22.7421 28.9686 22.191 29.5348V29.5342ZM23.7724 39.4718C23.6566 39.7697 23.3346 39.9117 23.0533 39.7894C22.7718 39.6669 22.6374 39.3261 22.7532 39.0282L27.0686 28.0159C27.2318 28.0119 27.3949 28.0181 27.5576 28.0343L27.9035 28.9185L23.7724 39.4718ZM34.2429 39.4758C34.1878 39.6186 34.0808 39.7321 33.9458 39.7907C33.6653 39.9136 33.3438 39.7726 33.2275 39.4758L29.0068 28.6961L27.9486 25.9888L27.8227 25.6664C27.8181 25.6547 27.8144 25.6435 27.8093 25.6326L27.1885 24.0466L26.7524 22.9322L24.8079 17.9688C24.7022 17.6744 24.8366 17.3446 25.1116 17.2242C25.3865 17.1035 25.7022 17.2364 25.8238 17.5236L27.9904 23.0571L29.1762 26.0836L29.1817 26.0969L34.2419 39.0261C34.2998 39.1697 34.3003 39.3325 34.2429 39.4764V39.4758ZM30.2828 25.8729L30.7025 24.8072L30.7448 24.8021C30.9024 24.7888 31.0605 24.7851 31.2183 24.7909C31.2652 24.7909 31.3113 24.7968 31.3576 24.8003C31.4825 24.8091 31.6061 24.8248 31.7287 24.8464C31.7733 24.8538 31.8178 24.8592 31.8624 24.8685C32.0112 24.9007 32.158 24.9417 32.3025 24.9913C32.3574 25.0097 32.4125 25.0313 32.4674 25.0528C32.5852 25.0981 32.7023 25.149 32.8199 25.206C32.8496 25.2204 32.8793 25.2332 32.909 25.2484C32.7129 25.7527 32.5162 26.2562 32.3189 26.7587L32.0736 27.3954C31.637 27.1772 31.1745 27.0227 30.6987 26.9361L30.2828 25.8729Z" fill="white"/>
</svg>
