<svg width="87" height="75" viewBox="0 0 87 75" fill="none" xmlns="http://www.w3.org/2000/svg">
<path d="M85.8375 6.04955C84.3181 5.38802 81.578 4.7748 79.8662 4.25914C74.8446 2.74643 69.7791 1.33094 64.7094 0L64.0379 0.073197L43.5206 6.13701C36.1791 4.29289 29.0128 1.48391 21.6156 0.0391904C15.1654 2.16928 8.22106 3.53317 1.83615 5.78622C1.15033 6.02824 0.380682 6.09878 0.0770379 6.86311L0.000950601 62.7796C-0.0291875 63.5971 0.662093 63.903 1.39256 63.7047L22.0105 57.6315L42.9603 64.0043C43.7008 64.3346 47.4734 62.5824 47.7824 62.7647C53.0469 75.1279 68.5072 78.9107 79.0414 70.4533C83.295 67.0384 85.8162 61.8932 86.4318 56.4988C86.5164 40.8329 86.2579 25.1334 86.5896 9.48918C86.6121 8.4279 86.9228 6.52209 85.8375 6.04955ZM81.9272 64.0847C75.3831 75.4281 58.7859 76.0734 51.3846 65.2803C43.4252 53.6732 51.2411 38.0666 65.208 37.2154C79.3835 36.3515 89.0958 51.6586 81.9272 64.0847ZM84.4937 46.5752C84.0834 46.6539 84.2381 46.4717 84.1313 46.2726C74.9841 29.2152 50.1724 32.7245 46.6247 51.4703C46.0019 54.761 46.3538 57.6545 47.0168 60.8937C45.7417 61.0407 44.2206 62.1128 42.9603 61.9146L22.854 55.7483L21.572 55.6747C14.9923 57.4278 8.52422 59.6269 1.95061 61.3523V7.99039C4.56138 6.96159 7.31446 6.2443 10.0112 5.45325C14.0469 4.26945 18.0962 3.11119 22.1768 2.08278L42.5358 7.93011L42.5426 25.1637C42.7056 26.3963 44.4142 26.4994 44.4937 25.1586L44.563 8.06245C51.1264 5.84063 57.8949 4.04471 64.565 2.08055C71.2729 3.73841 77.862 5.84659 84.4937 7.7665L84.4937 46.5752Z" fill="#9D7F52"/>
<path d="M13.593 35.3804C13.5882 35.801 13.8793 36.5146 13.4088 36.9873C12.9844 37.4137 9.08242 37.8316 10.375 39.5697C11.1816 40.6543 14.5784 41.2818 15.9003 41.3572C17.5041 41.4487 22.7613 41.0503 23.5155 39.408C24.3867 37.5112 20.2672 37.6071 20.034 36.3151C19.7107 34.5234 22.2366 35.4589 23.0531 35.8463C26.0709 37.2783 26.5755 39.9829 23.5443 41.824C20.1599 43.8795 13.2415 43.8643 9.93242 41.6531C7.34686 39.9253 7.7435 37.5061 10.3586 36.1015C11.3389 35.5749 12.5081 35.0612 13.593 35.3804Z" fill="#9D7F52"/>
<path d="M43.4053 38.541C44.1047 38.3413 44.5638 38.8041 44.6428 39.4823C44.7003 39.976 44.7101 41.6861 44.5742 42.106C44.3055 42.9363 42.977 42.9415 42.8411 41.8811C42.7495 41.1666 42.6392 38.7597 43.4053 38.541Z" fill="#9D7F52"/>
<path d="M45.1985 32.4332C45.7761 33.0419 45.0241 34.0966 44.781 34.7002C44.5939 35.1644 44.7131 35.91 44.0853 36.0962C41.5605 36.845 43.6334 30.784 45.1985 32.4332Z" fill="#9D7F52"/>
<path d="M43.2506 45.112C45.0669 44.5565 44.5507 46.5436 44.1563 47.5097C43.8436 48.2756 43.2646 49.5169 42.3233 48.6673C41.5791 47.9958 42.2854 47.3839 42.5581 46.6579C42.7307 46.1984 42.6791 45.2868 43.2506 45.112Z" fill="#9D7F52"/>
<path d="M57.6715 24.8257C57.8802 24.5683 60.1546 24.1638 60.5061 24.214C61.4177 24.3442 61.611 25.6621 60.757 26.0478C60.5373 26.1471 58.5672 26.4335 58.3056 26.4185C57.5496 26.3753 57.2202 25.3823 57.6715 24.8257Z" fill="#9D7F52"/>
<path d="M31.6147 43.0326C31.8665 43.3424 31.872 45.5637 31.771 46.0202C31.5724 46.9181 30.1803 46.9003 30.0155 46.0498C29.9505 45.7143 29.9553 43.5305 30.0412 43.2455C30.2279 42.6258 31.2688 42.6069 31.6147 43.0326Z" fill="#9D7F52"/>
<path d="M39.3792 49.5985C40.1132 49.5077 40.8248 49.6149 40.7745 50.5299C40.7233 51.4602 38.1196 51.9492 37.5153 51.6896C36.8209 51.3913 36.6826 50.5497 37.3295 50.0861C37.5611 49.9201 39.0035 49.645 39.3792 49.5985Z" fill="#9D7F52"/>
<path d="M51.8439 27.7297C50.6385 26.4617 53.9905 25.2143 54.904 25.6399C55.6029 25.9654 55.4944 26.9232 54.8321 27.2875C54.6485 27.3885 52.7488 28.0233 52.6003 28.0286C52.4414 28.0343 51.9427 27.8336 51.8439 27.7297Z" fill="#9D7F52"/>
<path d="M32.2108 48.2405C32.8303 48.1457 34.0097 49.5204 34.708 49.7148C35.2007 50.2869 34.8343 51.132 34.1023 51.2014C33.3599 51.2718 31.2567 49.8762 31.3797 49.0718C31.4303 48.7409 31.8781 48.2914 32.2108 48.2405Z" fill="#9D7F52"/>
<path d="M49.5227 29.5174C49.4415 29.6157 47.4916 30.8565 47.3662 30.8798C46.4387 31.0523 45.9177 29.9768 46.4747 29.3022C46.568 29.1893 48.4714 27.9695 48.6342 27.9424C49.5681 27.7874 50.0838 28.8379 49.5227 29.5174Z" fill="#9D7F52"/>
<path d="M29.8249 40.864C29.2075 41.4505 28.4921 40.7081 27.979 40.4736C27.5013 40.2552 26.8551 40.2417 26.6154 39.7432C26.3943 39.2831 26.5189 38.7858 26.9442 38.5031C27.7093 37.9946 31.0993 39.6534 29.8249 40.864Z" fill="#9D7F52"/>
<path d="M15.6061 36.726C15.8109 36.4775 15.698 35.808 16.2798 35.8281C16.5894 35.4323 15.741 34.0147 15.235 34.3355C15.2623 34.3995 15.2278 34.5508 15.2718 34.6725C15.3572 34.9084 15.6138 35.0886 15.6582 35.3379C15.7765 36.0022 15.3205 35.8899 15.0972 36.0629C14.9621 36.1677 14.891 36.6709 14.6397 36.4254C14.4895 36.2786 14.7566 35.9957 13.8916 35.5296C14.0819 36.2317 14.6994 36.7662 15.0857 37.3208C15.0857 37.3207 15.0857 37.3208 15.0857 37.3208C14.9272 36.6986 15.421 36.9504 15.6061 36.726Z" fill="#9D7F52"/>
<path d="M65.5799 38.8589C65.9542 38.555 66.6339 38.6013 66.9498 38.9679C67.3791 39.4663 67.6965 43.6578 65.7218 42.7332C64.9866 42.3889 65.0622 39.2792 65.5799 38.8589Z" fill="#9D7F52"/>
<path d="M66.2351 67.3607C67.4464 67.3072 67.2576 69.5816 67.186 70.39C67.0577 71.8387 65.5978 71.8716 65.3059 70.9124C65.0506 70.0736 64.944 67.4177 66.2351 67.3607Z" fill="#9D7F52"/>
<path d="M79.5242 54.0691C79.8834 53.9645 81.8916 53.9891 82.2627 54.1052C83.2896 54.4266 83.0829 55.8047 82.1764 55.9751C81.7676 56.0519 79.7807 56.033 79.41 55.913C78.5285 55.6277 78.7194 54.3035 79.5242 54.0691Z" fill="#9D7F52"/>
<path d="M50.2684 54.0693C50.6273 53.9645 52.6357 53.9891 53.0067 54.1052C54.0337 54.4265 53.827 55.8047 52.9205 55.9751C52.5123 56.0518 50.5238 56.0329 50.154 55.913C49.247 55.6188 49.5469 54.2798 50.2684 54.0693Z" fill="#9D7F52"/>
<path d="M10.0155 15.4581C5.34524 20.7549 8.82323 27.1245 11.8021 32.2458C12.3597 33.2044 12.9102 34.2051 13.5933 35.0818C13.5957 35.1811 13.5944 35.2811 13.5933 35.3804C13.6819 35.4064 13.8016 35.481 13.8918 35.5296C14.7569 35.9957 14.4897 36.2786 14.6399 36.4253C14.8912 36.6708 14.9624 36.1676 15.0975 36.0629C15.3207 35.8899 15.7767 36.0022 15.6584 35.3379C15.614 35.0886 15.3574 34.9084 15.272 34.6724C15.228 34.5508 15.2625 34.3996 15.2352 34.3355C15.1821 34.2109 15.1341 34.1362 15.0859 34.037C13.9599 31.7164 12.2827 29.542 11.2051 27.1708C10.9463 25.8081 9.94262 24.387 9.75064 22.8786C8.8016 15.4217 17.5189 11.2576 22.3271 17.019C25.7607 21.1334 22.9948 26.144 20.8358 30.1593C20.3861 30.9957 17.2516 36.3751 16.8017 36.5738C16.6786 36.2811 16.4541 36.0754 16.2801 35.8281C15.6982 35.808 15.8111 36.4775 15.6063 36.726C15.4213 36.9504 14.9274 36.6986 15.086 37.3208C15.6192 38.0864 16.3075 40.0289 17.5513 38.965C20.3337 34.5185 25.4188 27.7854 25.8383 22.4743C26.5392 13.601 15.927 8.75346 10.0155 15.4581Z" fill="#9D7F52"/>
<path d="M76.7821 12.4184L68.8225 8.27893C68.3419 8.02148 67.5712 8.59667 67.4778 9.03524V21.9466C66.5984 20.9398 65.168 21.6104 64.189 22.1654C61.5988 23.6339 61.5398 26.378 64.0569 27.9796C65.9873 29.2079 68.7509 29.4145 70.9116 28.7389C74.4117 27.6443 75.9281 24.2174 72.2989 22.1258C71.2596 21.5269 70.614 21.5271 69.4835 21.359C69.3853 21.2177 69.3591 18.5547 69.4421 18.3134C69.48 18.2032 69.5544 18.1306 69.6576 18.0812L76.7821 14.3093C77.6806 13.669 77.6799 13.0589 76.7821 12.4184ZM69.6367 23.1682C74.1461 24.2314 72.5392 26.9829 68.7443 27.1684C67.4472 27.2318 63.1562 26.5054 64.4257 24.491C65.0424 23.5123 66.5867 23.4525 67.4763 22.8422C67.4071 23.6513 67.3552 25.3047 68.5859 25.2282C69.8593 25.149 69.156 23.251 69.6367 23.1682ZM69.7224 15.9116C69.6308 16.0431 69.4182 15.7705 69.4182 15.7521V10.9011L74.1918 13.3638L69.7224 15.9116Z" fill="#9D7F52"/>
<path d="M75.0526 44.6697L62.7006 51.4257L56.0993 64.0783C55.6406 65.327 56.5596 66.0387 57.6578 65.3382L69.8013 58.6757L76.3711 45.8284C76.4948 45.0568 75.8312 44.4612 75.0526 44.6697ZM68.7294 56.7082L68.3007 57.3243L59.2696 62.2479L64.0421 52.9165C66.1697 51.6527 68.3321 50.4065 70.5118 49.2362C71.3729 48.7739 72.2622 48.3291 73.1489 47.9193L68.7294 56.7082Z" fill="#9D7F52"/>
<path d="M65.7917 53.7713C67.2933 53.323 68.0466 55.4664 66.8737 56.0456C65.0738 56.9345 64.3121 54.213 65.7917 53.7713Z" fill="#9D7F52"/>
<path d="M19.5125 19.4599C17.0125 16.7307 12.2339 19.2612 13.3363 22.8751C14.3082 26.0612 18.8723 26.3571 20.1412 23.1958C20.6574 21.9097 20.4592 20.4936 19.5125 19.4599ZM16.656 23.4419C14.7312 23.3085 14.6494 20.7027 16.2361 20.3367C19.0429 19.6894 19.2384 23.6209 16.656 23.4419Z" fill="#9D7F52"/>
</svg>
