<svg width="55" height="55" viewBox="0 0 55 55" fill="none" xmlns="http://www.w3.org/2000/svg">
<rect width="55" height="55" rx="10" fill="#8B6F45"/>
<path d="M40.5011 15.5028C38.7964 13.7988 36.3661 12.9127 33.6593 13.0068C31.1079 13.0957 28.4185 14.045 26.0546 15.6872C25.048 15.238 23.9211 15.1344 22.8495 15.3926C21.7779 15.6508 20.8219 16.2563 20.1304 17.1146C19.4389 17.973 19.0508 19.036 19.0266 20.1379C19.0023 21.2399 19.3434 22.319 19.9965 23.2069C19.2947 24.9714 18.9654 26.7979 19.0382 28.5051C19.1671 31.4973 18.0927 34.4619 16.0736 36.7098C15.8896 36.6057 15.6765 36.5647 15.467 36.5932C15.2574 36.6217 15.063 36.7182 14.9136 36.8677L10.8734 40.9086C10.5966 41.186 10.3772 41.5152 10.2277 41.8774C10.0782 42.2397 10.0015 42.6278 10.002 43.0197C10.0024 43.4115 10.0801 43.7994 10.2305 44.1613C10.3809 44.5231 10.6011 44.8518 10.8785 45.1286C11.156 45.4053 11.4852 45.6247 11.8474 45.7743C12.2096 45.9238 12.5977 46.0005 12.9896 46C13.3815 45.9995 13.7694 45.9219 14.1312 45.7715C14.4931 45.6211 14.8218 45.4009 15.0985 45.1234L19.1394 41.0832C19.2889 40.9338 19.3854 40.7394 19.4139 40.5298C19.4424 40.3203 19.4014 40.1072 19.2973 39.9232C21.5452 37.9066 24.5098 36.8297 27.502 36.9586C31.2155 37.121 35.2679 35.3816 38.344 32.3062C40.8575 29.7895 42.4789 26.669 42.9004 23.5188C43.3264 20.3254 42.4751 17.4769 40.5011 15.5028ZM26.8724 23.0979C26.3256 23.6459 25.6316 24.0236 24.8745 24.1852C25.0367 23.4281 25.4143 22.7341 25.9618 22.1867C26.5092 21.6392 27.2032 21.2616 27.9603 21.0994C27.7986 21.8568 27.4207 22.5511 26.8724 23.0979ZM25.2812 21.5067C24.53 22.2573 24.0382 23.2283 23.8775 24.278C22.8621 24.2413 21.8983 23.8216 21.1798 23.1031C20.4613 22.3846 20.0415 21.4207 20.0049 20.4053C21.0538 20.2438 22.0238 19.7521 22.7742 19.0017C23.5247 18.2513 24.0163 17.2812 24.1779 16.2324C25.1933 16.269 26.1571 16.6888 26.8756 17.4073C27.5941 18.1257 28.0139 19.0896 28.0505 20.105C27.0017 20.2656 26.0316 20.7566 25.2812 21.5067ZM21.1766 17.4021C21.7235 16.8542 22.4174 16.4766 23.1744 16.3149C23.0122 17.0719 22.6346 17.7659 22.0872 18.3134C21.5397 18.8608 20.8457 19.2384 20.0887 19.4006C20.2503 18.6432 20.6282 17.949 21.1766 17.4021ZM14.4096 44.4403C14.0318 44.818 13.5195 45.0302 12.9853 45.0302C12.4511 45.0302 11.9388 44.818 11.561 44.4403C11.1833 44.0625 10.9711 43.5502 10.9711 43.016C10.9711 42.4818 11.1833 41.9695 11.561 41.5917L15.6044 37.5541L18.4498 40.3994L14.4096 44.4403ZM37.6551 31.625C34.7678 34.5122 30.9854 36.1466 27.5368 35.9958C24.2881 35.854 21.0696 37.0231 18.6328 39.2143L16.7877 37.3672C18.9789 34.9305 20.1486 31.7126 20.0062 28.4632C19.9417 27.0312 20.1937 25.5025 20.7306 24.0034C21.1437 24.3665 21.6144 24.6583 22.1233 24.867C21.0135 28.0101 21.4195 30.9341 23.2466 32.7605C24.3867 33.9012 25.9585 34.4948 27.7759 34.4948C28.3442 34.493 28.9112 34.4391 29.4696 34.3337C31.9341 33.8787 34.423 32.4969 36.4763 30.443C38.5296 28.3891 39.9107 25.9008 40.3619 23.4363C40.8297 20.9048 40.271 18.6949 38.7887 17.2133C36.738 15.16 33.2727 14.9112 29.7409 16.563C29.6834 16.5899 29.6318 16.6279 29.589 16.6748C29.5461 16.7216 29.5129 16.7765 29.4913 16.8362C29.4697 16.8959 29.46 16.9592 29.4629 17.0227C29.4657 17.0861 29.4811 17.1483 29.508 17.2059C29.5349 17.2634 29.5729 17.315 29.6197 17.3578C29.6666 17.4007 29.7215 17.4338 29.7811 17.4555C29.8408 17.4771 29.9042 17.4868 29.9676 17.4839C30.0311 17.4811 30.0933 17.4657 30.1508 17.4388C33.3017 15.9643 36.35 16.1396 38.1062 17.8977C39.3565 19.148 39.8199 21.0556 39.4119 23.2616C38.9917 25.536 37.7053 27.8445 35.7887 29.7611C33.872 31.6778 31.5635 32.9642 29.2892 33.3844C27.0806 33.7923 25.1755 33.3289 23.9252 32.0787C22.3624 30.5152 22.044 27.9463 23.0455 25.1474C23.3679 25.2116 23.6958 25.2442 24.0245 25.2447C25.0771 25.2455 26.1031 24.9136 26.9559 24.2965C27.8086 23.6793 28.4446 22.8084 28.7728 21.8083C29.101 20.8081 29.1047 19.7298 28.7835 18.7273C28.4622 17.7249 27.8323 16.8496 26.9839 16.2266C31.5352 13.262 36.8443 13.2111 39.8173 16.1866C43.4785 19.8479 42.5099 26.7747 37.6551 31.625Z" fill="white" stroke="white" stroke-width="0.3"/>
<path d="M21.3138 33.0957C21.2231 33.005 21.1001 32.9541 20.9719 32.9541C20.8437 32.9541 20.7207 33.005 20.63 33.0957C20.5393 33.1864 20.4884 33.3094 20.4884 33.4376C20.4884 33.5658 20.5393 33.6888 20.63 33.7795L21.7417 34.8912L19.3056 36.0545C19.2066 36.1017 19.1265 36.1812 19.0787 36.28C19.0308 36.3787 19.018 36.4908 19.0423 36.5978C19.0666 36.7048 19.1266 36.8004 19.2124 36.8688C19.2982 36.9372 19.4047 36.9743 19.5144 36.9742C19.5863 36.9743 19.6572 36.9582 19.722 36.9271L22.7755 35.4687C22.8452 35.4353 22.906 35.3857 22.9526 35.3241C22.9992 35.2624 23.0304 35.1905 23.0435 35.1142C23.0565 35.038 23.0511 34.9598 23.0277 34.8861C23.0043 34.8125 22.9635 34.7455 22.9089 34.6908L21.3138 33.0957Z" fill="white" stroke="white" stroke-width="0.3"/>
</svg>
