<svg width="63" height="76" viewBox="0 0 63 76" fill="none" xmlns="http://www.w3.org/2000/svg">
<path d="M36.1345 14.1836L36.35 15.2611C33.8036 16.2836 31.4953 14.2525 28.99 14.7257C31.9116 16.7879 32.4582 19.3644 36.5388 18.3775C42.378 16.9652 48.9474 12.8551 54.8473 11.1255C57.0965 9.97926 55.7348 8.39568 53.6026 8.57108C51.2459 8.76496 47.3441 11.5042 45.3839 11.5145C41.9876 11.5324 38.1585 8.22527 34.621 8.77195C35.2604 10.1626 39.2903 12.2968 39.7262 13.3185C39.7689 13.4186 39.4225 14.3095 39.0674 14.1809L32.7685 8.76922C32.479 8.19685 33.2301 7.98183 33.609 7.86628C37.749 6.60398 41.7555 10.5516 45.3496 10.4658C47.3795 10.4174 51.3438 7.50473 54.019 7.46387C56.7707 7.42184 58.297 10.3832 55.607 11.8853C50.1099 14.9547 42.1691 16.7118 36.3658 19.5041C33.0329 20.0725 31.8743 18.7899 29.6358 16.6792C29.2942 16.3571 27.407 14.5812 27.4718 14.2977C30.2638 11.9777 33.2327 15.656 36.1345 14.1836Z" fill="#C39E4B" stroke="#C39E4B" stroke-miterlimit="10"/>
<path d="M12.5192 22.8362L11.4445 23.0663C8.5469 7.82711 24.2229 -4.58367 38.308 2.59186C39.0933 2.99195 43.1621 5.68445 43.2677 6.30937C43.3152 6.59118 42.8387 7.06748 42.5576 7.01954C42.3982 6.99236 40.5604 5.23049 40.1082 4.9073C26.9432 -4.50164 9.41201 7.26613 12.5192 22.8362Z" fill="#C39E4B" stroke="#C39E4B" stroke-miterlimit="10"/>
<path d="M19.891 75.4867C19.3116 75.5115 18.9279 75.5871 18.8079 74.9453C18.5845 73.7507 18.6928 69.5883 18.8002 68.2223C19.569 58.4502 36.7738 57.5312 41.9914 64.1087C42.4842 64.7299 43.5019 66.6505 43.5019 67.3637V75.1617C43.5019 75.5696 42.4188 75.5696 42.4188 75.1617V67.147C42.4188 66.9934 41.743 65.6499 41.5884 65.3782C38.2245 59.4663 24.0808 59.4791 20.7164 65.373C20.5149 65.726 19.8911 67.0682 19.8911 67.3636L19.891 75.4867Z" fill="#C39E4B" stroke="#C39E4B" stroke-miterlimit="10"/>
<path d="M48.4852 18.7331C48.849 35.1264 29.0618 44.2025 16.9613 32.8196C16.5302 32.414 14.8935 30.6477 14.7743 30.22C14.632 29.7099 15.2908 29.1677 15.5543 29.35C15.6347 29.4056 16.3084 30.6188 16.6364 30.9783C27.7428 43.1476 47.8311 35.0402 47.4 18.7329L48.4852 18.7331Z" fill="#C39E4B" stroke="#C39E4B" stroke-miterlimit="10"/>
<path d="M0.612654 61.7317C1.70342 54.0331 16.4877 53.0825 21.6112 56.9793C22.3368 57.5311 21.7587 57.4336 21.6194 58.1575C16.7837 54.7719 6.60494 54.6296 2.78417 59.5709C2.51687 59.9166 1.69572 61.1797 1.69572 61.5151V70.0713H0.612654C0.875208 67.4885 0.258955 64.2281 0.612654 61.7317Z" fill="#C39E4B" stroke="#C39E4B" stroke-miterlimit="10"/>
<path d="M61.6974 70.0713C61.6662 70.1014 60.831 70.1147 60.831 70.0713V62.5982C60.831 61.901 60.1019 60.2695 59.6444 59.6691C56.4906 55.5303 49.2766 55.0797 44.6374 56.3688C43.858 56.5854 41.1992 57.9476 41.0011 57.9439C40.5205 57.9351 40.3182 57.4703 40.5693 57.0662C40.6796 56.8887 42.6388 55.9702 43.0122 55.8267C48.2064 53.8293 57.0919 54.2108 60.5767 59.1701C60.8564 59.5681 61.6974 61.1607 61.6974 61.5151C61.6974 62.6389 62.0054 69.7744 61.6974 70.0713Z" fill="#C39E4B" stroke="#C39E4B" stroke-miterlimit="10"/>
<path d="M28.7711 21.9844C28.8812 22.5623 28.6461 22.3605 28.3371 22.5129C24.4797 24.4161 12.1284 28.2679 8.10891 27.8085C4.37984 27.3822 3.59195 24.8397 5.1924 21.6893C5.38064 21.3188 6.84841 19.1889 7.00247 19.1715C7.28068 19.14 7.35361 19.5363 7.11081 19.925C5.92852 21.8178 3.01067 25.2367 6.48372 26.8343C9.38469 28.1688 16.5049 26.0321 19.6238 25.0734C22.6981 24.1285 25.6668 22.7511 28.7711 21.9844Z" fill="#C39E4B" stroke="#C39E4B" stroke-miterlimit="10"/>
<path d="M6.8941 70.0713H5.81104V63.7895C6.09431 63.7187 6.8941 63.8301 6.8941 64.1145V70.0713Z" fill="#C39E4B" stroke="#C39E4B" stroke-miterlimit="10"/>
<path d="M56.4991 63.7895V70.0713H55.416V64.1145C55.416 63.8301 56.2158 63.7187 56.4991 63.7895Z" fill="#C39E4B" stroke="#C39E4B" stroke-miterlimit="10"/>
<path d="M25.0899 68.9883V75.27H24.0068V69.3132C24.0068 69.0288 24.8066 68.9174 25.0899 68.9883Z" fill="#C39E4B" stroke="#C39E4B" stroke-miterlimit="10"/>
<path d="M38.3033 75.27H37.2202V68.9883C37.5035 68.9174 38.3033 69.0288 38.3033 69.3132V75.27Z" fill="#C39E4B" stroke="#C39E4B" stroke-miterlimit="10"/>
<path d="M48.432 37.6354C39.6461 38.824 40.8846 52.7474 50.5189 51.6359C59.3905 50.6124 58.0225 36.3379 48.432 37.6354ZM48.3944 50.5579C41.9638 49.7051 41.9748 39.7788 48.211 38.7139C57.6026 37.1101 57.9867 51.8299 48.3944 50.5579Z" fill="#C39E4B" stroke="#C39E4B" stroke-miterlimit="10"/>
<path d="M11.6039 37.6313C3.09312 38.9749 4.21993 52.808 13.9105 51.6351C22.8688 50.5509 21.186 36.1185 11.6039 37.6313ZM11.7925 50.5523C5.34243 49.7742 5.28707 39.7248 11.6042 38.7146C20.885 37.2306 21.4111 51.7126 11.7925 50.5523Z" fill="#C39E4B" stroke="#C39E4B" stroke-miterlimit="10"/>
<path d="M30.2355 42.8349C21.2543 44.0115 22.5001 58.0264 32.3222 56.834C41.0107 55.7792 39.6259 41.6047 30.2355 42.8349ZM25.4107 51.663C24.4189 48.3489 26.5107 44.4644 30.0155 43.9131C35.2142 43.0953 38.9657 48.3964 36.3112 53.0248C33.8047 57.3953 26.8731 56.5495 25.4107 51.663Z" fill="#C39E4B" stroke="#C39E4B" stroke-miterlimit="10"/>
</svg>
