<svg width="60" height="60" viewBox="0 0 60 60" fill="none" xmlns="http://www.w3.org/2000/svg">
<rect width="60" height="60" rx="12" fill="#8B6F45"/>
<path d="M16.7188 27.1101C16.7985 27.1101 16.8782 27.13 16.9379 27.1765C18.0801 27.9003 19.4016 28.2789 20.7496 28.2722C21.3141 28.2722 21.8852 28.2058 22.4363 28.0796C21.925 29.8195 22.018 31.6855 22.7152 33.3589H14.7598C14.5207 33.3589 14.3282 33.1663 14.3282 32.9273V31.9843C14.3282 30.1714 15.0918 28.4382 16.4332 27.2164C16.5129 27.1499 16.6125 27.1101 16.7188 27.1101ZM16.7188 25.782C16.2871 25.782 15.8688 25.9414 15.5434 26.2335C13.9164 27.7078 12.9934 29.7996 13 31.9843V32.9206C13 33.8902 13.7903 34.6804 14.7598 34.6804H25.0992C22.8481 32.1437 22.9012 28.3054 25.2188 25.8351C25.0793 25.8019 24.9332 25.782 24.7938 25.782C24.4617 25.782 24.1363 25.875 23.8574 26.0542C22.9344 26.6386 21.8586 26.9441 20.7629 26.9374C19.6672 26.9441 18.5914 26.6386 17.6684 26.0542C17.3828 25.8816 17.0508 25.782 16.7188 25.782Z" fill="white" stroke="white" stroke-width="0.5"/>
<path d="M20.7498 17.3281C22.4232 17.3281 23.7779 18.6828 23.7779 20.3562C23.7779 22.0297 22.4232 23.3844 20.7498 23.3844C19.0764 23.3844 17.7217 22.0297 17.7217 20.3562C17.7217 18.6828 19.083 17.3281 20.7498 17.3281ZM20.7498 16C18.3459 16 16.3936 17.9523 16.3936 20.3562C16.3936 22.7601 18.3459 24.7125 20.7498 24.7125C23.1537 24.7125 25.106 22.7601 25.106 20.3562C25.106 17.9523 23.1603 16 20.7498 16Z" fill="white" stroke="white" stroke-width="0.5"/>
<path d="M43.2812 27.1098C43.3874 27.1098 43.487 27.1497 43.5601 27.2161C44.9015 28.438 45.6652 30.1645 45.6652 31.9774V32.9204C45.6652 33.1594 45.4726 33.352 45.2335 33.352H37.2847C37.982 31.6786 38.0816 29.8126 37.5636 28.0727C38.1148 28.1989 38.6792 28.2653 39.2503 28.2653C40.5984 28.2719 41.9265 27.8934 43.062 27.1696C43.1284 27.1364 43.2081 27.1098 43.2812 27.1098ZM35.2128 25.7817C35.0667 25.7817 34.9273 25.8016 34.7878 25.8348C37.1121 28.3118 37.1585 32.1434 34.9074 34.6801H45.2402C46.2097 34.6801 46.9999 33.8965 46.9999 32.927V31.9841C47.0066 29.7926 46.0835 27.7075 44.4566 26.2333C43.8722 25.702 43.0023 25.629 42.3382 26.054C40.4456 27.2294 38.0417 27.2294 36.1492 26.054C35.8703 25.8813 35.5449 25.7817 35.2128 25.7817Z" fill="white" stroke="white" stroke-width="0.5"/>
<path d="M39.2503 17.3281C40.9237 17.3281 42.2784 18.6828 42.2784 20.3562C42.2784 22.0297 40.9237 23.3844 39.2503 23.3844C37.5768 23.3844 36.2222 22.0297 36.2222 20.3562C36.2222 18.6828 37.5768 17.3281 39.2503 17.3281ZM39.2503 16C36.8464 16 34.894 17.9523 34.894 20.3562C34.894 22.7601 36.8464 24.7125 39.2503 24.7125C41.6542 24.7125 43.6065 22.7601 43.6065 20.3562C43.6065 17.9523 41.6542 16 39.2503 16Z" fill="white" stroke="white" stroke-width="0.5"/>
<path d="M34.0374 37.0843C34.1436 37.0843 34.2432 37.1241 34.3163 37.1905C35.6577 38.4124 36.4214 40.139 36.4214 41.9585V42.8948C36.4214 43.1339 36.2288 43.3264 35.9897 43.3264H24.0101C23.771 43.3264 23.5784 43.1339 23.5784 42.8948V41.9585C23.5784 40.1456 24.3421 38.4124 25.6835 37.1905C25.8229 37.0644 26.0288 37.0444 26.1882 37.1507C28.519 38.6116 31.4807 38.6116 33.8182 37.1507C33.8846 37.1042 33.9577 37.0776 34.0374 37.0843ZM34.0374 35.7495C33.7053 35.7495 33.3733 35.8425 33.0944 36.0284C31.2018 37.2038 28.7979 37.2038 26.9054 36.0284C26.2413 35.6034 25.3714 35.6765 24.787 36.2077C23.1667 37.6753 22.2437 39.7671 22.2437 41.9585V42.8948C22.2437 43.8643 23.0339 44.6546 24.0034 44.6546H35.9831C36.9526 44.6546 37.7428 43.871 37.7428 42.8948V41.9585C37.7495 39.7671 36.8264 37.6819 35.1995 36.2077C34.8874 35.9155 34.469 35.7495 34.0374 35.7495Z" fill="white" stroke="white" stroke-width="0.5"/>
<path d="M30 27.2959C31.6735 27.2959 33.0282 28.6506 33.0282 30.324C33.0282 31.9974 31.6735 33.3521 30 33.3521C28.3266 33.3521 26.9719 31.9974 26.9719 30.324C26.9719 28.6506 28.3266 27.2959 30 27.2959ZM30 25.9678C27.5961 25.9678 25.6438 27.9201 25.6438 30.324C25.6438 32.7279 27.5961 34.6803 30 34.6803C32.4039 34.6803 34.3563 32.7279 34.3563 30.324C34.3563 27.9201 32.4039 25.9678 30 25.9678Z" fill="white" stroke="white" stroke-width="0.5"/>
</svg>
