<svg width="60" height="60" viewBox="0 0 60 60" fill="none" xmlns="http://www.w3.org/2000/svg">
<rect width="60" height="60" rx="12" fill="#C39E4B"/>
<path d="M23.3495 41.6C22.761 41.6 22.222 41.8365 21.826 42.216C17.6075 39.345 15.0995 34.626 15.0995 29.5C15.0995 21.008 22.0075 14.1 30.4995 14.1C31.583 14.1 32.6555 14.21 33.684 14.43L33.9095 13.352C32.804 13.1155 31.6545 13 30.494 13C21.4025 13 13.9995 20.403 13.9995 29.5C13.9995 35.0165 16.7055 40.082 21.254 43.1565C21.1935 43.36 21.1495 43.5745 21.1495 43.8C21.1495 45.0155 22.134 46 23.3495 46C24.565 46 25.5495 45.0155 25.5495 43.8C25.5495 42.5845 24.565 41.6 23.3495 41.6ZM23.3495 44.9C22.7445 44.9 22.2495 44.405 22.2495 43.8C22.2495 43.195 22.7445 42.7 23.3495 42.7C23.9545 42.7 24.4495 43.195 24.4495 43.8C24.4495 44.405 23.9545 44.9 23.3495 44.9Z" fill="white" stroke="white"/>
<path d="M39.7453 15.8435C39.8058 15.64 39.8498 15.4255 39.8498 15.2C39.8498 13.9845 38.8653 13 37.6498 13C36.4343 13 35.4498 13.9845 35.4498 15.2C35.4498 16.4155 36.4343 17.4 37.6498 17.4C38.2383 17.4 38.7773 17.1635 39.1733 16.784C43.3918 19.655 45.8998 24.374 45.8998 29.5C45.8998 37.992 38.9918 44.9 30.4998 44.9C29.4163 44.9 28.3438 44.79 27.3153 44.57L27.0898 45.648C28.1953 45.8845 29.3448 46 30.5053 46C39.6023 46 47.0053 38.597 47.0053 29.5C47.0053 23.9835 44.2993 18.918 39.7508 15.8435H39.7453ZM37.6498 16.3C37.0448 16.3 36.5498 15.805 36.5498 15.2C36.5498 14.595 37.0448 14.1 37.6498 14.1C38.2548 14.1 38.7498 14.595 38.7498 15.2C38.7498 15.805 38.2548 16.3 37.6498 16.3Z" fill="white" stroke="white"/>
<path d="M27.5794 37.1121L27.2329 35.0001L28.6904 33.5096C28.8334 33.3611 28.8829 33.1466 28.8169 32.9486C28.7509 32.7506 28.5804 32.6131 28.3769 32.5801L26.3859 32.2776L25.5554 30.5011C25.6104 29.6376 26.3199 28.9501 27.1944 28.9501H33.7944C34.0969 28.9501 34.3939 29.0326 34.6524 29.1921C35.1474 29.4946 35.4444 30.0171 35.4444 30.6001V36.6501H32.1444V37.7501H35.9944C36.2969 37.7501 36.5444 37.5026 36.5444 37.2001V30.6001C36.5444 29.6376 36.0494 28.7576 35.2299 28.2571C34.8009 27.9876 34.3059 27.8501 33.7944 27.8501H27.1944C25.7314 27.8501 24.5434 28.9996 24.4609 30.4461L23.6029 32.2776L21.6119 32.5801C21.4084 32.6131 21.2379 32.7561 21.1719 32.9486C21.1059 33.1411 21.1554 33.3611 21.2984 33.5096L22.7559 35.0001L22.4094 37.1121C22.3764 37.3211 22.4644 37.5301 22.6349 37.6511C22.8054 37.7721 23.0309 37.7831 23.2179 37.6841L24.9889 36.7051L26.7599 37.6841C26.8424 37.7281 26.9359 37.7501 27.0239 37.7501C27.1339 37.7501 27.2439 37.7171 27.3429 37.6511C27.5134 37.5301 27.6014 37.3211 27.5684 37.1121H27.5794ZM26.2539 34.4281C26.1329 34.5546 26.0779 34.7306 26.1054 34.9011L26.3144 36.1716L25.2639 35.5941C25.1814 35.5501 25.0879 35.5281 24.9999 35.5281C24.9119 35.5281 24.8184 35.5501 24.7359 35.5941L23.6854 36.1716L23.8944 34.9011C23.9219 34.7306 23.8669 34.5546 23.7459 34.4281L22.8439 33.5041L24.0649 33.3171C24.2464 33.2896 24.4004 33.1741 24.4774 33.0091L24.9999 31.8981L25.5224 33.0091C25.5994 33.1741 25.7534 33.2896 25.9349 33.3171L27.1559 33.5041L26.2539 34.4281Z" fill="white" stroke="white" stroke-width="0.5"/>
<path d="M33.7997 24.55C33.7997 22.7295 32.3202 21.25 30.4997 21.25C28.6792 21.25 27.1997 22.7295 27.1997 24.55C27.1997 26.3705 28.6792 27.85 30.4997 27.85C32.3202 27.85 33.7997 26.3705 33.7997 24.55ZM30.4997 26.75C29.2842 26.75 28.2997 25.7655 28.2997 24.55C28.2997 23.3345 29.2842 22.35 30.4997 22.35C31.7152 22.35 32.6997 23.3345 32.6997 24.55C32.6997 25.7655 31.7152 26.75 30.4997 26.75Z" fill="white" stroke="white"/>
</svg>
