<svg width="74" height="75" viewBox="0 0 74 75" fill="none" xmlns="http://www.w3.org/2000/svg">
<path d="M60.5824 66.3807C47.6824 77.436 28.3218 77.8834 14.7431 67.5671C14.1344 67.1047 11.2388 64.7304 11.1213 64.2292C10.9205 63.373 11.732 62.8794 12.5223 63.252C20.3426 71.1946 32.5111 74.7951 43.8384 72.593C45.2919 72.3104 46.6794 71.8386 48.1144 71.5027C48.1734 71.2397 48.0771 71.3227 47.9605 71.2519C46.1333 70.1429 43.4269 69.0062 43.6963 66.5015C43.9828 63.8377 49.8086 62.4812 49.5414 59.7724C49.3064 57.3895 43.7133 55.8993 41.6675 55.3742C38.6158 54.5908 29.929 53.3603 28.1739 51.1038C26.4707 48.914 30.1884 47.6547 31.8245 47.2355C32.5141 47.0588 36.0413 46.3116 36.4233 46.6257C36.736 46.8828 36.7431 47.4546 36.359 47.6823C35.9478 47.9261 33.9721 48.0483 33.3043 48.1788C32.3986 48.3559 29.4369 49.0251 29.1758 49.921C28.9144 50.818 31.7425 51.6952 32.4467 51.9149C36.8116 53.2765 47.3994 54.3848 50.0521 57.8221C51.5728 59.7925 50.6969 61.757 48.9518 63.2445C48.0404 64.0212 45.6377 65.2581 45.1562 66.1907C44.3719 67.7095 46.6399 69.0766 47.7952 69.7247C48.2756 69.9942 49.7096 70.7825 50.1742 70.6959C50.6154 70.6137 52.2643 69.7892 52.7736 69.5393C71.1567 60.5185 76.6292 37.6574 68.1372 20.5684C67.8186 19.9273 66.6338 18.1643 66.5303 17.6981C66.2639 16.4977 67.3685 15.9526 68.1019 16.8927C68.796 17.7826 69.7349 19.7855 70.2251 20.851C77.4421 36.5387 74.077 54.8158 60.5824 66.3807Z" fill="#8B6F45"/>
<path d="M61.1969 11.0818C57.4893 7.92529 54.6612 5.69855 49.869 3.93325C30.4999 -3.20169 9.78075 7.27678 3.73027 25.5119C0.458799 35.3715 1.21154 45.1182 5.88139 54.4413C6.19196 55.0613 7.44032 56.9526 7.50978 57.407C7.64581 58.297 6.6677 58.7476 6.01553 58.1361C5.48275 57.6366 4.43636 55.5371 4.07007 54.7975C-6.32588 33.8043 3.69433 7.0119 28.4109 0.975723C39.5239 -1.73824 54.5968 1.22343 62.2655 9.68576C62.7151 10.1818 63.3806 10.7637 62.8045 11.4329C62.1515 12.1912 61.6077 11.4316 61.1969 11.0818Z" fill="#8B6F45"/>
<path d="M60.721 24.7952C61.0367 25.0409 62.916 26.4215 62.9807 26.545C63.3172 27.1883 62.7966 27.7596 62.0904 27.4985L54.263 21.489C53.5267 20.9969 53.3455 21.0923 52.6615 21.5543C51.2719 22.4929 50.042 23.6929 48.6351 24.6197C48.3706 24.7811 48.0423 24.7944 47.7502 24.6974L38.0222 18.2305C37.7674 18.1407 37.8621 18.5483 37.7343 18.7431C37.6395 18.8876 37.2748 19.1179 37.089 19.1032C36.6067 19.0652 32.4354 15.6898 31.6258 15.1479C31.2546 14.8995 30.8974 14.6271 30.4076 14.7666C28.0655 16.9336 25.842 19.2496 23.5828 21.4946C23.0123 21.8335 22.4516 21.3531 22.5599 20.7635C22.5926 20.5855 23.9364 19.2563 24.2277 18.9581C25.6017 17.5514 27.8744 15.0083 29.366 13.901C30.3263 13.1882 30.9507 13.2469 31.9614 13.8205C33.2385 14.5455 34.5219 15.8327 35.7801 16.6416C36.4917 16.4799 37.0661 16.0665 37.7881 16.5407L47.996 23.3457C48.2703 23.4388 51.8554 20.3808 52.6233 20.0574C53.418 19.7228 53.9302 19.7973 54.6703 20.2066C56.3835 21.154 59.0715 23.5118 60.721 24.7952Z" fill="#8B6F45"/>
<path d="M18.3128 63.0094C20.898 59.886 27.6627 59.1379 31.5441 58.211C32.5013 57.9824 35.0214 57.3883 35.6889 56.8299C36.0681 56.5127 36.2332 55.6895 37.0094 56.048C38.0389 56.5234 36.6144 57.7617 36.0562 58.0748C31.3006 60.7422 23.0745 59.7119 19.0982 64.0295C18.7655 64.3906 18.6953 65.0723 17.9034 64.704C17.2052 64.3794 18.0254 63.3566 18.3128 63.0094Z" fill="#8B6F45"/>
<path d="M17.1185 22.997C15.3626 24.3225 13.4319 26.1597 11.6353 27.3329C10.6865 27.9524 10.0026 27.324 10.5541 26.5398C12.7007 24.9094 14.7212 23.0898 16.8922 21.4915C18.3068 20.4501 18.6899 20.0826 20.4021 20.9919C21.7026 21.6825 24.4393 23.2793 25.5355 24.1399C26.352 24.7808 26.1229 25.5086 25.0632 25.3726L19.2509 21.848C18.5469 21.698 17.6672 22.5828 17.1185 22.997Z" fill="#8B6F45"/>
<path d="M8.67761 59.7237C10.6246 59.3259 10.6268 62.2745 8.67998 61.9269C7.41179 61.7004 7.63303 59.9372 8.67761 59.7237Z" fill="#8B6F45"/>
<path d="M64.6779 12.8578C66.7009 12.4286 66.6135 15.6244 64.586 15.0315C63.5834 14.7383 63.6318 13.0797 64.6779 12.8578Z" fill="#8B6F45"/>
<path d="M65.992 48.1566C65.6405 47.83 63.1413 47.2232 63.0566 47.0987C63.1267 43.7987 63.3383 40.2039 59.8156 38.4019C60.9399 37.1234 61.4428 35.7835 60.5541 34.2249C58.7451 31.0524 53.9064 32.6235 54.3228 36.2693C54.4252 37.166 54.9727 37.7247 55.5174 38.4C54.5549 38.98 53.7901 39.5997 53.1304 40.4831C52.7884 38.812 51.6301 37.0975 49.9054 36.4352C50.2389 35.9651 50.7144 35.5337 50.9487 35.0026C52.3501 31.8247 48.5999 28.7261 45.6169 30.8832C43.7181 32.2563 43.9248 34.9798 45.6064 36.4356C44.4189 36.7997 43.7003 37.7913 42.9809 38.6848C42.6523 36.6462 41.1435 35.0049 39.2803 34.0206C41.1576 32.476 41.539 29.8599 39.8054 28.0732C38.6573 26.8899 37.1782 26.4724 35.5454 27.0228C32.3572 28.0975 31.9278 32.0164 34.3803 34.0206C33.1222 34.7602 31.9014 35.746 31.2571 37.0355C31.1409 37.268 30.7405 38.5759 30.6211 38.5702C30.0599 37.78 29.4525 37.1706 28.6152 36.639C28.3862 36.4936 27.8318 36.4635 28.13 36.2026C31.5794 33.1848 27.4865 28.4654 24.0017 30.7683C22.5434 31.732 22.1449 33.7171 22.8753 35.186C23.1281 35.6945 23.5655 35.991 23.7546 36.4349C22.0489 37.1741 20.919 38.7846 20.5298 40.4823L19.2194 39.0768L18.1439 38.458C18.2757 38.0312 18.7647 37.7678 19.0004 37.3C20.2582 34.8031 18.0751 31.8858 15.1338 32.6488C12.44 33.3477 11.9837 36.7944 13.9637 38.4587C10.3177 39.9238 10.5431 43.9352 10.604 47.0986C9.97254 47.3948 7.63821 47.8427 7.51534 48.5249C7.45545 48.8574 7.55234 49.1934 7.94076 49.2507C8.46632 49.3283 10.2501 48.5254 10.8867 48.3202C26.9959 43.1276 45.5262 42.8972 61.722 47.9616C62.7639 48.2874 64.1989 48.9997 65.1614 49.2196C66.0641 49.4258 66.5748 48.6983 65.992 48.1566ZM15.4835 33.8782C18.3532 33.3197 18.8911 37.2931 16.5047 37.7598C13.7199 38.3043 13.2599 34.3109 15.4835 33.8782ZM12.0534 46.5524V42.5624C12.0534 42.4056 12.65 41.223 12.7911 41.0088C14.4402 38.5056 18.0507 38.7664 19.4358 41.3457C20.017 42.4279 19.8795 43.3099 20.0399 44.4653L12.0534 46.5524ZM24.2528 32.3534C24.5055 32.0124 25.082 31.5998 25.5134 31.5173C27.7909 31.0818 29.0327 34.0915 27.2102 35.3618C25.1645 36.7877 22.8149 34.2932 24.2528 32.3534ZM30.0844 43.2935L21.7254 44.1921C21.8029 43.2377 21.6201 42.1508 21.7254 41.2137C22.1178 37.7204 26.4597 35.6192 29.0585 38.6946C30.2197 40.0687 30.1763 41.6296 30.0844 43.2935ZM36.5031 28.1494C40.1096 27.6888 40.6266 33.1337 37.0678 33.4009C33.5587 33.6644 33.1018 28.5838 36.5031 28.1494ZM41.7279 43.177C41.6996 43.1786 41.5253 43.0674 41.3712 43.0658C38.2034 43.0326 35.0374 42.8051 31.8749 43.1806V39.5278C31.8749 37.0074 34.7557 34.7285 37.4261 34.9769C39.4917 35.1689 41.7856 37.4801 41.7856 39.4154V42.8996C41.7856 42.9137 42.0148 43.1604 41.7279 43.177ZM47.3674 31.5179C49.8286 31.1474 50.8951 34.5852 48.6726 35.5576C45.5611 36.9189 44.3372 31.974 47.3674 31.5179ZM51.9352 44.1921L43.5768 43.293C43.6429 42.5597 43.4865 41.7051 43.5768 40.9889C44.0337 37.3633 48.8128 35.6871 51.0763 38.9875C51.2558 39.2493 51.9352 40.5493 51.9352 40.7641V44.1921ZM58.1529 33.9006C59.5819 34.2177 60.0344 36.0186 59.2181 37.0543C58.5369 37.9186 57.097 38.0728 56.274 37.2982C54.8319 35.941 56.0563 33.4354 58.1529 33.9006ZM61.7265 46.5524L53.7193 44.5765C53.2155 41.4828 55.8947 37.9786 59.4008 39.6938C60.5453 40.2536 61.7265 42.0284 61.7265 43.2368V46.5524Z" fill="#8B6F45"/>
<path d="M48.7764 10.3565C44.7282 6.70576 38.6438 12.5467 42.6635 16.3913C46.7744 20.3231 53.0659 14.2249 48.7764 10.3565ZM43.8142 15.5891C40.722 13.0263 44.9235 8.80457 47.8345 11.2995C50.707 13.7614 46.795 18.0595 43.8142 15.5891Z" fill="#8B6F45"/>
</svg>
