<svg width="60" height="60" viewBox="0 0 60 60" fill="none" xmlns="http://www.w3.org/2000/svg">
<rect width="60" height="60" rx="12" fill="#C39E4B"/>
<path d="M39.7809 19.1603C38.4437 17.8101 36.8512 16.7394 35.096 16.0109C33.3409 15.2823 31.4583 14.9103 29.558 14.9166C21.5955 14.9166 15.1059 21.4062 15.1059 29.3687C15.1059 31.9207 15.7768 34.3999 17.0309 36.5874L14.9893 44.0833L22.6455 42.0708C24.7601 43.2228 27.1372 43.8353 29.558 43.8353C37.5205 43.8353 44.0101 37.3458 44.0101 29.3833C44.0101 25.5187 42.508 21.8874 39.7809 19.1603ZM29.558 41.3853C27.3997 41.3853 25.2851 40.802 23.433 39.7083L22.9955 39.4457L18.4455 40.6416L19.6559 36.2083L19.3643 35.7562C18.1648 33.8415 17.5281 31.628 17.5268 29.3687C17.5268 22.7478 22.9226 17.352 29.5434 17.352C32.7518 17.352 35.7705 18.6062 38.0309 20.8812C39.1504 21.9951 40.0375 23.3203 40.6408 24.7798C41.2441 26.2392 41.5516 27.804 41.5455 29.3833C41.5747 36.0041 36.1788 41.3853 29.558 41.3853ZM36.1497 32.402C35.7851 32.227 34.0059 31.352 33.6851 31.2208C33.3497 31.1041 33.1163 31.0457 32.8684 31.3958C32.6205 31.7603 31.9351 32.577 31.7309 32.8103C31.5268 33.0583 31.308 33.0874 30.9434 32.8978C30.5788 32.7228 29.4122 32.3291 28.0413 31.1041C26.9622 30.1416 26.2476 28.9603 26.0288 28.5958C25.8247 28.2312 25.9997 28.0416 26.1893 27.852C26.3497 27.6916 26.5538 27.4291 26.7288 27.2249C26.9038 27.0207 26.9768 26.8603 27.0934 26.627C27.2101 26.3791 27.1518 26.1749 27.0643 25.9999C26.9768 25.8249 26.2476 24.0457 25.9559 23.3166C25.6643 22.6166 25.358 22.7041 25.1393 22.6895H24.4393C24.1913 22.6895 23.8122 22.777 23.4768 23.1416C23.1559 23.5062 22.2226 24.3812 22.2226 26.1603C22.2226 27.9395 23.5205 29.6603 23.6955 29.8937C23.8705 30.1416 26.2476 33.7874 29.8643 35.3478C30.7247 35.727 31.3955 35.9458 31.9205 36.1062C32.7809 36.3833 33.5684 36.3395 34.1955 36.252C34.8955 36.1499 36.3393 35.377 36.6309 34.5312C36.9372 33.6853 36.9372 32.9708 36.8351 32.8103C36.733 32.6499 36.5143 32.577 36.1497 32.402Z" fill="white"/>
</svg>
