<svg width="196" height="63" viewBox="0 0 196 63" fill="none" xmlns="http://www.w3.org/2000/svg">
<path d="M0 27.9028V27.1884L3.33476 25.8271L13.1689 0H13.7132L23.0029 26.6778L26.1334 27.1884V27.9028H16.1293V27.1884L18.9195 26.7458L16.0272 18.6813H6.97577L4.21949 25.8271L7.28201 27.1884V27.9028H0ZM7.24801 17.9667H15.7891L11.7058 5.98887L7.24801 17.9667Z" fill="#C39E4B"/>
<path d="M50.1909 27.9028V27.1884L53.3216 26.6778V1.53134H47.7069L45.1209 8.26883H44.134V0.680614H66.286V8.26883H65.2651L62.7131 1.53134H57.0645V26.6778L60.1951 27.1884V27.9028H50.1909Z" fill="#C39E4B"/>
<path d="M88.7104 27.9028V27.1884L91.8411 26.6778V1.90555L88.7104 1.42923V0.68066H98.7147V1.42923L95.584 1.90555V27.086H105.758L108.548 19.6H109.467V27.9028L88.7104 27.9028Z" fill="#C39E4B"/>
<path d="M129.612 27.9028V27.1884L132.947 25.8271L142.781 0H143.325L152.614 26.6778L155.745 27.1884V27.9028H145.741V27.1884L148.531 26.7458L145.639 18.6813H136.587L133.831 25.8271L136.894 27.1884V27.9028H129.612ZM136.86 17.9667H145.401L141.318 5.98887L136.86 17.9667Z" fill="#C39E4B"/>
<path d="M181.198 26.7798L178.306 28.243H177.557V19.4978H178.306L181.232 25.8271C183.115 27.1659 185.269 27.8348 187.697 27.8348C189.693 27.8348 191.344 27.3071 192.648 26.2525C193.952 25.1975 194.605 23.7175 194.605 21.8117C194.605 20.4284 194.185 19.3337 193.346 18.5282C192.506 17.7231 191.145 17.082 189.263 16.6056L183.614 15.1425C181.641 14.6209 180.154 13.7302 179.156 12.4711C178.158 11.2122 177.659 9.72081 177.659 7.99662C177.659 6.43128 177.971 5.04198 178.595 3.82811C179.219 2.61488 180.131 1.67326 181.334 1.00388C182.536 0.334926 183.965 4.95911e-05 185.621 4.95911e-05C187.686 4.95911e-05 189.535 0.352113 191.168 1.05486L193.652 4.95911e-05H194.401V6.94182H193.652L191.202 1.97376C189.501 1.15703 187.652 0.748616 185.655 0.748616C183.682 0.748616 182.128 1.25382 180.994 2.26298C179.859 3.27256 179.292 4.60557 179.292 6.26117C179.292 7.4861 179.695 8.45064 180.5 9.15356C181.305 9.85689 182.491 10.4125 184.056 10.8209L190.147 12.4201C192.121 12.9194 193.589 13.7759 194.554 14.9893C195.518 16.203 196 18.0465 196 20.5187C196 23.0369 195.223 25.0104 193.669 26.4396C192.115 27.8688 190.034 28.5832 187.425 28.5832C185.315 28.5832 183.24 27.9822 181.198 26.7798Z" fill="#C39E4B"/>
<path d="M22.7901 62.6005V62.3893L23.7157 62.2382V54.9136L22.7901 54.7728V54.5513H28.8471V56.8554H28.5753L27.8007 54.8031H24.8225V58.4251H26.1305L26.7242 56.966H26.9856V60.1453H26.7242L26.1203 58.6666H24.8225V62.359H27.9818L28.8068 60.1453H29.0684V62.6005L22.7901 62.6005Z" fill="#2B200B"/>
<path d="M38.8681 62.6005V62.3893L39.8641 61.8259L42.1682 58.7469L39.6228 54.9136L38.7676 54.7728V54.5513H41.8162V54.7728L41.0213 54.8936L42.9732 57.8515L44.9151 55.2559L43.7178 54.7729V54.5514H46.1224V54.7729L45.1664 55.3059L43.1139 58.053L45.9011 62.2485L46.7664 62.3893V62.6005H43.7075V62.3893L44.5024 62.2583L42.3091 58.9581L40.0856 61.9164L41.2729 62.3892V62.6005L38.8681 62.6005Z" fill="#2B200B"/>
<path d="M56.1033 62.3893L57.029 62.2382V54.9136L56.1033 54.7728V54.5513H59.2626C60.2552 54.5513 60.9931 54.7626 61.4761 55.1851C61.9591 55.608 62.2005 56.2184 62.2005 57.0163C62.2005 57.8147 61.9591 58.4251 61.4761 58.8476C60.9931 59.2701 60.2552 59.4813 59.2626 59.4813H58.1358V62.2382L59.0614 62.3893V62.6006H56.1033L56.1033 62.3893ZM59.1218 59.2402C60.3627 59.2402 60.9831 58.5659 60.9831 57.2178V56.8153C60.9831 55.4737 60.3627 54.8031 59.1218 54.8031H58.1358V59.2402H59.1218Z" fill="#2B200B"/>
<path d="M72.1914 62.6005V62.3893L73.1171 62.2382V54.9136L72.1914 54.7728V54.5513H78.2485V56.8554H77.9767L77.2021 54.8031H74.2239V58.4251H75.5319L76.1255 56.966H76.3869V60.1453H76.1255L75.5217 58.6666H74.2239V62.359H77.3832L78.2082 60.1453H78.4698V62.6005L72.1914 62.6005Z" fill="#2B200B"/>
<path d="M93.6522 62.4294C93.4644 62.2485 93.3368 61.9397 93.2699 61.5037L93.0787 60.1556C93.0115 59.6995 92.8556 59.3425 92.6107 59.0842C92.3659 58.8259 91.9854 58.6969 91.4689 58.6969H90.6841V62.2382L91.6097 62.3893V62.6006H88.6516V62.3893L89.5773 62.2382V54.9137L88.6516 54.7729V54.5514H91.4689C92.562 54.5514 93.3535 54.7225 93.8434 55.0648C94.3329 55.4066 94.5779 55.9266 94.5779 56.6242C94.5779 57.7779 93.8801 58.4452 92.485 58.6261V58.6867C93.0015 58.7604 93.4158 58.945 93.7276 59.2402C94.0395 59.5354 94.2356 59.9276 94.3163 60.4172L94.4471 61.2827C94.5007 61.6581 94.5628 61.9132 94.6331 62.047C94.7036 62.1813 94.8125 62.2485 94.9601 62.2485C95.0608 62.2485 95.168 62.2165 95.2821 62.1527C95.3961 62.0892 95.5035 62.0069 95.6041 61.9062L95.7752 62.0876C95.5805 62.3086 95.3793 62.4662 95.1716 62.5604C94.9636 62.6541 94.7388 62.7012 94.4973 62.7012C94.1216 62.7012 93.8399 62.6108 93.6522 62.4294ZM91.811 58.4554C92.3005 58.4554 92.6812 58.306 92.953 58.0075C93.2246 57.709 93.3604 57.2681 93.3604 56.6843V56.4731C93.3604 55.3599 92.7299 54.8031 91.469 54.8031H90.6841V58.4554H91.811Z" fill="#2B200B"/>
<path d="M105.173 62.6005V62.3893L106.098 62.2382V54.9136L105.173 54.7728V54.5513H108.131V54.7728L107.205 54.9136V62.2382L108.131 62.3893V62.6005H105.173Z" fill="#2B200B"/>
<path d="M118.142 62.6005V62.3893L119.068 62.2382V54.9136L118.142 54.7728V54.5513H124.199V56.8554H123.927L123.153 54.8031H120.175V58.4251H121.483L122.076 56.966H122.337V60.1453H122.076L121.472 58.6666H120.175V62.359H123.334L124.159 60.1453H124.42V62.6005L118.142 62.6005Z" fill="#2B200B"/>
<path d="M134.632 62.6005V62.3893L135.568 61.9868V55.165L134.632 54.7728V54.5513H136.504L140.84 60.6285V55.1651L139.905 54.7729V54.5514H142.048V54.7729L141.092 55.1651V62.6005H140.84L135.82 55.5474V61.9869L136.785 62.3893V62.6006L134.632 62.6005Z" fill="#2B200B"/>
<path d="M153.86 62.2685C153.31 61.9131 152.885 61.4166 152.587 60.7795C152.289 60.1421 152.139 59.4076 152.139 58.5761C152.139 57.7446 152.292 57.0081 152.597 56.3674C152.902 55.7271 153.335 55.2305 153.895 54.8784C154.455 54.5263 155.101 54.3502 155.832 54.3502C156.12 54.3502 156.414 54.4006 156.712 54.5009C157.011 54.6016 157.281 54.7425 157.522 54.9238L158.196 54.3502H158.407V56.8455H158.196L157.572 55.2857C157.338 55.0712 157.064 54.9001 156.752 54.7727C156.441 54.6454 156.134 54.5815 155.832 54.5815C155.362 54.5815 154.948 54.7023 154.589 54.9439C154.23 55.185 153.95 55.5375 153.749 56.0001C153.548 56.4631 153.447 57.013 153.447 57.6504V59.4914C153.447 60.1289 153.545 60.6787 153.739 61.1413C153.934 61.6043 154.205 61.958 154.554 62.2029C154.903 62.4481 155.312 62.5701 155.782 62.5701C156.123 62.5701 156.466 62.4948 156.808 62.3437C157.15 62.193 157.435 61.99 157.663 61.735L158.246 60.1154H158.458V62.7011H158.246L157.522 62.1878C157.281 62.3826 157.006 62.5333 156.697 62.6406C156.388 62.7478 156.083 62.8019 155.781 62.8019C155.05 62.8019 154.41 62.6239 153.86 62.2685Z" fill="#2B200B"/>
<path d="M168.7 62.6005V62.3893L169.626 62.2382V54.9136L168.7 54.7728V54.5513H174.757V56.8554H174.485L173.711 54.8031H170.733V58.4251H172.041L172.635 56.966H172.896V60.1453H172.635L172.031 58.6666H170.733V62.359H173.892L174.717 60.1453H174.979V62.6005L168.7 62.6005Z" fill="#2B200B"/>
<path d="M89.3907 41.7936V43.191L18.1226 42.5389L89.3907 41.7936Z" fill="#C39E4B"/>
<path d="M108.549 41.7936V43.191L179.817 42.5389L108.549 41.7936Z" fill="#C39E4B"/>
<path d="M98.9697 37.1803C99.8803 39.6413 101.821 41.5817 104.282 42.4923C101.821 43.403 99.8803 45.3433 98.9697 47.8043C98.0591 45.3433 96.1187 43.403 93.6577 42.4923C96.1187 41.5817 98.0591 39.6413 98.9697 37.1803Z" fill="#C39E4B"/>
</svg>
