<svg width="196" height="63" viewBox="0 0 196 63" fill="none" xmlns="http://www.w3.org/2000/svg">
<path d="M0 27.903V27.1903L3.33277 25.8279L13.1676 0H13.7125L23.0023 26.6789L26.1339 27.1903V27.903H16.1314V27.1903L18.9234 26.7459L16.0308 18.6802H6.97994L4.22569 25.8279L7.29015 27.1903V27.903H0.0083861H0ZM7.24824 17.9676H15.7876L11.7045 5.99058L7.24824 17.9676Z" fill="#C39E4B"/>
<path d="M50.1882 27.903V27.1903L53.3198 26.6789V1.53433H47.7065L45.1199 8.27112H44.1348V0.683323H66.2861V8.27112H65.2632L62.7102 1.53433H57.0634V26.6789L60.1949 27.1903V27.903H50.1924H50.1882Z" fill="#C39E4B"/>
<path d="M88.7061 27.903V27.1903L91.8376 26.6789V1.90743L88.7061 1.42953V0.679127H98.7085V1.42953L95.577 1.90743V27.0855H105.751L108.543 19.5983H109.461V27.903H88.7061Z" fill="#C39E4B"/>
<path d="M129.609 27.903V27.1903L132.946 25.8279L142.781 0H143.326L152.615 26.6789L155.747 27.1903V27.903H145.744V27.1903L148.536 26.7459L145.644 18.6802H136.593L133.839 25.8279L136.899 27.1903V27.903H129.617H129.609ZM136.857 17.9676H145.397L141.313 5.99058L136.857 17.9676Z" fill="#C39E4B"/>
<path d="M181.193 26.7795L178.301 28.2425H177.55V19.4977H178.301L181.227 25.8279C183.109 27.1651 185.264 27.8359 187.691 27.8359C189.687 27.8359 191.338 27.3077 192.642 26.2554C193.946 25.199 194.6 23.7192 194.6 21.816C194.6 20.4325 194.181 19.3384 193.342 18.5335C192.504 17.7286 191.141 17.0872 189.259 16.6093L183.612 15.1462C181.638 14.6264 180.154 13.7335 179.156 12.4758C178.158 11.2182 177.659 9.7258 177.659 8.00282C177.659 6.43915 177.97 5.04735 178.594 3.83582C179.219 2.62428 180.133 1.68105 181.332 1.01031C182.535 0.339564 183.964 0.0083847 185.62 0.0083847C187.683 0.0083847 189.531 0.360521 191.166 1.0648L193.652 0.0083847H194.403V6.95059H193.652L191.204 1.98289C189.502 1.16542 187.653 0.758777 185.658 0.758777C183.662 0.758777 182.128 1.26603 180.996 2.27214C179.86 3.28245 179.294 4.61556 179.294 6.27146C179.294 7.49557 179.697 8.45976 180.502 9.16404C181.306 9.86833 182.493 10.4217 184.056 10.8325L190.148 12.4297C192.122 12.9286 193.589 13.7838 194.554 14.9995C195.518 16.2153 196 18.0556 196 20.529C196 23.0023 195.224 25.0188 193.669 26.4483C192.114 27.8778 190.035 28.5905 187.427 28.5905C185.318 28.5905 183.243 27.991 181.202 26.7879L181.193 26.7795Z" fill="#C39E4B"/>
<path d="M14.8359 62.6014V62.3918L15.7624 62.2409V54.9172L14.8359 54.7747V54.5525H20.8936V56.8582H20.6211L19.8456 54.804H16.8691V58.426H18.1771L18.7724 56.9672H19.0323V60.1448H18.7724L18.1687 58.665H16.8691V62.3583H20.03L20.8559 60.1448H21.1158V62.6014H14.8359Z" fill="#2B200B"/>
<path d="M30.9128 62.6014V62.3918L31.9106 61.8301L34.2162 58.753L31.6716 54.9214L30.8164 54.7789V54.5567H33.8641V54.7789L33.0676 54.9004L35.0211 57.8601L36.9621 55.2652L35.7631 54.7831V54.5609H38.1694V54.7831L37.2136 55.3155L35.1595 58.0613L37.9473 62.2577L38.8108 62.4002V62.6098H35.7506V62.4002L36.5471 62.2702L34.3546 58.971L32.1327 61.9307L33.3191 62.4044V62.614H30.9128V62.6014Z" fill="#2B200B"/>
<path d="M48.1465 62.3876L49.0729 62.2367V54.913L48.1465 54.7705V54.5483H51.3074C52.3009 54.5483 53.0387 54.7579 53.5208 55.1813C54.0029 55.6047 54.2461 56.2126 54.2461 57.0133C54.2461 57.814 54.0029 58.4219 53.5208 58.8453C53.0387 59.2687 52.3009 59.4783 51.3074 59.4783H50.1797V62.2367L51.1061 62.3876V62.5972H48.1465V62.3876ZM51.1648 59.2393C52.4057 59.2393 53.0261 58.5644 53.0261 57.2187V56.8163C53.0261 55.4748 52.4057 54.804 51.1648 54.804H50.1797V59.2393H51.1648Z" fill="#2B200B"/>
<path d="M64.2363 62.6014V62.3918L65.1628 62.2409V54.9172L64.2363 54.7747V54.5525H70.294V56.8582H70.0215L69.2459 54.804H66.2695V58.426H67.5775L68.1728 56.9672H68.4327V60.1448H68.1728L67.5691 58.665H66.2695V62.3583H69.4304L70.2563 60.1448H70.5162V62.6014H64.2363Z" fill="#2B200B"/>
<path d="M85.6961 62.4295C85.5074 62.2493 85.3817 61.9391 85.3146 61.5031L85.1217 60.1532C85.0547 59.6963 84.8996 59.3399 84.6522 59.08C84.4049 58.8201 84.0276 58.6943 83.512 58.6943H82.728V62.2367L83.6545 62.3876V62.5972H80.6948V62.3876L81.6213 62.2367V54.913L80.6948 54.7705V54.5483H83.512C84.6061 54.5483 85.3984 54.7202 85.8847 55.0597C86.3752 55.4035 86.6183 55.9233 86.6183 56.6192C86.6183 57.7721 85.9224 58.4386 84.5265 58.6231V58.6818C85.0421 58.7572 85.4571 58.9417 85.7673 59.2351C86.0776 59.5286 86.2746 59.9226 86.3542 60.4131L86.4842 61.2767C86.5387 61.654 86.6016 61.9055 86.6686 62.0397C86.7399 62.1738 86.8489 62.2409 86.9956 62.2409C87.0963 62.2409 87.2052 62.2074 87.3184 62.1445C87.4316 62.0816 87.5406 61.9978 87.6412 61.8971L87.8131 62.0774C87.6203 62.2996 87.419 62.4547 87.2094 62.5511C86.9998 62.6433 86.7776 62.6937 86.5345 62.6937C86.1572 62.6937 85.8763 62.6014 85.6877 62.4212L85.6961 62.4295ZM83.8557 58.4554C84.3462 58.4554 84.7277 58.3045 84.996 58.0068C85.2685 57.7092 85.4026 57.269 85.4026 56.6821V56.4725C85.4026 55.3574 84.7738 54.804 83.512 54.804H82.728V58.4554H83.8557Z" fill="#2B200B"/>
<path d="M97.2158 62.6014V62.3918L98.1423 62.2409V54.9172L97.2158 54.7747V54.5525H100.175V54.7747L99.249 54.9172V62.2409L100.175 62.3918V62.6014H97.2158Z" fill="#2B200B"/>
<path d="M110.182 62.6014V62.3918L111.109 62.2409V54.9172L110.182 54.7747V54.5525H116.24V56.8582H115.967L115.192 54.804H112.215V58.426H113.523L114.119 56.9672H114.378V60.1448H114.119L113.515 58.665H112.215V62.3583H115.376L116.202 60.1448H116.462V62.6014H110.182Z" fill="#2B200B"/>
<path d="M126.674 62.6014V62.3918L127.609 61.9894V55.1687L126.674 54.7747V54.5525H128.544L132.878 60.6311V55.1687L131.943 54.7747V54.5525H134.086V54.7747L133.13 55.1687V62.6056H132.878L127.856 55.5544V61.9936L128.82 62.396V62.6056H126.666L126.674 62.6014Z" fill="#2B200B"/>
<path d="M145.899 62.2702C145.35 61.9139 144.927 61.4192 144.625 60.782C144.327 60.1448 144.176 59.4112 144.176 58.577C144.176 57.7427 144.327 57.0091 144.633 56.3677C144.939 55.7263 145.371 55.2316 145.933 54.8795C146.495 54.5273 147.14 54.3513 147.87 54.3513C148.159 54.3513 148.452 54.4016 148.75 54.5022C149.048 54.6028 149.32 54.7453 149.559 54.9256L150.234 54.3513H150.444V56.8456H150.234L149.609 55.2861C149.375 55.0723 149.102 54.9004 148.788 54.7747C148.473 54.6489 148.167 54.5818 147.865 54.5818C147.396 54.5818 146.981 54.7034 146.624 54.9424C146.264 55.1855 145.987 55.5376 145.786 55.9988C145.585 56.4599 145.484 57.0133 145.484 57.6505V59.4908C145.484 60.1281 145.581 60.6772 145.778 61.1426C145.971 61.6037 146.243 61.96 146.591 62.2032C146.939 62.4463 147.35 62.5721 147.819 62.5721C148.163 62.5721 148.503 62.4966 148.846 62.3457C149.19 62.1948 149.475 61.9936 149.702 61.7378L150.284 60.1197H150.494V62.7062H150.284L149.559 62.1948C149.316 62.3876 149.043 62.5385 148.733 62.6475C148.423 62.7565 148.121 62.8068 147.819 62.8068C147.09 62.8068 146.448 62.6308 145.899 62.2744V62.2702Z" fill="#2B200B"/>
<path d="M160.74 62.6014V62.3918L161.666 62.2409V54.9172L160.74 54.7747V54.5525H166.797V56.8582H166.525L165.749 54.804H162.773V58.426H164.081L164.676 56.9672H164.936V60.1448H164.676L164.073 58.665H162.773V62.3583H165.934L166.76 60.1448H167.02V62.6014H160.74Z" fill="#2B200B"/>
<path d="M178.548 62.2702L177.693 62.702H177.471V60.1155H177.693L178.556 61.9852C179.114 62.3792 179.751 62.5805 180.468 62.5805C181.059 62.5805 181.545 62.4253 181.931 62.1109C182.317 61.7965 182.51 61.3606 182.51 60.7988C182.51 60.388 182.384 60.0652 182.137 59.8262C181.889 59.5873 181.487 59.3986 180.929 59.2561L179.261 58.8243C178.678 58.6692 178.238 58.4051 177.944 58.0362C177.651 57.6631 177.5 57.2229 177.5 56.7115C177.5 56.2503 177.592 55.8395 177.777 55.479C177.961 55.1184 178.229 54.8417 178.586 54.6447C178.942 54.4477 179.366 54.3471 179.852 54.3471C180.464 54.3471 181.009 54.4519 181.491 54.6573L182.225 54.3471H182.447V56.4012H182.225L181.499 54.934C180.996 54.6908 180.451 54.5735 179.86 54.5735C179.269 54.5735 178.816 54.7244 178.481 55.022C178.146 55.3196 177.978 55.7137 177.978 56.2042C177.978 56.5647 178.095 56.8498 178.334 57.0594C178.573 57.269 178.921 57.4325 179.387 57.5541L181.189 58.0278C181.772 58.1745 182.208 58.4302 182.493 58.7866C182.778 59.1471 182.921 59.6921 182.921 60.4215C182.921 61.1509 182.69 61.7504 182.233 62.1738C181.772 62.5972 181.16 62.8068 180.388 62.8068C179.764 62.8068 179.152 62.6308 178.548 62.2744V62.2702Z" fill="#2B200B"/>
<path d="M89.3848 41.7958V43.1918L18.1182 42.5378L89.3848 41.7958Z" fill="#C39E4B"/>
<path d="M108.543 41.7958V43.1918L179.81 42.5378L108.543 41.7958Z" fill="#C39E4B"/>
<path d="M98.9643 37.1802C99.874 39.641 101.815 41.582 104.276 42.4917C101.815 43.4014 99.874 45.3423 98.9643 47.8031C98.0546 45.3423 96.1136 43.4014 93.6528 42.4917C96.1136 41.582 98.0546 39.641 98.9643 37.1802Z" fill="#C39E4B"/>
</svg>
