<svg width="196" height="63" viewBox="0 0 196 63" fill="none" xmlns="http://www.w3.org/2000/svg">
<path d="M0 27.9028V27.1884L3.33476 25.8271L13.1689 0H13.7132L23.0029 26.6778L26.1334 27.1884V27.9028H16.1293V27.1884L18.9195 26.7458L16.0272 18.6813H6.97577L4.21949 25.8271L7.28201 27.1884V27.9028H0ZM7.24801 17.9667H15.7891L11.7058 5.98887L7.24801 17.9667Z" fill="white"/>
<path d="M50.191 27.9028V27.1884L53.3217 26.6778V1.53134H47.707L45.121 8.26883H44.1342V0.680614H66.2861V8.26883H65.2652L62.7133 1.53134H57.0646V26.6778L60.1953 27.1884V27.9028H50.191Z" fill="white"/>
<path d="M88.7104 27.9028V27.1884L91.8411 26.6778V1.90555L88.7104 1.42923V0.68066H98.7147V1.42923L95.584 1.90555V27.086H105.758L108.548 19.6H109.467V27.9028L88.7104 27.9028Z" fill="white"/>
<path d="M129.612 27.9028V27.1884L132.947 25.8271L142.781 0H143.325L152.614 26.6778L155.745 27.1884V27.9028H145.741V27.1884L148.531 26.7458L145.639 18.6813H136.587L133.831 25.8271L136.894 27.1884V27.9028H129.612ZM136.86 17.9667H145.401L141.317 5.98887L136.86 17.9667Z" fill="white"/>
<path d="M181.198 26.7798L178.305 28.243H177.557V19.4978H178.305L181.232 25.8271C183.115 27.1659 185.269 27.8348 187.697 27.8348C189.693 27.8348 191.344 27.3071 192.648 26.2525C193.952 25.1975 194.605 23.7175 194.605 21.8117C194.605 20.4284 194.185 19.3337 193.346 18.5282C192.506 17.7231 191.145 17.082 189.263 16.6056L183.614 15.1425C181.64 14.6209 180.154 13.7302 179.156 12.4711C178.158 11.2122 177.659 9.72081 177.659 7.99662C177.659 6.43128 177.971 5.04198 178.595 3.82811C179.218 2.61488 180.131 1.67326 181.334 1.00388C182.536 0.334926 183.965 4.95911e-05 185.621 4.95911e-05C187.686 4.95911e-05 189.535 0.352113 191.168 1.05486L193.652 4.95911e-05H194.401V6.94182H193.652L191.202 1.97376C189.5 1.15703 187.652 0.748616 185.655 0.748616C183.682 0.748616 182.128 1.25382 180.994 2.26298C179.859 3.27256 179.292 4.60557 179.292 6.26117C179.292 7.4861 179.695 8.45064 180.5 9.15356C181.305 9.85689 182.491 10.4125 184.056 10.8209L190.147 12.4201C192.121 12.9194 193.589 13.7759 194.554 14.9893C195.518 16.203 196 18.0465 196 20.5187C196 23.0369 195.223 25.0104 193.669 26.4396C192.115 27.8688 190.033 28.5832 187.425 28.5832C185.315 28.5832 183.239 27.9822 181.198 26.7798Z" fill="white"/>
<path d="M22.79 62.6005V62.3893L23.7156 62.2382V54.9136L22.79 54.7728V54.5513H28.847V56.8554H28.5752L27.8006 54.8031H24.8224V58.4251H26.1305L26.7241 56.966H26.9855V60.1453H26.7241L26.1202 58.6666H24.8224V62.359H27.9817L28.8067 60.1453H29.0683V62.6005L22.79 62.6005Z" fill="white"/>
<path d="M38.8681 62.6005V62.3893L39.8642 61.8259L42.1683 58.7469L39.6228 54.9136L38.7676 54.7728V54.5513H41.8162V54.7728L41.0214 54.8936L42.9732 57.8515L44.9152 55.2559L43.7179 54.7729V54.5514H46.1225V54.7729L45.1665 55.3059L43.114 58.053L45.9012 62.2485L46.7664 62.3893V62.6005H43.7076V62.3893L44.5025 62.2583L42.3091 58.9581L40.0857 61.9164L41.2729 62.3892V62.6005L38.8681 62.6005Z" fill="white"/>
<path d="M56.1032 62.3893L57.0288 62.2382V54.9136L56.1032 54.7728V54.5513H59.2625C60.2551 54.5513 60.993 54.7626 61.4759 55.1851C61.959 55.608 62.2003 56.2184 62.2003 57.0163C62.2003 57.8147 61.959 58.4251 61.4759 58.8476C60.993 59.2701 60.2551 59.4813 59.2625 59.4813H58.1356V62.2382L59.0613 62.3893V62.6006H56.1031L56.1032 62.3893ZM59.1217 59.2402C60.3626 59.2402 60.983 58.5659 60.983 57.2178V56.8153C60.983 55.4737 60.3626 54.8031 59.1217 54.8031H58.1356V59.2402H59.1217Z" fill="white"/>
<path d="M72.1913 62.6005V62.3893L73.117 62.2382V54.9136L72.1913 54.7728V54.5513H78.2484V56.8554H77.9765L77.2019 54.8031H74.2238V58.4251H75.5318L76.1254 56.966H76.3868V60.1453H76.1254L75.5216 58.6666H74.2238V62.359H77.3831L78.208 60.1453H78.4696V62.6005L72.1913 62.6005Z" fill="white"/>
<path d="M93.6524 62.4294C93.4645 62.2485 93.3369 61.9397 93.27 61.5037L93.0788 60.1556C93.0116 59.6995 92.8557 59.3425 92.6108 59.0842C92.366 58.8259 91.9855 58.6969 91.469 58.6969H90.6842V62.2382L91.6099 62.3893V62.6006H88.6517V62.3893L89.5774 62.2382V54.9137L88.6517 54.7729V54.5514H91.469C92.5621 54.5514 93.3537 54.7225 93.8435 55.0648C94.333 55.4066 94.578 55.9266 94.578 56.6242C94.578 57.7779 93.8802 58.4452 92.4852 58.6261V58.6867C93.0016 58.7604 93.4159 58.945 93.7277 59.2402C94.0396 59.5354 94.2358 59.9276 94.3164 60.4172L94.4472 61.2827C94.5008 61.6581 94.5629 61.9132 94.6333 62.047C94.7037 62.1813 94.8126 62.2485 94.9602 62.2485C95.0609 62.2485 95.1682 62.2165 95.2822 62.1527C95.3962 62.0892 95.5037 62.0069 95.6042 61.9062L95.7753 62.0876C95.5806 62.3086 95.3794 62.4662 95.1717 62.5604C94.9637 62.6541 94.739 62.7012 94.4974 62.7012C94.1218 62.7012 93.8401 62.6108 93.6524 62.4294ZM91.8111 58.4554C92.3006 58.4554 92.6813 58.306 92.9531 58.0075C93.2248 57.709 93.3605 57.2681 93.3605 56.6843V56.4731C93.3605 55.3599 92.73 54.8031 91.4691 54.8031H90.6843V58.4554H91.8111Z" fill="white"/>
<path d="M105.173 62.6005V62.3893L106.099 62.2382V54.9136L105.173 54.7728V54.5513H108.131V54.7728L107.205 54.9136V62.2382L108.131 62.3893V62.6005H105.173Z" fill="white"/>
<path d="M118.142 62.6005V62.3893L119.067 62.2382V54.9136L118.142 54.7728V54.5513H124.199V56.8554H123.927L123.152 54.8031H120.174V58.4251H121.483L122.076 56.966H122.337V60.1453H122.076L121.472 58.6666H120.174V62.359H123.334L124.159 60.1453H124.42V62.6005L118.142 62.6005Z" fill="white"/>
<path d="M134.632 62.6005V62.3893L135.568 61.9868V55.165L134.632 54.7728V54.5513H136.504L140.84 60.6285V55.1651L139.905 54.7729V54.5514H142.048V54.7729L141.092 55.1651V62.6005H140.84L135.82 55.5474V61.9869L136.785 62.3893V62.6006L134.632 62.6005Z" fill="white"/>
<path d="M153.86 62.2685C153.31 61.9131 152.885 61.4166 152.587 60.7795C152.289 60.1421 152.139 59.4076 152.139 58.5761C152.139 57.7446 152.292 57.0081 152.597 56.3674C152.902 55.7271 153.335 55.2305 153.895 54.8784C154.455 54.5263 155.101 54.3502 155.832 54.3502C156.12 54.3502 156.414 54.4006 156.712 54.5009C157.011 54.6016 157.281 54.7425 157.522 54.9238L158.196 54.3502H158.407V56.8455H158.196L157.572 55.2857C157.338 55.0712 157.064 54.9001 156.752 54.7727C156.441 54.6454 156.134 54.5815 155.832 54.5815C155.362 54.5815 154.948 54.7023 154.589 54.9439C154.23 55.185 153.95 55.5375 153.749 56.0001C153.548 56.4631 153.447 57.013 153.447 57.6504V59.4914C153.447 60.1289 153.544 60.6787 153.739 61.1413C153.933 61.6043 154.205 61.958 154.554 62.2029C154.902 62.4481 155.312 62.5701 155.781 62.5701C156.123 62.5701 156.466 62.4948 156.808 62.3437C157.15 62.193 157.435 61.99 157.663 61.735L158.246 60.1154H158.458V62.7011H158.246L157.522 62.1878C157.281 62.3826 157.006 62.5333 156.697 62.6406C156.388 62.7478 156.083 62.8019 155.781 62.8019C155.05 62.8019 154.41 62.6239 153.86 62.2685Z" fill="white"/>
<path d="M168.7 62.6005V62.3893L169.626 62.2382V54.9136L168.7 54.7728V54.5513H174.757V56.8554H174.485L173.711 54.8031H170.733V58.4251H172.041L172.634 56.966H172.896V60.1453H172.634L172.031 58.6666H170.733V62.359H173.892L174.717 60.1453H174.979V62.6005L168.7 62.6005Z" fill="white"/>
<path d="M89.3906 41.7936V43.191L18.1225 42.5389L89.3906 41.7936Z" fill="white"/>
<path d="M108.549 41.7936V43.191L179.817 42.5389L108.549 41.7936Z" fill="white"/>
<path d="M98.9698 37.1803C99.8804 39.6413 101.821 41.5817 104.282 42.4923C101.821 43.403 99.8804 45.3433 98.9698 47.8043C98.0591 45.3433 96.1187 43.403 93.6578 42.4923C96.1188 41.5817 98.0591 39.6413 98.9698 37.1803Z" fill="white"/>
</svg>
