<svg width="196" height="63" viewBox="0 0 196 63" fill="none" xmlns="http://www.w3.org/2000/svg">
<path d="M0 27.9028V27.1884L3.33476 25.8271L13.1689 0H13.7132L23.0029 26.6778L26.1334 27.1884V27.9028H16.1293V27.1884L18.9195 26.7458L16.0272 18.6813H6.97577L4.21949 25.8271L7.28201 27.1884V27.9028H0ZM7.24801 17.9667H15.7891L11.7058 5.98887L7.24801 17.9667Z" fill="#C39E4B"/>
<path d="M50.1907 27.9028V27.1884L53.3213 26.6778V1.53134H47.7066L45.1206 8.26883H44.1338V0.680614H66.2857V8.26883H65.2649L62.7129 1.53134H57.0642V26.6778L60.1949 27.1884V27.9028H50.1907Z" fill="#C39E4B"/>
<path d="M88.71 27.9028V27.1884L91.8406 26.6778V1.90555L88.71 1.42923V0.68066H98.7142V1.42923L95.5836 1.90555V27.086H105.758L108.548 19.6H109.467V27.9028L88.71 27.9028Z" fill="#C39E4B"/>
<path d="M129.611 27.9028V27.1884L132.946 25.8271L142.78 0H143.325L152.614 26.6778L155.745 27.1884V27.9028H145.741V27.1884L148.531 26.7458L145.639 18.6813H136.587L133.831 25.8271L136.893 27.1884V27.9028H129.611ZM136.859 17.9667H145.401L141.317 5.98887L136.859 17.9667Z" fill="#C39E4B"/>
<path d="M181.197 26.7798L178.305 28.243H177.557V19.4978H178.305L181.231 25.8271C183.114 27.1659 185.269 27.8348 187.697 27.8348C189.693 27.8348 191.343 27.3071 192.648 26.2525C193.952 25.1975 194.604 23.7175 194.604 21.8117C194.604 20.4284 194.184 19.3337 193.346 18.5282C192.506 17.7231 191.145 17.082 189.262 16.6056L183.613 15.1425C181.64 14.6209 180.154 13.7302 179.156 12.4711C178.157 11.2122 177.659 9.72081 177.659 7.99662C177.659 6.43128 177.97 5.04198 178.595 3.82811C179.218 2.61488 180.131 1.67326 181.333 1.00388C182.536 0.334926 183.965 4.95911e-05 185.621 4.95911e-05C187.685 4.95911e-05 189.534 0.352113 191.168 1.05486L193.652 4.95911e-05H194.4V6.94182H193.652L191.202 1.97376C189.5 1.15703 187.651 0.748616 185.655 0.748616C183.682 0.748616 182.127 1.25382 180.993 2.26298C179.859 3.27256 179.292 4.60557 179.292 6.26117C179.292 7.4861 179.695 8.45064 180.5 9.15356C181.305 9.85689 182.49 10.4125 184.056 10.8209L190.147 12.4201C192.12 12.9194 193.589 13.7759 194.553 14.9893C195.517 16.203 196 18.0465 196 20.5187C196 23.0369 195.222 25.0104 193.669 26.4396C192.114 27.8688 190.033 28.5832 187.424 28.5832C185.315 28.5832 183.239 27.9822 181.197 26.7798Z" fill="#C39E4B"/>
<path d="M22.7901 62.6005V62.3893L23.7157 62.2382V54.9136L22.7901 54.7728V54.5513H28.8471V56.8554H28.5753L27.8007 54.8031H24.8225V58.4251H26.1305L26.7242 56.966H26.9856V60.1453H26.7242L26.1203 58.6666H24.8225V62.359H27.9818L28.8068 60.1453H29.0684V62.6005L22.7901 62.6005Z" fill="#2B200B"/>
<path d="M38.8681 62.6005V62.3893L39.8641 61.8259L42.1682 58.7469L39.6228 54.9136L38.7676 54.7728V54.5513H41.8162V54.7728L41.0213 54.8936L42.9732 57.8515L44.9151 55.2559L43.7178 54.7729V54.5514H46.1224V54.7729L45.1664 55.3059L43.1139 58.053L45.9011 62.2485L46.7664 62.3893V62.6005H43.7075V62.3893L44.5024 62.2583L42.3091 58.9581L40.0856 61.9164L41.2729 62.3892V62.6005L38.8681 62.6005Z" fill="#2B200B"/>
<path d="M56.1036 62.3893L57.0292 62.2382V54.9136L56.1036 54.7728V54.5513H59.2629C60.2555 54.5513 60.9934 54.7626 61.4763 55.1851C61.9594 55.608 62.2007 56.2184 62.2007 57.0163C62.2007 57.8147 61.9594 58.4251 61.4763 58.8476C60.9934 59.2701 60.2555 59.4813 59.2629 59.4813H58.136V62.2382L59.0617 62.3893V62.6006H56.1035L56.1036 62.3893ZM59.1221 59.2402C60.363 59.2402 60.9834 58.5659 60.9834 57.2178V56.8153C60.9834 55.4737 60.3629 54.8031 59.1221 54.8031H58.136V59.2402H59.1221Z" fill="#2B200B"/>
<path d="M72.1914 62.6005V62.3893L73.1171 62.2382V54.9136L72.1914 54.7728V54.5513H78.2485V56.8554H77.9767L77.2021 54.8031H74.2239V58.4251H75.5319L76.1255 56.966H76.3869V60.1453H76.1255L75.5217 58.6666H74.2239V62.359H77.3832L78.2082 60.1453H78.4698V62.6005L72.1914 62.6005Z" fill="#2B200B"/>
<path d="M93.652 62.4294C93.4641 62.2485 93.3366 61.9397 93.2696 61.5037L93.0784 60.1556C93.0113 59.6995 92.8553 59.3425 92.6105 59.0842C92.3657 58.8259 91.9851 58.6969 91.4687 58.6969H90.6839V62.2382L91.6095 62.3893V62.6006H88.6514V62.3893L89.577 62.2382V54.9137L88.6514 54.7729V54.5514H91.4686C92.5617 54.5514 93.3533 54.7225 93.8432 55.0648C94.3326 55.4066 94.5776 55.9266 94.5776 56.6242C94.5776 57.7779 93.8798 58.4452 92.4848 58.6261V58.6867C93.0012 58.7604 93.4156 58.945 93.7273 59.2402C94.0393 59.5354 94.2354 59.9276 94.3161 60.4172L94.4469 61.2827C94.5005 61.6581 94.5625 61.9132 94.6329 62.047C94.7033 62.1813 94.8122 62.2485 94.9598 62.2485C95.0605 62.2485 95.1678 62.2165 95.2818 62.1527C95.3959 62.0892 95.5033 62.0069 95.6038 61.9062L95.775 62.0876C95.5803 62.3086 95.3791 62.4662 95.1713 62.5604C94.9633 62.6541 94.7386 62.7012 94.497 62.7012C94.1214 62.7012 93.8397 62.6108 93.652 62.4294ZM91.8108 58.4554C92.3002 58.4554 92.681 58.306 92.9528 58.0075C93.2244 57.709 93.3601 57.2681 93.3601 56.6843V56.4731C93.3601 55.3599 92.7297 54.8031 91.4687 54.8031H90.6839V58.4554H91.8108Z" fill="#2B200B"/>
<path d="M105.173 62.6005V62.3893L106.098 62.2382V54.9136L105.173 54.7728V54.5513H108.131V54.7728L107.205 54.9136V62.2382L108.131 62.3893V62.6005H105.173Z" fill="#2B200B"/>
<path d="M118.142 62.6005V62.3893L119.067 62.2382V54.9136L118.142 54.7728V54.5513H124.199V56.8554H123.927L123.152 54.8031H120.174V58.4251H121.482L122.076 56.966H122.337V60.1453H122.076L121.472 58.6666H120.174V62.359H123.334L124.159 60.1453H124.42V62.6005L118.142 62.6005Z" fill="#2B200B"/>
<path d="M134.633 62.6005V62.3893L135.569 61.9868V55.165L134.633 54.7728V54.5513H136.504L140.841 60.6285V55.1651L139.905 54.7729V54.5514H142.048V54.7729L141.092 55.1651V62.6005H140.841L135.82 55.5474V61.9869L136.786 62.3893V62.6006L134.633 62.6005Z" fill="#2B200B"/>
<path d="M153.859 62.2685C153.309 61.9131 152.885 61.4166 152.587 60.7795C152.288 60.1421 152.139 59.4076 152.139 58.5761C152.139 57.7446 152.291 57.0081 152.597 56.3674C152.902 55.7271 153.335 55.2305 153.895 54.8784C154.455 54.5263 155.1 54.3502 155.831 54.3502C156.12 54.3502 156.413 54.4006 156.712 54.5009C157.01 54.6016 157.28 54.7425 157.522 54.9238L158.196 54.3502H158.407V56.8455H158.196L157.572 55.2857C157.337 55.0712 157.064 54.9001 156.752 54.7727C156.44 54.6454 156.133 54.5815 155.831 54.5815C155.362 54.5815 154.948 54.7023 154.589 54.9439C154.23 55.185 153.95 55.5375 153.749 56.0001C153.547 56.4631 153.447 57.013 153.447 57.6504V59.4914C153.447 60.1289 153.544 60.6787 153.739 61.1413C153.933 61.6043 154.204 61.958 154.554 62.2029C154.902 62.4481 155.311 62.5701 155.781 62.5701C156.123 62.5701 156.465 62.4948 156.807 62.3437C157.149 62.193 157.434 61.99 157.663 61.735L158.246 60.1154H158.457V62.7011H158.246L157.522 62.1878C157.28 62.3826 157.005 62.5333 156.696 62.6406C156.388 62.7478 156.083 62.8019 155.781 62.8019C155.05 62.8019 154.409 62.6239 153.859 62.2685Z" fill="#2B200B"/>
<path d="M168.7 62.6005V62.3893L169.626 62.2382V54.9136L168.7 54.7728V54.5513H174.757V56.8554H174.485L173.711 54.8031H170.733V58.4251H172.041L172.635 56.966H172.896V60.1453H172.635L172.031 58.6666H170.733V62.359H173.892L174.717 60.1453H174.979V62.6005L168.7 62.6005Z" fill="#2B200B"/>
<path d="M89.3902 41.7936V43.191L18.1221 42.5389L89.3902 41.7936Z" fill="#C39E4B"/>
<path d="M108.549 41.7936V43.191L179.817 42.5389L108.549 41.7936Z" fill="#C39E4B"/>
<path d="M98.9702 37.1803C99.8808 39.6413 101.821 41.5817 104.282 42.4923C101.821 43.403 99.8808 45.3433 98.9702 47.8043C98.0595 45.3433 96.1192 43.403 93.6582 42.4923C96.1192 41.5817 98.0595 39.6413 98.9702 37.1803Z" fill="#C39E4B"/>
</svg>
